<svg xmlns="http://www.w3.org/2000/svg" height="1536" width="1024" version="1.1" id="svg"><path fill-rule="evenodd" fill="black" stroke="none" d="M502.024 172.603 C 489.507 175.967,481.630 183.647,473.459 200.453 C 468.031 211.619,464.769 222.635,461.602 240.500 C 459.498 252.367,456.020 283.964,456.009 291.311 L 456.000 297.123 451.750 296.603 C 449.413 296.317,444.575 295.820,441.000 295.499 C 437.425 295.179,426.400 293.825,416.500 292.490 C 382.835 287.953,366.377 288.677,345.269 295.624 C 316.599 305.059,293.274 322.890,273.486 350.500 C 265.716 361.343,255.024 382.332,251.330 393.999 C 249.850 398.674,247.199 404.524,245.439 406.999 C 238.532 416.714,237.506 419.690,237.503 430.000 C 237.500 438.297,237.854 440.266,240.297 445.551 L 243.094 451.602 234.438 464.551 C 205.040 508.529,184.785 552.633,172.460 599.500 C 163.302 634.327,162.018 645.821,161.397 698.500 C 160.990 733.007,160.510 744.364,158.968 756.000 C 150.224 821.994,146.340 903.523,147.345 1000.000 C 148.127 1075.171,149.639 1110.018,155.025 1177.000 C 157.308 1205.398,161.705 1245.827,163.095 1251.205 C 166.434 1264.122,186.291 1272.750,228.000 1279.404 C 246.306 1282.324,254.221 1283.060,309.000 1286.936 C 380.591 1292.001,383.481 1291.974,426.000 1285.821 L 447.500 1282.710 469.000 1283.866 C 496.334 1285.336,539.554 1285.346,561.500 1283.888 C 577.837 1282.803,579.144 1282.860,595.000 1285.344 C 620.563 1289.350,635.830 1290.359,660.500 1289.676 C 672.600 1289.340,688.350 1288.607,695.500 1288.046 C 702.650 1287.485,721.775 1286.103,738.000 1284.975 C 785.927 1281.642,809.502 1278.346,830.875 1271.992 C 843.117 1268.352,849.648 1265.216,854.933 1260.441 C 861.647 1254.376,861.555 1254.776,865.922 1212.500 C 868.060 1191.804,868.140 1190.839,870.977 1152.000 C 878.606 1047.566,878.968 925.102,871.940 827.000 C 870.449 806.192,866.257 765.602,864.090 751.000 C 862.698 741.621,862.353 735.004,862.708 724.500 C 863.382 704.561,861.371 651.487,859.469 639.000 C 854.185 604.313,842.903 566.921,826.883 531.001 C 816.196 507.038,797.039 473.405,785.065 457.586 L 780.398 451.421 783.296 445.193 C 789.017 432.895,787.966 421.616,779.984 409.648 C 777.168 405.427,773.981 398.801,772.199 393.466 C 759.990 356.903,737.179 327.836,704.911 307.724 C 693.649 300.705,671.929 293.070,657.519 291.066 C 642.869 289.028,588.564 290.574,571.326 293.520 L 568.152 294.062 567.617 288.781 C 567.322 285.876,566.824 279.675,566.509 275.000 C 564.824 249.990,557.894 217.388,551.232 203.136 C 542.549 184.560,533.370 175.473,520.147 172.360 C 513.047 170.689,508.942 170.744,502.024 172.603 M523.266 181.575 C 525.809 182.441,529.857 184.883,532.262 187.000 C 536.389 190.632,536.758 191.403,538.811 200.675 C 542.588 217.735,543.394 225.932,543.414 247.500 C 543.432 266.958,542.446 279.104,539.873 291.140 L 538.882 295.780 532.691 296.360 C 529.286 296.679,517.475 297.233,506.445 297.590 L 486.390 298.241 485.241 291.870 C 482.099 274.448,481.502 266.325,481.538 241.500 C 481.573 218.321,481.822 214.371,483.838 205.099 C 485.082 199.378,486.717 193.221,487.471 191.415 C 488.949 187.879,494.600 183.619,500.703 181.442 C 505.895 179.590,517.644 179.659,523.266 181.575 M474.149 235.749 C 473.787 255.044,474.952 272.838,477.594 288.366 C 478.423 293.242,478.964 297.369,478.795 297.538 C 478.627 297.707,474.876 297.597,470.460 297.294 L 462.432 296.744 463.644 281.788 C 464.769 267.914,466.665 253.332,469.079 240.000 C 470.065 234.550,474.096 217.001,474.362 216.999 C 474.438 216.999,474.342 225.437,474.149 235.749 M553.383 233.158 C 557.968 255.660,562.038 292.298,560.157 294.145 C 559.796 294.500,556.449 294.972,552.720 295.194 C 547.483 295.507,546.052 295.306,546.434 294.313 C 546.705 293.605,547.712 287.958,548.672 281.763 C 550.519 269.844,551.203 232.859,549.778 222.000 C 548.643 213.351,550.547 219.245,553.383 233.158 M654.828 297.654 C 658.985 298.119,660.355 298.717,661.058 300.375 C 662.304 303.312,672.369 352.545,675.983 373.378 C 681.081 402.762,682.088 412.641,682.694 439.207 L 683.281 464.915 680.891 465.921 C 677.481 467.356,661.371 470.587,648.500 472.417 C 624.876 475.776,609.665 476.858,548.750 479.511 L 535.000 480.110 535.001 472.805 L 535.002 465.500 511.501 465.785 L 488.000 466.070 488.000 473.050 L 488.000 480.029 473.750 479.468 C 414.309 477.130,387.894 474.670,354.750 468.383 L 341.000 465.774 341.010 447.637 C 341.021 428.579,342.023 413.453,344.596 393.500 C 346.163 381.350,357.069 325.399,361.250 308.060 C 363.492 298.764,363.580 298.606,367.013 297.704 C 372.560 296.246,404.018 297.543,419.000 299.846 C 440.687 303.181,450.847 303.982,480.000 304.657 C 509.689 305.344,537.884 304.180,568.500 301.005 C 586.031 299.186,609.868 297.260,623.000 296.602 C 630.437 296.228,646.973 296.775,654.828 297.654 M355.593 301.750 C 354.660 304.760,346.266 343.872,343.627 357.500 C 337.610 388.582,335.222 409.857,334.341 440.250 C 333.896 455.570,333.325 463.000,332.593 463.000 C 329.522 463.000,312.859 456.605,312.065 455.122 C 311.563 454.184,310.247 448.710,309.139 442.958 C 301.714 404.381,304.846 364.566,317.711 334.000 C 321.378 325.288,329.936 310.128,332.289 308.175 C 333.526 307.148,353.551 300.054,355.317 300.017 C 355.767 300.008,355.891 300.788,355.593 301.750 M692.026 309.524 C 695.083 312.290,702.728 325.937,706.600 335.539 C 714.886 356.087,718.238 375.133,718.297 402.000 C 718.339 420.950,716.256 440.909,712.957 453.159 C 711.893 457.111,711.133 457.472,691.500 463.370 C 689.541 463.959,689.499 463.495,689.458 440.735 C 689.395 405.409,687.208 390.650,668.970 302.500 C 668.856 301.950,668.816 301.224,668.882 300.886 C 669.081 299.851,689.941 307.636,692.026 309.524 M315.467 321.281 C 304.518 340.870,297.116 378.409,298.368 408.000 C 298.954 421.867,302.240 448.961,303.602 451.166 C 306.503 455.859,271.870 436.114,263.354 428.219 C 258.536 423.752,256.713 419.352,256.217 410.990 C 255.833 404.533,256.202 402.191,258.848 394.294 C 268.077 366.749,288.374 338.275,311.000 321.134 C 314.575 318.426,317.619 316.319,317.765 316.453 C 317.910 316.586,316.876 318.759,315.467 321.281 M721.394 328.580 C 735.551 340.638,747.656 356.540,756.931 375.264 C 764.904 391.361,767.049 397.812,767.720 407.707 C 768.488 419.025,765.902 424.435,756.286 431.632 C 745.818 439.466,721.446 453.909,720.537 452.817 C 720.392 452.643,721.070 447.775,722.045 442.000 C 729.301 399.000,724.559 354.474,709.638 325.500 C 707.372 321.100,705.340 317.090,705.122 316.590 C 704.529 315.224,713.313 321.697,721.394 328.580 M251.905 424.766 C 255.989 432.669,270.767 443.628,291.656 454.244 C 319.202 468.243,346.705 475.610,389.500 480.450 C 414.255 483.250,453.450 485.760,477.750 486.102 L 488.000 486.247 488.000 498.649 L 488.000 511.051 474.250 510.478 C 409.320 507.776,378.022 504.793,347.895 498.436 C 326.241 493.867,302.128 485.059,288.984 476.917 C 277.539 469.828,258.903 456.718,253.991 452.302 C 243.720 443.067,240.827 430.964,246.040 419.040 L 248.427 413.580 249.201 417.305 C 249.627 419.355,250.844 422.712,251.905 424.766 M778.448 421.460 C 781.859 434.562,779.290 443.957,770.019 452.293 C 761.871 459.619,737.314 476.057,726.183 481.636 C 707.235 491.134,672.594 500.855,645.000 504.418 C 618.603 507.827,537.866 511.980,535.716 510.039 C 535.284 509.650,535.059 504.194,535.216 497.916 L 535.500 486.500 546.000 486.291 C 576.452 485.683,624.538 482.399,646.500 479.426 C 680.877 474.773,711.004 466.050,733.000 454.380 C 745.402 447.801,763.054 435.789,767.414 430.963 C 771.637 426.289,774.945 419.767,774.978 416.050 C 775.013 412.163,776.722 414.827,778.448 421.460 M265.827 469.798 L 268.153 471.500 261.675 485.572 C 254.357 501.466,244.345 527.580,241.002 539.493 C 239.406 545.182,237.553 549.032,234.510 552.987 C 221.929 569.337,206.305 596.820,196.056 620.630 C 187.152 641.316,180.312 661.594,173.537 687.392 C 170.519 698.882,167.926 708.408,167.775 708.561 C 167.624 708.713,167.615 699.086,167.755 687.169 C 168.172 651.638,169.876 637.205,177.100 608.000 C 189.475 557.970,212.035 508.275,240.532 468.272 L 248.330 457.324 255.915 462.711 C 260.087 465.673,264.547 468.863,265.827 469.798 M788.200 475.000 C 809.775 506.436,830.663 551.545,842.378 592.000 C 851.721 624.265,854.936 645.998,855.541 681.000 C 856.036 709.672,856.676 709.568,849.403 682.000 C 839.662 645.074,827.360 614.696,809.717 584.000 C 803.203 572.668,793.614 557.925,788.579 551.500 C 786.855 549.300,784.400 544.125,783.124 540.000 C 776.247 517.768,765.076 488.869,757.985 474.971 L 756.011 471.102 765.020 464.932 C 769.975 461.538,774.285 458.348,774.597 457.844 C 775.239 456.805,778.767 461.254,788.200 475.000 M528.770 493.250 L 529.041 514.000 512.020 514.000 L 495.000 514.000 495.000 493.667 C 495.000 482.483,495.311 473.023,495.691 472.643 C 496.070 472.263,503.608 472.076,512.441 472.226 L 528.500 472.500 528.770 493.250 M752.913 480.828 C 762.671 500.157,774.961 533.777,780.394 556.000 C 786.244 579.931,791.091 612.418,793.080 641.037 C 793.709 650.092,794.388 658.073,794.589 658.773 C 795.159 660.758,797.861 661.360,799.626 659.895 C 800.987 658.766,801.126 657.062,800.555 648.533 C 798.935 624.334,792.997 579.450,790.063 569.218 C 788.739 564.603,789.994 565.267,793.939 571.268 C 807.334 591.648,821.665 619.940,830.021 642.500 C 840.789 671.571,852.342 716.505,856.890 747.000 C 870.103 835.590,874.304 978.003,867.482 1106.000 C 865.971 1134.355,862.295 1187.155,861.457 1192.553 C 861.012 1195.424,860.372 1195.825,850.766 1199.244 C 845.146 1201.245,840.397 1202.730,840.211 1202.544 C 840.025 1202.358,841.009 1198.447,842.398 1193.853 C 853.781 1156.192,860.828 1103.141,864.097 1030.500 C 866.718 972.277,860.602 862.791,851.446 804.000 C 849.354 790.569,844.711 767.413,838.512 739.500 C 835.580 726.300,832.669 712.800,832.042 709.500 C 829.675 697.043,826.862 684.420,825.969 682.250 C 825.460 681.013,824.349 680.000,823.501 680.000 C 822.654 680.000,817.807 682.088,812.730 684.640 C 801.287 690.393,770.863 704.591,768.101 705.468 C 766.078 706.110,766.079 706.077,768.240 701.308 C 770.110 697.181,770.425 694.662,770.459 683.522 L 770.500 670.544 767.902 669.290 C 766.180 668.459,756.751 667.777,739.963 667.268 L 714.622 666.500 714.312 659.500 C 712.332 614.769,692.314 556.179,664.813 514.622 C 662.674 511.389,661.053 508.660,661.212 508.559 C 661.370 508.458,665.775 507.544,671.000 506.528 C 676.225 505.512,684.100 503.646,688.500 502.381 L 696.500 500.081 699.000 503.193 C 705.039 510.710,714.427 524.375,720.850 534.997 C 727.421 545.868,752.533 592.159,756.246 600.250 C 758.112 604.314,760.796 605.156,763.087 602.395 C 764.619 600.549,764.215 599.699,743.378 561.000 C 729.007 534.309,719.030 517.863,710.072 506.095 C 705.976 500.714,704.333 497.826,705.197 497.526 C 720.443 492.242,737.858 483.933,745.000 478.535 C 747.475 476.664,749.606 475.104,749.736 475.067 C 749.865 475.030,751.295 477.623,752.913 480.828 M281.719 480.373 C 290.468 486.016,300.311 490.906,311.193 495.017 L 319.886 498.300 315.537 503.952 C 306.454 515.756,294.761 534.874,284.123 555.313 C 269.046 584.282,266.599 589.812,268.073 591.588 C 271.092 595.225,272.550 593.255,284.915 568.841 C 300.407 538.254,310.681 521.245,324.153 503.880 L 326.962 500.260 336.231 502.639 C 363.964 509.756,403.731 514.213,463.876 516.946 C 475.632 517.481,485.393 518.059,485.565 518.232 C 485.738 518.405,484.579 520.483,482.990 522.849 C 479.613 527.877,478.636 533.113,479.155 543.390 C 479.421 548.662,480.038 551.385,481.279 552.756 C 482.882 554.527,482.902 554.991,481.514 558.312 C 479.583 562.933,479.593 568.265,481.542 574.830 L 483.084 580.023 480.292 582.425 L 477.500 584.827 477.500 603.490 L 477.500 622.154 481.250 625.590 C 484.710 628.761,485.000 629.451,485.000 634.513 C 485.000 637.531,484.866 640.000,484.702 640.000 C 484.538 640.000,475.875 641.587,465.452 643.526 C 388.707 657.804,335.735 664.605,282.000 667.078 C 267.911 667.727,256.438 668.702,255.000 669.373 C 252.522 670.529,252.500 670.651,252.500 683.520 C 252.500 694.930,252.769 697.038,254.721 700.945 C 255.943 703.390,256.801 705.532,256.629 705.704 C 256.141 706.192,244.382 700.816,221.847 689.804 C 210.473 684.245,200.522 679.969,199.698 680.286 C 198.112 680.894,193.953 696.884,191.919 710.191 C 191.305 714.211,188.410 728.075,185.485 741.000 C 172.153 799.927,167.231 835.704,161.961 912.000 C 160.206 937.402,159.589 1017.365,160.927 1046.000 C 163.937 1110.419,170.989 1158.938,182.844 1196.788 L 184.814 1203.076 182.657 1202.422 C 181.471 1202.062,176.687 1200.358,172.027 1198.634 C 163.652 1195.537,163.544 1195.453,162.815 1191.500 C 161.099 1182.201,156.483 1111.786,155.048 1073.000 C 149.977 936.000,156.614 791.462,171.073 724.000 C 182.227 671.962,199.679 622.476,217.978 591.000 C 225.823 577.507,233.194 565.861,233.620 566.286 C 233.849 566.516,232.915 573.183,231.543 581.102 C 228.172 600.555,226.421 614.755,224.480 638.387 C 222.983 656.596,222.980 658.409,224.441 659.870 C 225.663 661.092,226.444 661.211,227.769 660.377 C 229.192 659.482,229.714 656.554,230.706 643.894 C 235.437 583.516,242.701 549.181,259.611 507.286 C 264.804 494.418,273.557 476.000,274.479 476.000 C 274.731 476.000,277.989 477.968,281.719 480.373 M655.949 513.762 C 677.527 546.698,693.829 582.647,700.952 613.000 C 705.425 632.061,707.178 645.422,707.708 664.500 C 708.312 686.296,707.006 696.164,702.164 706.391 C 696.774 717.771,689.720 724.484,679.427 728.025 C 653.149 737.066,629.015 714.122,614.418 666.222 C 610.648 653.852,604.492 627.893,603.483 620.112 C 603.155 617.576,602.410 613.335,601.828 610.689 C 601.171 607.696,601.057 602.217,601.526 596.189 L 602.281 586.500 605.581 605.000 C 616.146 664.237,627.779 696.749,644.275 713.139 C 659.065 727.835,675.893 728.905,689.093 715.988 C 700.672 704.658,704.511 691.627,703.672 666.500 C 702.124 620.133,684.794 568.616,654.530 520.413 C 651.523 515.625,649.301 511.323,649.591 510.853 C 650.777 508.934,653.645 510.247,655.949 513.762 M649.142 523.759 C 675.376 564.067,692.754 612.189,696.837 655.837 L 697.617 664.174 689.559 663.547 C 673.570 662.303,624.483 656.746,623.769 656.099 C 622.461 654.916,617.178 632.944,613.526 613.500 C 611.563 603.050,608.200 585.275,606.052 574.000 C 603.904 562.725,601.892 549.989,601.582 545.698 C 601.062 538.523,597.807 520.267,596.388 516.569 C 595.882 515.251,596.804 514.983,602.143 514.894 C 605.639 514.835,614.350 514.229,621.500 513.546 C 643.590 511.438,640.340 510.237,649.142 523.759 M581.379 531.580 C 584.071 545.530,584.265 548.191,584.353 572.500 C 584.424 592.186,584.009 601.900,582.642 612.500 C 580.755 627.126,577.408 646.926,576.701 647.632 C 576.475 647.858,575.236 647.653,573.948 647.177 L 571.606 646.310 571.850 627.405 C 572.191 600.948,570.292 545.935,568.521 531.000 C 567.706 524.125,567.031 518.187,567.020 517.805 C 567.002 517.174,575.096 516.182,577.500 516.520 C 578.050 516.598,579.796 523.375,581.379 531.580 M590.431 521.250 C 594.764 536.553,595.470 543.761,595.451 572.500 C 595.438 593.403,594.980 604.049,593.647 614.500 C 589.662 645.724,569.924 742.460,566.361 748.224 C 566.065 748.704,565.257 748.628,564.566 748.055 C 563.569 747.227,563.796 745.203,565.664 738.256 C 566.959 733.440,569.397 721.850,571.082 712.500 C 572.766 703.150,576.574 682.675,579.544 667.000 C 590.487 609.240,591.427 600.908,590.657 568.500 C 590.055 543.141,588.800 533.006,584.373 517.750 C 583.984 516.409,584.459 516.000,586.405 516.000 C 588.613 516.000,589.138 516.685,590.431 521.250 M550.876 528.250 C 552.971 548.067,554.006 569.599,554.666 607.089 L 555.309 643.679 547.584 642.105 L 539.858 640.532 540.528 634.516 C 541.071 629.643,541.797 627.873,544.349 625.197 L 547.500 621.894 547.813 604.554 L 548.126 587.214 544.948 583.593 C 541.893 580.114,541.813 579.801,542.885 575.544 C 544.304 569.908,544.302 564.086,542.880 558.439 C 542.078 555.252,542.067 553.625,542.841 552.692 C 543.435 551.976,544.221 547.790,544.588 543.390 C 545.367 534.045,543.510 525.948,539.491 521.172 C 538.121 519.544,537.000 517.939,537.000 517.606 C 537.000 517.273,539.854 517.000,543.343 517.000 L 549.686 517.000 550.876 528.250 M561.669 525.000 C 563.956 539.673,565.297 570.062,565.398 609.500 C 565.495 647.533,565.384 650.115,563.146 662.000 C 557.143 693.881,557.012 695.031,556.345 721.639 C 555.765 744.754,555.505 747.750,554.096 747.544 C 551.779 747.203,551.123 741.869,551.058 722.801 C 550.993 704.082,552.324 692.152,557.490 665.152 C 560.864 647.512,560.999 645.929,560.987 624.152 C 560.964 584.494,558.909 538.558,556.378 521.164 C 555.776 517.028,555.857 516.843,558.124 517.164 C 560.258 517.466,560.619 518.265,561.669 525.000 M533.896 524.535 C 535.603 526.479,537.000 528.467,537.000 528.953 C 537.000 529.439,537.273 530.548,537.607 531.418 C 538.151 532.836,535.502 533.000,512.107 533.000 C 487.296 533.000,486.000 532.907,486.000 531.135 C 486.000 529.242,489.200 524.502,491.977 522.282 C 493.048 521.425,499.032 521.054,512.146 521.032 L 530.793 521.000 533.896 524.535 M538.000 544.111 C 538.000 547.462,537.241 549.129,533.899 553.120 C 524.806 563.981,525.734 573.553,536.937 584.453 C 539.172 586.627,541.000 588.990,541.000 589.703 C 541.000 590.736,535.094 591.000,512.000 591.000 C 496.050 591.000,483.000 590.804,483.000 590.564 C 483.000 590.324,485.475 587.289,488.500 583.821 C 494.673 576.743,497.549 569.872,496.482 564.752 C 495.613 560.586,491.920 554.182,488.595 551.076 C 486.575 549.189,486.000 547.693,486.000 544.326 L 486.000 540.000 512.000 540.000 L 538.000 540.000 538.000 544.111 M536.551 572.783 C 534.615 574.718,533.478 566.320,535.158 562.500 C 536.446 559.571,536.484 559.650,536.789 565.866 C 536.961 569.367,536.854 572.480,536.551 572.783 M489.986 566.441 C 489.979 567.574,489.691 569.551,489.348 570.835 C 488.372 574.480,487.028 571.364,487.047 565.500 C 487.062 560.887,487.177 560.650,488.532 562.441 C 489.339 563.509,489.994 565.309,489.986 566.441 M488.216 608.578 L 488.500 619.156 511.578 619.243 C 524.272 619.291,535.116 619.046,535.678 618.699 C 536.316 618.304,536.518 614.309,536.216 608.034 L 535.733 598.000 538.366 598.000 L 541.000 598.000 541.000 608.943 C 541.000 619.118,540.844 619.996,538.777 621.443 C 536.912 622.750,532.599 623.000,511.932 623.000 C 481.798 623.000,483.692 623.970,483.578 608.481 C 483.502 598.302,483.564 598.000,485.716 598.000 C 487.847 598.000,487.943 598.408,488.216 608.578 M529.352 603.250 C 530.648 614.039,532.425 613.000,512.667 613.000 C 503.133 613.000,495.146 612.814,494.917 612.588 C 494.688 612.361,494.649 608.986,494.832 605.088 L 495.164 598.000 511.943 598.000 L 528.721 598.000 529.352 603.250 M601.574 640.900 C 602.927 646.620,603.842 651.491,603.608 651.725 C 603.375 651.959,601.104 651.838,598.562 651.457 C 594.918 650.911,594.046 650.419,594.440 649.132 C 594.714 648.234,595.414 644.125,595.996 640.000 C 596.577 635.875,597.349 630.925,597.710 629.000 C 598.286 625.939,598.415 625.814,598.742 628.000 C 598.947 629.375,600.221 635.180,601.574 640.900 M534.000 664.339 C 534.000 683.776,533.704 708.526,533.342 719.339 L 532.683 739.000 511.842 739.000 L 491.000 739.000 491.000 684.000 L 491.000 629.000 512.500 629.000 L 534.000 629.000 534.000 664.339 M485.000 656.441 C 485.000 661.634,484.575 666.145,484.055 666.466 C 482.269 667.570,444.449 674.836,421.985 678.392 C 386.080 684.075,364.029 686.812,341.000 688.447 C 329.175 689.286,316.315 690.235,312.422 690.555 L 305.343 691.138 302.556 687.484 C 294.645 677.112,282.135 677.438,275.138 688.197 C 272.979 691.516,272.257 691.890,266.766 692.527 C 262.190 693.058,260.551 692.900,259.894 691.862 C 259.419 691.113,259.024 686.788,259.015 682.250 L 259.000 674.000 267.250 673.984 C 280.476 673.957,325.218 671.225,341.000 669.480 C 370.485 666.220,431.934 656.656,469.000 649.557 C 486.759 646.156,485.000 645.400,485.000 656.441 M553.647 651.400 C 553.375 652.555,552.575 657.020,551.869 661.322 L 550.586 669.145 547.043 668.519 C 539.627 667.209,540.000 667.812,540.000 657.126 L 540.000 647.386 547.071 648.343 C 553.534 649.218,554.099 649.481,553.647 651.400 M573.795 653.852 C 574.821 654.503,574.871 656.114,574.038 661.587 C 572.407 672.292,572.156 673.000,569.981 673.000 C 567.651 673.000,567.667 673.227,569.180 661.863 C 570.321 653.292,571.015 652.088,573.795 653.852 M609.351 669.403 C 611.269 674.953,612.669 679.665,612.462 679.872 C 612.038 680.295,589.956 676.289,589.344 675.678 C 589.128 675.462,589.931 671.269,591.129 666.359 L 593.306 657.433 599.584 658.372 L 605.863 659.310 609.351 669.403 M647.827 665.987 C 662.133 667.818,693.221 671.000,696.808 671.000 C 698.069 671.000,698.191 672.477,697.613 680.701 C 697.238 686.037,696.733 690.601,696.490 690.844 C 695.916 691.417,668.671 688.409,649.500 685.655 L 634.500 683.500 630.803 676.000 C 628.770 671.875,626.792 667.193,626.406 665.596 C 625.723 662.762,625.785 662.707,628.930 663.336 C 630.703 663.691,639.207 664.884,647.827 665.987 M747.375 673.658 L 764.069 674.317 763.784 683.908 C 763.466 694.664,764.288 693.878,754.750 692.542 C 752.138 692.177,750.000 691.385,750.000 690.783 C 750.000 688.856,744.994 683.048,741.998 681.499 C 738.329 679.602,730.739 679.567,727.135 681.430 C 725.613 682.217,723.145 684.627,721.649 686.785 C 719.453 689.954,718.455 690.619,716.465 690.238 C 713.720 689.713,713.609 689.035,714.642 679.147 L 715.285 673.000 722.983 673.000 C 727.217 673.000,738.193 673.296,747.375 673.658 M482.000 675.000 C 482.000 675.550,481.523 676.000,480.941 676.000 C 480.359 676.000,480.160 675.550,480.500 675.000 C 480.840 674.450,481.316 674.000,481.559 674.000 C 481.802 674.000,482.000 674.450,482.000 675.000 M541.104 679.296 C 540.299 680.101,540.008 679.601,540.030 677.450 C 540.057 674.864,540.193 674.728,541.134 676.346 C 541.903 677.670,541.895 678.505,541.104 679.296 M477.792 677.250 C 478.541 678.154,478.139 679.301,476.341 681.391 C 474.048 684.056,473.727 684.155,472.233 682.662 C 470.739 681.168,470.798 680.844,472.981 678.521 C 475.666 675.662,476.330 675.487,477.792 677.250 M484.564 680.769 C 484.236 681.098,483.453 680.853,482.826 680.226 C 481.971 679.371,482.038 678.656,483.092 677.377 C 484.396 675.797,484.525 675.837,484.831 677.921 C 485.013 679.159,484.893 680.441,484.564 680.769 M549.000 678.000 C 549.000 679.100,548.598 680.000,548.107 680.000 C 546.983 680.000,545.934 677.399,546.736 676.598 C 547.939 675.394,549.000 676.051,549.000 678.000 M466.318 679.385 C 466.610 680.147,465.599 681.968,464.071 683.432 L 461.292 686.094 459.553 683.440 C 457.724 680.649,458.194 679.508,461.500 678.713 C 465.022 677.866,465.775 677.971,466.318 679.385 M452.173 684.272 C 450.430 686.014,449.862 686.130,448.521 685.018 C 446.318 683.189,447.128 681.598,450.582 680.968 C 454.235 680.301,454.855 681.590,452.173 684.272 M546.761 687.486 L 545.325 690.228 543.162 687.479 C 540.699 684.347,540.483 682.917,542.214 681.186 C 543.165 680.235,543.942 680.488,545.813 682.358 C 548.024 684.569,548.093 684.944,546.761 687.486 M484.000 684.630 C 484.000 685.262,483.127 686.841,482.061 688.139 L 480.122 690.500 477.863 688.275 L 475.605 686.049 477.917 683.588 C 479.853 681.528,480.537 681.318,482.115 682.304 C 483.152 682.951,484.000 683.998,484.000 684.630 M569.417 685.750 C 568.367 691.595,567.670 692.398,565.616 690.129 C 563.981 688.322,563.969 687.960,565.453 685.091 C 567.812 680.530,570.281 680.941,569.417 685.750 M439.500 684.000 C 439.160 684.550,438.234 685.000,437.441 685.000 C 436.648 685.000,436.000 684.550,436.000 684.000 C 436.000 683.450,436.927 683.000,438.059 683.000 C 439.191 683.000,439.840 683.450,439.500 684.000 M458.487 685.620 C 460.135 688.135,460.119 688.325,458.102 690.343 L 456.000 692.444 453.878 690.322 C 451.790 688.234,451.786 688.159,453.628 685.631 C 455.981 682.403,456.378 682.402,458.487 685.620 M470.635 684.787 C 471.525 686.213,471.308 687.130,469.561 689.321 C 467.405 692.025,467.344 692.037,465.613 690.125 C 463.929 688.264,463.949 688.073,466.108 685.591 C 468.780 682.517,469.174 682.447,470.635 684.787 M591.000 683.941 C 591.000 685.121,589.050 686.383,588.333 685.667 C 587.617 684.950,588.879 683.000,590.059 683.000 C 590.577 683.000,591.000 683.423,591.000 683.941 M434.111 685.600 C 435.790 687.120,435.746 687.315,433.243 689.468 L 430.606 691.735 428.883 689.618 C 427.313 687.687,427.299 687.346,428.735 685.750 C 430.685 683.583,431.846 683.551,434.111 685.600 M447.967 687.905 C 447.948 688.232,447.048 689.562,445.967 690.861 L 444.000 693.222 442.075 690.861 C 440.170 688.524,440.172 688.477,442.248 686.251 C 444.211 684.148,444.463 684.109,446.173 685.656 C 447.178 686.566,447.985 687.578,447.967 687.905 M597.534 686.038 C 599.336 688.029,599.320 688.135,596.849 690.606 L 594.319 693.136 592.644 690.579 C 591.257 688.462,591.185 687.677,592.225 686.011 C 593.817 683.462,595.210 683.469,597.534 686.038 M294.010 687.665 C 299.231 690.749,300.580 697.722,296.869 702.440 C 293.830 706.303,290.624 707.288,286.583 705.599 C 282.131 703.739,280.000 700.427,280.000 695.366 C 280.000 691.917,280.543 690.721,283.077 688.589 C 286.635 685.595,290.022 685.309,294.010 687.665 M423.000 686.944 C 423.000 687.464,421.932 689.130,420.627 690.647 L 418.254 693.406 415.706 690.453 C 413.457 687.847,413.354 687.420,414.829 686.820 C 417.365 685.789,423.000 685.874,423.000 686.944 M608.750 686.630 C 611.344 687.325,611.666 689.202,609.500 691.000 C 607.819 692.395,605.714 691.202,603.910 687.832 C 602.837 685.828,604.352 685.452,608.750 686.630 M740.328 688.043 C 745.779 692.331,744.462 702.158,737.988 705.506 C 730.489 709.384,722.534 700.367,726.023 691.944 C 728.495 685.977,735.331 684.113,740.328 688.043 M410.000 687.845 C 410.000 688.310,409.173 689.438,408.162 690.353 C 406.444 691.909,406.212 691.892,404.587 690.096 C 402.934 688.270,402.938 688.153,404.675 687.704 C 407.776 686.902,410.000 686.961,410.000 687.845 M476.020 695.478 L 473.641 698.011 471.359 695.867 L 469.077 693.724 471.288 690.960 L 473.500 688.197 475.950 690.571 L 478.400 692.945 476.020 695.478 M616.000 689.000 C 616.000 689.550,615.802 690.000,615.559 690.000 C 615.316 690.000,614.840 689.550,614.500 689.000 C 614.160 688.450,614.359 688.000,614.941 688.000 C 615.523 688.000,616.000 688.450,616.000 689.000 M823.459 698.331 C 824.401 702.637,825.021 706.299,824.836 706.468 C 823.599 707.596,790.778 723.447,772.500 731.744 C 725.038 753.288,674.064 770.340,631.500 778.910 C 615.857 782.060,585.604 785.894,571.412 786.526 C 559.860 787.040,558.816 786.953,561.500 785.704 C 565.550 783.818,567.222 781.600,566.832 778.629 C 566.635 777.123,567.354 775.241,568.666 773.826 C 569.853 772.547,570.977 770.375,571.162 769.000 C 571.426 767.045,572.154 766.438,574.500 766.215 C 593.615 764.402,639.053 756.444,659.193 751.382 C 695.776 742.188,760.781 717.316,807.500 694.638 C 815.784 690.617,820.726 688.722,821.123 689.414 C 821.466 690.011,822.517 694.024,823.459 698.331 M220.536 696.564 C 254.859 712.969,286.674 725.920,320.000 737.053 C 375.175 755.485,415.727 763.662,468.367 766.967 C 476.544 767.480,483.347 768.035,483.486 768.200 C 483.624 768.365,484.054 772.959,484.441 778.408 L 485.144 788.317 470.322 787.697 C 429.739 786.002,384.927 778.900,349.090 768.486 C 323.572 761.070,282.279 745.515,253.274 732.392 C 237.532 725.270,200.047 707.381,199.300 706.633 C 198.991 706.324,201.364 694.950,202.614 690.750 C 202.900 689.788,203.489 689.000,203.922 689.000 C 204.355 689.000,211.831 692.404,220.536 696.564 M398.000 691.000 C 396.754 693.327,396.132 693.416,393.750 691.608 C 391.158 689.640,391.596 689.000,395.535 689.000 C 398.760 689.000,398.977 689.175,398.000 691.000 M541.800 692.741 C 540.317 694.528,539.669 693.619,540.518 690.943 C 541.051 689.265,541.418 689.059,542.052 690.084 C 542.531 690.859,542.423 691.990,541.800 692.741 M385.009 691.489 C 384.329 692.308,383.326 692.702,382.780 692.364 C 382.176 691.991,382.319 691.413,383.143 690.890 C 385.300 689.524,386.359 689.863,385.009 691.489 M414.569 692.302 L 417.051 694.603 414.695 696.817 L 412.338 699.031 410.505 697.006 C 408.905 695.238,408.842 694.664,410.005 692.490 C 411.626 689.461,411.511 689.466,414.569 692.302 M427.231 696.556 C 425.106 699.480,424.772 699.510,422.491 696.990 C 420.723 695.037,420.740 694.905,423.072 692.423 L 425.474 689.867 427.218 692.021 C 428.872 694.064,428.873 694.297,427.231 696.556 M440.254 692.475 C 441.953 694.811,441.934 694.969,439.659 697.423 L 437.309 699.958 434.980 697.479 L 432.651 695.000 435.000 692.500 C 437.862 689.454,438.056 689.453,440.254 692.475 M451.756 696.930 C 450.515 698.343,449.464 699.611,449.421 699.746 C 449.377 699.881,448.355 698.942,447.149 697.659 L 444.957 695.325 447.099 692.601 L 449.241 689.878 451.626 692.119 L 454.011 694.359 451.756 696.930 M464.000 696.500 L 461.605 699.049 459.605 697.049 L 457.605 695.049 460.000 692.500 L 462.395 689.951 464.395 691.951 L 466.395 693.951 464.000 696.500 M603.422 692.705 L 605.749 695.410 603.291 697.343 C 600.855 699.259,600.813 699.258,598.794 697.239 C 596.793 695.237,596.790 695.153,598.628 692.631 C 599.658 691.219,600.634 690.049,600.798 690.031 C 600.962 690.014,602.143 691.217,603.422 692.705 M380.020 697.479 L 377.645 700.007 375.829 697.254 C 373.486 693.701,373.534 693.116,376.250 692.064 C 377.932 691.413,378.992 691.667,380.448 693.072 C 382.375 694.932,382.371 694.976,380.020 697.479 M392.329 697.621 C 390.391 700.578,389.952 700.558,387.654 697.403 C 385.889 694.980,385.885 694.784,387.573 692.919 C 389.321 690.988,389.361 690.990,391.613 693.106 C 393.738 695.102,393.785 695.399,392.329 697.621 M403.336 696.610 C 401.469 699.460,401.546 699.448,399.031 697.294 C 397.045 695.594,397.045 695.581,399.192 693.296 C 401.185 691.174,401.479 691.123,403.124 692.612 C 404.757 694.090,404.774 694.415,403.336 696.610 M484.000 692.559 C 484.000 693.416,483.550 693.840,483.000 693.500 C 482.450 693.160,482.000 692.459,482.000 691.941 C 482.000 691.423,482.450 691.000,483.000 691.000 C 483.550 691.000,484.000 691.702,484.000 692.559 M591.532 693.035 C 593.327 695.019,593.317 695.127,591.126 697.285 L 588.878 699.500 586.990 697.202 C 585.219 695.047,585.206 694.782,586.773 692.952 C 588.861 690.513,589.256 690.520,591.532 693.035 M615.369 693.627 C 617.076 695.969,617.100 696.329,615.650 697.779 C 614.200 699.229,613.886 699.207,612.031 697.528 C 609.713 695.430,609.478 693.922,611.200 692.200 C 612.845 690.555,613.225 690.685,615.369 693.627 M645.453 692.161 C 646.854 692.799,648.000 693.629,648.000 694.006 C 648.000 694.906,644.081 698.441,643.670 697.911 C 643.495 697.685,642.342 696.038,641.108 694.250 C 638.907 691.062,638.903 691.000,640.885 691.000 C 641.996 691.000,644.052 691.522,645.453 692.161 M565.559 693.096 C 565.932 693.699,565.508 694.920,564.618 695.810 C 563.127 697.301,563.000 697.215,563.000 694.714 C 563.000 691.953,564.332 691.110,565.559 693.096 M370.000 693.826 C 370.000 694.280,368.888 695.696,367.529 696.973 L 365.058 699.294 363.120 696.900 C 361.737 695.192,361.514 694.294,362.341 693.768 C 363.927 692.759,370.000 692.804,370.000 693.826 M545.716 697.078 C 545.158 701.244,542.424 705.380,540.866 704.417 C 539.171 703.369,539.995 697.634,542.174 695.314 C 545.343 691.941,546.339 692.437,545.716 697.078 M660.399 695.004 C 661.334 695.934,658.602 701.000,657.165 701.000 C 655.830 701.000,651.871 695.018,652.515 693.975 C 653.198 692.871,659.016 693.630,660.399 695.004 M357.967 694.750 C 357.948 695.163,357.048 696.562,355.967 697.861 L 354.000 700.222 352.033 697.861 C 349.236 694.503,349.493 694.000,354.000 694.000 C 356.200 694.000,357.985 694.337,357.967 694.750 M341.521 696.976 C 339.623 699.075,338.000 698.828,338.000 696.441 C 338.000 695.548,339.010 695.000,340.655 695.000 C 343.236 695.000,343.260 695.055,341.521 696.976 M482.171 696.655 C 484.318 698.598,484.617 704.243,482.659 705.868 C 481.617 706.733,480.632 706.126,478.232 703.139 L 475.146 699.299 477.295 697.149 C 479.875 694.570,479.868 694.570,482.171 696.655 M674.000 695.686 C 674.000 696.063,673.022 697.412,671.827 698.684 C 669.793 700.849,669.537 700.891,667.827 699.344 C 664.771 696.578,665.561 695.000,670.000 695.000 C 672.200 695.000,674.000 695.308,674.000 695.686 M316.000 696.441 C 316.000 696.684,315.550 697.160,315.000 697.500 C 314.450 697.840,314.000 697.641,314.000 697.059 C 314.000 696.477,314.450 696.000,315.000 696.000 C 315.550 696.000,316.000 696.198,316.000 696.441 M329.200 697.200 C 328.267 698.133,327.733 698.133,326.800 697.200 C 325.867 696.267,326.133 696.000,328.000 696.000 C 329.867 696.000,330.133 696.267,329.200 697.200 M336.329 698.379 C 337.790 700.610,337.737 700.898,335.473 703.026 L 333.058 705.294 331.105 702.897 C 329.162 700.513,329.162 700.488,331.250 698.250 C 333.884 695.426,334.403 695.440,336.329 698.379 M349.199 698.691 L 352.008 701.382 349.382 704.123 L 346.756 706.864 344.312 703.958 C 341.915 701.111,341.903 701.003,343.683 698.558 C 344.683 697.186,345.700 696.049,345.945 696.031 C 346.190 696.014,347.655 697.211,349.199 698.691 M373.726 703.777 L 371.600 706.055 369.198 703.652 L 366.796 701.250 369.012 698.702 L 371.228 696.153 373.540 698.827 L 375.852 701.500 373.726 703.777 M470.509 698.010 C 472.276 699.962,472.261 700.094,469.985 702.516 L 467.641 705.011 465.315 702.826 L 462.989 700.641 465.169 698.320 C 467.826 695.492,468.210 695.470,470.509 698.010 M599.000 701.064 C 599.000 701.457,598.157 702.820,597.127 704.092 L 595.253 706.406 592.806 703.561 L 590.359 700.716 592.430 698.542 L 594.500 696.369 596.750 698.359 C 597.987 699.453,599.000 700.670,599.000 701.064 M642.000 700.382 C 642.000 700.932,641.339 700.509,640.532 699.441 C 639.724 698.374,639.064 697.050,639.064 696.500 C 639.064 695.950,639.724 696.374,640.532 697.441 C 641.339 698.509,642.000 699.832,642.000 700.382 M686.000 698.500 C 683.238 701.440,682.287 701.570,679.829 699.345 C 676.924 696.716,677.640 696.000,683.174 696.000 L 688.349 696.000 686.000 698.500 M717.808 696.860 C 719.132 697.700,718.567 702.532,717.035 703.479 C 715.739 704.279,711.712 699.192,712.342 697.551 C 712.986 695.873,715.709 695.529,717.808 696.860 M311.865 698.337 C 312.713 699.359,312.407 700.208,310.572 701.932 L 308.170 704.189 306.499 701.638 C 305.580 700.236,305.118 698.618,305.473 698.044 C 306.390 696.560,310.548 696.750,311.865 698.337 M324.637 698.791 C 325.536 700.229,325.310 701.101,323.492 703.215 L 321.228 705.847 318.623 703.128 C 316.169 700.567,316.117 700.312,317.724 698.705 C 319.941 696.488,323.224 696.528,324.637 698.791 M362.259 703.423 C 361.303 704.565,360.407 705.685,360.267 705.911 C 359.846 706.589,356.000 702.770,356.000 701.674 C 356.000 701.115,356.751 699.828,357.669 698.813 C 359.287 697.026,359.410 697.037,361.668 699.157 C 363.901 701.255,363.925 701.432,362.259 703.423 M386.791 704.723 C 384.141 707.544,383.932 707.530,381.646 704.393 C 379.821 701.887,379.828 701.812,382.136 699.356 L 384.478 696.862 386.704 699.654 L 388.930 702.445 386.791 704.723 M409.532 699.035 C 411.326 701.018,411.318 701.127,409.222 703.222 C 407.145 705.300,407.002 705.312,405.085 703.577 C 403.243 701.910,403.213 701.605,404.664 699.390 C 406.573 696.476,407.176 696.432,409.532 699.035 M421.668 703.373 C 419.688 706.356,418.475 706.374,416.561 703.452 C 414.935 700.971,414.937 700.728,416.591 698.900 C 418.314 696.996,418.371 696.999,420.673 699.162 C 422.726 701.092,422.846 701.599,421.668 703.373 M433.443 699.223 C 435.318 701.900,435.319 701.994,433.475 704.431 C 432.043 706.325,431.967 706.318,429.564 704.060 C 427.263 701.898,427.208 701.612,428.671 699.379 C 430.605 696.428,431.466 696.400,433.443 699.223 M445.573 699.471 C 447.086 701.780,447.064 702.103,445.233 704.431 L 443.274 706.921 440.963 704.460 L 438.651 702.000 441.000 699.500 C 442.292 698.125,443.485 697.000,443.651 697.000 C 443.818 697.000,444.682 698.112,445.573 699.471 M458.261 698.750 C 459.701 700.354,459.629 700.751,457.394 703.500 L 454.955 706.500 453.036 704.002 C 451.137 701.529,451.138 701.481,453.233 699.252 C 455.779 696.542,456.237 696.496,458.261 698.750 M609.276 699.504 C 610.763 701.548,610.846 702.274,609.785 703.972 C 608.172 706.555,607.840 706.523,605.010 703.510 C 602.739 701.093,602.724 700.962,604.491 699.010 C 606.778 696.483,607.102 696.516,609.276 699.504 M653.364 700.411 C 655.896 703.731,655.918 703.880,654.165 706.044 L 652.366 708.267 649.207 704.435 C 646.259 700.859,646.157 700.484,647.679 698.802 C 649.898 696.350,650.369 696.484,653.364 700.411 M693.457 697.931 C 694.459 699.552,692.282 700.045,690.991 698.489 C 689.986 697.278,690.047 697.000,691.319 697.000 C 692.178 697.000,693.141 697.419,693.457 697.931 M274.407 699.250 C 274.016 699.938,273.013 701.294,272.179 702.266 C 270.737 703.943,270.545 703.922,268.320 701.831 C 265.558 699.236,266.652 698.039,271.809 698.015 C 274.172 698.004,274.915 698.358,274.407 699.250 M398.045 700.083 C 398.934 701.746,398.808 702.555,397.417 704.091 C 395.806 705.872,395.541 705.895,393.887 704.398 C 392.243 702.910,392.225 702.586,393.664 700.390 C 395.587 697.455,396.600 697.384,398.045 700.083 M566.422 702.563 C 565.785 705.961,565.587 706.156,564.412 704.548 C 563.325 703.062,563.371 702.363,564.689 700.351 C 566.750 697.206,567.296 697.903,566.422 702.563 M586.307 699.357 C 586.593 700.103,585.934 702.016,584.843 703.607 L 582.858 706.500 583.547 703.000 C 584.552 697.892,585.343 696.846,586.307 699.357 M666.171 700.364 C 667.761 702.556,667.726 702.806,665.438 705.583 L 663.034 708.500 661.110 706.047 C 659.202 703.615,659.204 703.569,661.342 700.852 C 663.975 697.507,664.088 697.496,666.171 700.364 M679.978 703.095 C 679.990 703.422,679.084 704.519,677.965 705.532 C 675.982 707.326,675.873 707.318,673.767 705.212 L 671.605 703.049 674.016 700.483 L 676.428 697.916 678.192 700.208 C 679.162 701.469,679.966 702.768,679.978 703.095 M756.000 698.567 C 756.000 699.774,749.071 706.404,748.454 705.787 C 748.095 705.428,748.330 703.529,748.978 701.567 C 749.970 698.560,750.614 698.000,753.078 698.000 C 754.685 698.000,756.000 698.255,756.000 698.567 M262.985 701.028 C 261.827 703.191,260.000 702.832,260.000 700.441 C 260.000 699.648,260.916 699.000,262.035 699.000 C 263.770 699.000,263.910 699.299,262.985 701.028 M621.274 701.886 C 622.678 704.263,622.744 704.967,621.652 705.874 C 620.644 706.711,619.771 706.385,618.016 704.517 C 616.100 702.478,615.923 701.798,616.976 700.529 C 618.742 698.401,619.324 698.585,621.274 701.886 M690.460 705.421 L 688.716 708.082 686.353 705.861 L 683.989 703.641 686.192 701.296 C 688.358 698.990,688.427 698.982,690.299 700.855 C 692.123 702.679,692.130 702.872,690.460 705.421 M763.000 700.378 C 763.000 701.135,762.302 702.334,761.450 703.042 C 760.173 704.102,759.623 704.052,758.331 702.760 C 757.469 701.898,757.068 700.699,757.441 700.096 C 758.426 698.501,763.000 698.733,763.000 700.378 M268.045 707.445 C 265.153 710.931,261.832 708.050,264.023 703.956 L 265.201 701.756 267.268 703.824 C 268.994 705.549,269.122 706.148,268.045 707.445 M279.109 710.291 C 278.315 711.085,277.188 710.597,275.014 708.514 C 272.200 705.818,272.117 705.528,273.664 703.819 C 275.242 702.076,275.419 702.153,277.759 705.596 C 279.532 708.205,279.903 709.497,279.109 710.291 M317.600 709.855 L 315.159 712.296 312.653 709.398 L 310.148 706.500 312.258 704.239 L 314.368 701.979 317.205 704.696 L 320.041 707.414 317.600 709.855 M330.978 707.095 C 330.990 707.422,330.084 708.519,328.965 709.532 C 326.982 711.326,326.873 711.318,324.767 709.212 L 322.605 707.049 325.016 704.483 L 327.428 701.916 329.192 704.208 C 330.162 705.469,330.966 706.768,330.978 707.095 M463.669 709.750 L 460.883 712.500 458.969 710.173 C 457.076 707.872,457.079 707.812,459.232 704.900 L 461.409 701.955 463.932 704.477 L 466.455 707.000 463.669 709.750 M477.595 710.859 L 475.159 713.296 472.611 710.398 C 469.579 706.950,469.478 706.234,471.677 703.804 C 473.297 702.014,473.468 702.061,476.693 705.187 L 480.032 708.423 477.595 710.859 M650.000 710.152 C 650.000 710.802,648.444 709.571,646.542 707.417 C 642.024 702.301,642.012 700.379,646.527 705.235 C 648.437 707.290,650.000 709.502,650.000 710.152 M711.711 708.931 C 708.500 712.748,707.251 711.300,709.051 705.847 C 710.345 701.924,710.360 701.915,712.325 703.881 C 714.291 705.847,714.288 705.869,711.711 708.931 M305.996 706.855 C 304.542 709.341,302.346 712.000,301.747 712.000 C 301.454 712.000,300.940 711.285,300.604 710.411 C 299.749 708.183,304.100 702.939,305.729 704.233 C 306.568 704.900,306.653 705.731,305.996 706.855 M342.323 705.816 L 345.021 708.632 342.716 710.797 L 340.412 712.962 337.675 709.843 C 335.090 706.897,335.032 706.622,336.625 704.862 C 338.822 702.435,339.134 702.487,342.323 705.816 M367.284 705.515 C 368.951 707.806,368.960 708.131,367.419 710.483 C 365.392 713.577,364.964 713.575,362.703 710.469 C 360.974 708.093,360.974 707.907,362.703 705.531 C 364.920 702.485,365.079 702.485,367.284 705.515 M415.278 710.374 L 413.274 712.921 411.034 710.536 C 408.832 708.192,408.825 708.107,410.646 705.638 L 412.500 703.126 414.891 705.476 L 417.281 707.827 415.278 710.374 M591.354 705.607 C 593.177 708.110,593.170 708.190,590.931 710.574 C 588.798 712.844,588.539 712.892,586.827 711.344 C 584.559 709.291,584.504 707.205,586.655 704.829 C 588.776 702.486,589.121 702.543,591.354 705.607 M603.726 710.777 L 601.600 713.055 599.100 710.555 L 596.600 708.055 598.908 705.598 L 601.217 703.140 603.534 705.820 L 605.852 708.500 603.726 710.777 M758.000 707.036 C 758.000 707.396,757.086 708.517,755.969 709.528 C 754.075 711.242,753.825 711.254,752.275 709.704 C 750.725 708.154,750.776 707.867,753.031 705.467 C 755.283 703.070,755.536 703.013,756.724 704.638 C 757.426 705.597,758.000 706.677,758.000 707.036 M355.530 710.925 L 353.005 713.449 350.805 711.249 L 348.605 709.049 350.982 706.519 L 353.359 703.989 355.707 706.194 L 358.055 708.400 355.530 710.925 M380.249 711.195 L 378.049 713.395 375.519 711.018 L 372.989 708.641 375.194 706.293 L 377.400 703.945 379.925 706.470 L 382.449 708.995 380.249 711.195 M403.276 710.377 L 401.274 712.921 399.155 710.665 L 397.036 708.409 399.240 706.204 C 401.412 704.032,401.472 704.028,403.361 705.916 C 405.249 707.805,405.248 707.870,403.276 710.377 M427.831 706.320 L 430.011 708.641 427.685 710.826 L 425.359 713.011 423.194 710.707 C 421.198 708.582,421.149 708.232,422.572 706.201 C 424.510 703.434,425.133 703.448,427.831 706.320 M440.946 709.000 C 440.941 709.275,440.279 710.369,439.475 711.431 C 438.044 713.323,437.964 713.314,435.502 711.002 L 432.989 708.641 435.208 706.278 L 437.428 703.916 439.192 706.208 C 440.162 707.469,440.951 708.725,440.946 709.000 M451.477 705.974 C 453.171 707.846,453.174 708.085,451.547 710.569 L 449.830 713.189 447.446 710.949 C 445.159 708.801,445.136 708.019,447.278 705.250 C 448.603 703.537,449.394 703.673,451.477 705.974 M722.462 706.750 C 724.130 708.688,724.531 709.859,723.820 710.715 C 723.063 711.629,722.198 711.200,720.335 708.986 C 718.972 707.366,718.140 705.582,718.487 705.020 C 719.412 703.524,719.851 703.715,722.462 706.750 M392.456 706.951 C 394.147 708.820,394.138 709.009,392.248 711.412 L 390.274 713.921 387.973 711.471 C 385.739 709.093,385.724 708.962,387.491 707.010 C 389.746 704.518,390.248 704.512,392.456 706.951 M545.190 708.015 C 544.416 710.108,544.272 710.152,543.635 708.490 C 543.219 707.406,543.444 706.344,544.187 705.884 C 545.932 704.806,546.182 705.335,545.190 708.015 M616.423 706.915 C 618.068 708.733,618.068 708.967,616.419 711.483 L 614.681 714.136 612.151 711.606 C 609.680 709.135,609.664 709.029,611.466 707.038 C 613.742 704.522,614.246 704.510,616.423 706.915 M672.026 707.527 L 674.400 710.055 671.900 712.555 L 669.400 715.055 667.096 712.603 C 664.829 710.189,664.822 710.111,666.646 707.607 C 668.955 704.438,669.121 704.436,672.026 707.527 M625.104 710.296 C 623.271 712.129,621.332 709.510,623.017 707.479 C 624.238 706.008,624.427 706.012,625.279 707.533 C 625.880 708.608,625.818 709.582,625.104 710.296 M660.967 709.905 C 660.948 710.232,660.026 711.590,658.917 712.922 L 656.900 715.345 654.753 713.197 L 652.605 711.049 654.975 708.526 C 657.197 706.161,657.460 706.107,659.173 707.656 C 660.178 708.566,660.985 709.578,660.967 709.905 M684.532 708.035 C 686.326 710.018,686.318 710.127,684.187 712.258 L 682.000 714.444 679.813 712.258 C 677.682 710.127,677.674 710.018,679.468 708.035 C 680.481 706.916,681.620 706.000,682.000 706.000 C 682.380 706.000,683.519 706.916,684.532 708.035 M564.507 709.022 C 565.255 711.380,564.263 716.719,562.923 717.548 C 562.401 717.870,562.000 715.701,562.000 712.559 C 562.000 707.012,563.291 705.191,564.507 709.022 M747.215 707.548 C 747.516 707.850,746.804 709.175,745.631 710.494 C 744.328 711.960,743.140 712.533,742.574 711.969 C 742.006 711.404,742.356 710.264,743.479 709.024 C 745.360 706.945,746.257 706.591,747.215 707.548 M274.625 712.708 C 273.656 713.678,269.210 710.616,269.707 709.321 C 270.144 708.183,270.738 708.345,272.624 710.116 C 273.926 711.340,274.827 712.506,274.625 712.708 M311.317 716.191 C 309.837 717.736,308.373 718.986,308.063 718.969 C 307.753 718.951,306.695 717.831,305.712 716.480 C 303.976 714.095,303.989 713.934,306.153 711.007 L 308.382 707.992 311.195 710.687 L 314.008 713.382 311.317 716.191 M718.539 716.959 C 715.495 720.136,714.082 719.890,711.894 715.802 C 711.127 714.368,711.427 713.279,713.199 711.066 L 715.500 708.193 718.458 711.074 L 721.417 713.955 718.539 716.959 M323.329 711.379 C 324.785 713.601,324.738 713.898,322.613 715.894 C 320.408 717.966,320.287 717.975,318.669 716.187 C 316.585 713.884,316.583 713.119,318.655 710.829 C 320.813 708.444,321.455 708.520,323.329 711.379 M336.382 717.123 L 333.756 719.864 331.249 716.884 L 328.741 713.904 331.055 711.441 L 333.368 708.979 336.188 711.680 L 339.008 714.382 336.382 717.123 M471.317 711.809 L 474.008 714.618 471.195 717.313 L 468.382 720.008 465.510 717.011 L 462.639 714.013 464.994 711.507 C 466.289 710.128,467.636 709.000,467.987 709.000 C 468.338 709.000,469.837 710.264,471.317 711.809 M281.124 712.267 C 280.136 713.247,280.022 713.132,280.564 711.707 C 280.940 710.721,281.499 710.166,281.807 710.474 C 282.115 710.781,281.808 711.588,281.124 712.267 M349.249 717.195 L 347.049 719.395 344.519 717.018 L 341.989 714.641 344.194 712.293 L 346.400 709.945 348.925 712.470 L 351.449 714.995 349.249 717.195 M411.000 715.456 C 411.000 716.135,410.178 717.434,409.173 718.344 C 407.461 719.893,407.198 719.840,404.999 717.499 L 402.651 715.000 405.063 712.433 L 407.474 709.867 409.237 712.044 C 410.207 713.242,411.000 714.777,411.000 715.456 M421.556 717.556 L 419.792 720.247 417.292 717.747 C 414.846 715.301,414.830 715.189,416.556 712.556 L 418.319 709.864 420.819 712.364 C 423.265 714.811,423.281 714.922,421.556 717.556 M542.950 711.440 C 544.582 713.407,543.897 718.500,542.000 718.500 C 540.950 718.500,540.408 717.224,540.193 714.250 C 539.877 709.887,540.844 708.902,542.950 711.440 M597.454 712.570 C 599.001 714.931,599.008 715.338,597.546 717.570 C 595.603 720.535,595.223 720.558,592.373 717.881 L 590.117 715.761 592.246 712.881 C 594.855 709.352,595.327 709.324,597.454 712.570 M298.500 716.000 C 296.841 717.833,296.467 717.896,295.134 716.562 C 293.800 715.229,293.841 714.833,295.500 713.000 C 297.159 711.167,297.533 711.104,298.866 712.438 C 300.200 713.771,300.159 714.167,298.500 716.000 M361.171 712.655 C 363.434 714.702,363.466 715.827,361.331 718.187 C 359.713 719.975,359.592 719.966,357.387 717.894 C 355.262 715.898,355.215 715.601,356.671 713.379 C 358.524 710.552,358.798 710.508,361.171 712.655 M373.831 713.320 L 376.011 715.641 373.685 717.826 L 371.359 720.011 369.015 717.516 C 366.739 715.094,366.724 714.962,368.491 713.010 C 370.790 710.470,371.174 710.492,373.831 713.320 M398.968 715.405 C 398.951 716.007,398.283 717.364,397.484 718.419 C 396.077 720.279,395.969 720.282,394.016 718.514 C 391.566 716.297,391.499 715.211,393.662 712.821 C 395.216 711.104,395.445 711.093,397.162 712.647 C 398.173 713.562,398.986 714.803,398.968 715.405 M434.956 717.082 C 433.392 720.005,432.426 720.083,429.981 717.480 C 427.733 715.086,427.720 714.967,429.505 712.995 L 431.338 710.969 433.630 713.122 C 435.389 714.774,435.697 715.697,434.956 717.082 M445.423 712.915 C 447.068 714.733,447.068 714.967,445.419 717.483 L 443.681 720.136 441.151 717.606 C 438.680 715.135,438.664 715.029,440.466 713.038 C 442.742 710.522,443.246 710.510,445.423 712.915 M457.325 712.806 C 458.821 714.460,458.825 714.804,457.372 716.879 L 455.784 719.146 453.394 716.900 C 451.155 714.797,451.108 714.538,452.656 712.827 C 454.716 710.551,455.282 710.549,457.325 712.806 M483.801 714.662 C 484.243 719.079,481.908 720.595,479.164 717.675 L 477.003 715.374 479.090 713.133 C 481.743 710.286,483.417 710.829,483.801 714.662 M584.762 717.558 C 583.627 718.864,582.316 719.696,581.849 719.407 C 580.854 718.792,580.728 714.873,581.628 712.528 C 582.183 711.080,582.519 711.139,584.541 713.038 L 586.826 715.185 584.762 717.558 M620.273 716.172 C 618.443 718.002,617.864 718.132,616.521 717.018 C 615.088 715.828,615.150 715.469,617.160 713.329 C 619.156 711.205,619.546 711.117,620.912 712.483 C 622.278 713.849,622.212 714.233,620.273 716.172 M631.964 717.191 C 631.984 717.571,631.586 718.138,631.080 718.451 C 629.723 719.289,626.015 714.125,626.697 712.347 C 627.161 711.138,627.764 711.410,629.605 713.661 C 630.883 715.222,631.944 716.811,631.964 717.191 M729.370 712.857 C 730.880 714.525,730.894 714.843,729.506 715.995 C 727.330 717.801,723.469 714.528,725.307 712.435 C 726.899 710.622,727.394 710.673,729.370 712.857 M741.000 714.587 C 741.000 715.326,740.018 716.455,738.817 717.098 C 736.947 718.099,736.359 717.926,734.715 715.897 L 732.796 713.527 735.648 712.356 C 738.693 711.106,741.000 712.068,741.000 714.587 M749.541 712.933 C 749.179 713.520,748.403 714.000,747.819 714.000 C 747.155 714.000,747.231 713.426,748.020 712.476 C 749.392 710.823,750.617 711.192,749.541 712.933 M289.831 713.539 C 290.013 713.698,289.660 714.767,289.046 715.914 C 287.859 718.131,286.344 718.504,284.158 717.119 C 281.983 715.740,284.881 711.834,287.486 712.632 C 288.594 712.971,289.649 713.379,289.831 713.539 M386.500 714.000 C 388.247 715.930,388.246 716.070,386.486 718.016 L 384.662 720.031 382.332 717.843 C 380.152 715.794,380.109 715.538,381.656 713.827 C 383.744 711.520,384.273 711.539,386.500 714.000 M609.620 714.112 C 611.853 716.211,611.855 716.239,609.918 718.318 L 607.968 720.412 605.883 718.328 C 604.159 716.604,603.995 715.877,604.935 714.122 C 606.348 711.482,606.819 711.481,609.620 714.112 M665.835 714.324 C 668.215 716.857,667.821 718.008,664.583 717.985 C 660.852 717.957,659.622 716.578,661.148 714.134 C 662.820 711.457,663.154 711.471,665.835 714.324 M677.883 717.094 C 677.122 717.575,675.178 717.976,673.563 717.985 L 670.626 718.000 673.482 715.019 C 676.330 712.046,676.342 712.044,677.802 714.128 C 679.041 715.897,679.054 716.352,677.883 717.094 M706.978 713.750 C 706.949 714.737,703.051 719.710,703.022 718.797 C 702.977 717.377,705.347 713.000,706.161 713.000 C 706.622 713.000,706.990 713.337,706.978 713.750 M205.029 717.014 C 208.313 718.672,211.000 720.255,211.000 720.531 C 211.000 720.808,209.088 722.939,206.750 725.267 C 204.412 727.595,202.050 730.295,201.500 731.266 C 200.565 732.917,200.318 732.884,197.683 730.757 L 194.866 728.482 196.513 721.241 C 197.419 717.258,198.362 714.000,198.609 714.000 C 198.855 714.000,201.744 715.356,205.029 717.014 M826.361 715.750 C 826.634 716.712,827.424 720.144,828.116 723.376 C 829.265 728.739,829.217 729.368,827.569 730.573 C 825.960 731.750,825.128 731.224,819.915 725.747 C 816.698 722.366,814.164 719.520,814.283 719.422 C 815.009 718.826,824.621 714.085,825.183 714.047 C 825.558 714.021,826.089 714.788,826.361 715.750 M304.831 718.320 L 307.011 720.641 304.740 722.774 C 302.409 724.965,301.520 724.800,299.112 721.731 C 297.911 720.200,297.965 719.696,299.517 717.981 C 301.788 715.472,302.178 715.497,304.831 718.320 M317.536 718.040 C 319.344 720.037,319.319 720.143,316.352 723.110 L 313.322 726.140 311.576 723.475 C 309.883 720.893,309.899 720.736,312.089 718.405 C 314.836 715.482,315.199 715.457,317.536 718.040 M330.195 723.603 C 328.065 726.536,327.850 726.533,325.035 723.537 C 322.796 721.154,322.777 720.989,324.450 718.436 L 326.179 715.797 329.035 718.533 C 331.793 721.176,331.832 721.349,330.195 723.603 M343.265 723.718 C 341.382 726.593,340.886 726.572,338.000 723.500 L 335.651 721.000 338.021 718.478 L 340.390 715.956 342.575 718.696 C 344.572 721.201,344.631 721.633,343.265 723.718 M626.372 718.631 C 628.214 721.159,628.210 721.234,626.122 723.322 L 624.000 725.444 621.898 723.343 C 619.881 721.325,619.865 721.135,621.513 718.620 C 623.622 715.402,624.019 715.403,626.372 718.631 M725.056 718.250 C 727.504 721.184,727.467 721.466,724.453 722.839 C 718.288 725.649,715.375 723.306,719.578 718.919 C 721.116 717.313,722.555 716.000,722.777 716.000 C 722.998 716.000,724.024 717.013,725.056 718.250 M293.735 720.599 C 293.488 720.845,292.535 720.759,291.618 720.407 C 290.286 719.896,290.191 719.474,291.149 718.320 C 292.189 717.068,292.473 717.093,293.267 718.512 C 293.771 719.413,293.981 720.352,293.735 720.599 M357.935 721.000 C 357.934 721.275,357.035 722.579,355.938 723.897 L 353.942 726.294 351.465 723.967 L 348.989 721.641 351.122 719.370 C 353.164 717.196,353.355 717.172,355.596 718.800 C 356.884 719.735,357.936 720.725,357.935 721.000 M403.463 719.585 C 405.058 722.019,405.056 722.281,403.416 724.093 C 401.788 725.892,401.556 725.909,399.838 724.353 C 397.569 722.300,397.532 721.174,399.655 718.829 C 401.709 716.559,401.447 716.507,403.463 719.585 M415.754 719.881 L 417.883 722.761 415.621 724.886 L 413.359 727.011 411.094 724.600 C 408.918 722.284,408.896 722.089,410.530 719.595 C 412.674 716.322,413.142 716.348,415.754 719.881 M441.000 722.033 C 441.000 722.980,440.300 724.336,439.445 725.045 C 438.147 726.123,437.544 725.989,435.788 724.232 C 433.762 722.207,433.749 722.032,435.421 719.481 C 437.083 716.943,437.237 716.905,439.078 718.571 C 440.135 719.527,441.000 721.085,441.000 722.033 M451.329 719.379 C 452.785 721.601,452.738 721.898,450.613 723.894 C 448.361 726.010,448.321 726.012,446.573 724.081 C 444.885 722.216,444.889 722.020,446.654 719.597 C 448.952 716.442,449.391 716.422,451.329 719.379 M463.686 719.174 C 466.557 721.872,466.598 723.146,463.865 724.852 C 461.969 726.037,461.446 725.900,459.176 723.631 C 456.680 721.135,456.664 721.029,458.466 719.038 C 460.754 716.510,460.852 716.512,463.686 719.174 M479.140 721.262 C 480.554 723.904,476.441 728.611,474.283 726.820 C 471.093 724.172,470.726 721.921,473.077 719.418 C 475.491 716.848,477.028 717.316,479.140 721.262 M712.076 719.585 L 714.500 722.170 712.075 724.137 L 709.650 726.104 707.136 723.590 C 704.680 721.135,704.664 721.028,706.466 719.038 C 708.819 716.437,709.154 716.470,712.076 719.585 M734.000 719.059 C 734.000 719.577,733.325 720.000,732.500 720.000 C 730.954 720.000,730.513 718.820,731.639 717.694 C 732.438 716.895,734.000 717.798,734.000 719.059 M368.509 720.010 C 370.276 721.962,370.261 722.093,368.027 724.471 L 365.726 726.921 363.752 724.412 C 361.862 722.009,361.853 721.820,363.544 719.951 C 365.752 717.512,366.254 717.518,368.509 720.010 M380.532 720.035 C 382.326 722.018,382.318 722.127,380.187 724.258 C 378.000 726.444,378.000 726.444,376.000 724.445 C 374.157 722.601,374.122 722.271,375.557 720.222 C 377.477 717.481,378.196 717.454,380.532 720.035 M392.532 720.035 C 394.326 722.018,394.318 722.127,392.187 724.258 L 390.000 726.444 387.813 724.258 C 385.682 722.127,385.674 722.018,387.468 720.035 C 388.481 718.916,389.620 718.000,390.000 718.000 C 390.380 718.000,391.519 718.916,392.532 720.035 M428.509 720.010 C 430.095 721.763,430.157 722.338,428.995 724.510 C 427.339 727.604,426.916 727.604,424.010 724.510 C 421.739 722.093,421.724 721.962,423.491 720.010 C 425.755 717.509,426.245 717.508,428.509 720.010 M591.023 720.525 L 593.395 723.049 591.395 725.049 L 589.395 727.049 587.112 724.619 C 585.221 722.606,585.021 721.829,585.950 720.094 C 587.395 717.393,588.140 717.456,591.023 720.525 M604.445 720.225 C 605.901 722.304,605.839 722.616,603.504 724.950 L 601.005 727.449 598.805 725.249 L 596.605 723.049 598.977 720.525 C 601.880 717.434,602.468 717.402,604.445 720.225 M615.387 720.251 C 616.159 721.475,615.942 722.406,614.521 723.977 L 612.626 726.071 610.626 724.071 C 608.672 722.117,608.669 722.023,610.490 720.011 C 612.551 717.733,613.838 717.796,615.387 720.251 M637.444 722.135 C 639.862 724.037,639.994 724.435,638.653 725.776 C 637.311 727.117,636.875 726.967,634.665 724.397 C 630.832 719.941,632.712 718.412,637.444 722.135 M701.000 721.345 C 701.000 721.535,700.036 722.547,698.858 723.595 C 696.724 725.493,696.722 725.492,698.099 723.250 C 699.274 721.338,701.000 720.204,701.000 721.345 M324.858 729.856 C 323.427 732.147,321.439 731.979,317.203 729.210 L 314.906 727.708 317.661 724.832 L 320.417 721.955 323.302 724.841 C 325.883 727.422,326.048 727.951,324.858 729.856 M563.116 726.599 L 562.201 730.500 562.100 726.917 C 562.045 724.946,562.300 723.033,562.667 722.667 C 563.897 721.436,564.038 722.671,563.116 726.599 M580.600 724.600 C 580.244 725.527,579.728 726.061,579.453 725.786 C 579.178 725.511,579.244 724.527,579.600 723.600 C 579.956 722.673,580.472 722.139,580.747 722.414 C 581.022 722.689,580.956 723.673,580.600 724.600 M310.500 725.000 C 312.055 726.719,312.089 727.000,310.737 727.000 C 307.907 727.000,306.116 725.862,306.670 724.417 C 307.410 722.490,308.360 722.635,310.500 725.000 M352.000 728.045 C 352.000 728.422,351.046 729.943,349.879 731.426 L 347.759 734.122 345.379 731.887 C 342.488 729.171,342.476 728.936,345.040 725.676 L 347.080 723.083 349.540 725.222 C 350.893 726.398,352.000 727.669,352.000 728.045 M398.960 726.925 C 399.532 727.995,399.178 729.297,397.876 730.904 L 395.942 733.294 393.509 731.009 L 391.077 728.724 393.288 725.990 C 395.579 723.159,397.076 723.405,398.960 726.925 M458.444 731.444 L 456.678 734.140 453.713 731.175 C 450.755 728.217,450.753 728.204,452.624 725.666 L 454.500 723.122 457.355 725.935 C 460.171 728.710,460.186 728.787,458.444 731.444 M620.063 730.433 L 617.726 732.921 615.803 730.477 C 613.943 728.112,613.940 727.955,615.691 725.580 L 617.500 723.126 619.950 725.536 L 622.400 727.945 620.063 730.433 M705.818 726.046 L 708.136 728.981 705.632 730.122 C 700.906 732.275,697.257 728.583,700.534 724.963 C 702.794 722.465,703.028 722.513,705.818 726.046 M336.831 726.320 L 339.011 728.641 336.685 730.826 L 334.359 733.011 332.015 730.516 C 329.739 728.094,329.724 727.962,331.491 726.010 C 333.790 723.470,334.174 723.492,336.831 726.320 M362.509 726.010 C 364.276 727.962,364.261 728.093,362.027 730.471 L 359.726 732.921 357.752 730.412 C 355.862 728.009,355.853 727.820,357.544 725.951 C 359.752 723.512,360.254 723.518,362.509 726.010 M374.922 726.625 L 377.204 729.250 374.802 731.652 L 372.400 734.055 370.096 731.603 C 367.829 729.189,367.822 729.111,369.646 726.607 C 371.965 723.424,372.139 723.425,374.922 726.625 M386.372 726.631 C 388.205 729.146,388.203 729.241,386.320 731.125 C 384.420 733.024,384.367 733.019,382.212 730.726 C 380.198 728.582,380.149 728.233,381.572 726.201 C 383.519 723.420,384.068 723.470,386.372 726.631 M409.275 731.170 L 407.100 733.345 405.167 730.958 C 403.394 728.768,403.362 728.378,404.777 726.218 L 406.319 723.864 408.884 726.430 L 411.449 728.995 409.275 731.170 M422.464 731.808 C 420.059 734.213,419.917 734.235,417.990 732.491 C 415.552 730.285,415.521 729.521,417.750 726.517 L 419.500 724.159 422.224 726.742 L 424.948 729.325 422.464 731.808 M434.500 726.000 C 436.247 727.930,436.247 728.070,434.500 730.000 C 432.242 732.495,431.789 732.493,430.218 729.977 C 429.297 728.502,429.241 727.418,430.012 725.977 C 431.345 723.487,432.230 723.491,434.500 726.000 M445.199 730.474 L 443.122 733.115 441.429 730.532 C 439.830 728.091,439.837 727.838,441.555 725.939 C 443.359 723.946,443.390 723.946,445.325 725.881 C 447.261 727.816,447.260 727.854,445.199 730.474 M609.258 730.187 C 607.121 732.323,607.023 732.331,605.020 730.518 L 602.969 728.662 605.182 726.306 L 607.395 723.951 609.420 725.975 L 611.444 728.000 609.258 730.187 M633.463 726.585 C 635.058 729.018,635.055 729.281,633.423 731.085 C 631.149 733.597,630.376 733.504,628.391 730.474 C 626.842 728.109,626.850 727.823,628.523 725.974 C 630.845 723.408,631.430 723.481,633.463 726.585 M717.501 725.002 C 717.842 725.553,716.939 726.453,715.495 727.002 C 711.932 728.356,711.798 728.297,713.232 726.000 C 714.580 723.842,716.506 723.392,717.501 725.002 M219.800 726.200 C 221.809 728.209,221.207 728.514,215.961 728.151 C 211.773 727.861,211.116 727.565,212.082 726.401 C 213.506 724.685,218.164 724.564,219.800 726.200 M471.171 726.655 C 473.430 728.700,473.466 729.828,471.345 732.171 C 469.162 734.583,468.549 734.487,466.537 731.415 C 464.942 728.982,464.945 728.719,466.577 726.915 C 468.685 724.586,468.873 724.575,471.171 726.655 M484.000 728.636 C 484.000 729.401,483.451 730.906,482.780 731.981 C 481.578 733.906,481.526 733.903,479.274 731.788 L 476.989 729.641 479.157 727.333 C 480.810 725.573,481.643 725.289,482.663 726.135 C 483.398 726.745,484.000 727.871,484.000 728.636 M544.000 727.845 C 544.000 729.420,543.107 731.498,542.000 732.500 C 540.032 734.281,540.000 734.247,540.000 730.322 C 540.000 726.071,540.537 725.000,542.667 725.000 C 543.465 725.000,544.000 726.141,544.000 727.845 M585.509 727.010 C 587.276 728.962,587.261 729.093,584.992 731.509 C 582.813 733.828,582.532 733.886,580.850 732.364 C 579.143 730.820,579.137 730.577,580.738 727.866 C 582.751 724.459,583.137 724.389,585.509 727.010 M597.277 731.168 C 595.464 732.980,594.854 733.124,593.555 732.045 C 591.560 730.390,591.592 729.108,593.687 726.793 C 595.330 724.978,595.426 724.982,597.409 726.965 L 599.444 729.000 597.277 731.168 M812.484 726.364 C 814.141 727.576,813.687 727.741,808.425 727.833 C 803.010 727.929,802.667 727.811,804.441 726.469 C 806.871 724.630,810.056 724.589,812.484 726.364 M645.269 728.750 C 646.642 730.272,646.663 730.752,645.431 732.431 C 644.044 734.322,643.962 734.313,641.520 732.019 C 639.612 730.227,639.286 729.360,640.135 728.337 C 641.645 726.518,643.381 726.658,645.269 728.750 M693.506 729.994 C 692.507 731.097,690.972 731.984,690.095 731.964 C 688.993 731.939,689.415 731.180,691.461 729.508 C 694.873 726.720,696.186 727.032,693.506 729.994 M224.000 731.500 C 224.718 732.365,224.815 733.000,224.229 733.000 C 223.671 733.000,222.955 732.325,222.638 731.500 C 222.322 730.675,222.219 730.000,222.409 730.000 C 222.599 730.000,223.315 730.675,224.000 731.500 M331.076 732.660 C 333.224 735.017,333.272 735.232,331.500 734.547 C 330.400 734.121,328.744 733.555,327.819 733.288 C 326.876 733.016,326.374 732.188,326.676 731.401 C 327.446 729.395,328.330 729.648,331.076 732.660 M356.020 737.478 L 353.641 740.011 351.354 737.863 L 349.067 735.714 351.168 732.764 L 353.269 729.814 355.834 732.380 L 358.400 734.945 356.020 737.478 M368.858 737.651 L 366.600 740.055 364.100 737.555 L 361.600 735.055 364.041 732.457 L 366.482 729.859 368.799 732.553 L 371.117 735.247 368.858 737.651 M380.492 737.653 L 378.792 740.247 376.196 737.651 L 373.600 735.055 375.937 732.567 L 378.274 730.079 380.233 732.569 C 382.095 734.936,382.108 735.186,380.492 737.653 M392.422 737.022 L 390.395 739.049 388.033 736.535 C 385.724 734.078,385.713 733.975,387.525 731.973 L 389.379 729.924 391.914 732.460 L 394.449 734.995 392.422 737.022 M403.980 737.464 C 402.007 739.438,401.993 739.438,399.898 737.343 C 397.852 735.296,397.844 735.168,399.594 732.497 L 401.392 729.753 403.676 732.619 C 405.953 735.474,405.954 735.490,403.980 737.464 M440.134 732.316 C 441.653 734.409,441.644 734.721,440.013 736.736 L 438.258 738.903 435.964 736.462 C 433.739 734.093,433.725 733.962,435.491 732.010 C 437.757 729.506,438.113 729.529,440.134 732.316 M451.824 733.053 C 454.136 735.979,454.138 736.009,452.217 738.451 L 450.285 740.907 447.534 738.036 C 444.803 735.185,444.797 735.145,446.641 732.613 C 447.664 731.211,448.725 730.074,449.000 730.087 C 449.275 730.100,450.546 731.435,451.824 733.053 M614.995 732.490 C 616.155 734.658,616.096 735.237,614.535 736.961 C 612.755 738.928,612.728 738.924,610.760 736.422 C 608.862 734.009,608.853 733.820,610.544 731.951 C 612.833 729.422,613.389 729.489,614.995 732.490 M627.131 737.688 C 625.068 740.533,624.842 740.525,622.000 737.500 L 619.651 735.000 622.021 732.478 L 624.390 729.956 626.576 732.698 C 628.630 735.273,628.663 735.575,627.131 737.688 M697.347 733.133 C 693.668 734.580,692.561 734.142,694.497 732.004 C 695.940 730.408,696.594 730.248,697.749 731.206 C 698.989 732.236,698.932 732.509,697.347 733.133 M788.573 739.540 C 787.176 744.358,785.887 748.447,785.708 748.625 C 784.742 749.591,758.724 761.412,747.804 765.847 C 679.721 793.493,616.778 808.072,554.250 810.678 L 539.000 811.313 539.000 802.657 L 539.000 794.000 550.855 794.000 C 571.633 794.000,605.505 790.522,630.000 785.874 C 646.814 782.684,675.092 775.238,694.000 769.024 C 723.037 759.480,767.193 742.021,784.500 733.241 C 787.800 731.567,790.638 730.328,790.806 730.488 C 790.975 730.648,789.969 734.721,788.573 739.540 M251.500 738.495 C 285.452 753.579,326.255 768.636,353.298 776.061 C 391.314 786.498,428.658 792.247,467.750 793.682 L 485.000 794.315 485.000 802.810 L 485.000 811.306 466.250 810.709 C 446.375 810.077,434.606 808.773,405.402 803.965 C 358.489 796.241,298.714 776.995,247.500 753.124 L 238.500 748.929 236.799 742.215 C 235.863 738.522,234.778 734.412,234.388 733.081 C 233.842 731.220,234.004 730.797,235.089 731.247 C 235.865 731.568,243.250 734.830,251.500 738.495 M343.859 733.350 C 345.816 735.433,345.892 735.844,344.534 736.972 C 343.306 737.991,342.407 737.997,340.001 737.000 C 336.523 735.560,336.434 735.283,338.655 732.829 C 340.781 730.479,341.202 730.521,343.859 733.350 M416.227 739.218 L 414.154 741.290 411.651 738.395 L 409.148 735.500 411.190 733.312 L 413.233 731.123 415.766 734.134 L 418.300 737.145 416.227 739.218 M428.441 732.935 C 430.110 734.779,430.106 734.988,428.346 737.403 C 426.107 740.477,425.782 740.521,423.559 738.065 C 421.890 736.221,421.894 736.012,423.654 733.597 C 425.893 730.523,426.218 730.479,428.441 732.935 M591.530 737.925 L 589.005 740.449 586.805 738.249 L 584.605 736.049 586.982 733.519 L 589.359 730.989 591.707 733.194 L 594.055 735.400 591.530 737.925 M603.509 733.010 C 605.275 734.962,605.261 735.093,603.036 737.462 L 600.742 739.903 598.988 737.737 C 597.409 735.787,597.384 735.344,598.732 733.286 C 600.567 730.485,601.191 730.449,603.509 733.010 M641.000 736.753 C 641.000 737.268,640.178 738.434,639.173 739.344 C 637.461 740.893,637.198 740.840,634.999 738.499 L 632.651 736.000 634.963 733.540 L 637.274 731.079 639.137 733.447 C 640.162 734.750,641.000 736.237,641.000 736.753 M216.393 733.479 C 219.634 734.253,222.743 735.343,223.301 735.901 C 224.738 737.338,222.308 740.000,219.559 740.000 C 217.372 740.000,209.000 734.281,209.000 732.786 C 209.000 731.769,209.387 731.805,216.393 733.479 M464.833 738.678 C 462.793 740.849,462.537 740.891,460.827 739.344 C 458.566 737.298,458.534 736.172,460.669 733.813 C 462.286 732.026,462.410 732.037,464.675 734.164 L 467.011 736.359 464.833 738.678 M477.423 733.915 C 479.055 735.719,479.058 735.982,477.463 738.415 C 475.407 741.554,475.278 741.564,473.028 738.786 C 471.410 736.788,471.381 736.348,472.732 734.286 C 474.555 731.504,475.195 731.454,477.423 733.915 M650.828 734.096 C 651.944 735.883,651.878 736.477,650.381 738.131 C 648.645 740.049,648.604 740.049,646.626 738.071 C 644.681 736.125,644.676 736.015,646.468 734.035 C 648.770 731.491,649.205 731.497,650.828 734.096 M815.988 733.250 C 815.973 734.711,810.178 738.667,806.820 739.508 C 803.853 740.251,800.453 737.869,801.306 735.645 C 801.705 734.605,803.143 733.974,805.219 733.930 C 807.023 733.891,809.400 733.473,810.500 733.000 C 813.477 731.721,816.002 731.836,815.988 733.250 M545.331 736.750 C 546.021 740.373,544.552 741.134,542.437 738.250 C 541.373 736.800,541.424 736.199,542.737 734.744 C 544.610 732.667,544.545 732.617,545.331 736.750 M579.337 734.820 C 580.882 736.527,580.803 736.815,578.073 739.430 L 575.161 742.220 576.057 738.360 C 576.549 736.237,576.963 734.163,576.976 733.750 C 577.013 732.598,577.544 732.838,579.337 734.820 M687.000 733.943 C 687.000 734.462,686.018 735.574,684.818 736.415 C 683.209 737.542,682.290 737.656,681.318 736.849 C 679.513 735.351,679.666 734.234,681.750 733.689 C 684.867 732.875,687.000 732.978,687.000 733.943 M232.000 740.082 C 232.000 741.016,233.125 746.111,234.500 751.403 C 238.470 766.683,237.498 773.707,233.174 760.985 C 231.786 756.904,230.725 755.381,228.913 754.874 C 226.553 754.214,226.549 754.197,228.750 754.100 C 231.426 753.981,231.437 753.648,229.097 744.000 C 227.793 738.624,227.592 736.293,228.389 735.769 C 229.700 734.905,232.000 737.652,232.000 740.082 M663.911 736.638 C 664.136 736.830,663.498 737.897,662.492 739.009 L 660.662 741.031 658.362 738.870 C 657.097 737.682,656.290 736.339,656.570 735.887 C 657.023 735.155,662.873 735.752,663.911 736.638 M798.000 736.669 C 798.000 737.546,792.868 755.520,792.053 757.500 C 791.599 758.600,790.840 761.221,790.364 763.324 C 789.454 767.352,787.734 768.573,787.161 765.598 C 786.869 764.080,793.479 737.751,794.644 735.794 C 795.071 735.075,798.000 735.838,798.000 736.669 M677.595 737.155 C 678.004 737.816,677.873 738.040,677.288 737.678 C 676.727 737.331,675.462 737.937,674.479 739.024 C 672.221 741.519,670.358 741.538,669.043 739.081 C 668.296 737.685,668.355 737.024,669.258 736.660 C 671.640 735.697,676.887 736.009,677.595 737.155 M200.279 740.106 C 206.540 743.231,211.384 747.048,213.097 750.205 C 213.903 751.690,212.503 755.718,208.368 763.812 C 208.112 764.314,190.194 755.136,189.754 754.278 C 189.305 753.401,192.994 737.000,193.641 737.000 C 193.870 737.000,196.857 738.398,200.279 740.106 M348.500 738.000 C 348.840 738.550,348.641 739.000,348.059 739.000 C 347.477 739.000,347.000 738.550,347.000 738.000 C 347.000 737.450,347.198 737.000,347.441 737.000 C 347.684 737.000,348.160 737.450,348.500 738.000 M363.012 739.513 C 366.194 742.899,364.575 744.258,359.707 742.287 C 356.082 740.820,355.990 740.669,357.612 738.876 C 359.801 736.458,360.185 736.503,363.012 739.513 M374.833 743.678 C 372.745 745.901,372.568 745.925,370.577 744.259 C 369.435 743.303,368.311 742.402,368.079 742.257 C 367.848 742.111,368.716 740.866,370.009 739.490 L 372.359 736.989 374.685 739.174 L 377.011 741.359 374.833 743.678 M386.423 738.915 C 388.055 740.719,388.058 740.982,386.463 743.415 C 384.410 746.550,384.229 746.564,381.309 743.820 L 378.989 741.641 381.169 739.320 C 383.811 736.508,384.216 736.477,386.423 738.915 M398.322 739.368 C 399.686 741.450,399.698 741.987,398.418 743.814 L 396.963 745.891 394.700 743.695 C 392.608 741.666,392.552 741.332,393.968 739.281 C 395.916 736.460,396.423 736.470,398.322 739.368 M411.964 743.095 C 412.011 743.879,408.062 747.441,407.733 746.911 C 407.593 746.685,406.661 745.526,405.661 744.335 C 403.929 742.271,403.925 742.044,405.580 739.517 L 407.318 736.866 409.623 739.683 C 410.891 741.232,411.944 742.768,411.964 743.095 M434.423 738.915 C 436.055 740.719,436.058 740.982,434.463 743.415 C 432.435 746.511,431.843 746.589,429.559 744.065 C 427.890 742.221,427.894 742.012,429.654 739.597 C 431.890 736.527,432.219 736.480,434.423 738.915 M448.000 742.346 C 448.000 742.894,447.258 744.162,446.351 745.164 C 444.772 746.910,444.605 746.854,442.361 743.811 C 440.167 740.838,440.124 740.521,441.678 738.803 C 443.283 737.030,443.415 737.041,445.669 739.159 C 446.951 740.363,448.000 741.797,448.000 742.346 M609.036 739.067 C 609.900 740.682,609.782 741.684,608.493 743.651 C 606.914 746.060,606.761 746.094,604.922 744.429 C 602.569 742.300,602.516 741.192,604.655 738.829 C 606.785 736.475,607.675 736.524,609.036 739.067 M622.067 743.875 C 620.607 746.603,619.865 746.549,617.010 743.510 C 614.724 741.077,614.713 740.974,616.525 738.973 L 618.379 736.924 620.791 739.337 C 622.821 741.366,623.023 742.088,622.067 743.875 M833.001 746.507 L 834.758 755.102 825.899 759.551 C 821.026 761.998,816.621 764.000,816.109 764.000 C 814.826 764.000,811.000 755.871,811.000 753.144 C 811.000 749.216,815.244 744.920,823.000 740.997 C 827.125 738.910,830.668 737.362,830.873 737.557 C 831.077 737.752,832.035 741.779,833.001 746.507 M422.422 745.022 L 420.395 747.049 418.033 744.535 C 415.724 742.078,415.713 741.975,417.525 739.973 L 419.379 737.924 421.914 740.460 L 424.449 742.995 422.422 745.022 M460.000 742.500 C 460.000 743.155,459.128 744.479,458.063 745.443 C 456.212 747.118,456.028 747.104,453.882 745.105 L 451.638 743.014 453.992 740.509 C 456.198 738.160,456.461 738.107,458.173 739.656 C 459.178 740.566,460.000 741.845,460.000 742.500 M484.000 742.500 C 484.000 743.740,483.300 745.336,482.445 746.045 C 481.149 747.121,480.557 747.001,478.881 745.325 L 476.871 743.315 479.172 740.731 C 481.774 737.810,484.000 738.626,484.000 742.500 M597.146 739.632 C 598.879 741.201,598.868 741.376,596.859 744.198 L 594.770 747.132 592.379 744.887 L 589.989 742.641 592.169 740.320 C 594.764 737.557,594.842 737.547,597.146 739.632 M634.000 740.500 L 636.349 743.000 634.012 745.488 C 631.509 748.151,629.992 747.722,627.866 743.749 C 627.086 742.292,627.256 741.375,628.575 739.917 C 630.802 737.456,631.178 737.497,634.000 740.500 M644.850 740.132 C 646.013 741.993,645.921 742.524,644.126 744.319 C 642.120 746.324,642.021 746.329,640.020 744.518 L 637.969 742.662 640.159 740.331 C 642.846 737.471,643.180 737.457,644.850 740.132 M656.452 740.567 C 657.772 742.582,657.878 743.442,656.944 744.567 C 655.335 746.506,652.994 746.372,651.432 744.250 C 650.342 742.770,650.468 742.152,652.246 740.250 C 653.402 739.013,654.443 738.000,654.559 738.000 C 654.675 738.000,655.527 739.155,656.452 740.567 M470.702 745.049 C 468.715 746.665,468.333 746.690,466.792 745.303 C 465.181 743.853,465.181 743.635,466.792 741.467 L 468.500 739.168 470.702 741.213 L 472.903 743.258 470.702 745.049 M584.995 740.990 C 585.809 742.512,585.668 743.577,584.394 745.522 C 582.818 747.927,582.628 747.973,580.864 746.377 C 578.569 744.300,578.527 743.180,580.655 740.829 C 582.771 738.491,583.675 738.524,584.995 740.990 M667.504 741.994 C 666.947 742.896,662.000 743.971,662.000 743.190 C 662.000 742.897,662.743 741.836,663.652 740.832 C 664.900 739.453,665.631 739.278,666.641 740.117 C 667.376 740.727,667.765 741.572,667.504 741.994 M541.961 741.928 C 543.012 743.890,542.424 747.000,541.002 747.000 C 540.571 747.000,540.035 745.425,539.810 743.500 C 539.361 739.652,540.355 738.926,541.961 741.928 M217.653 744.469 C 219.708 745.909,221.513 750.000,220.093 750.000 C 219.188 750.000,214.000 744.632,214.000 743.695 C 214.000 742.588,215.387 742.882,217.653 744.469 M381.000 745.673 L 383.500 748.311 379.500 747.567 C 374.625 746.659,374.382 746.449,375.980 744.524 C 377.665 742.494,378.077 742.588,381.000 745.673 M393.718 749.079 C 392.885 750.414,391.859 750.761,390.032 750.326 C 385.985 749.363,385.839 749.015,388.232 746.047 L 390.500 743.235 392.687 745.232 C 394.483 746.873,394.667 747.560,393.718 749.079 M602.485 750.969 L 600.005 753.449 597.891 751.335 L 595.777 749.221 598.127 746.042 L 600.478 742.862 602.722 745.676 L 604.965 748.489 602.485 750.969 M808.432 746.500 C 805.665 750.128,804.000 750.951,804.000 748.691 C 804.000 746.214,807.174 743.387,810.301 743.079 C 810.741 743.036,809.900 744.575,808.432 746.500 M404.537 746.417 C 405.865 748.443,405.911 749.170,404.820 750.917 C 403.191 753.525,402.907 753.496,400.724 750.496 C 399.237 748.452,399.154 747.726,400.215 746.028 C 401.853 743.404,402.608 743.472,404.537 746.417 M428.200 750.596 C 426.117 753.464,425.762 753.500,423.559 751.065 C 421.890 749.221,421.894 749.015,423.654 746.649 L 425.500 744.168 427.700 746.212 C 429.804 748.165,429.826 748.359,428.200 750.596 M440.884 746.376 L 443.117 748.753 440.799 751.447 L 438.482 754.141 436.137 751.646 C 433.828 749.188,433.820 749.113,435.646 746.607 C 437.942 743.457,438.133 743.448,440.884 746.376 M453.946 749.000 C 453.941 749.275,453.270 750.382,452.455 751.459 C 450.989 753.398,450.952 753.396,448.865 751.309 C 446.791 749.235,446.787 749.158,448.628 746.662 L 450.500 744.124 452.228 746.312 C 453.178 747.515,453.951 748.725,453.946 749.000 M615.733 746.407 L 617.826 748.815 615.417 751.078 C 614.092 752.323,612.889 753.152,612.743 752.921 C 612.598 752.689,611.626 751.487,610.584 750.250 C 608.755 748.077,608.752 747.932,610.500 746.000 C 612.802 743.457,613.194 743.487,615.733 746.407 M640.000 747.506 C 640.000 748.802,636.989 749.962,633.563 749.986 C 631.855 749.998,631.964 749.647,634.482 747.018 C 636.669 744.736,637.651 744.295,638.670 745.141 C 639.401 745.748,640.000 746.812,640.000 747.506 M649.347 747.133 C 645.668 748.580,644.561 748.142,646.497 746.004 C 647.940 744.408,648.594 744.248,649.749 745.206 C 650.989 746.236,650.932 746.509,649.347 747.133 M415.831 747.320 L 418.011 749.641 415.647 751.861 L 413.284 754.082 411.563 751.456 C 409.935 748.972,409.936 748.728,411.577 746.915 C 412.530 745.862,413.387 745.000,413.481 745.000 C 413.575 745.000,414.632 746.044,415.831 747.320 M464.258 751.187 C 462.121 753.323,462.023 753.331,460.020 751.518 L 457.969 749.662 460.182 747.306 L 462.395 744.951 464.420 746.975 L 466.444 749.000 464.258 751.187 M477.344 751.173 C 475.349 753.377,473.657 753.496,472.040 751.548 C 471.081 750.393,471.209 749.592,472.667 747.632 L 474.500 745.168 476.749 747.257 C 478.852 749.211,478.891 749.463,477.344 751.173 M533.000 761.500 L 533.000 778.000 512.000 778.000 L 491.000 778.000 491.000 761.500 L 491.000 745.000 512.000 745.000 L 533.000 745.000 533.000 761.500 M546.250 751.913 C 544.194 755.525,543.451 755.711,541.989 752.979 C 540.877 750.902,541.204 749.781,543.808 746.749 C 545.235 745.087,545.379 745.096,546.655 746.918 C 547.802 748.556,547.743 749.290,546.250 751.913 M592.000 749.500 C 592.000 750.155,591.173 751.438,590.162 752.353 C 588.443 753.909,588.210 753.889,586.531 752.034 C 584.831 750.156,584.827 749.913,586.446 747.441 C 588.084 744.942,588.238 744.905,590.078 746.571 C 591.135 747.527,592.000 748.845,592.000 749.500 M627.774 747.908 C 629.619 750.403,629.705 750.899,628.380 751.408 C 625.740 752.421,624.527 752.074,623.183 749.922 C 622.181 748.317,622.154 747.519,623.065 746.422 C 624.727 744.419,625.337 744.612,627.774 747.908 M578.532 748.035 C 580.326 750.018,580.318 750.127,578.191 752.254 C 576.142 754.302,575.904 754.333,574.319 752.748 C 572.849 751.278,572.806 750.731,573.984 748.530 C 575.622 745.470,576.158 745.412,578.532 748.035 M483.683 750.188 C 483.364 750.985,483.127 750.748,483.079 749.583 C 483.036 748.529,483.272 747.939,483.604 748.271 C 483.936 748.603,483.972 749.466,483.683 750.188 M398.000 751.000 C 398.000 751.550,397.550 752.000,397.000 752.000 C 396.450 752.000,396.000 751.550,396.000 751.000 C 396.000 750.450,396.450 750.000,397.000 750.000 C 397.550 750.000,398.000 750.450,398.000 751.000 M409.771 752.813 C 410.011 753.534,409.105 754.000,407.461 754.000 C 405.143 754.000,404.938 753.780,406.028 752.467 C 407.420 750.789,409.150 750.949,409.771 752.813 M422.812 755.521 C 422.495 755.838,421.081 755.807,419.669 755.453 C 417.441 754.894,417.258 754.559,418.285 752.916 C 419.441 751.063,419.509 751.065,421.428 752.984 C 422.506 754.062,423.129 755.204,422.812 755.521 M434.056 753.250 C 436.758 756.489,436.478 757.000,432.000 757.000 C 427.476 757.000,427.386 756.867,429.615 753.465 C 431.589 750.452,431.717 750.446,434.056 753.250 M447.265 757.250 C 446.399 758.212,444.846 759.000,443.814 759.000 C 440.898 759.000,440.482 756.180,443.002 753.497 L 445.258 751.097 447.049 753.298 C 448.683 755.307,448.702 755.653,447.265 757.250 M596.880 753.372 C 598.840 755.459,598.912 755.820,597.472 756.372 C 595.440 757.152,590.000 757.200,590.000 756.438 C 590.000 755.595,593.413 751.068,594.076 751.031 C 594.392 751.014,595.654 752.067,596.880 753.372 M608.698 752.887 C 609.740 754.557,609.519 754.846,606.778 755.394 C 602.836 756.183,602.211 755.529,604.494 753.006 C 606.738 750.527,607.215 750.513,608.698 752.887 M620.500 752.000 C 620.840 752.550,620.165 753.000,619.000 753.000 C 617.835 753.000,617.160 752.550,617.500 752.000 C 617.840 751.450,618.515 751.000,619.000 751.000 C 619.485 751.000,620.160 751.450,620.500 752.000 M458.122 753.610 C 459.764 755.097,459.779 755.407,458.315 757.642 C 456.815 759.931,456.626 759.972,454.864 758.377 C 452.706 756.424,452.509 754.891,454.200 753.200 C 455.744 751.656,455.991 751.682,458.122 753.610 M470.039 757.405 C 468.134 759.311,467.904 759.332,466.321 757.749 C 464.738 756.167,464.748 755.936,466.479 754.023 C 468.220 752.099,468.430 752.080,470.198 753.679 C 472.026 755.333,472.022 755.423,470.039 757.405 M482.593 754.513 C 483.169 756.811,481.731 760.000,480.118 760.000 C 479.768 760.000,478.892 759.057,478.172 757.904 C 477.058 756.120,477.120 755.525,478.587 753.904 C 480.889 751.360,481.837 751.504,482.593 754.513 M586.000 756.120 C 586.000 756.565,585.052 757.437,583.893 758.057 C 580.816 759.704,579.287 757.860,580.862 754.404 C 582.030 751.841,582.135 751.812,584.035 753.532 C 585.116 754.510,586.000 755.674,586.000 756.120 M552.917 753.261 C 552.688 753.404,551.375 754.417,550.000 755.511 L 547.500 757.500 549.405 755.250 C 550.453 754.013,551.765 753.000,552.322 753.000 C 552.878 753.000,553.146 753.117,552.917 753.261 M572.267 754.405 C 573.319 755.203,573.782 756.405,573.410 757.373 C 572.577 759.544,571.299 759.427,570.035 757.066 C 567.969 753.206,569.027 751.945,572.267 754.405 M220.000 756.060 C 220.000 756.578,216.428 763.111,212.062 770.578 C 207.697 778.045,203.088 787.045,201.821 790.577 C 199.707 796.474,198.349 798.015,196.712 796.378 C 195.913 795.579,199.535 788.428,208.046 774.000 C 211.777 767.675,215.591 760.590,216.521 758.256 C 217.995 754.557,220.000 753.291,220.000 756.060 M796.729 754.604 C 796.397 754.936,795.534 754.972,794.813 754.683 C 794.015 754.364,794.252 754.127,795.417 754.079 C 796.471 754.036,797.061 754.272,796.729 754.604 M543.000 758.706 C 543.000 761.069,540.532 759.564,540.154 756.970 C 539.852 754.897,540.010 754.764,541.404 755.920 C 542.282 756.649,543.000 757.902,543.000 758.706 M561.066 756.035 C 563.013 757.077,563.516 759.493,562.393 762.418 C 561.986 763.478,560.528 764.000,557.975 764.000 C 552.665 764.000,551.000 763.156,551.000 760.464 C 551.000 755.852,556.336 753.504,561.066 756.035 M807.000 757.590 C 807.000 759.016,811.239 767.664,816.437 776.840 C 827.863 797.013,827.858 797.000,825.107 797.000 C 823.933 797.000,823.000 796.358,823.000 795.549 C 823.000 794.752,819.012 786.314,814.137 776.799 C 803.953 756.922,803.186 755.000,805.433 755.000 C 806.452 755.000,807.000 755.905,807.000 757.590 M252.984 762.493 C 287.299 778.373,330.090 793.375,367.150 802.519 C 383.556 806.567,422.576 813.441,437.747 814.955 C 443.383 815.517,456.320 816.278,466.497 816.646 L 485.000 817.314 485.000 827.309 L 485.000 837.305 463.750 836.668 C 405.908 834.936,346.644 821.567,280.500 795.329 C 256.302 785.730,241.507 778.764,240.667 776.574 C 240.304 775.629,240.456 774.017,241.004 772.993 C 242.256 770.654,242.288 764.490,241.070 760.243 C 240.558 758.460,240.359 757.000,240.627 757.000 C 240.896 757.000,246.456 759.472,252.984 762.493 M783.225 760.250 C 782.343 764.205,782.462 772.554,783.452 776.107 C 784.162 778.654,783.827 778.869,768.839 785.495 C 750.685 793.522,723.087 803.947,701.454 810.952 C 656.039 825.657,591.329 837.000,552.860 837.000 L 539.000 837.000 539.000 827.158 L 539.000 817.316 557.750 816.665 C 592.915 815.443,623.483 810.734,666.103 799.974 C 699.171 791.626,740.285 777.025,770.000 763.078 C 776.875 759.851,782.826 757.163,783.225 757.105 C 783.624 757.047,783.624 758.462,783.225 760.250 M452.000 759.000 C 452.000 759.550,451.577 760.000,451.059 760.000 C 450.541 760.000,449.840 759.550,449.500 759.000 C 449.160 758.450,449.584 758.000,450.441 758.000 C 451.298 758.000,452.000 758.450,452.000 759.000 M463.000 758.893 C 463.000 759.384,462.325 760.045,461.500 760.362 C 459.976 760.947,459.452 759.881,460.667 758.667 C 461.622 757.711,463.000 757.845,463.000 758.893 M476.000 759.441 C 476.000 759.684,475.550 760.160,475.000 760.500 C 474.450 760.840,474.000 760.641,474.000 760.059 C 474.000 759.477,474.450 759.000,475.000 759.000 C 475.550 759.000,476.000 759.198,476.000 759.441 M202.850 769.000 C 204.617 769.000,204.282 770.024,200.420 776.428 C 190.695 792.558,186.368 804.267,187.540 811.287 C 190.084 826.516,203.205 837.997,218.068 837.999 C 227.497 838.000,233.902 835.792,239.767 830.520 C 249.310 821.940,251.886 810.849,247.516 797.156 C 246.052 792.567,245.040 788.627,245.267 788.399 C 245.495 788.172,252.165 790.743,260.090 794.114 C 287.897 805.939,317.468 816.404,347.000 824.871 C 376.580 833.352,423.095 841.290,451.392 842.686 L 464.284 843.323 463.665 853.411 C 463.324 858.960,461.923 881.275,460.551 903.000 C 456.637 965.006,455.017 998.695,454.107 1037.000 C 453.323 1069.968,453.976 1119.375,455.484 1141.188 C 458.615 1186.509,460.714 1206.292,465.532 1235.898 C 466.910 1244.367,467.917 1251.403,467.769 1251.534 C 467.192 1252.047,435.881 1248.034,425.000 1246.052 C 418.675 1244.901,383.575 1239.030,347.000 1233.006 C 249.167 1216.894,205.076 1208.962,195.261 1205.710 C 191.959 1204.615,191.437 1203.927,189.795 1198.500 C 173.059 1143.192,166.603 1086.180,166.579 993.500 C 166.557 908.735,172.253 838.779,184.086 778.500 C 185.706 770.250,187.230 762.949,187.474 762.277 C 187.772 761.453,190.166 762.350,194.808 765.027 C 198.599 767.212,202.218 769.000,202.850 769.000 M840.347 780.750 C 844.725 803.111,846.298 813.071,848.918 835.000 C 855.971 894.044,859.661 986.874,857.106 1041.000 C 853.885 1109.236,847.825 1152.941,835.857 1194.246 C 832.186 1206.915,836.157 1204.843,802.894 1211.442 C 779.369 1216.109,761.008 1219.271,672.000 1233.983 C 642.025 1238.938,609.714 1244.329,600.198 1245.965 C 584.181 1248.718,556.861 1252.192,556.225 1251.557 C 556.073 1251.406,557.070 1244.582,558.441 1236.391 C 562.769 1210.523,566.199 1176.852,568.669 1136.000 C 570.713 1102.172,570.930 1035.216,569.115 998.000 C 567.346 961.735,564.203 908.257,561.975 876.500 C 560.894 861.100,560.008 847.263,560.005 845.750 C 560.000 843.015,560.039 843.000,566.894 843.000 C 588.661 843.000,639.426 834.669,677.000 824.930 C 704.040 817.922,756.517 799.267,774.217 790.371 C 776.811 789.067,779.118 788.000,779.343 788.000 C 779.568 788.000,778.610 791.038,777.215 794.750 C 773.710 804.076,773.534 815.642,776.802 821.791 C 782.226 831.997,792.767 838.168,805.000 838.301 C 817.783 838.440,828.288 832.242,833.571 821.444 C 835.971 816.539,836.203 815.142,835.770 808.230 C 835.225 799.542,833.217 794.331,824.781 779.715 C 821.904 774.729,819.988 770.498,820.525 770.313 C 821.061 770.127,824.650 768.200,828.500 766.030 C 832.350 763.860,835.765 762.066,836.088 762.042 C 836.411 762.019,838.328 770.438,840.347 780.750 M566.295 767.150 C 562.062 771.382,547.000 770.078,547.000 765.478 C 547.000 764.094,547.388 764.160,549.635 765.927 C 554.073 769.418,566.000 768.250,566.000 764.325 C 566.000 762.974,566.263 762.863,567.211 763.811 C 568.159 764.759,567.960 765.484,566.295 767.150 M242.000 797.655 C 242.000 797.845,241.424 798.000,240.721 798.000 C 239.264 798.000,227.000 772.369,227.000 769.325 C 227.000 764.368,228.794 767.078,235.163 781.659 C 238.923 790.267,242.000 797.465,242.000 797.655 M798.000 768.552 C 798.000 771.216,785.511 797.935,784.250 797.967 C 782.635 798.009,782.636 798.004,785.069 791.787 C 792.510 772.770,798.000 762.906,798.000 768.552 M542.408 770.363 C 542.755 772.212,543.881 774.488,544.911 775.420 C 546.043 776.444,546.577 777.900,546.262 779.105 C 545.643 781.473,549.485 786.000,552.115 786.000 C 553.087 786.000,554.160 786.450,554.500 787.000 C 554.892 787.635,552.177 788.000,547.059 788.000 L 539.000 788.000 539.000 777.500 C 539.000 769.207,539.292 767.000,540.389 767.000 C 541.173 767.000,542.052 768.463,542.408 770.363 M559.348 772.702 C 563.125 772.360,564.831 772.494,563.932 773.063 C 561.083 774.866,549.000 773.883,549.000 771.848 C 549.000 771.343,549.975 771.451,551.166 772.089 C 552.496 772.801,555.652 773.037,559.348 772.702 M220.702 777.747 C 224.737 779.416,225.134 779.982,229.610 790.467 C 234.803 802.630,235.828 807.962,234.023 813.429 C 231.446 821.238,219.752 824.966,212.026 820.442 C 206.040 816.937,204.500 813.805,204.500 805.137 C 204.500 797.882,204.807 796.796,209.710 786.714 C 212.575 780.821,215.270 776.000,215.699 776.000 C 216.128 776.000,218.379 776.786,220.702 777.747 M559.264 776.704 C 558.034 776.941,555.784 776.947,554.264 776.718 C 552.744 776.488,553.750 776.294,556.500 776.286 C 559.250 776.279,560.494 776.467,559.264 776.704 M812.814 786.797 C 819.223 800.292,820.778 806.459,819.148 811.901 C 815.974 822.494,801.106 825.939,793.377 817.872 C 790.967 815.356,790.506 813.947,790.175 808.089 C 789.816 801.737,790.127 800.451,794.511 790.183 C 798.815 780.101,799.556 778.987,802.867 777.612 C 804.865 776.782,806.767 776.080,807.094 776.052 C 807.420 776.023,809.994 780.859,812.814 786.797 M560.896 781.086 C 559.278 782.110,554.874 782.273,552.582 781.393 C 549.395 780.170,551.138 779.509,556.644 779.851 C 560.405 780.085,561.825 780.497,560.896 781.086 M533.000 920.000 L 533.000 1056.000 512.000 1056.000 L 491.000 1056.000 491.000 920.000 L 491.000 784.000 512.000 784.000 L 533.000 784.000 533.000 920.000 M196.750 803.630 C 198.618 804.131,199.004 804.935,199.022 808.367 C 199.080 819.334,208.112 827.989,219.500 827.989 C 230.524 827.989,239.669 819.629,240.273 808.999 C 240.446 805.956,240.915 805.009,242.250 805.005 C 245.086 804.997,244.548 812.561,241.250 819.064 C 235.176 831.041,220.373 836.100,208.500 830.256 C 204.178 828.129,198.149 822.118,195.830 817.622 C 193.708 813.510,192.110 802.991,193.610 803.014 C 194.100 803.021,195.512 803.299,196.750 803.630 M784.006 807.250 C 784.026 819.308,792.586 827.956,804.500 827.956 C 816.144 827.956,825.000 819.349,825.000 808.032 C 825.000 804.398,825.247 804.000,827.500 804.000 C 829.799 804.000,830.000 804.365,830.000 808.532 C 830.000 819.587,821.265 829.463,809.200 832.051 C 795.074 835.080,780.000 823.079,780.000 808.804 C 780.000 804.667,780.278 804.000,782.000 804.000 C 783.589 804.000,784.001 804.669,784.006 807.250 M485.000 971.000 L 485.000 1099.000 488.750 1099.000 L 492.500 1098.999 492.192 1174.724 C 492.023 1216.373,491.648 1250.686,491.359 1250.975 C 491.071 1251.264,487.134 1251.655,482.611 1251.845 L 474.388 1252.189 473.130 1244.345 C 459.650 1160.309,456.910 1084.975,463.026 966.500 C 464.367 940.537,469.818 855.043,470.566 848.250 L 471.144 843.000 478.072 843.000 L 485.000 843.000 485.000 971.000 M553.429 846.250 C 554.484 852.854,560.372 948.002,561.953 984.000 C 562.521 996.925,563.218 1011.325,563.503 1016.000 C 563.787 1020.675,564.028 1042.275,564.038 1064.000 C 564.069 1129.623,559.845 1189.795,551.771 1238.750 L 549.586 1252.000 544.543 1251.989 C 541.769 1251.983,537.813 1251.699,535.750 1251.358 L 532.000 1250.738 532.000 1174.869 L 532.000 1099.000 535.500 1099.000 L 539.000 1099.000 539.000 971.000 L 539.000 843.000 545.955 843.000 L 552.909 843.000 553.429 846.250 M532.500 1076.750 C 532.500 1084.588,532.163 1091.000,531.750 1091.000 C 531.337 1091.000,522.000 1091.000,511.000 1091.000 L 491.000 1091.000 491.000 1076.480 L 491.000 1061.959 511.750 1062.230 L 532.500 1062.500 532.500 1076.750 M525.000 1098.684 C 525.275 1098.949,525.624 1139.641,525.776 1189.111 L 526.052 1279.055 511.776 1278.778 L 497.500 1278.500 497.653 1270.500 C 497.738 1266.100,498.137 1225.375,498.541 1180.000 L 499.274 1097.500 511.887 1097.851 C 518.824 1098.044,524.725 1098.419,525.000 1098.684 M193.630 1212.033 C 209.953 1216.242,242.722 1222.135,321.500 1235.028 C 358.900 1241.149,399.577 1247.942,411.894 1250.123 C 445.877 1256.142,452.958 1257.022,472.750 1257.686 L 491.000 1258.298 491.000 1267.982 C 491.000 1273.309,490.813 1277.854,490.583 1278.083 C 490.354 1278.313,483.942 1278.171,476.333 1277.770 C 449.404 1276.348,442.101 1276.509,429.000 1278.816 C 422.125 1280.026,410.200 1281.683,402.500 1282.498 C 377.281 1285.165,363.026 1284.672,272.000 1277.983 C 215.366 1273.822,178.322 1264.578,170.512 1252.659 C 169.474 1251.075,168.124 1242.954,166.476 1228.389 C 165.114 1216.350,164.000 1205.550,164.000 1204.389 C 164.000 1202.335,164.241 1202.369,172.981 1205.652 C 177.921 1207.507,187.213 1210.379,193.630 1212.033 M860.331 1204.750 C 860.154 1206.263,859.089 1216.193,857.966 1226.818 C 856.842 1237.443,855.654 1247.482,855.324 1249.128 C 853.413 1258.687,835.592 1266.252,801.500 1271.977 C 781.557 1275.326,762.964 1277.109,712.500 1280.510 C 646.019 1284.990,630.170 1284.771,596.000 1278.898 C 583.179 1276.694,569.141 1276.627,541.250 1278.634 L 532.000 1279.299 532.000 1268.650 L 532.000 1258.000 545.043 1258.000 C 560.608 1258.000,580.163 1255.967,604.000 1251.871 C 652.629 1243.515,670.986 1240.429,710.500 1233.969 C 778.214 1222.897,805.672 1217.936,826.517 1213.005 C 838.215 1210.238,854.140 1205.181,857.723 1203.095 C 860.378 1201.550,860.684 1201.743,860.331 1204.750"></path></svg>