<svg xmlns="http://www.w3.org/2000/svg" height="1536" width="1024" version="1.1" id="svg"><path fill-rule="evenodd" fill="black" stroke="none" d="M491.500 392.687 C 470.391 394.064,444.421 399.443,422.857 406.905 C 409.131 411.654,383.519 422.921,371.213 429.624 C 339.511 446.890,299.859 480.381,273.317 512.311 C 209.217 589.423,171.064 685.179,160.522 795.411 C 159.685 804.161,158.999 812.936,158.997 814.911 C 158.994 818.458,158.944 818.501,154.747 818.548 C 144.916 818.659,139.019 822.901,136.247 831.856 C 134.632 837.075,134.500 845.339,134.500 941.500 L 134.500 1045.500 136.889 1050.788 C 140.632 1059.071,150.160 1066.159,167.791 1073.777 C 175.482 1077.100,205.525 1085.644,217.875 1088.021 C 223.719 1089.145,233.225 1091.403,239.000 1093.038 C 244.775 1094.674,256.925 1097.334,266.000 1098.950 C 275.075 1100.566,284.975 1102.361,288.000 1102.939 C 298.263 1104.899,352.149 1110.644,403.000 1115.201 C 422.364 1116.936,588.732 1116.976,613.500 1115.252 C 675.131 1110.961,782.119 1096.984,811.391 1089.399 C 842.802 1081.259,872.739 1068.963,881.225 1060.715 C 890.225 1051.968,889.379 1062.611,890.228 947.500 C 890.742 877.837,890.649 843.472,889.935 839.102 C 887.882 826.537,882.649 820.895,871.171 818.873 L 865.000 817.786 864.998 809.643 C 864.993 788.853,857.929 739.007,851.019 711.000 C 836.065 650.385,813.720 597.517,784.662 554.000 C 766.755 527.181,756.609 514.584,736.059 493.653 C 698.637 455.539,663.548 431.212,620.000 413.190 C 597.160 403.738,572.786 397.196,546.720 393.520 C 536.829 392.125,507.002 391.675,491.500 392.687 M498.000 404.820 C 498.000 405.270,494.070 408.308,489.267 411.570 C 468.078 425.958,438.976 459.614,419.287 492.500 C 405.799 515.029,390.149 547.369,381.058 571.500 C 373.361 591.930,360.775 636.829,355.549 662.500 C 346.512 706.894,343.021 746.627,343.008 805.250 C 343.000 842.202,342.915 844.000,341.161 844.000 C 338.792 844.000,309.012 841.174,302.611 840.341 L 297.722 839.705 298.377 807.103 C 298.737 789.171,299.458 767.975,299.978 760.000 C 303.910 699.790,315.013 646.372,333.081 600.738 C 338.873 586.109,355.047 553.165,363.244 539.301 C 376.072 517.603,393.627 490.382,403.816 476.391 C 421.916 451.535,449.153 425.415,469.811 413.100 C 474.570 410.263,480.047 407.540,481.982 407.050 C 494.160 403.964,498.000 403.430,498.000 404.820 M531.138 408.306 C 543.528 413.455,552.784 419.111,574.331 434.701 C 596.837 450.986,603.521 456.692,620.194 473.854 C 636.770 490.917,648.612 505.696,671.944 538.437 C 705.473 585.489,714.419 601.301,728.437 638.290 C 742.276 674.806,754.265 725.026,759.043 766.500 C 761.490 787.730,763.773 834.627,762.426 835.974 C 761.898 836.502,755.173 837.622,747.482 838.461 C 739.792 839.301,731.632 840.201,729.349 840.461 L 725.198 840.935 724.589 828.217 C 723.295 801.220,722.905 793.998,721.926 779.000 C 719.862 747.381,717.196 727.639,710.920 697.500 C 703.189 660.376,694.250 630.045,683.882 605.754 C 668.729 570.251,642.402 523.178,632.608 514.076 C 627.822 509.627,629.791 514.072,642.099 535.500 C 656.698 560.916,674.839 597.457,682.312 616.500 C 694.422 647.359,704.599 686.677,711.432 729.000 C 715.279 752.827,719.000 803.107,719.000 831.265 L 719.000 841.773 714.750 842.382 C 712.413 842.718,704.200 843.446,696.500 844.000 C 688.800 844.554,680.661 845.271,678.413 845.593 L 674.327 846.178 673.675 814.233 C 671.736 719.229,662.719 660.179,639.663 591.500 C 636.155 581.050,631.648 568.563,629.648 563.751 C 624.537 551.458,607.169 516.993,600.007 504.931 C 592.566 492.399,575.025 467.771,564.888 455.623 C 556.790 445.918,537.642 427.000,535.918 427.000 C 534.118 427.000,538.248 432.873,546.343 441.826 C 562.786 460.009,583.255 487.491,594.514 506.500 C 602.282 519.614,619.506 553.699,624.328 565.500 C 634.457 590.290,646.460 629.638,652.850 659.000 C 662.696 704.243,667.896 758.814,667.966 817.635 L 668.000 845.770 662.750 846.348 C 659.862 846.665,652.100 847.179,645.500 847.489 C 638.900 847.799,631.138 848.298,628.250 848.598 L 623.000 849.144 622.987 822.322 C 622.951 746.982,617.043 680.910,605.478 626.500 C 597.322 588.128,588.417 559.166,576.730 533.000 C 567.500 512.336,553.139 486.850,548.605 483.087 C 545.235 480.291,547.027 485.741,553.539 498.095 C 574.465 537.795,584.503 563.467,594.361 602.500 C 604.051 640.869,609.679 675.086,613.027 716.000 C 613.634 723.425,614.309 730.625,614.526 732.000 C 615.276 736.759,616.922 781.643,617.572 815.093 L 618.225 848.686 609.862 849.337 C 605.263 849.695,593.583 849.991,583.907 849.994 L 566.314 850.000 566.624 801.750 C 566.971 747.767,565.807 687.971,563.505 641.500 C 561.045 591.850,557.728 555.533,555.148 550.000 L 553.516 546.500 553.185 554.500 C 552.904 561.282,554.803 592.401,556.542 609.500 C 558.561 629.365,560.131 688.087,560.679 764.250 L 561.303 851.000 536.652 851.000 L 512.000 851.000 512.005 843.750 C 512.016 828.685,514.027 745.467,514.972 721.000 C 515.514 706.975,516.423 682.450,516.994 666.500 C 519.969 583.285,523.686 519.905,528.048 478.000 C 530.149 457.819,530.404 451.185,529.154 449.214 C 527.305 446.301,525.348 457.362,522.116 489.000 C 518.745 522.005,517.010 545.828,514.468 594.000 C 513.786 606.927,510.320 699.905,509.025 740.000 C 507.214 796.068,507.064 802.600,507.032 826.750 L 507.000 851.000 497.159 851.000 C 491.746 851.000,480.425 850.702,472.000 850.337 L 456.683 849.674 457.382 802.587 C 459.016 692.575,464.073 644.902,485.452 537.962 C 497.778 476.308,502.893 458.411,512.033 444.952 C 514.313 441.593,515.940 438.606,515.647 438.314 C 514.816 437.483,509.251 441.799,506.612 445.320 C 498.144 456.618,493.059 474.485,479.380 541.000 C 458.433 642.851,452.000 707.163,452.000 814.707 L 452.000 850.120 432.250 849.488 C 421.387 849.140,410.025 848.706,407.000 848.523 L 401.500 848.191 401.697 809.345 C 401.991 751.292,404.607 713.273,411.460 667.475 C 420.512 606.970,442.105 531.981,462.994 488.500 C 469.390 475.186,481.165 458.788,493.291 446.310 C 502.407 436.929,504.124 434.000,500.507 434.000 C 497.823 434.000,481.642 450.610,472.616 462.631 C 460.171 479.205,454.642 490.659,441.062 527.992 C 423.589 576.029,408.884 637.879,403.021 688.000 C 401.895 697.625,400.521 709.325,399.968 714.000 C 397.828 732.103,396.002 777.086,396.001 811.750 L 396.000 848.000 392.250 847.972 C 390.188 847.956,380.175 847.294,370.000 846.500 C 359.825 845.706,350.663 845.044,349.640 845.028 C 347.845 845.001,347.800 843.345,348.351 797.750 C 348.910 751.507,349.649 738.437,353.441 707.776 C 359.239 660.902,376.114 596.432,393.079 556.345 C 418.451 496.394,454.738 444.273,489.237 418.230 C 502.250 408.407,509.157 405.201,519.638 404.118 C 520.264 404.053,525.439 405.938,531.138 408.306 M572.966 412.667 C 585.996 415.250,597.553 418.839,601.927 421.663 C 614.401 429.715,632.214 445.489,655.564 469.160 C 685.642 499.653,696.825 513.213,717.695 544.500 C 730.881 564.266,751.931 603.683,761.753 627.000 C 782.315 675.810,795.064 733.920,799.477 798.942 C 801.478 828.430,801.462 829.682,799.070 830.963 C 797.546 831.778,772.432 836.000,769.104 836.000 C 768.671 836.000,768.026 827.318,767.671 816.706 C 765.958 765.570,759.719 724.745,745.937 674.509 C 738.145 646.101,723.746 609.601,711.145 586.307 C 704.447 573.927,682.499 538.808,672.397 524.308 C 653.186 496.733,623.763 464.203,599.387 443.589 C 587.924 433.896,558.576 413.040,556.312 412.978 C 555.865 412.966,554.375 412.049,553.000 410.941 L 550.500 408.925 555.500 409.561 C 558.250 409.911,566.110 411.309,572.966 412.667 M460.450 411.844 C 459.928 412.309,456.350 415.174,452.500 418.211 C 441.517 426.875,421.694 445.302,415.042 453.032 C 404.020 465.838,388.864 486.992,377.184 505.873 C 356.528 539.265,354.962 541.973,345.060 561.432 C 329.831 591.357,319.325 619.763,310.640 654.500 C 298.958 701.222,294.317 740.785,293.304 802.296 C 292.834 830.860,292.392 839.981,291.494 839.636 C 290.840 839.385,285.849 838.646,280.403 837.993 C 274.956 837.340,268.025 836.506,265.000 836.140 L 259.500 835.474 259.646 809.987 C 259.858 773.040,263.761 733.992,270.471 701.714 C 272.744 690.779,284.719 647.351,287.155 641.209 C 289.481 635.345,290.737 629.194,289.879 627.864 C 289.147 626.728,288.833 626.751,288.004 628.000 C 284.627 633.088,273.540 666.785,268.099 688.500 C 260.406 719.205,254.598 768.542,253.576 811.881 C 253.299 823.640,252.814 833.519,252.499 833.834 C 252.184 834.149,247.105 833.634,241.213 832.690 C 235.321 831.746,228.556 830.692,226.180 830.348 L 221.859 829.722 222.496 819.611 C 223.274 807.230,227.669 765.728,229.073 757.500 C 231.301 744.442,232.360 739.102,234.631 729.500 C 237.181 718.717,237.055 710.837,234.391 714.481 C 228.069 723.126,220.615 768.799,217.445 818.317 L 216.752 829.134 212.626 828.482 C 205.900 827.420,194.747 825.080,194.305 824.639 C 193.866 824.200,197.386 788.418,199.090 776.000 C 201.990 754.864,204.789 740.935,211.633 713.600 C 222.355 670.774,232.789 642.186,250.512 607.077 C 269.743 568.981,295.511 531.723,319.878 506.781 C 324.563 501.986,328.086 497.753,327.708 497.375 C 326.056 495.723,318.397 500.924,310.728 508.905 C 298.173 521.972,286.291 537.349,270.860 560.500 C 254.623 584.861,239.757 613.487,228.277 642.500 C 210.275 687.992,196.567 745.291,191.434 796.500 C 190.497 805.850,189.223 815.750,188.604 818.500 L 187.479 823.500 180.989 823.241 C 169.303 822.774,169.770 823.199,170.506 813.714 C 176.829 732.168,192.550 671.818,223.658 609.678 C 227.837 601.330,234.482 589.325,238.424 583.000 C 242.367 576.675,246.764 569.475,248.195 567.000 C 252.092 560.263,277.231 525.716,285.305 516.000 C 296.800 502.169,322.676 476.972,334.158 468.430 C 348.351 457.870,371.761 443.991,392.000 434.136 C 409.221 425.751,413.000 424.249,413.000 425.787 C 413.000 426.295,406.813 431.912,399.250 438.270 C 382.852 452.057,375.977 459.011,356.507 481.500 C 343.060 497.033,319.369 527.667,309.333 542.500 C 304.724 549.311,283.754 585.583,279.137 594.728 C 269.644 613.533,255.815 651.664,249.930 675.259 C 245.460 693.180,245.663 692.000,247.065 692.000 C 248.594 692.000,254.409 678.868,256.997 669.574 C 258.210 665.215,259.588 660.715,260.058 659.574 C 260.527 658.433,263.906 649.850,267.566 640.500 C 276.583 617.463,295.229 580.749,310.227 556.500 C 329.358 525.568,347.814 501.858,378.000 469.433 C 397.279 448.724,432.233 419.930,442.982 415.903 C 452.795 412.227,462.577 409.954,460.450 411.844 M625.101 429.165 C 630.365 430.970,659.305 447.520,671.000 455.413 C 713.322 483.978,747.231 519.336,779.974 569.042 C 797.517 595.675,815.819 635.211,828.791 674.500 C 836.588 698.112,845.268 736.156,848.414 760.500 C 853.501 799.870,855.053 817.488,853.634 819.784 C 852.826 821.090,844.991 823.713,839.250 824.600 L 835.000 825.256 835.000 818.167 C 835.000 808.244,831.092 771.726,827.438 747.500 C 821.093 705.434,809.114 660.763,795.832 629.639 C 788.403 612.230,786.039 607.519,774.189 586.500 C 763.271 567.135,752.112 550.659,749.579 550.163 C 747.955 549.845,747.954 550.013,749.563 553.163 C 750.501 554.998,754.056 561.225,757.464 567.000 C 785.930 615.236,801.436 653.141,813.488 703.957 C 815.907 714.156,818.805 727.900,819.928 734.500 C 822.545 749.883,827.626 790.701,829.015 807.500 C 829.606 814.650,830.297 821.717,830.551 823.204 C 830.970 825.661,830.670 825.967,827.256 826.566 C 825.190 826.928,820.433 827.849,816.685 828.612 C 805.564 830.877,806.001 831.116,805.992 822.750 C 805.982 814.174,803.441 777.914,802.050 766.500 C 796.883 724.087,793.601 707.105,784.466 675.500 C 776.022 646.288,767.447 624.688,752.311 594.500 C 739.512 568.973,733.948 559.357,719.673 538.095 C 706.865 519.019,698.070 507.532,682.464 489.500 C 669.618 474.656,638.023 443.236,627.250 434.592 C 618.319 427.426,618.051 426.748,625.101 429.165 M169.577 833.074 L 178.654 835.390 175.700 841.117 C 173.081 846.196,172.657 848.293,171.949 859.672 C 170.644 880.637,171.367 1056.976,172.771 1060.250 C 174.393 1064.031,172.753 1063.894,163.872 1059.505 C 155.314 1055.275,149.813 1051.051,147.058 1046.594 C 145.017 1043.291,145.000 1042.455,145.000 943.681 C 145.000 876.096,145.347 842.479,146.081 839.058 C 146.819 835.617,148.005 833.354,149.820 831.927 C 152.974 829.446,156.064 829.625,169.577 833.074 M872.915 831.456 C 874.463 832.257,876.578 834.619,877.615 836.706 C 879.424 840.347,879.500 844.555,879.500 941.000 L 879.500 1041.500 877.237 1046.093 C 874.427 1051.795,869.078 1056.170,859.513 1060.589 C 850.671 1064.675,849.749 1064.791,850.936 1061.669 C 853.707 1054.379,854.183 1034.493,853.750 943.927 C 853.353 860.810,853.138 850.899,851.610 845.529 C 850.675 842.245,849.256 838.835,848.455 837.951 C 847.655 837.066,847.000 835.903,847.000 835.366 C 847.000 834.209,862.053 830.189,866.800 830.077 C 868.614 830.035,871.366 830.655,872.915 831.456 M207.500 839.200 C 211.900 839.825,215.618 840.416,215.762 840.513 C 215.906 840.611,215.006 842.898,213.762 845.595 L 211.500 850.500 211.198 950.500 C 210.890 1052.235,211.267 1065.749,214.593 1072.181 C 215.448 1073.834,215.959 1075.374,215.729 1075.605 C 215.498 1075.835,210.853 1074.869,205.405 1073.459 C 183.378 1067.754,182.748 1067.405,179.330 1059.000 C 177.598 1054.742,177.500 1049.066,177.500 953.500 C 177.500 842.507,177.284 846.516,183.616 840.184 C 187.444 836.356,187.458 836.356,207.500 839.200 M841.452 838.595 C 845.421 842.564,846.353 846.340,847.107 861.500 C 848.191 883.314,848.158 1044.465,847.068 1051.120 C 845.792 1058.910,844.269 1064.262,842.770 1066.228 C 841.723 1067.603,809.120 1078.543,808.451 1077.744 C 808.338 1077.610,809.103 1073.450,810.151 1068.500 C 811.917 1060.153,812.100 1052.749,812.665 966.500 C 813.309 868.238,812.965 857.231,808.968 848.195 C 807.861 845.692,807.303 843.300,807.728 842.879 C 808.586 842.027,832.961 837.239,837.179 837.093 C 838.652 837.042,840.575 837.718,841.452 838.595 M239.500 843.935 C 246.100 844.985,253.403 846.160,255.729 846.547 L 259.959 847.249 258.118 849.875 C 253.429 856.563,253.520 854.159,253.828 963.500 C 254.103 1061.046,254.480 1074.871,257.043 1081.613 C 257.600 1083.079,257.861 1084.472,257.623 1084.710 C 257.163 1085.171,235.673 1080.597,230.316 1078.898 C 226.243 1077.607,220.481 1071.243,218.927 1066.321 C 218.167 1063.912,217.493 1051.416,217.103 1032.500 C 216.212 989.309,216.943 854.235,218.091 849.804 C 219.083 845.974,223.069 841.990,225.885 842.013 C 226.773 842.020,232.900 842.885,239.500 843.935 M804.487 852.039 C 806.403 857.306,806.485 860.623,806.792 945.480 C 807.116 1034.829,806.483 1058.903,803.556 1068.588 C 801.450 1075.557,798.109 1080.199,794.500 1081.170 C 789.513 1082.511,765.011 1086.344,764.526 1085.859 C 764.277 1085.610,764.707 1083.301,765.481 1080.728 C 768.116 1071.972,768.689 1048.584,768.594 953.500 L 768.500 858.500 766.238 853.595 C 764.994 850.898,764.094 848.589,764.238 848.466 C 764.382 848.342,771.475 847.232,780.000 846.000 C 788.525 844.768,795.686 843.590,795.913 843.383 C 796.141 843.176,797.716 843.810,799.413 844.792 C 801.624 846.071,803.064 848.128,804.487 852.039 M287.926 850.519 C 295.311 851.344,301.529 852.196,301.746 852.413 C 301.962 852.629,301.096 854.762,299.820 857.153 L 297.500 861.500 297.192 963.500 C 296.872 1069.524,297.192 1080.125,300.974 1088.673 C 302.026 1091.053,302.662 1093.000,302.385 1093.000 C 302.109 1093.000,298.647 1092.530,294.692 1091.957 C 275.181 1089.126,268.373 1087.720,266.644 1086.167 C 262.440 1082.392,260.824 1077.073,259.936 1064.091 C 258.605 1044.641,258.760 863.838,260.113 858.467 C 260.724 856.037,262.278 852.913,263.565 851.525 C 266.387 848.479,268.781 848.380,287.926 850.519 M757.108 850.250 C 759.957 852.640,761.001 854.730,762.025 860.099 C 763.324 866.904,763.337 1052.640,762.039 1065.500 C 761.093 1074.879,759.022 1083.064,756.967 1085.539 C 756.307 1086.335,754.132 1087.411,752.134 1087.930 C 747.992 1089.007,719.033 1092.366,718.499 1091.832 C 718.306 1091.639,718.863 1088.560,719.738 1084.990 C 721.123 1079.334,721.378 1065.556,721.717 977.726 C 722.113 874.864,721.753 861.605,718.421 856.519 C 717.490 855.099,716.903 853.774,717.115 853.573 C 717.327 853.373,725.825 852.314,736.000 851.221 C 746.175 850.128,754.751 849.181,755.059 849.117 C 755.366 849.052,756.288 849.563,757.108 850.250 M334.623 855.084 C 341.705 855.688,347.646 856.324,347.824 856.498 C 348.002 856.672,347.327 858.318,346.324 860.157 C 344.633 863.257,344.480 867.432,344.226 917.500 C 344.076 947.200,344.372 996.925,344.885 1028.000 C 345.668 1075.447,346.088 1085.593,347.506 1091.319 C 348.435 1095.070,348.955 1098.379,348.661 1098.672 C 347.860 1099.474,313.306 1094.234,310.898 1092.946 C 309.750 1092.331,307.616 1089.279,306.155 1086.164 L 303.500 1080.500 303.203 973.500 C 302.981 893.350,303.204 865.427,304.091 862.223 C 304.799 859.666,306.511 856.907,308.348 855.360 C 311.071 853.070,312.012 852.844,316.584 853.381 C 319.423 853.715,327.540 854.481,334.623 855.084 M712.280 857.509 C 716.318 863.059,716.482 867.474,716.491 970.500 C 716.500 1073.115,716.249 1080.340,712.321 1090.157 C 711.117 1093.164,710.154 1094.058,707.652 1094.490 C 704.464 1095.041,669.757 1099.000,668.120 1099.000 C 667.633 1099.000,667.829 1097.273,668.556 1095.161 C 672.221 1084.525,672.951 1046.989,671.630 937.084 C 670.917 877.837,670.498 864.042,669.321 861.226 C 668.530 859.333,668.022 857.668,668.191 857.527 C 668.741 857.069,694.263 855.336,702.500 855.198 C 709.911 855.073,710.631 855.243,712.280 857.509 M380.777 858.570 C 390.829 858.960,399.282 859.647,399.561 860.098 C 399.839 860.549,399.341 863.138,398.454 865.850 C 396.997 870.307,396.887 881.675,397.322 983.641 C 397.587 1045.714,398.134 1098.034,398.538 1099.908 L 399.273 1103.316 390.887 1102.681 C 374.316 1101.426,358.478 1099.936,357.295 1099.520 C 356.633 1099.288,355.081 1097.163,353.847 1094.799 C 351.693 1090.672,351.573 1089.063,350.820 1054.500 C 349.405 989.498,349.344 866.850,350.725 863.750 C 352.221 860.394,357.773 856.792,360.500 857.409 C 361.600 857.658,370.725 858.180,380.777 858.570 M660.450 859.159 C 662.021 859.875,663.422 861.691,664.114 863.909 C 666.707 872.225,667.559 1066.836,665.080 1084.621 C 664.534 1088.537,663.377 1093.517,662.508 1095.687 L 660.929 1099.634 642.715 1101.325 C 632.697 1102.255,622.981 1103.013,621.125 1103.008 C 617.922 1103.000,617.780 1102.850,618.341 1100.047 C 620.762 1087.940,621.244 1060.438,620.664 967.340 C 620.147 884.368,619.823 868.514,618.570 864.879 C 617.755 862.513,617.181 860.508,617.294 860.422 C 617.407 860.337,626.237 859.983,636.915 859.635 C 647.593 859.288,656.555 858.778,656.831 858.502 C 657.506 857.827,657.540 857.833,660.450 859.159 M455.795 861.498 C 455.957 861.640,455.507 863.949,454.795 866.628 C 453.772 870.479,453.500 895.088,453.500 984.000 C 453.500 1045.875,453.835 1098.683,454.245 1101.351 L 454.989 1106.202 448.245 1105.626 C 444.535 1105.309,433.797 1104.765,424.383 1104.416 C 414.969 1104.067,406.710 1103.439,406.031 1103.019 C 405.352 1102.600,404.412 1098.936,403.942 1094.878 C 402.588 1083.179,402.762 868.329,404.128 865.684 C 407.093 859.946,406.145 860.116,431.832 860.700 C 444.849 860.996,455.633 861.355,455.795 861.498 M611.329 863.980 C 613.170 866.168,614.007 868.625,614.480 873.230 C 614.834 876.678,614.955 927.425,614.748 986.000 C 614.365 1094.556,614.175 1099.950,610.623 1102.898 C 609.930 1103.473,600.120 1104.277,588.440 1104.715 L 567.500 1105.500 567.292 993.991 C 567.088 884.201,566.854 867.180,565.499 863.789 C 564.752 861.917,567.620 861.675,596.161 861.208 L 608.822 861.000 611.329 863.980 M508.038 865.528 C 508.378 867.193,508.360 889.468,507.998 915.028 C 507.636 940.588,507.678 993.082,508.092 1031.681 C 508.505 1070.281,508.723 1102.681,508.577 1103.681 C 508.329 1105.371,506.660 1105.519,485.112 1105.769 L 461.913 1106.037 460.261 1102.269 C 458.760 1098.844,458.604 1088.696,458.554 991.000 C 458.525 931.875,458.877 880.000,459.338 875.722 C 459.993 869.642,460.725 867.292,462.693 864.953 L 465.211 861.961 486.315 862.230 L 507.419 862.500 508.038 865.528 M559.555 865.450 C 560.358 867.409,560.969 878.817,561.376 899.450 C 562.381 950.386,562.566 1086.788,561.644 1096.750 L 560.788 1106.000 537.524 1106.000 L 514.261 1106.000 513.517 1010.192 C 513.108 957.498,513.105 902.711,513.510 888.442 L 514.247 862.500 536.297 862.500 L 558.347 862.500 559.555 865.450"></path></svg>