<svg viewBox="0 0 1024 1536" version="1.1" xmlns="http://www.w3.org/2000/svg" id="svg">
  
  <defs>
    <style>
      .st0 {
        fill-rule: evenodd;
      }
    </style>
  </defs>
  <path d="M449.2,128.4c-15.9,2.9-23.9,7.9-39.3,24.7-6.2,6.8-16.9,18-23.6,24.9-6.8,7-13,14.1-13.9,15.9-1.2,2.3-3.8,4.3-9.4,7.1-4.2,2.1-14.1,7.6-22,12.2-7.8,4.6-29.1,16.5-47.3,26.4-18.2,10-37.4,21-42.7,24.6-22.5,15.2-45.8,44.8-58.9,74.9-2.4,5.4-8.5,22.2-13.6,37.3-5.1,15.1-13.8,40.3-19.3,55.9-16.8,48.1-44.8,134.5-57.2,176.7-3.8,13.1-8.6,29-10.5,35.3-3.4,11.2-13.4,44.9-37,124.5-6.2,20.9-13.9,46.3-17.1,56.5-27.4,87-29.9,95.2-29.9,98.9s.6,3.6,1.3,4.2c1.5,1.1,32.4,11.7,69.9,23.8,19.5,6.3,68.8,23.5,69.9,24.4.1.1-.7,17.5-1.8,38.6-1.9,35.4-4.6,100.5-7.4,179.8-.6,17.4-1.8,49.5-2.7,71.2-.9,21.8-2,52.9-2.6,69.1-.6,16.2-1.3,34.8-1.6,41.3-.5,10.4-.3,11.9,1.4,13.5,5.9,5.3,81.3,11.1,209.6,16.1,57.4,2.2,228.2,3.2,279.1,1.5,98.8-3.1,135.6-4.9,190.5-9.1,11-.8,28.4-2,38.5-2.6,20.7-1.3,37.9-3.7,39.8-5.6,1.4-1.4,1.1-12.1-2.8-108.4-3.1-75.4-4-99.6-6.3-159.9-3.4-88.9-4.3-108-5.3-123.5-1.5-21.7-1.5-21.2,1.9-22.5,16.9-6.7,56.1-20.5,90.5-31.9,24.1-8,43.2-14.9,44.6-16.1,1.5-1.3,2.4-3.3,2.4-5.4s-3.3-14.2-7.4-27.5c-9.6-31.4-31.1-102.9-37.4-124.5-10.1-34.7-18.9-64.1-27.2-90.7-4.7-15.1-12.2-39.3-16.6-53.8-21.8-71-31.5-101.5-40.2-127.1-5.2-15.4-14.2-41.7-19.9-58.6-15.1-44.6-28.7-82.8-34.3-96-11.3-26.8-24-46.3-42.2-64.5-14.2-14.2-21.4-19-56.5-37.9-14.8-8-35.5-19.3-45.9-25.3-10.4-5.9-22.7-12.8-27.2-15.3-5.7-3.1-8.7-5.5-9.9-7.8-.9-1.8-13.3-15.3-27.5-29.9-27.4-28.2-30.8-30.9-44-34.7-5.6-1.6-12.9-1.9-64.9-2.1-44.1-.2-60.4,0-65.9,1.1M573.4,136.5c14.7,2.3,18.5,5.1,44,32.3,19.4,20.7,18,17.4,15.4,38-3.6,27.5-11.9,60.9-26.4,106.4-3.9,12.2-7.6,24-8.3,26.3l-1.2,4.1-26.9-21.6c-14.8-11.9-28.3-22.6-30-23.9l-3.2-2.3,3.2-3.5c19.1-20.6,45.4-67.9,51.1-92,3.9-16.1,2.2-38.9-3.5-47.6-2.3-3.5-8.6-7.9-9.7-6.8-.3.3,1.1,5.3,3.1,11,2,5.8,3.7,11.3,3.7,12.4,0,2.2-2.6,3.3-14.2,6.1-25.5,6.1-79.5,7.4-109.4,2.6-10.1-1.6-19.2-4-21.9-5.7-2.2-1.4-.9-11.8,2.4-19.6,1.5-3.5,2.3-6.7,1.8-7.2-1.6-1.6-7.4,2.5-9.5,6.7-13.6,26.6-1.1,69.2,35.6,121.9,4.9,7,10.5,14.6,12.5,17.1l3.7,4.4-10.6,8.1c-5.8,4.4-19,14.9-29.3,23.3-10.2,8.4-18.9,15.3-19.3,15.3-.9,0-4.4-11.1-14.9-46.4-15.5-52.6-20.5-74.6-21.6-96.8l-.6-11.4,16.7-18.5c9.2-10.2,19-20.5,21.8-22.9,5.4-4.8,13.3-8.2,22.1-9.7,8.3-1.4,114.4-1.4,123.3,0M445.5,183c6.2,2.3,26.6,4.2,51.7,4.7,37.9.8,64.1-1.2,84.7-6.5,2.9-.7,2.9-.7,2.9,4.5v5.3l-5,1.2c-14.3,3.3-48.6,5.6-83.6,5.6-24.9,0-36.6-1-49.9-4.1-7.8-1.8-9.2-3.4-9.2-10s.2-3.1,2.9-2.4c1.6.4,4.1,1.1,5.5,1.7M645.8,205.7c1,17.8-9,60.7-26.5,113.2-11.7,35.2-15.3,45.4-16.2,45.4-1.7,0-15.2-10.6-32.6-25.5-11-9.5-24.9-21-30.9-25.6-5.9-4.6-10.8-8.7-10.8-9.2s1.2-1.5,2.6-2.1c3.3-1.5.3-3.7,55.3,40.5,5.6,4.5,10.7,8.2,11.4,8.2,2.2,0,3.2-2.5,10.2-24.8,19.8-63,28-96.5,30.9-125.9l.8-7.7,2.7,2.7c2.3,2.3,2.7,3.8,3.1,10.9M384.3,198.3c0,6.3,2.5,24.6,4.7,35.1,3.1,14.6,16.4,61.4,29.9,105.5q4.2,13.8,22.9-1.6c16.4-13.5,34-27.4,42.6-33.7l5.6-4.1,2.1,2.1,2.1,2.1-9.1,6.5c-11.8,8.5-19.5,14.9-39.3,32.4-18.9,16.8-23.5,20.4-25.9,20.4-2,0-3.3-3.6-20.3-58.1-13.1-41.8-17-56.8-19.7-75.3-2.7-18.2-2.6-26.8.1-32.2,1.2-2.3,2.6-4.2,3.2-4.2s1,2.3,1.1,5M583,202c-1.2,5.1-14.3,33.2-20.3,43.9-18,31.5-44.3,61.9-51.9,60-3.7-.9-15.7-11.8-23.6-21.3-10.9-13.2-27.3-38.5-34.6-53.7-7.4-15.3-12.9-28.8-12-29.7.3-.3,4.8.2,9.9,1.2,12.7,2.4,32.1,3.3,60.5,2.9,22.6-.4,54.8-2.6,63.8-4.5,7.7-1.6,8.8-1.4,8.2,1.3M369.9,214.2c.4,3.9,1.9,13.2,3.4,20.6,1.5,7.4,2.6,13.8,2.4,14.3-.2.5-6,5.8-13,11.9-16.1,14.1-41.8,40.5-53.2,54.8-24.4,30.3-55.6,86.1-74,132.3l-7.8,19.6-.7-33c-.4-18.1-1.2-37.5-1.9-43-3.9-32.9-9.4-50-18.2-57.4l-3.3-2.8,5.6-9.2c8.4-13.8,19-27.5,27.6-35.7,14.9-14.2,27.8-22.3,83.1-52.5,16.5-9,34.1-18.8,39-21.7s9.3-5.3,9.6-5.4c.4,0,.9,3.1,1.3,7.1M671.9,216.6c5.8,3.1,19.6,10.6,30.6,16.8,11,6.2,28.3,15.7,38.3,21.2,33.9,18.5,51.8,34.4,69,61.1,7.4,11.6,7.7,12.2,5,14.9-6.3,6.3-12.4,26.7-15.8,52.6-2.3,17.6-4.7,67.7-3.8,77,.3,3.1.4,5.5.3,5.3-.2-.2-4-9.6-8.5-21-4.5-11.3-11.5-27.2-15.6-35.3-30.9-61.9-58.8-99.7-104.7-141.8-10.4-9.5-18.1-17.4-18.3-18.6-.2-1.2.9-7.8,2.4-14.6,1.5-6.8,3-15.7,3.4-19.7l.7-7.3,3.3,2c1.8,1.1,8,4.5,13.8,7.6M360,276.4c-18.9,18.4-41.4,43.6-53.7,59.9-8.9,11.8-25.8,38.9-35.7,57-10,18.3-20.7,41.6-34.6,75.6-6.3,15.5-11.6,28-11.8,27.8-1.9-1.9,10.1-36.3,22-63.5,19.7-44.7,48.1-93.3,69.6-118.9,13.6-16.2,30.8-33.7,46.9-47.5,12.7-10.9,14.8-12.4,15.1-10.4.3,1.8-3.8,6.3-17.8,20M655,262.1c35.3,31.3,54.9,53.5,79.1,90,16.6,25.1,36.8,63.3,47,89.2,11.2,28.1,19.1,52.6,15.9,49-.5-.5-4.6-10.2-9.1-21.5-33.5-83.9-64.7-131.7-123.9-190.4-13-12.9-18-18.5-18-20.3s.4-2.4.8-2.4,4.1,2.9,8.2,6.5M382.6,274.8c6,23.4,28.6,92.9,31,95,4.9,4.4,11.3,1.4,29.4-14.2,6.3-5.4,12.3-10.5,13.3-11.3,1.8-1.4,1.8,23,1.8,508.5v509.9l-23.5-.7c-80.2-2.4-160.7-5.6-189.7-7.6-41.1-2.8-101.2-8.7-102.8-10.1-.9-.8-.4-19.2,2.5-90.5.6-13.7,1.7-45.6,2.6-70.8,4.1-116.2,8.4-201,12.2-238.5,1.1-11.3,2.3-21.8,2.6-23.2.3-1.5,1.9-14.7,3.7-29.5,5.7-48.4,11.2-85.5,28-190.5,11.1-69.2,13.1-81.9,14.7-94.4,2.6-19.6,11.9-79.9,13.3-86,1.1-4.7,25-65.4,32-81.1,10.4-23.3,25.8-51.5,42.5-77.5,16-25,26.1-37.6,53-66.6,10.5-11.3,28.9-28.5,30.7-28.6.3,0,1.4,3.4,2.5,7.6M668.4,291.8c18.3,18.4,32.8,35.2,48.4,56.1,27.8,37.3,44.5,69,70.1,133.5l12.3,31,2.6,17.5c2.2,14.7,22.2,135.5,35.7,215.3,5.4,32,10.8,67,13.3,85.5,6.6,49.5,15.7,125.5,16.3,135.1.4,6.1,1.1,17.5,1.7,25.3,1.2,16.5,3.5,66.4,5.8,124.5.9,22.3,2.3,58,3.2,79.1,5.9,146.4,6,149.1,4.7,149.8-.7.4-4.2,1.1-7.7,1.4-77.7,8-86.4,8.6-130.5,10.2-17.1.6-41.7,1.5-54.6,2.1-12.9.6-34,1.5-47,2.1-12.9.6-36.8,1.2-53,1.3l-29.5.3-.3-511-.3-511,8.5,7.2c18.4,15.5,25.9,21.4,29.1,23,4.8,2.3,9.1,2,11.7-.8,4-4.4,25.4-67,33-96.6l1.2-4.5,4.4,3.5c2.4,1.9,11.9,11,21,20.2M512.5,313.6c1.7,0,4.8-1,6.7-2.1l3.5-2.1,3,2.6c3,2.5,3,2.6.7,3.2-4.2,1.2-24.4,1.9-30.1,1l-5.6-.9,4.6-3.3,4.6-3.3,4.7,2.5c2.6,1.4,6.2,2.5,7.9,2.5M539.4,862v539.6h-61.2V325.6l2.9-2.8c2.9-2.7,3-2.8,11.3-1.7,8.5,1.1,31.1.5,39-1.1,3.1-.6,4.7-.4,6.1.7,1.8,1.5,1.8,28.6,1.8,541.1M552.1,867.3v534.2h-7.4V325.9l3.7,3.6,3.7,3.6v534.2M474,865v536.6l-4-.3-4-.3-.3-532.9-.3-532.9,4-3.4c2.2-1.9,4.1-3.4,4.2-3.4.1,0,.3,241.4.3,536.6M486.5,334.2c-4.4,2.4-7.2,7.9-7.2,14s.5,6,3.3,9.1c7,7.9,17.6,6.3,21.7-3.4,5.4-12.8-6.3-26-17.7-19.8M830.5,358.7c18.6,49.9,43.2,121.7,62.3,181.8,4.7,14.8,11.6,36.6,15.4,48.5,3.8,11.9,8.6,27.6,10.7,34.8,2.1,7.3,8,26.2,13.1,42.2,5.1,16,15.1,48.7,22.2,72.8,7.1,24.1,19.9,67.5,28.6,96.4,8.7,28.9,15.6,52.8,15.4,53-2,2-74.3,26.8-105.8,36.3-9.9,3-18.8,5.7-19.8,6-1.5.4-1.8,0-1.8-2.5s-3.1-27.5-6.8-57.3c-7.1-56.4-12.4-91.7-25-165.1-4.1-23.8-10.5-61.5-14.2-83.9-3.7-22.3-7.7-45.6-8.8-51.7-3.8-20.6-7.5-46.4-10.1-71-5.8-54.6-1.8-125.2,8.6-152.2,2-5.1,5.5-11.1,6.6-11.1s4.7,10.3,9.4,23M203.6,341.3c7.6,8.3,12.6,29.9,15,65.4,2.7,38.8.5,77-7.5,131.2-1.7,11.6-5,34.4-7.3,50.6-4.4,30.9-11.2,74.2-20,127.7-8.2,49.8-18.4,119.4-24.6,168.6-3.1,24.8-6,45.4-6.2,45.7-1.2,1.2-124.2-39.7-127.1-42.2-.1-.1,3.3-11.6,7.7-25.5,11.5-36.7,18.8-60.6,44.3-146.1,40.9-137.2,66.2-217.9,81.8-260.6,6.4-17.4,15.9-45.4,21.2-62,9.3-29.3,18.7-55.1,20-55.1s1.6,1.1,2.8,2.4M494.8,340.8c1.9,1.2,3.6,6.6,2.9,9.1-.9,2.9-3.6,5.9-5.3,5.9s-2.3-1-3.5-2.3c-5.2-5.6,0-16.5,6-12.7M240.1,623.5c-1.2.3-3.1,1.4-4.2,2.6-2.2,2.4-2.3,9-.8,94.3l.9,49.6,2.9,6c3.8,7.7,12.6,15.8,20.3,18.7,5.7,2.1,7.7,2.2,65.9,2.2s60.4-.1,65.5-2.1c7.4-2.8,12.7-6.7,16.6-12.2,6.8-9.4,6.8-9.3,6.5-56.6-.2-35.7,0-44.6,1.5-53.3,1.4-8.6,1.6-13.4.8-28.2-.9-17-1-17.9-3.4-19.7-2.4-1.8-7.2-1.9-86.5-1.9-46.2,0-85,.2-86.2.5M247.9,645.2c-.8,22.4.9,28.3,9.4,33.2l4.1,2.4,65.1-.3c64.2-.3,65.1-.3,68.1-2.5,1.6-1.2,4-3.8,5.4-5.7,2.2-3.3,2.4-4.5,2.4-22.3v-18.8h6l.7,17.3c.8,21.3-.3,26.3-7.3,33.1-2.5,2.4-6.4,4.9-8.6,5.5-2.6.7-26.6,1.1-68.7,1.1-69.9,0-67.9.2-74.9-5.8-6.7-5.7-8-9.8-8.5-26.8-.2-8.3,0-17.2.3-19.8.6-4.3.9-4.6,3.9-4.6h3.2l-.5,14M399.1,648.1c0,19.2-.9,22.9-6.5,26.3-3.4,2.1-5.2,2.1-67.1,2.1-71.5,0-68.4.3-72-7.7-1.7-3.7-2-7-2-20.3,0-8.8.3-16.2.7-16.6.4-.4,33.6-.7,73.9-.7h73.2v16.9M246.7,689.9l3.6,2.8v36.8c0,28.8.3,37.6,1.4,40.3,1.9,4.5,9,10.6,14.2,12.1,5.3,1.6,112.8,1.7,118.5.2,6-1.7,10.8-5.4,13.3-10.5,2.3-4.6,2.4-5.4,2.4-41.7v-37l3.1-2.3c1.7-1.3,3.4-2.3,3.7-2.3s.6,17.1.6,37.9c0,36.1-.1,38.2-2.2,43.9-2.6,7.1-8.6,13.4-15.5,16.6-4.8,2.2-5.7,2.3-65.1,2.3h-60.1l-5.4-2.9c-3-1.6-7.1-4.8-9.2-7.2-6.6-7.8-6.9-9.7-7.7-52.8-.4-21.4-.4-38.9,0-38.9s2.4,1.2,4.4,2.8M396.8,730.9c-.4,40.5-.3,40.2-8.7,45l-4.3,2.5-53.8.3c-29.6.2-56.3,0-59.3-.3-6.5-.8-11.5-3.9-14.5-9-2-3.5-2.2-5.6-2.5-39l-.3-35.3h143.8l-.3,35.9M181,825.6c-.5.7-.7,52.8-.5,115.8.3,108.6.4,114.8,2.3,120.1,5.3,15.2,17.5,26.8,33.2,31.7,4.5,1.4,16.8,1.7,86,2,54.7.2,82.9,0,87.6-.8,20.4-3.4,37.7-20.8,40-40.2.4-3.5.5-56.1.3-116.8-.4-99.6-.6-110.6-2.1-111.8-1.3-1-27.7-1.3-123.8-1.3s-122.3.3-123,1.3M595.4,826.4c-2.1,2.1-2.1,3.5-2.1,114.8,0,120.9-.1,117.4,5.4,128.6,3.4,6.8,10.7,14.4,18.2,18.8,12,7.1,11.7,7,104.1,6.6,72.9-.3,83.4-.6,87.7-2.1,15-5.3,25.3-13.8,31.3-25.9l4-8v-116.1c0-69.2-.3-116.7-.9-117.4-.8-1-26.6-1.3-123.2-1.3s-122.3,0-124.4,2.1M195.5,853.6c0,19.8.2,22.4,2.2,26.6,2.7,6,5.6,9.1,10.9,11.8,4.1,2.1,5.9,2.1,96.5,2.2h92.4s4.4-2.2,4.4-2.2c4.5-2.3,8-6.2,11.5-12.9,1.7-3.2,2-6.7,2.3-25.6l.4-21.9h6.1v23.5c0,22.4-.1,23.7-2.5,28.8-1.4,3-4.8,7.4-7.9,10.2-9.8,8.8-3.5,8.3-108.4,8l-92.8-.3-5.3-2.8c-5.7-3-11.9-9.2-14.8-14.8-2.1-4-3.5-19.3-3.6-39.1v-13.5c0,0,4.2,0,4.2,0h4.2v21.9M411.8,851c0,10.6-.5,21-1.1,23.1-1.6,5.8-5.4,10.7-10.6,13.6l-4.7,2.6h-88.6c-48.7,0-90.4-.4-92.6-.8-5.1-1.1-10.1-5.4-12.6-10.7-1.7-3.7-1.9-7.2-2-25.6v-21.4s106,0,106,0h106v19.3M608,852.2c0,22.1.7,26.3,5.9,33,1.5,1.9,4.9,4.8,7.6,6.4l5,2.9h92.3c91.1-.2,92.4-.2,96.5-2.4,5.5-2.8,9.4-7,12-12.9,1.9-4.3,2.2-6.9,2.2-26.1v-21.4h7.6l-.3,24-.3,24-3.1,5.7c-3.9,7-9.8,12.2-17.1,14.9-5.5,2.1-8.1,2.1-96.8,2.1s-97.8.5-107.7-8.6c-8.8-8-9.7-11.1-10.5-37.5-.4-12.3-.4-22.9,0-23.5.4-.6,2.1-1.1,3.8-1.1h3.1v20.4M825.4,852.7c0,20.9,0,21-2.9,26.6-2.3,4.5-4,6.2-8.2,8.3l-5.2,2.7h-89.7c-68-.2-90.7-.5-93.6-1.5-4.8-1.6-10.6-8-12.2-13.7-.7-2.5-1.2-11.9-1.2-23.8v-19.7h213.1v21M1004.9,908c2.8,9.1,4.1,14.9,3.5,15.5-.6.5-18.8,6.8-40.6,13.8-21.8,7.1-50.5,16.8-63.8,21.6-13.3,4.8-25.3,9-26.5,9.4-2.2.7-2.3.3-3-7.5-.4-4.5-1.1-12-1.7-16.6-.5-4.6-.8-8.5-.6-8.7.2-.2,9.1-3,19.8-6.2,33.8-10.2,99.8-32.9,105.4-36.2.9-.5,1.9-.6,2.3-.3.4.4,2.7,7.2,5.2,15.2M38.1,898.7c7.1,2.6,24.2,8.3,37.9,12.7,23.5,7.4,75.2,24.7,76,25.4.2.2-.5,7.5-1.5,16.2-1.6,13.7-2.1,15.9-3.5,15.3-10.1-4-48.3-17.2-71.6-24.7-35.1-11.3-59-19.4-59.9-20.3-.8-.8,8-29.4,9-29.4s6.5,2.1,13.6,4.8M191.7,899l3.7,4v75.1c0,72.6.1,75.3,2.2,80.8,2.7,7.2,10,14.9,17.2,18.1l5.5,2.4,81.7.5c61.6.4,83.1.2,87.2-.8,10.8-2.5,18.5-8.8,23.3-19l2.5-5.3v-76.2s0-76.2,0-76.2l3.7-3.9,3.7-3.9v80.6s0,80.6,0,80.6l-2.5,6c-3.2,7.9-7.9,13.6-14.6,18.1-12.1,8-6.9,7.6-94.7,7.9-52.5.2-81.1,0-86-.8-19.7-3-33.7-16.8-36.4-35.8-1.1-7.5-1.6-156.2-.5-156.2s2.1,1.8,4.2,4M608.4,977.6c.6,63.9,1,77,2.3,81.2,2.1,6.6,9.6,14.8,16.8,18.3l5.8,2.8h85c0-.1,85-.2,85-.2l6.3-2.8c8.2-3.7,16.1-12.1,18.3-19.6,1.4-4.6,1.6-16.4,1.6-80.4v-75s3.2-3.4,3.2-3.4c1.7-1.9,3.4-3.4,3.7-3.4s.4,36.5.3,81l-.3,81-3.4,7c-5.6,11.4-17.3,20.1-30.7,22.9-7.8,1.6-160.3,1.7-168.2,0-12.2-2.5-24.9-12.3-29.5-22.7-2.7-6.1-2.9-10.6-3.5-94.7l-.5-74.8,3.5,3.4,3.5,3.4.7,76.2M825.2,996.9l-.3,58-2.9,4.9c-1.6,2.7-4.9,6.6-7.3,8.7-8.3,7.1-5.2,6.9-96.4,7.1l-82.3.2-5.6-2.4c-7-3-14.3-10.8-15.9-17.1-1.3-4.9-2.9-150.7-1.7-150.7s3.8,1,7.7,2.1c6.9,2.1,9.2,2.1,100.9,1.8,92.4-.3,94-.3,98.6-2.5l4.7-2.2.3,17c.2,9.3.2,43.1,0,75M208.6,908.3c4.3,1.2,22.4,1.5,96.6,1.5,93,0,92.5,0,103.9-3.6,2.1-.7,2.1-.3,1.6,74.6l-.5,75.2-3,5.1c-3.4,5.7-10.7,11.5-17,13.4-3.2,1-24.6,1.3-85.5,1.2-90.8-.1-87.5.1-95.5-7.5-2.3-2.3-5.3-6.2-6.7-8.6l-2.4-4.5-.3-74.8c-.3-71.3-.2-74.7,1.6-74,1,.4,4.2,1.4,7.1,2.2M161.2,1351.9c27.7,3,78.2,7.2,101.2,8.5,44,2.3,158.2,6.3,181.8,6.3h14v33.8h-24.5c-44.6,0-143.8-3.6-203.4-7.4-37.1-2.3-84.5-6.7-88.1-8.1-1.3-.5-1.6-3.6-1.6-17.9s.4-17.3.9-17.3,9.4.9,19.8,2.1M884.7,1367.2c.3,14.8,0,17.5-1.3,17.9-4.3,1.2-69.9,6.6-108.7,9-45.3,2.8-153,6.4-189.7,6.4h-25.6s0-16.7,0-16.7v-16.7l36.7-.7c20.2-.4,44.7-1.2,54.6-1.7,9.9-.6,38.1-1.8,62.8-2.7s53.6-2.1,64.4-2.7c17.3-.9,94.1-7.9,98.1-8.8.9-.2,3.1-.4,5-.5h3.4c0-.1.3,17.3.3,17.3" class="st0"></path>
</svg>