<svg xmlns="http://www.w3.org/2000/svg" height="1536" width="1024" version="1.1" id="svg"><path fill-rule="evenodd" fill="black" stroke="none" d="M319.746 363.047 C 309.572 365.549,299.753 373.000,293.695 382.815 C 289.851 389.042,285.652 400.679,284.377 408.639 C 283.948 411.313,283.520 413.837,283.424 414.250 C 283.328 414.663,283.194 415.675,283.125 416.500 C 282.918 418.982,281.263 418.193,280.184 415.098 C 278.535 410.368,271.911 403.868,266.000 401.180 C 261.373 399.076,258.564 398.606,248.297 398.220 C 225.861 397.377,215.787 401.917,208.791 416.022 C 206.751 420.135,204.814 425.075,204.486 427.000 C 204.158 428.925,203.458 432.434,202.930 434.797 C 201.395 441.671,199.000 463.880,199.000 471.244 C 199.000 474.960,198.705 478.000,198.344 478.000 C 197.984 478.000,196.258 476.908,194.509 475.574 C 191.136 473.002,179.073 470.000,172.108 470.000 C 166.000 470.000,154.053 472.804,150.312 475.116 C 148.467 476.256,145.875 478.609,144.553 480.345 C 139.276 487.272,134.647 507.725,133.882 527.500 C 133.267 543.379,133.557 735.584,134.215 748.500 C 134.608 756.200,135.827 774.200,136.925 788.500 C 139.542 822.580,140.870 843.424,141.485 860.085 C 142.731 893.855,146.138 921.638,150.577 934.219 C 151.367 936.458,152.214 939.396,152.460 940.750 C 152.705 942.103,154.545 946.703,156.548 950.972 C 160.057 958.449,160.167 959.022,159.558 966.617 C 157.900 987.295,157.841 989.835,158.973 991.949 C 159.960 993.793,159.664 994.848,156.997 999.004 C 155.272 1001.692,152.743 1006.953,151.377 1010.696 C 148.545 1018.452,142.410 1039.764,141.501 1045.000 C 141.167 1046.925,139.526 1053.900,137.856 1060.500 C 136.185 1067.100,134.661 1073.850,134.469 1075.500 C 134.276 1077.150,133.884 1080.075,133.597 1082.000 C 131.229 1097.885,131.545 1099.814,137.027 1102.895 C 139.192 1104.112,141.760 1105.264,142.732 1105.454 C 149.025 1106.686,162.910 1110.388,165.000 1111.391 L 167.500 1112.591 167.500 1138.045 L 167.500 1163.500 170.241 1168.163 C 173.515 1173.733,177.144 1176.125,186.500 1178.881 C 195.401 1181.503,196.786 1181.633,231.000 1183.054 C 250.115 1183.848,284.361 1184.054,335.000 1183.680 C 428.259 1182.991,437.651 1182.213,446.923 1174.411 C 453.675 1168.730,454.000 1167.042,454.000 1137.686 L 454.000 1111.293 465.445 1107.624 C 482.108 1102.283,482.905 1100.742,479.029 1081.358 C 477.945 1075.936,476.776 1069.700,476.432 1067.500 C 476.088 1065.300,474.078 1055.625,471.966 1046.000 C 468.119 1028.467,463.032 1013.873,455.625 999.114 C 452.495 992.877,452.324 992.105,453.749 990.680 C 455.127 989.302,455.195 987.306,454.313 974.305 C 453.760 966.162,453.663 959.035,454.097 958.466 C 454.531 957.897,455.328 954.747,455.867 951.466 C 456.406 948.185,458.277 939.200,460.025 931.500 L 463.203 917.500 463.048 860.303 C 462.911 809.515,463.074 802.758,464.501 799.998 C 465.386 798.287,466.288 795.676,466.506 794.194 C 466.725 792.712,467.185 790.375,467.528 789.000 C 467.872 787.625,468.346 785.150,468.582 783.500 C 468.817 781.850,469.899 775.550,470.985 769.500 C 473.580 755.050,475.781 740.067,476.492 732.000 C 476.808 728.425,477.484 722.800,477.996 719.500 C 479.784 707.966,482.946 677.392,483.684 664.500 C 484.627 648.032,484.700 608.279,483.801 600.871 C 481.997 586.005,475.841 570.922,467.811 561.689 L 462.684 555.795 463.388 498.063 C 464.124 437.592,463.892 432.460,459.863 420.178 C 456.473 409.844,448.634 403.620,434.414 399.971 C 408.311 393.273,392.771 400.573,383.263 424.000 C 382.351 426.247,382.188 425.944,381.649 421.000 C 381.319 417.975,380.811 411.269,380.521 406.098 C 380.230 400.927,379.638 396.202,379.205 395.598 C 378.772 394.994,377.812 392.700,377.073 390.500 C 374.263 382.139,366.806 373.964,358.275 369.892 C 354.799 368.234,351.178 366.715,350.228 366.518 C 349.277 366.320,346.025 365.504,343.000 364.703 C 335.527 362.724,324.308 361.926,319.746 363.047 M693.000 369.277 C 692.725 369.553,689.800 370.034,686.500 370.347 C 680.590 370.907,671.500 373.672,665.542 376.721 C 658.263 380.445,651.371 388.466,647.880 397.275 C 645.186 404.073,645.148 404.293,644.064 419.348 C 643.555 426.414,642.882 432.451,642.569 432.764 C 642.256 433.077,642.000 432.696,641.999 431.917 C 641.998 429.112,636.106 418.123,632.410 414.032 C 624.728 405.529,614.727 403.077,596.520 405.234 C 585.862 406.497,578.141 409.871,571.884 415.999 C 566.774 421.004,566.052 422.267,563.884 430.000 L 561.500 438.500 561.855 500.680 L 562.210 562.860 558.355 567.008 C 552.319 573.504,548.503 580.242,545.190 590.257 C 541.290 602.045,540.635 608.598,540.712 635.000 C 540.806 667.018,541.950 685.734,545.513 713.572 C 546.916 724.532,548.298 736.200,548.585 739.500 C 549.280 747.485,553.495 773.915,556.161 787.000 C 557.337 792.775,558.366 798.183,558.447 799.018 C 558.528 799.852,558.937 801.090,559.356 801.768 C 559.775 802.445,559.889 803.000,559.610 803.000 C 559.331 803.000,559.770 804.599,560.586 806.553 C 561.844 809.562,562.057 818.781,561.977 866.803 C 561.921 901.090,562.280 925.476,562.886 928.500 C 563.437 931.250,564.987 938.225,566.331 944.000 C 567.674 949.775,569.069 956.503,569.431 958.950 C 569.792 961.398,570.467 963.873,570.930 964.450 C 571.394 965.028,571.305 972.138,570.733 980.252 C 569.819 993.222,569.884 995.215,571.266 996.752 C 572.710 998.358,572.479 999.229,568.410 1007.500 C 564.235 1015.987,560.221 1025.655,559.483 1029.000 C 559.301 1029.825,558.418 1032.525,557.520 1035.000 C 555.955 1039.317,549.378 1068.153,548.521 1074.459 C 548.293 1076.132,547.183 1081.937,546.054 1087.360 C 542.668 1103.614,543.397 1107.121,550.962 1110.981 C 554.066 1112.564,568.450 1117.000,570.482 1117.000 C 570.767 1117.000,571.000 1128.947,571.000 1143.550 C 571.000 1172.354,571.133 1173.166,576.864 1179.339 C 581.788 1184.643,589.703 1187.288,604.000 1188.408 C 628.661 1190.339,707.683 1191.160,762.000 1190.050 C 823.781 1188.788,833.755 1187.974,844.000 1183.363 C 857.082 1177.474,858.221 1174.087,857.809 1142.315 L 857.500 1118.502 862.791 1116.806 C 865.701 1115.873,869.711 1114.851,871.702 1114.535 C 879.982 1113.219,889.029 1109.779,891.086 1107.164 C 892.891 1104.869,893.087 1103.611,892.596 1097.513 C 892.285 1093.656,891.814 1089.375,891.551 1088.000 C 891.287 1086.625,890.815 1083.727,890.503 1081.561 C 890.190 1079.394,888.623 1072.419,887.020 1066.061 C 885.418 1059.702,883.845 1053.002,883.525 1051.172 C 882.788 1046.951,875.648 1021.956,873.478 1016.000 C 872.577 1013.525,870.277 1008.927,868.367 1005.783 C 865.406 1000.907,865.065 999.746,866.054 997.900 C 867.192 995.772,866.964 986.676,865.416 972.452 C 864.845 967.208,865.122 965.546,867.503 959.952 C 873.851 945.034,877.871 930.648,879.926 915.500 C 880.862 908.601,883.788 869.245,883.792 863.500 C 883.796 857.876,885.249 832.240,886.541 815.000 C 888.259 792.071,890.829 756.146,890.905 754.000 C 891.759 729.786,892.338 682.999,892.410 632.500 C 892.554 530.579,891.018 507.634,882.954 491.255 C 880.758 486.795,878.712 484.212,876.037 482.523 C 863.990 474.919,842.247 474.652,830.711 481.968 L 826.298 484.767 825.664 472.134 C 825.315 465.185,824.605 456.800,824.086 453.500 C 823.567 450.200,822.898 445.700,822.599 443.500 C 821.451 435.052,820.161 430.546,816.806 423.265 C 811.581 411.928,803.471 406.268,791.220 405.409 C 787.524 405.150,782.975 404.745,781.110 404.509 C 774.979 403.734,761.800 406.051,756.676 408.805 C 751.812 411.420,747.158 416.365,744.903 421.314 C 743.486 424.424,742.000 424.841,742.000 422.128 C 742.000 421.099,740.880 415.811,739.510 410.378 C 733.094 384.926,719.971 370.959,701.000 369.395 C 696.875 369.055,693.275 369.002,693.000 369.277 M341.303 371.625 C 345.261 372.518,350.554 374.283,353.063 375.547 C 358.837 378.454,364.555 384.735,365.928 389.679 C 367.244 394.420,367.284 413.275,366.023 435.000 C 365.496 444.075,364.799 458.925,364.473 468.000 C 364.147 477.075,363.592 491.925,363.239 501.000 C 362.357 523.640,362.337 603.465,363.211 609.000 C 364.749 618.739,365.235 620.563,366.744 622.250 C 371.049 627.062,374.654 620.731,376.526 605.072 C 377.287 598.707,377.888 592.375,377.862 591.000 C 377.836 589.625,378.075 585.575,378.393 582.000 C 379.135 573.672,379.888 549.648,380.477 515.500 C 380.922 489.702,383.409 459.987,386.126 448.000 C 386.687 445.525,387.367 441.700,387.637 439.500 C 388.452 432.855,392.892 420.828,396.621 415.164 C 399.381 410.973,401.318 409.286,405.643 407.306 C 410.664 405.007,412.101 404.816,421.864 405.151 C 431.559 405.482,433.211 405.829,439.247 408.801 C 453.795 415.963,456.497 423.511,456.499 457.000 C 456.502 515.831,456.243 842.676,456.164 878.027 C 456.069 921.001,455.710 925.033,450.889 937.295 C 448.236 944.041,446.630 945.733,440.147 948.607 C 437.202 949.913,432.702 952.461,430.147 954.269 C 427.591 956.077,423.925 958.155,422.000 958.886 C 420.075 959.617,416.114 961.139,413.197 962.269 C 408.373 964.136,407.751 964.180,406.320 962.749 C 404.890 961.318,405.030 960.394,407.874 952.536 C 411.178 943.404,411.644 940.516,409.979 939.487 C 408.980 938.870,408.157 940.515,404.542 950.347 C 401.279 959.224,394.058 965.000,386.223 965.000 C 382.864 965.000,382.771 964.910,384.345 963.171 C 386.405 960.895,386.497 958.000,384.508 958.000 C 383.687 958.000,381.774 959.395,380.258 961.101 C 376.737 965.060,370.044 969.000,366.840 969.000 C 365.474 969.000,362.260 968.286,359.698 967.413 L 355.039 965.825 356.516 962.969 C 357.449 961.166,357.626 959.887,356.996 959.498 C 356.448 959.159,356.000 957.671,356.000 956.191 C 356.001 951.490,352.565 938.000,351.366 938.000 C 349.199 938.000,349.217 940.608,351.455 950.796 C 354.074 962.719,353.888 963.280,345.950 967.431 C 341.640 969.685,340.120 969.991,336.173 969.403 C 333.603 969.020,330.488 968.046,329.252 967.239 C 327.686 966.218,325.712 965.966,322.752 966.410 L 318.500 967.047 317.227 962.965 C 316.527 960.720,316.203 958.481,316.507 957.989 C 317.199 956.868,312.551 940.151,311.160 938.760 C 310.596 938.196,309.408 938.013,308.519 938.354 C 306.697 939.054,307.038 942.921,309.657 951.230 C 310.477 953.832,310.875 956.817,310.543 957.865 C 310.210 958.913,310.429 960.847,311.029 962.163 C 311.806 963.869,311.813 965.362,311.053 967.361 L 309.986 970.166 306.743 967.568 C 304.959 966.139,302.994 964.561,302.375 964.062 C 301.756 963.563,300.933 960.201,300.547 956.592 C 299.873 950.298,297.083 944.593,295.467 946.203 C 294.891 946.776,296.369 954.717,298.613 963.103 C 298.888 964.134,297.612 965.653,295.042 967.353 C 290.623 970.278,285.000 970.936,285.000 968.529 C 285.000 967.708,283.562 966.684,281.750 966.214 C 278.906 965.476,278.537 965.004,278.797 962.435 C 279.166 958.786,275.504 946.663,273.541 945.034 C 270.500 942.510,270.284 945.185,272.958 952.244 C 274.470 956.235,275.625 960.764,275.525 962.310 C 274.921 971.601,263.680 970.978,258.686 961.376 C 256.529 957.229,252.379 953.641,250.551 954.342 C 248.269 955.218,248.651 956.548,251.750 958.517 C 253.263 959.478,255.530 961.200,256.788 962.343 L 259.076 964.420 254.788 966.665 C 249.446 969.461,248.359 969.489,242.669 966.972 C 237.472 964.673,237.288 964.471,236.549 960.277 C 235.791 955.976,230.402 943.634,229.091 943.197 C 227.111 942.537,227.951 946.907,231.494 955.693 C 234.761 963.795,234.880 964.475,233.339 966.178 C 231.075 968.679,228.337 968.461,224.818 965.500 C 223.184 964.125,221.021 963.000,220.012 963.000 C 218.900 963.000,216.630 960.734,214.251 957.250 C 212.091 954.087,209.576 951.355,208.662 951.177 C 206.048 950.668,206.700 952.832,210.500 957.271 C 214.275 961.681,214.660 962.940,212.800 964.800 C 210.592 967.008,206.515 966.188,204.212 963.073 C 203.021 961.463,201.039 960.000,199.807 959.823 C 198.575 959.645,197.051 958.375,196.420 957.000 C 192.207 947.820,190.502 944.897,187.913 942.416 C 185.708 940.305,184.703 939.897,183.837 940.763 C 182.971 941.629,183.528 942.848,186.094 945.706 C 187.967 947.793,190.625 951.669,192.000 954.321 L 194.500 959.141 191.500 961.566 C 186.210 965.841,182.965 964.667,177.561 956.526 C 173.882 950.983,171.455 949.650,170.339 952.560 C 169.979 953.498,170.821 955.248,172.452 956.950 C 173.979 958.544,174.731 960.048,174.172 960.394 C 169.898 963.035,161.513 948.883,155.923 929.594 C 152.502 917.787,151.239 908.947,150.481 891.500 C 150.170 884.350,149.483 871.750,148.954 863.500 C 148.425 855.250,147.759 844.450,147.475 839.500 C 147.190 834.550,146.298 821.725,145.492 811.000 C 144.686 800.275,143.355 782.500,142.533 771.500 C 140.341 742.147,139.706 708.104,139.849 627.500 C 140.028 526.345,140.421 516.651,145.086 498.504 C 149.218 482.429,155.599 477.000,170.363 477.000 C 180.099 477.000,189.972 479.990,193.301 483.946 C 196.692 487.976,197.202 493.127,195.933 510.500 C 194.481 530.387,193.845 601.390,195.036 610.781 C 196.436 621.830,197.595 625.167,201.516 629.447 C 204.306 632.494,205.332 633.067,206.286 632.113 C 207.220 631.177,207.500 609.900,207.501 539.699 C 207.502 450.352,207.546 448.275,209.662 437.393 C 212.794 421.284,217.701 412.554,226.257 407.873 C 229.936 405.860,232.113 405.518,242.642 405.297 C 261.967 404.894,268.387 408.021,273.363 420.266 C 275.789 426.234,275.781 426.017,274.625 452.500 C 271.872 515.598,271.050 585.712,272.864 602.709 C 273.790 611.381,278.328 624.000,280.521 624.000 C 281.236 624.000,282.025 621.867,282.425 618.855 C 282.800 616.025,283.947 612.063,284.974 610.051 C 286.547 606.968,288.461 598.776,288.959 593.000 C 289.030 592.175,289.245 589.642,289.438 587.372 C 289.630 585.102,290.039 582.402,290.346 581.372 C 290.653 580.342,291.162 572.300,291.476 563.500 C 291.790 554.700,292.477 540.750,293.002 532.500 C 295.190 498.161,297.079 457.155,298.532 412.500 C 299.263 390.020,299.446 388.624,302.200 384.596 C 311.498 370.999,322.444 367.368,341.303 371.625 M712.393 380.473 C 717.531 383.883,723.815 391.078,725.318 395.270 C 725.667 396.244,726.197 405.694,726.494 416.270 C 727.352 446.718,728.925 484.274,730.548 513.000 C 733.419 563.837,734.818 586.505,735.486 593.000 C 735.684 594.925,736.096 598.889,736.401 601.810 C 737.091 608.420,738.743 614.672,740.522 617.410 C 741.269 618.559,742.192 621.873,742.572 624.772 C 743.704 633.405,745.254 632.686,749.430 621.590 C 752.088 614.529,752.178 613.594,753.389 580.500 C 753.866 567.473,751.695 475.743,750.360 452.500 C 749.167 431.716,749.966 426.666,755.627 419.245 C 760.438 412.937,765.891 411.438,783.500 411.582 C 794.701 411.673,799.062 413.216,805.051 419.205 C 809.053 423.206,813.674 432.905,814.484 439.000 C 814.813 441.475,815.624 445.975,816.286 449.000 C 817.177 453.065,817.492 478.295,817.495 545.699 C 817.499 620.398,817.741 637.133,818.834 638.199 C 819.935 639.273,820.827 638.763,823.949 635.273 C 828.726 629.934,829.874 624.527,830.753 603.244 C 831.796 577.960,831.401 558.245,829.013 516.500 C 828.024 499.213,828.664 492.893,831.690 490.074 C 836.696 485.411,844.872 483.169,856.178 483.360 C 863.436 483.482,865.042 483.852,868.742 486.258 C 872.776 488.879,877.750 495.297,878.504 498.852 C 878.696 499.759,879.766 504.325,880.881 509.000 C 884.330 523.455,884.994 539.881,885.351 619.500 C 885.773 713.545,884.998 745.822,881.075 797.500 C 879.405 819.500,878.062 838.400,878.091 839.500 C 878.120 840.600,877.880 845.100,877.557 849.500 C 877.233 853.900,876.766 862.225,876.518 868.000 C 875.953 881.175,874.162 908.878,873.448 915.500 C 872.169 927.357,867.760 942.488,862.096 954.458 C 858.016 963.080,854.278 967.393,851.371 966.833 C 849.805 966.531,849.946 966.131,852.424 963.833 C 854.230 962.158,855.059 960.596,854.673 959.591 C 854.033 957.923,850.000 957.336,850.000 958.910 C 850.000 959.411,848.190 962.111,845.977 964.910 C 841.549 970.512,839.206 971.192,833.860 968.428 C 831.313 967.111,830.924 966.440,831.461 964.300 C 832.225 961.257,837.976 952.071,840.334 950.128 C 842.546 948.305,842.443 947.000,840.087 947.000 C 837.643 947.000,832.435 954.021,830.206 960.322 C 828.814 964.257,827.972 965.250,825.628 965.721 C 823.781 966.093,822.051 967.494,820.779 969.649 C 818.578 973.380,815.745 973.984,812.829 971.345 C 810.324 969.079,810.480 968.340,814.500 963.435 C 817.898 959.288,818.853 957.000,817.187 957.000 C 816.175 957.000,812.025 961.473,809.172 965.639 C 807.990 967.365,805.780 969.080,804.261 969.449 C 802.742 969.819,800.825 970.946,800.000 971.954 C 797.664 974.808,794.584 975.293,792.013 973.212 L 789.748 971.378 793.439 962.153 C 795.469 957.079,796.973 951.932,796.781 950.714 C 796.457 948.654,796.289 948.726,794.381 951.744 C 793.252 953.529,791.516 957.579,790.523 960.744 C 787.229 971.249,787.081 971.493,782.964 973.277 C 777.763 975.530,774.804 975.451,769.855 972.926 L 765.790 970.852 767.994 968.507 C 769.206 967.216,771.503 965.620,773.099 964.959 C 776.244 963.656,776.934 961.296,774.449 960.342 C 772.481 959.587,768.172 963.493,766.408 967.630 C 764.685 971.671,759.521 976.000,756.423 976.000 C 750.846 976.000,747.966 968.375,750.947 961.500 C 753.851 954.802,754.868 951.037,753.931 950.457 C 753.371 950.111,752.322 950.317,751.601 950.916 C 750.016 952.231,745.742 966.199,746.156 968.711 C 746.566 971.202,745.232 973.000,742.976 973.000 C 741.928 973.000,740.582 973.912,739.985 975.028 C 738.713 977.404,735.617 977.290,731.697 974.721 C 730.252 973.774,728.653 973.000,728.142 973.000 C 726.199 973.000,726.216 969.935,728.207 961.577 C 730.309 952.752,730.108 950.463,727.465 953.106 C 726.389 954.183,723.021 968.251,723.001 971.750 C 723.001 971.888,722.386 972.000,721.635 972.000 C 720.884 972.000,719.060 972.951,717.582 974.114 C 716.104 975.277,714.707 976.041,714.478 975.812 C 713.419 974.752,714.308 961.439,715.735 957.000 C 716.354 955.075,717.156 951.587,717.518 949.250 C 718.146 945.189,718.062 945.000,715.626 945.000 C 713.465 945.000,712.911 945.647,711.986 949.250 C 711.386 951.587,710.301 955.610,709.575 958.190 C 708.849 960.769,708.464 963.979,708.721 965.323 C 708.978 966.666,708.696 968.070,708.094 968.442 C 707.492 968.814,707.000 969.954,707.000 970.976 C 707.000 973.286,705.214 973.977,702.163 972.848 C 700.495 972.231,698.518 972.562,695.256 974.005 C 688.827 976.849,684.410 976.761,678.324 973.670 C 673.803 971.374,671.166 968.236,671.764 965.863 C 674.244 956.019,675.651 946.293,674.753 945.208 C 674.166 944.497,673.354 944.272,672.949 944.708 C 671.922 945.815,669.000 959.264,669.000 962.888 C 669.000 964.535,668.526 966.175,667.946 966.534 C 667.249 966.964,667.445 968.031,668.526 969.679 C 670.430 972.585,670.636 972.314,665.384 973.820 C 656.611 976.336,653.170 975.352,645.800 968.221 C 641.762 964.315,640.876 963.858,639.516 964.987 C 638.086 966.174,638.129 966.508,639.967 968.465 C 642.719 971.394,642.537 972.000,638.904 972.000 C 630.420 972.000,621.382 962.561,618.063 950.233 C 617.436 947.905,616.476 946.000,615.930 946.000 C 613.675 946.000,613.965 949.477,616.943 958.148 C 618.676 963.190,619.861 967.920,619.578 968.658 C 618.792 970.705,614.645 970.268,608.594 967.500 C 605.588 966.125,602.695 965.000,602.165 965.000 C 601.635 965.000,598.793 963.361,595.850 961.358 C 592.908 959.355,587.696 956.430,584.270 954.857 C 579.360 952.604,577.642 951.203,576.162 948.249 C 574.323 944.575,570.785 933.440,569.570 927.500 C 568.823 923.851,568.750 896.486,568.897 676.000 C 568.960 581.125,568.728 491.350,568.381 476.500 C 567.505 439.008,569.827 426.262,578.829 419.138 C 585.996 413.466,593.274 411.469,606.500 411.547 C 620.138 411.627,626.613 415.783,632.138 428.000 C 633.988 432.092,636.973 442.089,637.473 445.869 C 637.665 447.316,638.518 452.550,639.371 457.500 C 643.281 480.218,644.604 501.817,646.506 574.000 C 647.203 600.467,647.049 597.702,648.588 611.343 C 650.098 624.723,652.061 629.500,656.052 629.500 C 659.742 629.500,661.557 623.326,662.813 606.500 C 663.716 594.390,663.675 556.178,662.731 531.000 C 660.261 465.099,659.967 458.065,658.977 441.000 C 657.677 418.609,657.757 400.542,659.177 395.805 C 662.601 384.376,679.095 376.196,697.907 376.597 C 706.387 376.777,707.122 376.974,712.393 380.473 M294.308 406.748 C 293.821 410.456,293.667 414.410,292.570 451.412 C 292.261 461.814,291.557 478.014,291.004 487.412 C 290.451 496.811,289.537 513.950,288.973 525.500 C 287.926 546.945,285.407 580.487,284.334 587.272 C 283.496 592.570,281.922 593.025,282.502 587.802 C 284.085 573.544,289.191 475.397,288.787 467.000 C 288.436 459.714,291.126 417.206,292.598 406.773 C 292.965 404.173,293.611 402.260,294.033 402.521 C 294.456 402.782,294.580 404.684,294.308 406.748 M374.459 445.000 C 374.472 465.075,373.926 492.975,373.246 507.000 C 372.566 521.025,371.785 544.650,371.512 559.500 C 370.944 590.278,370.045 607.000,368.957 607.000 C 366.612 607.000,366.924 546.112,369.605 480.500 C 369.852 474.450,370.247 462.975,370.483 455.000 C 371.755 412.015,372.255 403.473,373.352 406.000 C 374.064 407.643,374.444 421.017,374.459 445.000 M732.008 409.750 C 732.012 410.163,732.626 415.675,733.372 422.000 C 734.117 428.325,734.750 434.400,734.778 435.500 C 734.807 436.600,735.186 444.250,735.620 452.500 C 736.055 460.750,736.371 469.525,736.321 472.000 C 736.068 484.728,741.073 583.386,742.523 594.250 C 742.798 596.313,742.626 598.000,742.141 598.000 C 741.655 598.000,740.975 595.862,740.630 593.250 C 739.542 585.017,737.154 554.052,736.525 540.000 C 736.192 532.575,735.487 519.075,734.958 510.000 C 733.959 492.861,733.224 475.724,732.534 453.500 C 731.664 425.483,731.045 412.716,730.468 410.898 C 730.133 409.843,730.339 409.000,730.933 409.000 C 731.520 409.000,732.004 409.337,732.008 409.750 M654.443 455.033 C 654.791 466.290,655.212 479.775,655.379 485.000 C 657.486 551.088,658.183 587.762,657.551 599.250 C 656.776 613.348,655.123 617.925,654.843 606.750 C 654.757 603.313,654.577 599.375,654.444 598.000 C 654.310 596.625,653.923 582.675,653.585 567.000 C 653.246 551.325,652.247 521.400,651.363 500.500 C 650.335 476.169,649.969 454.047,650.347 439.000 C 651.373 398.058,652.860 403.876,654.443 455.033 M281.988 460.309 C 281.981 473.064,281.330 496.325,280.542 512.000 C 279.753 527.675,278.791 552.763,278.402 567.750 C 277.958 584.910,277.324 595.000,276.690 595.000 C 275.420 595.000,276.419 530.822,278.471 480.500 C 279.279 460.700,279.953 442.561,279.970 440.191 C 279.988 437.580,280.394 436.125,281.000 436.500 C 281.621 436.884,281.995 445.913,281.988 460.309 M746.525 485.000 C 748.645 539.453,749.609 602.494,748.309 601.691 C 747.707 601.319,747.025 589.790,746.599 572.786 C 746.209 557.229,745.470 537.975,744.957 530.000 C 743.591 508.755,742.557 447.849,743.505 444.434 C 743.953 442.820,744.461 442.175,744.634 443.000 C 744.807 443.825,745.658 462.725,746.525 485.000 M201.000 570.849 C 201.000 585.616,201.291 601.141,201.647 605.349 C 202.089 610.578,201.950 613.000,201.209 613.000 C 199.896 613.000,200.058 616.343,199.454 576.750 C 199.119 554.777,199.291 544.000,199.977 544.000 C 200.649 544.000,201.000 553.222,201.000 570.849 M825.758 585.054 C 825.455 614.531,825.028 621.747,823.697 619.917 C 822.866 618.775,824.316 550.077,825.159 550.599 C 825.736 550.955,825.970 564.423,825.758 585.054 M467.315 571.448 C 469.650 575.625,473.974 587.789,475.511 594.500 C 478.314 606.743,477.583 652.750,473.935 693.662 C 472.767 706.773,471.632 719.750,471.414 722.500 C 471.041 727.214,470.645 731.450,469.592 741.993 C 468.489 753.038,463.473 782.000,462.663 782.000 C 462.170 782.000,462.038 780.987,462.370 779.750 C 462.701 778.513,462.979 730.138,462.986 672.250 C 462.995 609.320,463.368 567.000,463.915 567.000 C 464.417 567.000,465.948 569.002,467.315 571.448 M562.000 677.875 C 562.000 735.556,562.285 784.269,562.632 786.125 C 563.053 788.371,562.931 789.166,562.266 788.500 C 561.313 787.545,558.225 769.482,557.395 760.000 C 557.178 757.525,556.740 754.383,556.423 753.018 C 556.105 751.652,555.671 748.502,555.459 746.018 C 555.246 743.533,554.398 734.975,553.574 727.000 C 546.898 662.369,545.945 614.865,550.936 595.500 C 553.103 587.094,559.441 573.000,561.055 573.000 C 561.642 573.000,562.000 612.665,562.000 677.875 M444.000 953.015 C 444.000 955.343,443.260 956.481,440.750 958.011 C 437.587 959.939,433.000 960.705,433.000 959.304 C 433.000 958.438,442.223 950.106,443.250 950.045 C 443.663 950.020,444.000 951.357,444.000 953.015 M588.347 961.719 C 590.356 963.490,592.000 965.178,592.000 965.469 C 592.000 967.214,583.351 964.722,581.765 962.520 C 581.361 961.959,581.024 960.237,581.015 958.693 C 580.998 955.501,581.551 955.730,588.347 961.719 M446.352 965.250 C 447.144 971.848,447.161 983.797,446.382 986.703 C 445.531 989.876,442.027 991.799,435.874 992.468 C 432.918 992.790,426.000 993.693,420.500 994.475 C 415.000 995.257,406.900 996.127,402.500 996.408 C 398.100 996.689,389.100 997.499,382.500 998.208 C 366.600 999.916,255.859 999.914,230.500 998.206 C 220.600 997.539,207.775 996.765,202.000 996.487 C 179.417 995.398,170.778 993.263,166.665 987.754 C 164.803 985.260,164.787 984.868,166.296 978.876 C 167.165 975.428,167.636 972.220,167.344 971.747 C 167.051 971.274,167.059 969.899,167.362 968.693 C 167.858 966.716,168.532 966.507,174.206 966.572 C 177.668 966.611,181.483 967.173,182.684 967.822 C 185.377 969.275,192.460 969.359,195.057 967.970 C 196.485 967.205,197.805 967.365,200.170 968.588 C 202.633 969.861,205.192 970.130,211.424 969.769 C 218.372 969.367,219.864 969.579,222.192 971.300 C 224.528 973.027,225.837 973.209,231.871 972.649 C 236.019 972.263,240.864 972.466,243.821 973.148 C 247.238 973.937,249.998 973.990,252.647 973.318 C 255.366 972.628,258.265 972.716,262.500 973.618 C 267.138 974.605,269.587 974.635,273.285 973.750 C 276.930 972.877,279.138 972.889,282.549 973.802 C 288.361 975.356,291.969 975.315,296.128 973.648 C 298.999 972.498,300.667 972.524,307.354 973.828 C 313.899 975.105,315.732 975.144,318.354 974.066 C 323.610 971.903,326.638 971.716,329.202 973.397 C 330.537 974.272,333.655 975.265,336.130 975.604 C 339.784 976.105,341.592 975.734,345.747 973.628 C 350.352 971.295,351.347 971.137,355.682 972.053 C 367.669 974.586,373.791 974.108,378.160 970.300 C 379.267 969.335,382.768 968.746,388.660 968.533 C 393.522 968.358,397.950 968.128,398.500 968.023 C 399.050 967.918,402.095 968.090,405.267 968.405 C 409.405 968.817,412.229 968.510,415.267 967.318 C 417.595 966.405,421.750 965.580,424.500 965.485 C 427.250 965.391,431.346 965.243,433.602 965.156 C 436.133 965.060,439.006 964.075,441.102 962.586 C 442.971 961.258,444.775 960.133,445.111 960.086 C 445.447 960.039,446.005 962.362,446.352 965.250 M586.500 970.734 C 588.150 971.315,592.875 971.859,597.000 971.943 C 601.125 972.026,606.451 972.756,608.835 973.564 C 611.301 974.400,616.476 974.995,620.835 974.942 C 637.106 974.747,645.304 975.617,649.229 977.953 C 652.347 979.809,653.984 980.093,659.229 979.685 C 662.678 979.416,667.300 978.783,669.500 978.276 C 672.854 977.504,674.262 977.730,678.217 979.678 C 683.645 982.350,687.835 982.546,693.500 980.390 C 700.394 977.767,700.905 977.727,704.661 979.509 C 708.995 981.566,711.105 981.654,717.770 980.055 C 722.763 978.857,726.923 978.996,730.317 980.474 C 731.317 980.909,734.917 980.921,738.317 980.500 C 741.718 980.080,746.525 979.856,749.000 980.003 C 754.351 980.322,757.030 980.266,771.500 979.537 C 789.515 978.629,790.301 978.616,795.344 979.138 C 799.133 979.531,800.720 979.222,802.630 977.719 C 804.767 976.038,806.049 975.885,812.907 976.492 C 819.198 977.049,821.364 976.863,823.905 975.549 C 826.617 974.147,827.916 974.079,832.995 975.079 C 838.307 976.124,839.261 976.046,842.210 974.324 C 844.841 972.789,846.701 972.514,851.499 972.952 L 857.499 973.500 858.242 979.500 C 858.651 982.800,859.441 986.812,859.998 988.416 C 860.933 991.107,860.674 991.655,856.634 995.526 C 852.419 999.565,851.908 999.763,842.878 1000.860 C 813.371 1004.443,784.116 1005.500,714.500 1005.500 C 656.336 1005.500,639.289 1004.902,614.269 1001.981 C 579.037 997.869,578.984 997.849,578.225 988.700 C 577.968 985.602,578.081 979.189,578.476 974.450 L 579.193 965.833 581.347 967.755 C 582.531 968.812,584.850 970.152,586.500 970.734 M453.328 1009.925 C 459.641 1025.173,461.766 1032.110,466.037 1051.414 C 468.012 1060.337,468.603 1064.873,467.951 1066.091 C 466.040 1069.662,437.771 1077.703,421.000 1079.445 C 417.975 1079.759,410.550 1080.676,404.500 1081.482 C 398.450 1082.288,389.000 1083.207,383.500 1083.523 C 378.000 1083.839,367.200 1084.519,359.500 1085.034 C 341.464 1086.240,281.747 1086.233,263.000 1085.023 C 255.025 1084.508,243.100 1083.825,236.500 1083.507 C 229.900 1083.188,218.875 1082.284,212.000 1081.498 C 205.125 1080.712,196.800 1079.830,193.500 1079.538 C 190.200 1079.246,183.900 1078.344,179.500 1077.533 C 175.100 1076.722,169.475 1075.826,167.000 1075.542 C 161.339 1074.893,145.898 1071.173,144.002 1070.001 C 142.789 1069.252,142.918 1067.705,144.869 1059.613 C 146.130 1054.383,147.250 1049.518,147.359 1048.802 C 147.467 1048.086,147.828 1047.050,148.161 1046.500 C 148.863 1045.337,149.958 1040.486,150.520 1036.040 C 151.633 1027.244,156.858 1012.342,161.867 1003.674 C 165.670 997.092,166.892 996.300,170.768 997.899 C 174.293 999.354,176.370 999.736,188.750 1001.212 C 194.387 1001.884,199.000 1002.698,199.000 1003.021 C 199.000 1003.343,197.380 1005.158,195.401 1007.054 C 189.401 1012.799,177.000 1030.124,177.000 1032.761 C 177.000 1033.325,177.666 1034.042,178.481 1034.354 C 179.489 1034.741,180.824 1033.420,182.667 1030.211 C 185.585 1025.130,190.104 1019.320,199.269 1008.866 C 204.980 1002.351,205.152 1002.246,208.793 1003.018 C 210.832 1003.450,223.525 1004.106,237.000 1004.475 C 250.475 1004.845,262.491 1005.383,263.702 1005.670 L 265.904 1006.193 263.608 1009.846 C 261.104 1013.832,257.000 1024.199,257.000 1026.538 C 257.000 1027.342,257.788 1027.994,258.750 1027.986 C 259.997 1027.976,261.023 1026.325,262.321 1022.236 C 263.323 1019.081,265.710 1014.138,267.625 1011.250 L 271.107 1006.000 295.553 1006.000 C 308.999 1006.000,320.000 1006.298,320.000 1006.663 C 320.000 1007.027,317.041 1012.918,313.425 1019.754 C 307.045 1031.812,306.259 1034.551,309.798 1032.390 C 312.085 1030.994,320.678 1016.671,322.782 1010.750 L 324.469 1006.000 332.485 1005.927 C 336.893 1005.887,348.600 1005.498,358.500 1005.062 C 376.389 1004.275,376.537 1004.286,382.500 1006.816 C 385.800 1008.216,390.465 1010.650,392.866 1012.225 C 397.799 1015.461,399.128 1015.486,397.938 1012.323 C 397.483 1011.115,395.147 1009.274,392.688 1008.186 C 390.252 1007.108,387.997 1005.804,387.677 1005.287 C 387.349 1004.756,391.051 1003.821,396.179 1003.138 C 401.175 1002.473,405.344 1002.057,405.445 1002.214 C 406.142 1003.302,413.775 1012.786,414.930 1013.999 C 417.944 1017.164,422.130 1024.680,423.173 1028.798 C 423.955 1031.886,424.714 1033.009,425.869 1032.787 C 426.754 1032.616,427.628 1031.695,427.812 1030.739 C 428.370 1027.839,423.255 1018.007,416.942 1009.846 C 413.660 1005.604,411.318 1001.936,411.738 1001.696 C 412.157 1001.455,415.650 1000.957,419.500 1000.589 C 430.789 999.510,433.174 999.095,439.479 997.116 C 442.767 996.083,445.936 995.422,446.521 995.646 C 447.106 995.871,450.169 1002.296,453.328 1009.925 M589.264 1004.440 C 594.894 1005.782,602.752 1007.189,606.728 1007.567 L 613.955 1008.254 611.776 1011.377 C 610.577 1013.095,609.307 1014.725,608.953 1015.000 C 608.599 1015.275,606.443 1018.250,604.162 1021.611 C 597.469 1031.472,595.327 1038.144,598.468 1039.349 C 600.241 1040.030,600.482 1039.674,601.937 1034.251 C 603.087 1029.964,617.093 1010.285,619.709 1009.281 C 620.446 1008.999,624.883 1009.087,629.569 1009.477 C 637.094 1010.104,637.940 1010.367,636.809 1011.730 C 636.105 1012.579,633.609 1014.096,631.264 1015.101 C 627.755 1016.605,627.000 1017.405,627.000 1019.619 C 627.000 1022.114,627.127 1022.196,628.750 1020.738 C 629.712 1019.873,634.100 1017.374,638.500 1015.184 L 646.500 1011.202 661.000 1011.529 C 668.975 1011.708,681.237 1011.888,688.250 1011.928 C 698.696 1011.987,701.000 1012.262,701.000 1013.452 C 701.000 1015.722,710.927 1034.629,713.676 1037.596 C 715.417 1039.474,716.455 1039.945,717.205 1039.195 C 717.955 1038.445,717.531 1036.863,715.764 1033.816 C 710.925 1025.475,706.228 1016.477,705.550 1014.250 L 704.865 1012.000 728.351 1012.000 C 741.268 1012.000,752.541 1012.270,753.403 1012.601 C 755.380 1013.360,760.579 1022.382,763.000 1029.255 C 765.145 1035.347,767.655 1036.393,767.214 1031.011 C 766.897 1027.146,762.806 1017.548,760.293 1014.771 C 759.405 1013.790,758.926 1012.740,759.229 1012.438 C 759.531 1012.135,768.041 1011.665,778.139 1011.393 C 788.238 1011.121,801.871 1010.516,808.436 1010.048 L 820.372 1009.198 824.587 1013.886 C 831.629 1021.718,837.523 1029.215,841.388 1035.257 C 845.009 1040.917,846.305 1041.934,847.479 1040.034 C 848.794 1037.907,836.607 1019.698,829.093 1012.563 C 827.392 1010.948,826.000 1009.260,826.000 1008.813 C 826.000 1008.366,828.944 1008.000,832.542 1008.000 C 839.071 1008.000,853.002 1005.605,856.092 1003.951 C 858.041 1002.907,860.454 1005.279,864.360 1012.080 C 868.104 1018.598,874.652 1039.250,876.268 1049.639 C 876.428 1050.663,876.838 1051.950,877.180 1052.500 C 877.522 1053.050,878.053 1055.084,878.359 1057.021 C 878.666 1058.957,879.603 1063.457,880.443 1067.021 C 881.283 1070.584,881.977 1074.085,881.985 1074.801 C 882.003 1076.371,876.977 1078.582,871.500 1079.415 C 869.300 1079.749,864.350 1080.656,860.500 1081.430 C 843.960 1084.755,800.544 1089.531,778.000 1090.505 C 716.231 1093.173,708.711 1093.173,651.000 1090.509 C 622.656 1089.200,578.764 1082.397,565.620 1077.274 C 560.676 1075.347,555.811 1072.115,556.406 1071.152 C 556.642 1070.770,557.122 1068.442,557.473 1065.979 C 558.173 1061.060,562.105 1043.659,564.473 1035.000 C 565.301 1031.975,567.755 1025.450,569.926 1020.500 C 572.098 1015.550,574.778 1009.362,575.881 1006.750 C 576.985 1004.138,578.144 1002.000,578.458 1002.000 C 578.771 1002.000,583.634 1003.098,589.264 1004.440 M470.411 1074.250 C 470.779 1075.573,473.475 1088.351,474.498 1093.626 C 475.242 1097.460,473.669 1099.254,467.768 1101.303 C 463.367 1102.832,448.930 1105.673,441.000 1106.572 C 438.525 1106.852,432.450 1107.711,427.500 1108.479 C 422.550 1109.248,414.900 1110.142,410.500 1110.466 C 406.100 1110.791,397.325 1111.490,391.000 1112.020 C 358.865 1114.713,349.588 1115.060,308.708 1115.097 C 267.389 1115.135,243.550 1114.307,219.500 1112.000 C 214.000 1111.472,206.800 1110.805,203.500 1110.517 C 197.514 1109.995,180.208 1107.186,166.000 1104.430 C 161.875 1103.630,157.375 1102.762,156.000 1102.500 C 147.032 1100.795,142.783 1099.447,140.927 1097.718 C 139.024 1095.944,138.860 1094.969,139.322 1088.122 C 139.942 1078.940,141.284 1075.000,143.794 1075.000 C 144.808 1075.000,147.909 1075.675,150.687 1076.500 C 156.472 1078.218,177.313 1082.033,184.000 1082.598 C 186.475 1082.807,194.350 1083.642,201.500 1084.454 C 208.650 1085.265,218.325 1086.156,223.000 1086.433 C 227.675 1086.710,241.850 1087.622,254.500 1088.460 C 280.458 1090.180,354.381 1089.924,375.500 1088.040 C 382.100 1087.452,391.325 1086.728,396.000 1086.431 C 400.675 1086.135,408.775 1085.223,414.000 1084.404 C 419.225 1083.584,425.075 1082.751,427.000 1082.552 C 435.490 1081.673,463.295 1075.039,464.801 1073.532 C 465.849 1072.484,470.070 1073.024,470.411 1074.250 M561.450 1080.415 C 565.345 1082.042,579.605 1085.686,585.500 1086.560 C 587.700 1086.887,591.424 1087.574,593.777 1088.087 C 596.129 1088.600,603.177 1089.692,609.440 1090.513 C 640.340 1094.564,649.106 1095.082,696.500 1095.656 C 748.478 1096.286,778.048 1095.340,810.109 1092.019 C 820.774 1090.915,830.850 1089.952,832.500 1089.879 C 834.150 1089.806,839.550 1089.092,844.500 1088.293 C 849.450 1087.494,855.300 1086.629,857.500 1086.371 C 859.700 1086.113,863.116 1085.476,865.091 1084.955 C 867.066 1084.435,871.116 1083.549,874.091 1082.987 C 877.066 1082.426,880.287 1081.719,881.249 1081.416 C 883.665 1080.656,884.935 1084.411,885.643 1094.407 C 886.144 1101.482,885.982 1102.703,884.358 1104.114 C 882.649 1105.598,869.333 1109.253,861.000 1110.524 C 859.075 1110.818,853.450 1111.916,848.500 1112.964 C 843.550 1114.013,837.025 1115.101,834.000 1115.384 C 830.975 1115.666,825.125 1116.392,821.000 1116.998 C 816.875 1117.603,810.350 1118.283,806.500 1118.510 C 802.650 1118.736,790.725 1119.477,780.000 1120.157 C 754.029 1121.803,677.856 1121.862,658.500 1120.252 C 650.250 1119.566,639.287 1118.777,634.137 1118.499 C 628.987 1118.221,620.887 1117.554,616.137 1117.017 C 611.387 1116.480,604.575 1115.788,601.000 1115.480 C 597.425 1115.172,589.550 1114.039,583.500 1112.963 C 577.450 1111.887,570.475 1110.727,568.000 1110.387 C 562.764 1109.666,553.077 1106.304,551.213 1104.559 C 550.168 1103.581,550.336 1101.310,552.114 1092.428 C 554.959 1078.210,555.256 1077.827,561.450 1080.415 M183.250 1114.621 C 184.863 1115.094,185.000 1117.327,185.000 1143.067 C 185.000 1160.351,184.632 1171.000,184.035 1171.000 C 183.504 1171.000,181.485 1169.609,179.549 1167.909 C 174.314 1163.312,173.731 1159.735,174.142 1134.691 L 174.500 1112.883 178.000 1113.495 C 179.925 1113.831,182.287 1114.338,183.250 1114.621 M446.189 1115.250 C 447.609 1117.787,448.074 1158.448,446.738 1163.220 C 445.807 1166.548,441.602 1170.718,437.282 1172.599 C 435.512 1173.370,433.818 1174.000,433.517 1174.000 C 433.216 1174.000,433.089 1160.617,433.235 1144.259 L 433.500 1114.519 436.500 1113.878 C 442.546 1112.586,444.883 1112.917,446.189 1115.250 M429.238 1144.622 C 429.067 1161.003,428.830 1174.503,428.712 1174.621 C 427.799 1175.534,409.008 1177.055,392.250 1177.572 L 372.000 1178.198 372.117 1158.849 C 372.182 1148.207,372.520 1135.000,372.867 1129.500 L 373.500 1119.500 381.354 1119.500 L 389.207 1119.500 389.354 1147.500 C 389.480 1171.657,389.706 1175.500,391.000 1175.500 C 392.291 1175.500,392.537 1171.608,392.766 1147.534 C 392.913 1132.152,393.363 1119.265,393.766 1118.894 C 394.170 1118.524,398.029 1117.904,402.342 1117.516 L 410.184 1116.812 409.842 1145.907 C 409.583 1167.938,409.789 1175.001,410.691 1175.000 C 411.346 1175.000,412.102 1174.643,412.372 1174.207 C 412.641 1173.771,412.965 1160.542,413.091 1144.809 L 413.320 1116.204 420.910 1115.307 C 425.085 1114.813,428.736 1114.506,429.024 1114.624 C 429.313 1114.742,429.409 1128.242,429.238 1144.622 M202.500 1117.001 C 204.435 1117.706,204.500 1118.639,204.500 1145.615 C 204.500 1168.857,204.733 1173.500,205.901 1173.500 C 207.054 1173.500,207.264 1170.588,207.091 1157.052 C 206.975 1148.006,207.194 1135.500,207.578 1129.262 L 208.277 1117.921 215.888 1118.210 L 223.500 1118.500 223.765 1147.888 L 224.031 1177.276 214.765 1176.574 C 209.669 1176.189,201.675 1175.317,197.000 1174.637 L 188.500 1173.401 188.219 1146.450 C 188.065 1131.628,188.193 1118.457,188.505 1117.183 C 189.042 1114.987,189.372 1114.902,194.786 1115.569 C 197.929 1115.956,201.400 1116.600,202.500 1117.001 M243.412 1119.858 C 243.703 1120.329,243.979 1133.492,244.024 1149.108 L 244.106 1177.500 236.803 1177.509 C 232.786 1177.515,228.923 1177.348,228.217 1177.140 C 227.221 1176.846,226.968 1172.253,227.087 1156.630 C 227.171 1145.559,227.467 1132.563,227.745 1127.750 L 228.251 1119.000 235.566 1119.000 C 239.590 1119.000,243.120 1119.386,243.412 1119.858 M591.500 1121.113 C 593.002 1122.598,592.847 1179.120,591.340 1179.699 C 588.420 1180.821,579.511 1173.684,578.262 1169.220 C 577.843 1167.724,577.523 1156.825,577.551 1145.000 C 577.613 1118.949,577.765 1118.449,585.347 1119.446 C 588.181 1119.818,590.950 1120.569,591.500 1121.113 M850.687 1140.221 C 851.380 1166.005,850.991 1168.941,846.283 1173.513 C 844.309 1175.431,842.173 1177.000,841.537 1177.000 C 839.809 1177.000,839.367 1122.509,841.086 1121.447 C 842.540 1120.548,848.136 1119.143,849.316 1119.380 C 849.764 1119.470,850.381 1128.848,850.687 1140.221 M262.750 1120.630 L 265.000 1121.233 265.000 1149.656 L 265.000 1178.078 256.250 1177.789 L 247.500 1177.500 247.235 1148.750 L 246.969 1120.000 253.735 1120.014 C 257.456 1120.021,261.512 1120.299,262.750 1120.630 M369.438 1123.250 C 369.403 1124.763,369.291 1137.700,369.188 1152.000 L 369.000 1178.000 360.250 1178.001 L 351.500 1178.001 351.780 1149.564 L 352.060 1121.127 354.780 1120.693 C 356.276 1120.454,360.200 1120.313,363.500 1120.379 C 369.366 1120.497,369.499 1120.562,369.438 1123.250 M283.418 1121.607 C 284.808 1122.140,285.000 1125.595,285.000 1150.107 L 285.000 1178.000 276.250 1178.001 L 267.500 1178.001 267.780 1149.501 L 268.060 1121.000 274.948 1121.000 C 278.737 1121.000,282.548 1121.273,283.418 1121.607 M306.000 1149.500 L 306.000 1178.000 297.250 1178.001 L 288.500 1178.001 288.780 1150.042 L 289.061 1122.083 296.780 1121.743 C 301.026 1121.556,304.837 1121.312,305.250 1121.201 C 305.663 1121.091,306.000 1133.825,306.000 1149.500 M327.949 1137.764 C 328.019 1146.359,327.767 1158.928,327.391 1165.696 L 326.708 1178.000 318.091 1178.000 L 309.474 1178.000 309.259 1150.368 C 309.141 1135.171,309.215 1122.458,309.424 1122.118 C 309.632 1121.778,313.858 1121.643,318.813 1121.819 L 327.824 1122.137 327.949 1137.764 M348.361 1131.500 C 348.375 1137.000,348.300 1149.713,348.193 1159.750 L 348.000 1178.000 338.847 1178.000 L 329.694 1178.000 330.343 1166.750 C 330.699 1160.563,330.993 1147.990,330.995 1138.810 L 331.000 1122.121 334.750 1121.707 C 336.813 1121.479,340.713 1121.339,343.417 1121.396 L 348.334 1121.500 348.361 1131.500 M610.595 1122.451 C 611.340 1122.701,611.774 1130.764,611.952 1147.659 C 612.223 1173.415,612.819 1181.278,614.464 1180.787 C 615.063 1180.609,615.311 1169.583,615.119 1151.660 L 614.809 1122.820 621.655 1123.491 C 625.420 1123.859,629.288 1124.380,630.250 1124.648 C 631.862 1125.096,632.001 1127.313,632.015 1152.817 C 632.024 1168.043,632.423 1181.120,632.904 1181.878 C 633.384 1182.636,634.296 1182.935,634.930 1182.543 C 635.762 1182.029,636.047 1174.186,635.952 1154.464 C 635.880 1139.413,636.043 1126.739,636.315 1126.299 C 636.869 1125.402,650.724 1125.390,651.620 1126.286 C 651.936 1126.602,652.263 1139.830,652.347 1155.680 L 652.500 1184.500 638.500 1184.251 C 626.963 1184.045,607.761 1182.757,598.500 1181.567 C 596.015 1181.248,596.170 1183.053,595.736 1149.305 L 595.373 1121.111 602.437 1121.597 C 606.321 1121.865,609.993 1122.249,610.595 1122.451 M836.542 1124.369 C 836.828 1125.541,836.935 1138.393,836.781 1152.929 L 836.500 1179.357 833.504 1180.158 C 829.652 1181.187,825.008 1181.702,811.750 1182.570 L 801.000 1183.273 801.000 1154.267 L 801.000 1125.262 804.750 1124.642 C 806.813 1124.301,810.349 1124.017,812.608 1124.011 L 816.717 1124.000 817.420 1136.022 C 817.807 1142.635,818.032 1155.347,817.922 1164.272 C 817.757 1177.556,817.972 1180.500,819.110 1180.500 C 820.260 1180.500,820.527 1175.615,820.657 1152.177 C 820.743 1136.599,820.997 1123.670,821.221 1123.445 C 821.966 1122.700,832.469 1121.390,834.261 1121.818 C 835.229 1122.050,836.256 1123.198,836.542 1124.369 M797.356 1135.790 C 797.710 1141.577,798.000 1154.791,798.000 1165.156 L 798.000 1184.000 791.000 1184.167 C 787.150 1184.258,783.298 1184.371,782.441 1184.417 C 781.060 1184.490,780.891 1181.177,780.969 1155.541 C 781.018 1139.614,781.453 1126.339,781.936 1126.041 C 782.418 1125.744,785.941 1125.448,789.763 1125.385 L 796.713 1125.269 797.356 1135.790 M672.739 1127.434 C 672.871 1127.550,673.016 1140.437,673.063 1156.072 L 673.148 1184.500 664.824 1184.500 L 656.500 1184.500 655.982 1156.000 C 655.698 1140.325,655.638 1127.120,655.849 1126.656 C 656.161 1125.973,671.903 1126.698,672.739 1127.434 M777.500 1155.500 L 777.500 1184.500 769.223 1184.500 L 760.946 1184.500 760.863 1156.000 L 760.781 1127.500 764.641 1126.870 C 766.763 1126.523,770.525 1126.298,773.000 1126.370 L 777.500 1126.500 777.500 1155.500 M693.612 1128.384 C 693.673 1128.448,693.996 1141.213,694.328 1156.750 L 694.932 1185.000 685.996 1185.000 L 677.060 1185.000 676.780 1156.415 C 676.626 1140.694,676.643 1127.689,676.817 1127.515 C 677.094 1127.239,693.317 1128.079,693.612 1128.384 M756.512 1128.250 C 756.759 1128.938,757.082 1141.988,757.230 1157.251 L 757.500 1185.002 748.750 1185.001 L 740.000 1185.000 740.000 1156.570 L 740.000 1128.139 742.250 1127.706 C 747.471 1126.700,756.073 1127.028,756.512 1128.250 M715.766 1156.250 L 715.500 1184.500 707.095 1184.500 C 699.477 1184.500,698.657 1184.313,698.331 1182.500 C 698.071 1181.057,697.733 1130.214,697.970 1128.250 C 697.986 1128.112,702.057 1128.000,707.016 1128.000 L 716.031 1128.000 715.766 1156.250 M736.000 1155.500 C 736.000 1170.625,736.112 1183.338,736.250 1183.750 C 736.388 1184.162,732.563 1184.630,727.750 1184.789 L 719.000 1185.078 719.000 1156.539 L 719.000 1128.000 727.500 1128.000 L 736.000 1128.000 736.000 1155.500"></path></svg>