<svg viewBox="0 0 1024 1536" version="1.1" xmlns="http://www.w3.org/2000/svg" id="svg">
  
  <defs>
    <style>
      .st0 {
        fill-rule: evenodd;
      }
    </style>
  </defs>
  <path d="M251.6,122.6c-.5,1-1.7,11.5-2.7,23.3-.9,11.8-2.1,24-2.7,27.2-2,11.4-8.3,63.9-11.4,95.1-8.3,83.2-18.2,225.9-21,302.1-2.9,80.9-3.7,113.7-8.4,338.2-2.4,118.3-3.2,153.6-4.2,189.2-.6,20.7-1.5,56.2-2.1,78.9-3.1,118.4-4.3,163.2-5.2,190.5-.6,16.5-.7,30.7-.4,31.6.8,2,1.1,2.1,19.2,5.3,29.6,5.2,52.5,8.1,78.2,10,19.3,1.4,80,1.5,94.3,0,19.6-1.9,38.1-4.3,40.4-5.3,2.1-.8,2.3-1.9,2.9-14.3,3.7-71.5,17-273.9,22-334.9,8.3-102.1,10.7-128.9,15.2-176.2,9.4-99.3,11.4-118.8,17.8-175.6,12.2-109.6,19.8-162.5,26.4-184.5l1.4-4.7,1.9,6.3c14.7,49.6,44.8,331.9,64.3,603.8,1.7,23.9,3.4,46.9,3.7,51.2,2,26.9,9.4,143.8,13.7,217.2.7,12.2.7,12.1,9.8,13.2,38.9,4.6,43.8,4.9,77.4,4.9,41,0,61.8-1.3,96.1-5.9,19.4-2.6,49.5-8,51.1-9.3,1.6-1.3,1.6-2.1-2-130.3-1.1-40-2.5-91.7-3.1-115-.6-23.3-1.6-60-2.1-81.5-.6-21.6-1.7-75-2.6-118.7-4.5-224.3-8.3-363.8-11.5-425-4.6-86.5-13.4-208.4-18.2-253.5-4.9-44.9-11-93.7-12.6-99.8-.5-2-1.7-12.8-2.6-24-.9-11.2-2-22.7-2.4-25.6l-.7-5.2-259.5-.3c-246.3-.2-259.5-.2-260.5,1.6M708.9,129.2c-36.3,6.1-111.4,16.2-135.4,18.2-4.3.4-9.1.9-10.7,1.2l-2.8.5-.3-9.2-.3-9.2-46.5-.5c-25.6-.3-47.1-.4-47.8-.1-.9.3-1.3,3-1.3,9.3v8.9l-7.6-.7c-38.3-3.6-83.4-9.1-124.1-15.2-15.2-2.3-28.1-4.3-28.6-4.5-.5-.2,93.1-.3,208-.4,206.6,0,208.8,0,197.5,1.8M282.9,132.7c33.7,5.8,81,12.6,114.9,16.7,7.1.9,13.1,1.7,13.3,1.9.2.2-.6,8.1-1.7,17.5-1.1,9.5-2.1,18.9-2.1,21.1,0,2.5-.5,3.9-1.3,3.9s-10.3-.7-21.2-1.6c-53.6-4.3-78.7-7.8-124.7-17.4-6.5-1.4-6.1,1.1-3.9-25.4.9-10.4,1.6-19.4,1.6-20.2,0-.8.8-1.2,1.8-.8,1,.3,11.5,2.2,23.3,4.2M766.8,148.5c.7,9.2,1.5,18.6,1.8,20.9l.5,4.2-11.3,2.4c-36.4,7.7-89.8,14.9-129.8,17.5l-10.6.7v-3.8c0-2.1-1-11.6-2.2-21.1-1.2-9.6-2-17.5-1.8-17.7.2-.2,14.7-2.3,32.2-4.7,32.5-4.4,80.7-11.8,105.1-16.1,12.1-2.1,13.6-2.2,14.2-.8.3.9,1.2,9.2,1.9,18.4M555.7,141.7c0,6.9-.1,7.3-2.4,7.3-2.2,0-2.4-.5-2.4-6s-.4-6.1-1.8-6.3c-1.5-.3-1.8.7-2.1,6.3l-.3,6.6-12,.8c-12,.8-45.6.2-54.1-1l-4.4-.6v-5.5c0-3.3-.6-5.9-1.4-6.6-2.2-1.8-2.7-.4-2.1,6.2.5,6,.4,6.2-2.2,6.2s-2.7-.2-2.7-7.3v-7.3h87.8v7.3M423.2,153.6c2.9.5,3.9,1.2,3.9,2.8s-.7,2-6.3,2-6.3,0-6.3-3.1,2.8-5,4.2-3.1c.3.4,2.3,1,4.4,1.4M610.1,156.5c0,1.6-.9,1.9-6.3,1.9s-6.3-.1-6.3-2.5.3-2.5,3.5-2c2.4.4,4,0,5-1,1.3-1.5,1.6-1.5,2.8,0,.7.9,1.3,2.6,1.3,3.6M467.9,156.3c16.4,1.2,31.7,2.2,34,2.4l4.2.3-.4,22.5c-.2,12.4-.5,22.7-.7,22.9-.3.3-39.5-2.1-71.8-4.4-2.7-.2-5.3-.7-5.7-1-.6-.6,1.2-21.3,3.5-40.6.6-4.8.7-4.9,3.9-4.4,1.8.2,16.7,1.4,33.1,2.5M593.3,153.9c0,.4,1,10.6,2.3,22.5,1.9,17.6,2.1,21.9,1,22.6-.7.5-5.7,1.1-10.9,1.5-5.3.3-19.2,1.3-31,2.2-11.8.9-26,1.7-31.6,1.9l-10.2.4v-22.3c0-12.2-.1-22.6-.3-22.9-.1-.4,4.4-.9,10.2-1.1,11.2-.4,46.1-3,59.1-4.4,11.1-1.2,11.5-1.2,11.5-.4M425.9,163.1c.2.2-.3,6.7-1.2,14.3-.9,7.6-1.9,17.4-2.3,21.7-.6,7.6-1.6,13.2-3.7,21.2-.8,3.1-1.5,3.9-3.5,3.9s-2.7-.7-3.1-1.7c-1.6-4.3-.2-43.8,2.1-57.8l.6-3.5,5.4.7c3,.4,5.6.9,5.8,1.1M610.1,163c0,.6.7,6.8,1.5,13.7,2.2,18.1,3.1,42.2,1.8,45.7-.9,2.4-1.5,2.7-3.5,2-3.5-1.3-5.9-10.2-7.7-28.9-.9-8.6-2-18.5-2.6-22-1.6-9.9-1.4-10.8,1.9-11.2,5.4-.7,8.6-.5,8.6.7M524.2,173.9c-3,2.7-3.5,3.8-3.5,8s.5,5.3,3.4,7.9c2.8,2.5,4.3,3.1,8.7,3.1s5.8-.4,8.9-3.6c3.9-3.9,4.5-7.3,2-12-1.6-3.2-4.9-4.8-11.7-5.9-3.8-.6-4.8-.3-7.8,2.5M539.6,179.8c1.6,2.4,1.6,2.8,0,5.2-1.1,1.6-2.7,2.6-4.3,2.6s-3.2-1-4.3-2.6c-1.6-2.4-1.6-2.8,0-5.2,1.1-1.6,2.7-2.6,4.3-2.6s3.2,1,4.3,2.6M772.5,192.9c1.9,13.7,6.5,57.7,7.2,68.1.6,8.2,2.7,7.2-20.8,9.9-21.4,2.5-58.5,2.5-69.4,0-22.6-5.1-40.8-20.6-47.7-40.3-2.6-7.6-6.2-26.5-5.4-28.7.4-.9,5.5-1.7,16.6-2.7,32.1-2.6,78.2-9.5,104.9-15.7,6.9-1.6,12.6-2.9,12.7-2.8,0,0,.9,5.5,1.8,12.1M262.8,183.4c24.4,6.2,98,16.7,117.5,16.8,7.5,0,7.5.1,5.1,14.3-1.2,6.9-3.1,15.1-4.3,18.3-2.3,6.2-9,17.1-11.9,19.5-1.6,1.3-1.7.8-1.1-6.5.8-9-.5-12.1-5.6-14.1-3.3-1.3-87.5-18-90.9-18-3.6,0-7.6,3.9-8.4,8.1-.4,2.1-2,13.7-3.5,25.8l-2.8,22-4.7-.3c-8.6-.5-9.4-.9-9.4-5.2,0-5.5,7.7-74.5,8.9-80.5.6-2.9.7-2.9,10.7-.3M403.2,204.4c1.5,0,1.9.8,1.9,3.4,0,4.6-8.1,28.6-12.8,37.9-9.8,19.5-29,34.4-52,40.5-8.6,2.3-10.6,2.3-54.3,2.3h-45.4l.3-5.2c.1-2.9.5-6.4.8-7.9.5-2.6.7-2.7,6-1.8,11.5,1.8,41.6,4,55.7,4,28.5,0,42.8-3.2,57.2-12.8,5-3.3,11-8.3,13.4-11,7.6-8.8,15.7-28,15.7-37.2v-3.1l2.2,2.8c1.4,1.8,3.2,2.8,5.1,2.8,3.5,0,5.2-1.8,5.9-6.5.4-2.7,0-4-1.5-5.4-2.9-2.6-7.6-1.9-9.3,1.4-1.4,2.8-1.8,1.1-.7-3,.6-2.3,1-2.4,5.4-1.8,2.6.4,5.6.6,6.6.6M633,211.4c3.6,21.9,8.4,32.7,20,44.2,12.2,12.2,23.1,17.5,41.8,20.4,16.3,2.5,46.6,1.7,75.8-2.1,5.8-.7,10.6-1.2,10.8-1.1.2.1.6,3.8.9,8l.6,7.8-39.6.2c-48.7.2-58.9-.9-74.6-8.2-12.6-5.8-28.8-20-34.9-30.4-2.5-4.3-5.5-11.3-12.3-28.3l-2-5,3.1,1.6c5.7,2.9,10.5-1.9,8.4-8.3-1.6-4.9-6.5-6.4-9.9-3.1-1.5,1.5-1.6,1.5-1.6-.4s1.8-2.9,8.4-3.1h3.7c0-.1,1.3,8,1.3,8M472.1,209.7c18.1,1.2,33,2.2,33.1,2.3,0,.1.5,35.7.8,79.1.3,43.4.9,109.8,1.3,147.4l.6,68.5-2.7,8.9c-9.6,31.7-16.6,79.5-31.4,215.9-6.2,56.9-18.6,185.6-22.5,234.2-2.3,28.6-8.5,107.4-11,139.6-4,52.8-13.8,204.9-16.4,253.5-.7,13.2-1.6,24.4-2,24.9s-9.6,2-20.5,3.5c-16.9,2.3-25.1,2.7-56.9,3.2-48.9.7-72.5-1.2-124.9-10.3l-19.3-3.3.5-9c.3-4.9.9-26.4,1.5-47.7.6-21.3,1.5-53,2-70.6.5-17.5,1.5-53.5,2.1-80,.6-26.5,1.6-66.2,2.1-88.3,2.3-89.2,4.1-172.1,5.2-231.6,1.4-78,3.9-184.7,5.3-224.8,3.8-109.9,12.6-249.1,20.5-325.9l.7-6.5h46.7q53.5,0,72.1-9.1c8.8-4.3,12.5-6.9,20.1-14.1,12.2-11.6,19-22.5,24-38.5,1.8-5.9,2.3-6.4,3.3-3.8.7,2,1.6,2.3,7.1,2.3s8.7-1.1,11.1-12.4c1-4.4,1.9-8.5,2.1-9.2.2-.8,2.3-1.1,6.4-.8,3.3.2,20.9,1.4,39,2.6M600.3,217c1.3,5.2,2.9,10.1,3.5,10.8,1.5,1.8,12.4,3,14.1,1.6,1-.8,1.9.4,3.7,4.9,5.7,14.5,10.7,22.6,19.3,31.2,13.6,13.6,24.1,19.7,42.4,24.8,7.2,2,11.5,2.2,54.3,2.8l46.5.6,1.3,14.1c8,88.1,16.2,217.7,19.1,305.3,1.4,42.8,3.9,142,5.2,207.5.6,29.3,1.5,74.3,2.1,99.8.6,25.6,1.5,68.9,2.1,96.2.6,27.3,1.5,67.3,2.1,88.9.6,21.6,1.3,50.5,1.6,64.3.6,25.6,4,146.5,5.3,185.8.4,12.1.3,21.7-.2,21.7-.5,0-12,1.8-25.5,4.1-47.8,8-59.9,9-108.7,8.9-43.7,0-48.7-.3-79.5-4.8l-7.9-1.1-1.2-21.1c-6.5-111.2-12.2-197.2-18.6-281.4-3.9-50.6-11.7-146-13.5-164.1-.9-8.6-3.2-33.6-5.3-55.4-7.3-77.2-8.8-93.3-11.9-121.3-1.7-15.5-4.1-37.6-5.3-49.1-8.6-83.2-20-155.2-28.2-178.7-2-5.7-2.2-9.5-2.8-45.6l-.7-39.4,6.2-.5c16.2-1.2,29.7-13.2,35.5-31.5,4.3-13.6,4.7-22.2,4.7-106.5v-80.1s17-1.3,17-1.3c9.3-.7,17.7-1.4,18.6-1.5s1.8-.1,2,0c.2.2,1.5,4.6,2.8,9.9M398.7,212c-.4,3-4,3.9-4,1s.9-3.4,2.9-3.4,1.3.9,1.1,2.3M555.4,304.8c-.4,81.5-.3,80.5-6.1,95.7-4.6,12.3-19.4,23.5-31.2,23.5h-4l-.7-71.4c-.4-39.2-.7-87-.7-106.1v-34.8s10.2-.1,10.2-.1c5.6,0,15.1-.4,21.2-.8l11-.7.3,9.4c.2,5.2.1,43.5,0,85.2M627.1,211.6c.6,2.3,0,3.2-2,3.2s-1.4-1.1-1.4-2.6c0-3.1,2.6-3.6,3.4-.6M318.4,226.8c22.7,4.4,42.4,8.8,43.7,9.6,2.3,1.5,2.4,1.9,1.7,11.2-.5,6.4-1.3,10.2-2.4,11.5-2.7,3.1-18,10.1-25.8,11.7-11.2,2.4-33.4,3-54.4,1.6-10.3-.7-19-1.5-19.3-1.7-.3-.2.7-10.4,2.3-22.6,1.6-12.2,2.9-23.3,2.9-24.6,0-3.5,3-5.8,6.8-5.3,1.8.2,21.8,4.1,44.5,8.5M271.4,225.2c-1.5,2.8-1.4,6.9.2,8.2,4.9,3.8,11.2,1.4,11.2-4.3s-1.6-5.9-6.4-5.9-4.2.6-5,2M278.7,229.6c0,2.1-2.6,2.7-3.7.9-.4-.6-.4-1.8-.1-2.6.8-2.1,3.8-.7,3.8,1.7M350.5,239.8c-2.1,2.3-2.3,6.8-.3,8.4,2.6,2.2,7.5,2.5,9.4.7s2.3-8.5-.3-9.9c-3.1-1.7-6.9-1.3-8.8.8M357.1,244.2c0,2.7-3.5,2.4-4-.3-.2-1.3.3-1.8,1.8-1.8s2.2.7,2.2,2.2M246.5,276.8c-1.9,2.4-2.5,5.9-1.3,8.1,1.6,3,9.9,3.1,11.5.1,1.6-3,1.3-5.1-1-7.4s-7.6-2.8-9.2-.8M769.3,276.5c-2.8,1.1-4,5.3-2.4,8.2,1.6,3,9.9,3.2,11.5.2,3.4-6.3-1.9-11.3-9.1-8.4M253.1,281.8c0,.8-.8,1.7-1.8,1.9-1.3.2-1.8-.3-1.8-1.9s.5-2.1,1.8-1.9c1,.2,1.8,1,1.8,1.9M775,281.5c.6,1.7-2.7,2.9-4.1,1.5s-.8-1.6-.4-2.3c.9-1.5,3.9-1,4.5.7M220.1,1385.2c34.6,5.6,69.8,9.2,101.9,10.5,26.9,1.1,78-2.2,97.5-6.4,2.3-.5,2.4-.3,2.1,6.6l-.3,7.1-10.5,1.2c-50.8,6-99.4,6.1-145.3.3-21.1-2.7-59.9-8.2-63-9-2.1-.5-2.4-1.2-2.4-7.3s.2-6.7,1.8-6.2c1,.3,9.1,1.7,18,3.2M824.2,1388.7l.3,6.4-3.4.6c-1.9.3-6.3,1-9.7,1.6-17.7,2.9-63.9,8.7-80.5,10-33.4,2.7-72.4,1.9-112.2-2.3l-17-1.8v-7.2c0-6.4.2-7.1,1.8-6.6,2.9.9,25.5,3.6,40.5,4.9,17.9,1.5,67.4,1.6,85.2,0,22.8-1.9,57.8-6.3,75.8-9.4,9.2-1.6,17.2-2.8,17.8-2.7.6.1,1.2,3.1,1.4,6.6" class="st0"></path>
</svg>