<svg viewBox="0 0 1024 1536" version="1.1" xmlns="http://www.w3.org/2000/svg" id="svg">
  
  <defs>
    <style>
      .st0 {
        fill-rule: evenodd;
      }
    </style>
  </defs>
  <path d="M714.1,122.8c-6.1,1.2-14.2,2.8-18,3.5-3.8.7-7.4,1.5-7.9,1.9-.6.3-6.9,1.6-14.1,2.8-7.2,1.2-15.4,2.8-18.3,3.4-2.9.7-11.3,2.2-18.6,3.5-12.5,2.1-28.9,5.3-42.5,8.2-3.2.7-12.4,2.5-20.4,4.1-8,1.6-18.5,3.7-23.3,4.7-4.8,1-12.7,2.5-17.5,3.4-4.8.9-15.3,2.9-23.3,4.5-14.1,2.8-50.9,10-64.1,12.4-3.5.6-11.4,2.3-17.5,3.6-6.1,1.3-15.3,3.2-20.4,4.2-5.1,1-12.7,2.5-16.9,3.4-19.3,4-24.7,5.2-36.1,7.4-6.7,1.3-15.9,3.2-20.4,4.2s-13.4,2.8-19.8,4c-6.4,1.3-15.1,3-19.2,4-4.2.9-15.2,3.3-24.5,5.3-24.9,5.4-48.8,10.4-64.9,13.6-5.3,1-10.4,2.5-11.5,3.3-2.2,1.6-2.3,6.5-3.5,144.1-.4,45.8-.9,95.9-1.1,111.3-.3,15.4-.7,49-1.1,74.6-1.5,106.5-3.2,218.3-4.7,308.9-1,61.6-3.3,155.6-6.4,265.8-.6,21.2-1.1,65.6-1.1,98.7v60.3s5.5.4,5.5.4l5.5.4-.3,11.7c-.1,6.4-.8,16.3-1.6,22-.9,6.8-1,17.4-.5,30.7.7,16.6.5,23-1.2,35.1-1.8,13-1.9,15.2-.4,18.3,1,2.1,2.6,3.5,4,3.5,2.1,0,2.4-1.1,3.3-14.6.6-8,1.1-27.2,1.2-42.5.1-23.4,2.2-57.7,3.7-63.2.3-1,2.9-1.5,7.6-1.5h7.2l-1,17.8c-.6,9.8-1.1,29.8-1.1,44.6s-.5,33.6-1,42c-.8,13.6-.7,15.3,1.1,16.8,1.5,1.2,2.5,1.3,3.9.4,1.5-1,2-3.3,2.2-11,.1-5.4.5-25.5.9-44.7.4-19.2,1.4-41.8,2.1-50.1l1.4-15.2,7.5-.4,7.5-.4-.9,22.5c-.5,12.4-1,32.2-1.1,44.1-.2,11.9-.7,27.4-1.2,34.5-1.1,14.4-.3,20.9,2.5,21.9,4.1,1.6,5.2-1.5,5.2-14.4,0-52.5,1.8-106.8,3.8-108.3.7-.5,4.4-.7,8.2-.5l6.9.5-1,17.7c-.6,9.7-1.2,29.7-1.3,44.5-.1,14.7-.6,33.7-1,42-.6,13.1-.5,15.4,1.1,16.7,1,.8,2.6,1.3,3.4.9,2.1-.8,3.5-25.8,3.8-65.5.1-16,.7-35.4,1.2-43.1l1-14,7.2-.3,7.2-.3.8,5.5c.5,3,.2,13.7-.5,23.7-.8,10-1.3,26.8-1.2,37.4,0,10.6-.2,26.4-.7,35.2-1.1,19.4-.5,22.2,3.8,21.7l3.2-.4.2-28.6c.2-27.2.9-48.9,2.5-79.8l.7-14,7.2-.3c7-.3,7.3-.2,8,2.8.4,1.7.4,10-.2,18.4s-1,27.1-1.1,41.5c0,14.4-.6,30.4-1.1,35.6-1.2,12,0,23.5,2.4,24.4,3.6,1.4,5.1-1.6,5-10.3-.4-45.9,1.9-111.5,4-112.9.7-.5,4.3-.9,7.9-.9h6.6s.4,7.3.4,7.3c.2,4,0,10.4-.7,14.3-.6,3.8-1.2,20.9-1.3,37.9-.1,17-.6,37.7-1.1,46-.9,14.5-.8,15.2,1.6,17.4,2.1,1.9,2.7,2,4.3.7,1.5-1.2,1.8-3.8,1.8-12.7-.3-29.9.9-80.8,2.1-88.1.7-4.5,1.3-11.4,1.3-15.4v-7.3h15l.7,4.4c.4,2.4.2,12.3-.5,21.9-.7,9.6-1.4,35.3-1.5,57.1l-.3,39.6h2.9q2.9,0,3.8-15.2c.5-8.3,1.1-29.3,1.4-46.6s.9-38,1.4-46l.9-14.6,7.1-.3,7.1-.3.5,10.8c.3,6,0,14.8-.5,19.6-.9,7.3-1.1,22.8-.6,47.5,0,2.4-.3,13-.9,23.6-.8,17-.7,19.4.9,20.8,1,.8,2.8,1.4,3.9,1.2,2.2-.4,1.9,5.5,3.4-67.4.8-38.1,1.2-52.6,1.4-54.5.2-1.1,2.3-1.4,8.1-1.2l7.9.3v14c-.2,7.7-.9,34.4-1.6,59.4-.8,25-1.1,46.1-.8,46.9.3.8,2.1,1.5,3.9,1.5h3.3l.2-11.9c0-6.6.2-23,.3-36.4,0-13.5.7-28.9,1.4-34.4.7-5.4,1.2-16.6,1.2-24.8v-14.9c-.1,0,3.7,0,3.7,0,2.1,0,5.8-.4,8.3-.8l4.6-.8-1,23.2c-.5,12.8-1,33.7-1.1,46.5s-.5,29.3-1.1,36.7c-.9,12.3-.8,13.6,1.2,16.1,1.5,1.9,2.9,2.4,4.3,1.9,1.9-.7,2.1-2.2,2-12.6-.2-26.4,1-70.8,2.1-82.1.7-6.6,1.3-15.6,1.3-20v-7.9l7.3-.5c4-.3,7.7-.1,8.2.3.5.4.3,9.1-.5,19.3-1.5,20-1.7,27.1-1.3,52.3.1,9,0,23.4-.4,32.2-.6,13.8-.4,16.1,1.3,17.8,1.1,1.1,2.9,1.9,4,1.9,1.9,0,2.1-1.3,2-13.1,0-26.6,1.3-88.1,2.1-99.1l.9-11.4h14.8l.2,9c.1,5,.1,10.3,0,11.9-.3,3.4-1.6,66.8-1.8,86.6-.1,14.2.6,16.5,5.1,15.7,1.4-.3,1.8-3.2,2-16.6.1-9,.4-28.1.7-42.5.2-14.4.8-34.7,1.4-45.1l1-18.8,6.8-.8c3.7-.4,7.4-.4,8.2,0,1.1.7,1.2,4.7.5,16.1-.5,8.4-1.1,28.1-1.3,43.8-.2,15.7-.7,35.1-1.1,43.1-.8,16,.1,21,4.1,21s2.4-.4,2.4-.9c0-.5.4-8.5.8-17.8.4-9.3.6-26,.5-37.1-.2-11.1.3-26.1,1.1-33.2s1.7-18,2.1-24.1l.7-11.1h7c0,0,7,.1,7,.1l-.2,16.2c-.1,8.9-.5,31.7-1,50.6-1.3,53.9-1.3,53.4.9,55.6,1,1,2.6,1.6,3.5,1.2,2-.8,3.1-20.2,3.8-70.8.3-18.9.9-38.6,1.4-43.7l.9-9.3h15.2l-.2,7c-.1,3.8-.5,23-.8,42.5s-1,43-1.4,52.2c-.9,18.3,0,22.8,4.7,22.2,2.7-.4,2.5,3,3.3-62.2.2-19.3.8-35.6,1.2-36.4.4-.7.9-6.5.9-12.9v-11.6c.1,0,5.4-.7,5.4-.7,2.9-.4,6.6-.7,8.2-.7h2.9l-.9,20.1c-.8,17.5-1.1,39.3-1.5,89.4,0,7,.4,12.9,1.1,13.7,1.3,1.6,5.6,2,5.6.6,0-.5.3-9.3.6-19.5s.8-32,1.1-48.4c.3-16.3.7-31.8,1-34.4.2-2.6.5-8.5.6-13.2l.2-8.5,7.9.3,7.9.3-.3,14c-.2,7.7-.6,28.9-1.1,47.2-1.4,57.8-1.3,60.6,1.3,62.5,5,3.6,4.8,5.1,5.8-60.1.3-17.6.9-39.1,1.4-47.8l1-15.7,7.1-.3c6.7-.3,7.2-.2,7.6,2.3.7,3.7,0,79-1,100.7-.7,17.5-.7,17.6,2,19.5,1.9,1.3,3.1,1.6,4,.7.7-.7,1.3-8,1.4-17.2.3-22.4,1.6-86.5,1.9-97l.2-8.7h15.2l.4,11.1c.2,6.1-.2,17.6-.9,25.6-.9,10.2-.9,19,0,29.4.9,11.3.9,17.3-.3,25.1-1.7,11.5-1.9,23.8-.6,28.6.6,2.3,1.6,3.2,3.6,3.2s2.7-.2,3.6-17.2c.5-9.5.8-27,.6-39-.1-12,.4-32,1.3-44.6l1.5-22.8h15.1l-.9,24.2c-1.2,29.9-1.2,35.1-.6,50.4.3,6.7,0,19.6-.5,28.6-.9,16.3-.9,16.4,1.8,19,5.7,5.3,6,3.3,6.4-43.1.2-23.3.7-50.5,1.1-60.5l.7-18.1,7.4-.3,7.4-.3.8,7.9c.4,4.4.2,13.7-.4,20.7-.7,7.1-1.2,30.8-1.1,52.8,0,39.1.1,40,2.5,41.6,1.5,1,2.9,1.3,3.7.7.8-.7,1.2-12.5,1.1-36.4,0-19.4.4-41.1,1-48.2s1.1-18.7,1-25.9v-13.1c-.1,0,7.9,0,7.9,0h8l.7,9.1c.4,5,.2,13.8-.4,19.5-.6,5.7-1,18.5-.9,28.5.3,24.6.3,25-.8,45.1-1,19-.5,21.3,4.5,21.3,2.4,0,2.5-.5,2.8-17.8.2-16.1,1.3-67.9,1.9-94.7l.2-10.5,7.1-.3,7.1-.3.8,6.8c.5,3.7.3,13.3-.4,21.3-.8,9-.9,22.9-.3,36.1.5,11.9.5,24.7,0,28.6-1.2,8.1-1.3,23.3-.3,27.1.5,1.9,1.6,2.6,4,2.6h3.3v-12.5c.2-6.9.5-29.3.9-49.8.4-20.5.6-42.4.7-48.7v-11.4h15.8l.8,8.1c.4,4.4.2,14.6-.5,22.6-.8,9.7-.9,20.1-.2,31.3.6,9.2.9,18.6.8,20.8-2.5,32.6-1.9,41.5,2.8,40.5,1.4-.3,1.8-2.6,1.9-12,0-6.4.9-17.3,1.7-24.2,1.2-9.9,1.3-14.9.2-23.3-.9-7.3-1-15.7-.3-26.5.6-8.7,1.1-20.6,1.1-26.5v-10.8h16.7l-1,16c-.5,8.8-1.1,29.4-1.2,45.8-.1,16.3-.3,35.8-.5,43.3-.3,14.9.8,18.9,4.9,18.3,2.4-.3,2.5-1.1,2.8-17.8.2-9.6.5-18.5.7-19.8.2-1.3,0-11.3-.6-22.2-.7-15.4-.5-23.2.9-34.6,1-8.1,1.7-17.7,1.5-21.5l-.3-6.8,5.4-.4c3-.2,6-1,6.6-1.7,2.1-2.6,3.6-170.6,4.1-461.2l.2-124.1,5.8-1.5c23-6,34-9.2,56.5-16.2,30.4-9.5,28.5-8.6,28.6-13.3,0-3.8.3-4.1,5.4-5.4,9.3-2.3,10.7-3.5,9.8-8.4-.4-2.3-1.5-6.6-2.4-9.5-.9-2.9-2.7-10.5-4.1-16.9-1.4-6.4-3.9-16.6-5.5-22.7-1.6-6.1-4.1-16.6-5.6-23.3-1.5-6.7-3.6-15.6-4.6-19.8-1-4.2-2.8-11.8-4-16.9s-3.3-14-4.7-19.8c-1.4-5.8-3.5-14.7-4.7-19.8-1.2-5.1-3.3-14-4.6-19.8-1.4-5.8-3.5-14.9-4.7-20.4-1.2-5.4-3.1-13.3-4.1-17.5-1-4.2-3.1-13.1-4.6-19.8-1.5-6.7-3.8-16.4-5.1-21.6-1.3-5.1-3.2-13-4.3-17.5s-2.8-12.4-4-17.5c-1.2-5.1-3-13-4-17.5s-2.9-12.4-4.3-17.5c-1.3-5.1-3.7-14.8-5.2-21.6-1.5-6.7-3.6-15.6-4.6-19.8-1-4.2-2.9-12-4.1-17.5-1.2-5.4-3.3-14.4-4.6-19.8-1.3-5.4-3.4-14.4-4.6-19.8-1.2-5.4-3.7-16.2-5.7-23.9-1.9-7.7-4.3-17.1-5.2-21s-2.6-10.1-3.7-14c-1.1-3.8-2.9-11.9-4.1-17.9-1.2-6-2.8-11.6-3.7-12.5-1.3-1.3-3-1.1-10.3.8-4.8,1.3-13.5,3.4-19.2,4.6-5.8,1.2-11.6,2.5-13,2.9-2.2.7-2.7.1-3.8-4.3-1.6-6.4-5.5-19.5-8.1-27.8q-2.4-7.6-17.6-4.6M725.7,138.6c1.3,4.2,2.1,8.1,1.8,8.5-.3.5-3.6,1.5-7.3,2.4-3.7.8-9.9,2.5-13.7,3.8-8.4,2.7-31.7,9.1-33.1,9.1s-2.1-3.5-3.4-7.9c-4-12.7-4.1-12.3,3.9-13.8,3.8-.8,14.9-3,24.5-4.9,9.6-1.9,18.8-3.8,20.4-4,1.6-.3,3.3-.6,3.7-.7.5,0,1.9,3.3,3.2,7.5M657.4,145.2c.2.8,1.5,4.9,2.9,9,3.4,10.2,3.2,11.2-1.7,12.8-2.3.8-4.3,1.2-4.5,1-.8-1-5.2-14.7-5.9-18.7-.8-4-.6-4.3,2.5-4.8,6-.9,6.3-.9,6.7.6M641,157.5c3.9,12.4,3.9,13.8.6,14.8-1.4.4-3.5,1-4.7,1.3-1.3.3-2,0-2-1.1s-1.3-5.8-2.9-10.8c-3.5-10.9-3.6-12.9-.9-13.7,6.2-1.6,6.6-1.2,9.9,9.5M622.5,161.5c1.8,5.9,3.5,11.6,3.8,12.7.3,1.2-.6,2.3-2.7,3.1-5.2,1.9-17.9,5.8-23.6,7.3-2.9.7-6.1,1.6-7.1,1.8q-1.9.6-6.8-16.6c-3.2-11.3-3.2-11.8,2-12.7,2.4-.4,7.5-1.5,11.4-2.3,8.8-2,17.1-3.7,18.7-3.9.7,0,2.7,4.7,4.5,10.7M731.6,160c2.1,5,1,6.6-6,8.2-3.4.8-7.8,2.1-9.7,3-3,1.3-28.2,8.9-35,10.6-2,.5-2.8-.3-4.4-4.4-1.1-2.7-1.6-5.3-1.1-5.8.5-.4,4.5-1.7,9-2.8s12.9-3.5,18.6-5.3c12.3-3.9,22.6-6.7,25.2-6.9,1.1,0,2.5,1.4,3.3,3.3M574.9,163.2c.4,1.8,1.5,5.8,2.5,9,5.3,17.7,5.2,16.9,1.7,18.2-3.9,1.5-24.4,6.9-27.5,7.2-1.8.2-2.6-1.2-4.3-7.4-1.1-4.2-3.1-11-4.4-15.1s-2-7.9-1.5-8.4c.8-.8,9.2-2.7,24.1-5.6,8-1.5,8.7-1.4,9.4,2M779.9,162.6c2.5,8.6,5.4,23.4,4.9,24.8-.4,1-1.9,1.7-3.3,1.8-1.5,0-6.3,1-10.8,2.2-14.2,3.8-17.7,4.1-18.4,1.6-.4-1.2-2.3-6.8-4.2-12.6-1.9-5.8-3.1-10.9-2.6-11.4.5-.5,4.6-1.7,9-2.6,4.4-.9,11-2.4,14.5-3.4,8.3-2.2,10.5-2.3,11-.5M532.7,173.7c3.7,9.8,8.9,27.3,8.4,28.2-.6.9-13.4,4-14,3.4-.7-.7-8.9-29.4-9.1-31.9-.2-1.8.9-2.6,5-3.7,7.6-2,7.5-2,9.8,4M511.5,184.5c1.9,6.1,4.2,13.8,5.2,17.2,1,3.4,1.6,6.4,1.2,6.8-.3.3-6.1,2.2-12.7,4.2-6.6,2-15.5,4.6-19.7,5.9-4.2,1.3-11,3.3-15.2,4.5-4.2,1.2-14.9,4.3-23.9,6.9-26.6,7.8-28.7,8.3-29.9,7.9-2.1-.7-14.4-40.7-13.4-43.4.3-.8,2.6-1.8,5-2.2,2.5-.4,9.5-1.8,15.5-3.1,6.1-1.3,16.6-3.4,23.3-4.7,6.7-1.3,16.2-3.1,21-4,4.8-.9,14.4-2.7,21.4-4,7-1.3,13-2.7,13.4-3,.4-.4,1.7-.5,3-.4,1.8.3,3,2.8,5.6,11.4M667.3,177.8c.6,2.1,1.4,4.6,1.8,5.5.5,1.3-.5,2.1-4,3.2-5.7,1.8-6.5,1.4-7.4-3.8-.4-2.2-.9-4.5-1-5-.2-.8,6.3-3.5,8.7-3.7.5,0,1.3,1.6,1.9,3.7M737.4,180c.7,2.6.9,5.2.3,5.6-.5.5-7.3,2.5-14.9,4.7-7.7,2.1-19.5,5.6-26.2,7.8s-12.6,3.9-13,3.9c-.4,0-1.3-2.1-1.9-4.6-1.5-5.7-1.1-6,10.2-9.3,4.8-1.4,11.4-3.3,14.6-4.2,3.2-.9,10.3-3.2,15.7-5.1,13.3-4.5,13.6-4.5,15.2,1.3M648.3,183.6c.4,2.1,1.3,4.4,1.9,5.2,1.4,1.7-2.3,3.9-6.5,3.9s-3.8-.4-4.8-6.1c-.7-3.9-.5-4.5,1.9-5.5,5-2,6.6-1.5,7.5,2.5M630.6,196.1c-1.8,1.6-28.4,9.3-32,9.4-1.8,0-4.5-5.3-4.5-8.8s2.4-2,5.4-2.8c3-.7,10.7-3.1,17.2-5.3l11.8-4,1.6,5.3c.9,2.9,1.1,5.7.6,6.2M673.1,199.9l1.2,4.4-4.6,1.4c-2.5.8-4.9,1.1-5.2.7-.4-.4-.9-2.7-1.3-5.2-.6-4.3-.4-4.6,3.3-5.7,4.7-1.4,5.1-1.1,6.6,4.6M743.8,202c5.7,16.3,11.3,33.9,10.9,34.2-.2.2-2.8.9-5.7,1.5s-8.9,2.4-13.4,3.8-12.1,3.6-16.9,4.9c-4.8,1.3-11,3.1-13.7,4-2.7.9-5.5,1.7-6,1.7s-2.2-3.8-3.5-8.5c-1.4-4.6-3.8-12.7-5.4-17.9-1.6-5.2-3-10.9-3.1-12.8-.3-3.6.2-3.8,23.7-10,4.8-1.3,9.5-2.6,10.5-3,3.8-1.6,18.1-5.9,19.1-5.7.6.1,2.2,3.6,3.6,7.7M396.2,205.2c6.3,19.4,9.3,30.1,9.4,33.3.1,3.2-.3,3.6-8,6.2-4.5,1.5-8.5,2.4-8.9,1.9-.5-.5-1.6-3.8-2.6-7.3-1-3.5-3.3-10.9-5.2-16.3-4.6-13.5-6.6-22.1-5.3-23.3.6-.6,3.6-1.5,6.8-2.1,11-2.1,10.5-2.3,13.7,7.7M789.5,202.8l.6,4.6-7.4,1.4c-4.1.8-11.1,2.4-15.5,3.7-4.5,1.2-8.5,1.8-8.9,1.4-.4-.5-1.3-2.8-2-5.1l-1.1-4.2,12.4-3.1c6.8-1.7,14-3.5,15.9-4,4.4-1.1,5.3-.3,6,5.4M586.8,203.7c.8,2.5,1.1,4.9.6,5.4-.5.5-5.4,2.2-10.8,3.8-5.4,1.6-11.4,3.5-13.2,4.2-1.8.7-4,1.3-4.9,1.3-1.8,0-5.6-7.8-4.7-10,.3-.8,3.1-2,6.3-2.8,3.2-.8,9.7-2.6,14.4-4.2,4.7-1.5,9.1-2.6,9.7-2.4.6.2,1.8,2.3,2.7,4.8M654,203.1c3,5.7,2.3,7.9-2.5,8.8-4.9.9-5.9.2-7-4.9-.7-3.6.3-4.6,7.4-7.2.1,0,1.1,1.5,2,3.3M369.5,213.6c4.2,13.9,8.9,30.1,9.7,33.4.4,1.7-.1,2.9-1.6,3.7-4.2,2.3-41.6,13.1-43.1,12.5-.8-.3-1.5-1.6-1.5-2.9s-3.4-12.6-7.6-25.3c-4.2-12.7-7.2-23.5-6.6-24s4.9-1.7,9.6-2.6c4.8-.9,13.4-2.5,19.1-3.6,5.8-1.1,10.7-2.2,11-2.5.3-.3,2.1-.4,4.1-.2,3.4.3,3.7.8,6.9,11.4M635.9,208.1c2.9,7.7,2.9,7.7-2.4,9.1-8,2.1-24.6,7.1-27.5,8.2-2.4,1-2.9.6-4.8-3.9-1.2-2.7-1.8-5.3-1.4-5.7.4-.4,7.6-2.7,15.9-5,8.3-2.4,15.4-4.5,15.6-4.8,1.3-1.3,3.8-.2,4.6,2.1M546.2,215.6c.6,2.3.9,4.6.6,5.1-.5.8-11.9,4.6-13.8,4.6s-3.1-7.8-3.1-10c0-1.2,12.7-5.1,14.2-4.3.5.2,1.4,2.3,2,4.6M317.7,239.3c4.6,14.1,8.1,26.1,7.7,26.8-1.1,1.7-27.6,9.7-28.7,8.6-1.3-1.3-15.9-45.4-16.9-50.7-.8-4.2-.7-4.3,3.7-5.6,6.5-1.8,19.1-4.4,22.7-4.6,2.9-.1,3.3.6,11.4,25.5M678.3,218.6c1,2.7,2.8,8.6,3.9,13.1,1.1,4.5,3.2,11.3,4.7,15.1,1.5,3.8,2.3,7.4,1.7,7.9-.5.5-2.8,1.3-5,1.6l-4,.7-2.7-9.1c-1.5-5-4.2-14.1-6.1-20.2-3.3-10.4-3.4-11.1-1.4-12.5,4.1-3,7-1.8,9,3.5M794.2,221.5l.6,4.7-6.8,1.4c-3.8.7-9.5,2.1-12.8,3-9.2,2.6-10.6,2.3-12.6-2.5-1-2.3-1.8-4.6-1.8-5s3.3-1.4,7.3-2.2c4-.8,11-2.4,15.4-3.6s8.6-1.7,9.1-1.2c.5.5,1.2,3,1.6,5.6M522.4,222.4c.9,2.5,1.2,5,.7,5.5-.9.9-12.2,4.6-29.9,9.7-5.1,1.5-12.7,3.8-16.9,5-12.9,3.9-39.8,12-47.5,14.2-4,1.2-7.5,1.7-7.8,1.2-.3-.5-.9-3-1.3-5.5l-.7-4.6,8-2.5c4.4-1.4,10.6-3.3,13.8-4.2,3.2-.9,10.3-3,15.7-4.6,5.4-1.6,14.6-4.3,20.4-6,5.8-1.7,11.5-3.5,12.8-4.1,4.3-1.8,29.1-9.1,30.1-8.9.5.1,1.7,2.3,2.6,4.8M592.4,223.8l1.4,4.7-6.6,2c-3.6,1.1-8.7,2.7-11.3,3.5-2.6.9-6.6,2.1-9.1,2.7-4.3,1.1-4.4,1.1-6.1-3-2.3-5.5-2.2-5.7,1.5-7.1,6.6-2.5,26.6-8.2,27.7-7.9.6.2,1.8,2.4,2.5,5M659.5,221.5c.7,1.8,2.5,7.7,3.9,13.1,1.5,5.4,3.9,13.2,5.3,17.2,3,8.2,2.6,9.4-3.6,9.9-4,.3-4,.3-6-6.7-1.1-3.8-3.4-11.7-5.2-17.5-4.9-16.1-4.9-16.3-.3-17.8,2.1-.7,4-1.3,4.2-1.4s.9,1.3,1.6,3.1M278.6,248.9c4.9,14.9,8.9,27.7,8.9,28.4s-1.7,1.9-3.7,2.6c-5,1.7-5.8.7-9.6-12.1-1.7-5.8-5.1-16-7.5-22.7s-4.7-14.2-5.1-16.7c-.6-3.8-.3-4.6,1.9-5.5,6-2.4,5.9-2.5,15.3,25.9M641.6,227.3c1.3,3.4,9.5,31.8,10.4,35.9.4,2.1-.5,2.7-6.3,4.4-19,5.6-27.7,7.7-28.5,6.9-.5-.5-2.5-6.7-4.4-13.7-1.9-7.1-4.3-15.4-5.3-18.6-2.5-8.1-2.4-8.2,3.1-9.6,2.7-.7,9.9-2.8,16-4.7,13.9-4.4,13.5-4.4,14.9-.6M251,226.8c1.1,1.5,19,54.7,19,56.6s-6.2,3-13.7,5.4c-7.5,2.4-18,5.7-23.3,7.4-5.3,1.7-9.8,2.8-10,2.5-.3-.3-2.1-6-4.2-12.8-5.1-16.9-14.1-42-16.2-45.2-2.2-3.4-.9-4.9,5.2-6.1,12.2-2.4,28.4-6,33.6-7.4,7.7-2.1,8.3-2.2,9.6-.4M552.3,236.7c.3,3.7,0,4-5.5,6.1-3.2,1.2-6.4,2.2-7.2,2.2-1.5,0-4.3-7.4-3.6-9.5.2-.7,3.3-2.2,6.8-3.3,7.4-2.3,9-1.5,9.5,4.4M802.5,255.5c2.6,10.5,4.7,19.2,4.5,19.3-.4.2-20.5,4.9-24.9,5.8-3.5.7-3.6.6-5.6-6-1.1-3.7-3.8-12.5-6-19.5-2.2-7-3.9-12.8-3.7-12.9s3.5-.9,7.3-1.7,10.4-2.4,14.6-3.5c4.2-1.1,7.9-1.7,8.3-1.3.4.4,2.9,9.3,5.5,19.8M528.7,242.5c.7,2.4.8,4.7.3,5.2-.8.8-14.6,5.1-29.4,9.1-4.2,1.1-12.6,3.7-18.6,5.6-6.1,2-13.4,4.2-16.3,4.9-2.9.7-6.3,1.8-7.6,2.4-1.3.6-5.2,1.8-8.7,2.8-3.5.9-9.5,2.6-13.2,3.7-7.6,2.3-8.7,1.8-9.7-4.3l-.7-4,9.1-2.8c12.1-3.7,37.6-11.4,58.7-17.7,4.2-1.2,10.2-3.1,13.4-4,21.2-6.5,21.1-6.5,22.7-.8M599.7,247.2c1.4,5,3.7,12.6,5,17,1.3,4.4,2.5,9.6,2.5,11.6.1,3.2-.3,3.7-3.9,4.6-2.2.6-8.2,2.3-13.2,3.9-12.4,3.9-13,3.8-14.5-2.1-.7-2.7-2.1-7.8-3.2-11.4-7.4-25.2-7.5-24.6,1.1-26.9,2.6-.7,7.8-2.2,11.7-3.4,11.5-3.6,11.4-3.6,14.4,6.7M760.3,252.8c3.7,11.4,3.6,13-1,14-2,.4-9.3,2.6-16,4.8-6.8,2.2-15.2,4.7-18.7,5.6-3.5.9-8.9,2.4-12,3.4l-5.5,1.8-1.6-3.7c-2.7-6.5-4.6-16.1-3.4-17.3.6-.6,5-2.2,9.8-3.5,4.8-1.3,9.7-2.8,11-3.4,1.3-.6,7.1-2.4,12.8-4.1,5.8-1.7,12.6-3.8,15.2-4.6,2.6-.8,5.2-1.4,5.8-1.3.6.1,2.3,3.9,3.7,8.3M562.2,266.1c2.7,8.7,5.2,17.7,5.7,20q.8,4.3-4.3,5.6c-2.8.7-6.2,1.8-7.6,2.4q-3.1,1.3-5.6-8.2c-1.1-4.2-3.5-12.3-5.4-18.1-1.9-5.8-3.4-11.3-3.4-12.3s2.1-2.5,5.5-3.7c9.7-3.3,9.6-3.3,15,14.3M412,255.9c.7,2.7.9,5.3.4,5.7-1.7,1.6-18,5.8-19,4.9-.5-.5-1.3-3.2-1.7-5.8l-.8-4.9,6.8-1.9c3.8-1,7.4-2.1,8-2.3,3.7-1.3,5-.4,6.2,4.4M535.8,267.3c10.7,33.2,10.5,30.4,1.7,32.7-2.6.7-8.9,2.5-14,4-5.1,1.5-14.3,4.2-20.4,5.9-6.1,1.7-12.1,3.5-13.4,4-1.3.5-6.3,2.1-11.1,3.5s-11.6,3.5-15.2,4.6c-18.1,6.1-23.3,6.8-23.3,3.1s-2.4-9.3-5.2-18.6c-2.9-9.3-5.2-17.3-5.2-17.9,0-1.1,6.1-3.3,21-7.7,5.4-1.6,15.4-4.6,22.1-6.6,6.7-2,16.4-4.9,21.6-6.4,5.1-1.5,15.1-4.6,22.1-6.8,7.1-2.2,13.6-4,14.5-3.9,1,.1,2.9,4.3,4.8,10.1M383.8,264.6c1.1,3.7,1.1,5.1,0,5.9-1.5,1.1-40.3,13.2-42.3,13.1-1.6,0-4.5-8.7-3.5-10.3.4-.7,5.3-2.6,10.9-4.3,5.6-1.7,14.4-4.6,19.5-6.4,12.1-4.3,13.5-4.2,15.3,2M209.2,284.9c3.9,13.2,5.8,21.5,5.1,22.2-.7.7-3.4.7-6.8.1l-5.7-1-.3-21.2c-.2-11.7,0-21.2.6-21.2.5,0,3.7,9.5,7.1,21.1M694.7,273.4c1.7,5.3,3.1,10.2,3.1,10.9,0,1.2-7.9,3.5-8.7,2.5-.2-.2-1.5-4.3-3-9.1s-2.9-9.3-3.1-10.1c-.4-1.2,4.1-3.6,7.3-3.8.7,0,2.7,4.2,4.4,9.5M676.9,279c2.8,8.9,2.9,10,1.2,11.3-1,.8-3.3,1.5-5.1,1.5-3.4,0-3.3.2-7.4-14.4l-1.6-5.6,3.7-1.6c2-.9,4.2-1.5,4.9-1.3.6.2,2.5,4.8,4.2,10.2M416.8,274.2c2.4,5.8,1.3,7.2-8.1,10.2-4.8,1.5-8.8,2.8-8.9,2.8,0,0-.8-1.7-1.5-3.7-2.4-6.8-1.9-7.5,6.6-10,10.4-3.1,10.3-3.1,11.9.8M658.7,284.2c3.3,11.4,3.5,11-6.4,14.1-20.8,6.4-25.9,7.7-26.8,6.8-1.4-1.5-5.5-18.8-4.7-20,.7-1,5.3-2.4,24-7.7,6.7-1.9,9.7-2.3,10.6-1.4.7.7,2.2,4.4,3.3,8.2M768.4,280.2c1.6,5.9,6.2,21.2,13.3,44.2,2.7,8.7,6.1,20.2,7.6,25.6s3.8,13.2,5.1,17.2l2.3,7.3-2.4,1.3c-2.5,1.4-11.5,4.2-27.7,8.6-5.4,1.5-12.8,3.6-16.3,4.7-11,3.4-11.8,3.1-13.5-3.5-.8-3.2-2.6-9.5-3.9-14-1.4-4.5-3.7-12.6-5.2-18.1-1.5-5.4-4.9-17.3-7.6-26.2-4.3-14.4-10.5-35.8-10.5-36.3,0-.7,55.1-16.6,56.5-16.3.6.1,1.7,2.6,2.5,5.4M330.4,281.5c.8,3.1.8,4.6-.2,5.4-1.6,1.3-24.1,8.3-26.6,8.3s-5.2-8.9-4-10.1c1.3-1.3,28.2-9.4,28.9-8.7.4.4,1.3,2.7,1.9,5.1M389,282c2.7,7.1,2.6,7.2-11.2,11.5-23.4,7.2-31,9.1-32.2,7.8s-1.3-2.9-1.4-4.9c-.2-3.7-.2-3.7,10.9-7.2,6.1-1.9,15.5-5,21-6.8,5.4-1.8,10.3-3.3,10.8-3.4.5,0,1.4,1.3,2.1,3M809.5,286.8c.6,1.1,1.5,4.4,1.9,7.3s1.4,5.9,2,6.7c.6.8.9,2.1.6,3-.7,1.7-16.1,5.7-22.8,5.9h-4.2c0,.1-2.6-9.2-2.6-9.2-1.4-5.1-2.5-9.4-2.4-9.5.3-.3,23-5.7,25.5-6.1.5,0,1.3.8,1.9,1.9M291.5,289.7c1,1.5,1.9,3.9,2.1,5.5.3,2.3-.4,3.1-3.8,4.2-5,1.7-7.1.2-7.4-5.5-.1-3.1.4-4.2,2.7-5.4,3.9-2,4.3-2,6.4,1.1M612.7,292.8c0,1,1.1,4.6,2.4,8.1,1.3,3.5,1.9,6.7,1.4,7.3-.9.9-7.2,3-23.5,7.5-3.8,1.1-6.7,1.4-7.4.7-.9-.9-2.6-6.8-4.9-16.8-.7-3-.4-3.2,7.7-5.6,4.6-1.4,11.3-3.4,14.9-4.6,5.8-1.9,6.6-1.9,7.9-.3.8,1,1.5,2.6,1.5,3.6M422.1,293.2c1.3,4.5,7.7,25.7,9.4,31,.9,2.8,1.3,5.6,1,6.1-1,1.7-16.9,6.1-18,5-.6-.6-3.2-8.9-5.9-18.5-2.7-9.6-5.1-18.3-5.4-19.3-.4-1.4,1.3-2.4,6.8-4.3,9.6-3.2,11.1-3.2,12,0M273.3,294.9c.6,1.1,1.4,3.7,1.8,5.6.8,3.6.7,3.6-7.1,6.1-4.4,1.4-14.5,4.6-22.5,7.2-8,2.6-15.2,4.7-16,4.7s-2.1-2.1-2.8-4.7c-1.8-5.9-.6-7.3,8.3-9.7,3.5-1,13-3.9,21-6.4,8-2.6,14.9-4.7,15.4-4.8.5,0,1.3.9,1.9,2M702.3,299c.7,2.7,3.6,13.1,6.6,23,3,9.9,6.6,22.5,8.2,28,1.5,5.4,3.1,11.2,3.6,12.8.4,1.6,2.6,8.8,4.7,16.1,2.2,7.3,3.9,13.9,3.9,14.7,0,2-6.8,4.9-8.1,3.4-.5-.6-3.2-8.4-5.9-17.4-2.7-9-5.9-19.7-7.2-23.9-1.3-4.2-3.1-10.9-4-15-1.9-8.4-6-22.8-7.5-26.4-.9-2.1-4.7-17.1-4.7-18.5s3.6-1.4,7.2-1.7c1.4-.1,2.3,1.3,3.1,4.8M336.2,300.2c.7,2.5.6,4.2-.3,5.1-.7.7-7.1,3.2-14.1,5.4-14,4.4-15.6,4.2-16.1-2.1-.2-3.2.1-3.4,12.6-7.7,7.1-2.4,13.7-4.4,14.8-4.5,1.3,0,2.4,1.3,3,3.7M400.3,318.2c3.3,10.7,5.7,19.8,5.4,20.3-.3.5-7.5,3-16,5.7-8.5,2.7-18.5,5.9-22.3,7.1-3.8,1.3-7,2.1-7.1,2-1.4-1.7-11.6-40.4-10.9-41.2.8-.8,40.8-13.1,43-13.3,1.4,0,3.3,4.5,7.8,19.3M683.8,303.7c.7,2.7,3.1,10.5,5.2,17.2,2.2,6.7,4.4,14.9,5,18.1s3.3,13.2,5.9,22.1c2.7,9,6.1,20.5,7.6,25.6s3.1,10.2,3.5,11.2c.6,1.5-.2,2.3-3.5,3.3-2.4.8-4.7,1-5.2.4-.5-.6-1.8-4.4-2.9-8.6-1.1-4.2-2.4-8.1-2.9-8.7-.5-.6-1.5-3.8-2.2-7.1-.7-3.2-2.6-10.6-4.3-16.3-1.7-5.7-3.9-13.3-4.8-16.8-.9-3.5-4.1-14.5-6.9-24.3-2.9-9.8-5.1-18-4.9-18.2.5-.4,7.2-2.7,8.2-2.9.5,0,1.4,2.1,2.1,4.9M574.2,309.9c2.8,10.6,2.5,12.1-2.6,12.1-1.1,0-2.3.5-2.7,1.2-1.2,1.9-6.3,1.3-7.4-.9-.6-1.1-1.9-5.4-3.1-9.5-2.3-8.5-1.8-9.7,5.2-11.6q7.6-2.1,10.5,8.7M668,315.9c3.7,12.1,7.5,25.7,11.3,39.9,5.2,19.3,6.6,24.4,10.2,36,2,6.7,3.5,12.7,3.2,13.5-.3.8-3.6,2.1-7.3,2.9-3.8.8-11.1,3-16.4,4.7-10.6,3.5-10.9,3.4-12.8-4-3-11.4-8.2-29.1-16.6-56.5-7.2-23.5-10.8-37.3-10.1-38.1.4-.4,5.3-2,10.9-3.5s12.6-3.5,15.5-4.4c8.7-2.6,8.4-2.8,12.2,9.6M550.9,317.1c3.7,11.1,4.1,10.4-7.6,13.6-7.8,2.2-18.8,5.3-30.6,8.7-4.3,1.3-12.6,3.7-18.4,5.3-5.8,1.7-12.9,3.8-15.7,4.6-17.2,5.3-26,7.6-27.1,7.3-1.2-.4-5.5-13.2-5.9-17.7-.2-2.4-.7-2.2,19.6-8.4,5.1-1.6,11.7-3.6,14.6-4.5,9.1-2.8,24.6-7.3,40.2-11.7,8.3-2.3,17.3-5,19.8-5.8,2.6-.9,5.4-1.5,6.2-1.4.9.1,3,4.6,4.8,9.9M297.9,310.3c1.4,2.6,1.6,6.7.3,7.5-.5.3-2.8.9-5.1,1.3-4,.7-4.3.6-5.5-3-1.8-5.3,0-7.1,7.7-7.9.8,0,2,.9,2.6,2.1M279.3,316.9c2.5,6.5,3.5,5.9-26.2,15.2-16.8,5.3-17.4,5.4-19,3.3-2.9-4-1.4-7.7,3.7-9.5,12.4-4.3,36.4-11.8,38.2-11.9,1.2,0,2.5,1.2,3.2,2.9M340.4,316.1c1.5,2.4,11.2,38.1,10.7,39.3-.3.8-5.2,2.8-10.8,4.5-5.6,1.7-11.5,3.6-13,4.2-3.4,1.4-5.5,0-6.5-4.5-.4-1.7-2.9-10.4-5.5-19.2-2.6-8.8-4.6-16.2-4.3-16.5.7-.7,26-8.8,27.5-8.8.8,0,1.7.4,2,1M820.6,332.8c6.7,28,8.6,35.7,11.1,46.9,1.3,5.8,3.5,15.1,4.8,20.7,1.3,5.6,2.2,11,1.8,11.8-.3.9-3.7,2.2-7.4,3-3.7.7-7.9,1.6-9.3,1.9-2.2.5-2.8-.4-5-8-1.4-4.7-3-9.9-3.6-11.5-.6-1.6-2.1-6.8-3.3-11.7-1.3-4.8-3.4-12.4-4.8-16.9-1.4-4.5-3.5-11.6-4.6-15.7-1.2-4.2-3.7-12.6-5.7-18.6-2-6.1-3.6-11.9-3.6-12.9s1.9-2.2,6.1-3.1c3.4-.7,8-1.8,10.2-2.4,9.1-2.5,8.6-3.2,13.3,16.4M219.2,318.8c2.6,4,5.7,17.3,4.4,18.6s-5.2.8-11.7.3c-10.4-.8-10.6-.9-10.8-3.9-.3-4.6.4-15.8,1-16.8.3-.5,3.9-.9,8-.9,6.5,0,7.7.4,9.2,2.6M622.3,324.7c1,4,2.9,10.7,4.2,14.9,10.7,34.9,12.8,41.8,19.8,67,1.2,4.5,2.5,8.9,2.7,9.8.5,1.8-6.4,4.7-18.1,7.5-3.9,1-8.3,2.1-9.7,2.5-2.8.9-1.8,3.9-18.4-52.5-1.5-5.1-4.9-16.4-7.4-25.1-2.6-8.7-5.2-17.2-5.9-19-1.1-2.7-.9-3.4.8-4,4.4-1.7,26.6-8.3,28.3-8.4,1.3,0,2.4,2.1,3.7,7.2M303.8,331.7c.7,2.7,3.3,11.6,5.9,19.7,2.5,8.1,4.6,15,4.6,15.4s-1.6,1.5-3.6,2.5c-3.8,2-6.9,1.6-6.9-.9,0-.8-2.6-9.6-5.8-19.5-6.6-20.6-6.6-21,3.1-22.1.8,0,2,2.1,2.7,4.8M580.6,330.5c3.4,10.9,9.5,31.4,11.7,38.8,4.1,14.1,16.9,56.3,17.7,58.2.7,1.8-4.8,4.6-11.6,5.9l-3.9.7-2.6-8.5c-1.4-4.7-3.1-9.8-3.7-11.3-.6-1.5-2.1-6.8-3.3-11.7-1.2-4.9-3.8-14.4-5.9-21.1-2-6.7-4.8-15.9-6.1-20.4s-3.6-12.3-5.2-17.4c-1.7-5.5-2.4-9.7-1.8-10.3.9-.9,10.4-3.9,13.3-4.3.5,0,1.1.6,1.4,1.4M284.6,335.2c.4,1.4,3.1,10.1,6,19.2,2.9,9.1,5.1,17.5,4.9,18.5-.2,1.1-2.6,2.6-5.6,3.5-17.4,5.3-37.4,10.9-38.8,10.9s-6.2-13.9-13.3-38.6c-.4-1.5,3.5-3.2,20.8-8.9,11.8-3.9,22.3-7.1,23.3-7.1,1.1,0,2.3,1,2.7,2.5M558.4,342.7c1.1,3.7,2.7,8.8,3.6,11.4.9,2.6,2.6,8.6,3.9,13.4,5,19.1,12.7,45.8,17.2,59.1,1.5,4.6,2.8,8.9,2.8,9.5s-1.7,1.5-3.8,2c-4.1.9-11.8,3.2-31.2,9.2-14.1,4.4-28.9,8.9-43.1,13-5.4,1.6-12.3,3.6-15.3,4.6-9.4,3-8.5,4.3-16.1-22.2-3.2-11.2-11.3-38.3-19-63.3-2.2-7.2-3.2-12.4-2.6-13,1-1,11.4-4.2,29.6-9.5,4.8-1.4,13.7-4,19.8-5.8s14-4.1,17.5-5.1c16.1-4.5,26.5-7.6,29.1-8.7,4.9-2,5.4-1.6,7.5,5.3M436.4,341c.6.8,1.8,4.3,2.6,7.9s1.9,7.3,2.5,8.3c.6,1.2.4,2.4-.5,3.2-2,1.6-17.1,6.3-17.9,5.5-.3-.3-1.8-4.8-3.2-10-3-10.6-3.4-9.9,7-13.7,8.6-3.1,8.2-3,9.6-1.3M228.5,350.3c.9,2.1,4,11.3,6.9,20.5,3.7,11.7,4.8,16.9,3.8,17.2-.8.3-9.8.4-20,.2l-18.6-.3-.2-16.9c-.2-24.9-1.1-23.1,11-23.6,5.6-.2,11.3-.5,12.8-.6,2-.2,3.1.7,4.3,3.5M411.8,358.6c1.4,5.1,2.4,9.6,2,10.2-.3.5-3.6,1.8-7.3,2.9-3.7,1-13.3,3.9-21.5,6.5-8.2,2.5-15.3,4.3-15.8,4-1.8-1.1-6.3-18.3-5.1-19.5,1.8-1.8,39.1-13.7,42.2-13.4,2.5.2,3.2,1.3,5.5,9.4M357.2,374.4c1.5,4.6,2.5,9.1,2.2,9.9-.7,1.8-18.9,7.9-24.3,8.1-3.7.2-4-.1-6.4-6.8-4.3-11.5-4.5-11.1,10.4-15.9,7.2-2.3,13.6-4.1,14.3-4,.6.1,2.4,4,3.9,8.7M448.5,379.8c1.7,5.7,4.5,15.1,6.2,20.9,1.7,5.8,4.1,13.6,5.2,17.5,1.1,3.8,4.3,14.1,6.9,22.7,7.3,23.5,8.5,28.2,7.4,29.1-1.4,1.2-17,5.8-17.9,5.2-.4-.3-1.6-3.2-2.6-6.6s-4-13.2-6.6-21.9c-15.1-49.3-20.1-65.8-20.7-68.9-.6-2.9-.1-3.2,8-6,4.7-1.6,9.1-2.8,9.7-2.7.6.2,2.6,5,4.2,10.7M317.4,378.3c1.4,2.2,5,13.9,5,16.4,0,1.3-1.5,2.7-3.8,3.7-4.8,2-6.2.8-8.3-7.1-.8-3.2-1.9-6.9-2.4-8.4-.7-2.2-.2-2.9,3-4.3,4.8-2.1,5.3-2.1,6.4-.3M417.7,379.4c.6.8,1.5,3.3,1.9,5.5s2.6,9.8,4.8,16.9c20.3,64.8,23.3,75.1,21.9,76.5-1.5,1.5-42.6,14-44.1,13.4-.7-.3-2.4-5.4-3.9-11.4-1.5-6-4-15.4-5.6-20.8-1.6-5.4-4.1-14.1-5.6-19.2-1.5-5.1-5.3-17.5-8.6-27.5-3.3-10-6-19-6-20s3.2-2.8,11.4-5.3c6.3-1.9,15.6-4.8,20.7-6.4,11.1-3.5,11.6-3.6,13.1-1.7M300.4,387.9c1.3,2.9,2.4,7.5,2.6,10.1l.2,4.8-15.7,5.1c-8.7,2.8-18.3,5.9-21.4,6.9-3.1,1-6.1,1.4-6.7.8-1.4-1.4-5.7-14.3-5.7-17.2s1.4-2.9,9.6-5.2c5.3-1.5,14.9-4.4,21.3-6.6,6.4-2.1,12.1-3.9,12.6-4,.5,0,2,2.3,3.3,5.2M801.4,390.5c.8,3,1.7,6.7,2.1,8.2.5,2.1.2,2.6-1.8,2.6s-4.7.7-7.4,1.6c-2.7.9-11.6,3.6-19.6,6-8,2.4-17.3,5.3-20.7,6.5-3.4,1.2-6.5,2.2-7,2.2-1.4,0-5.3-15.2-4.2-16.3.6-.6,4.2-1.9,8-2.9,17.3-4.7,36.3-10.5,40.2-12.1,1.6-.7,4.3-1.2,5.9-1.3,2.6,0,3.2.6,4.4,5.5M370.6,416.5c12.1,37.9,18.9,61.1,22.4,75.8.7,2.9.4,3.1-13.8,7.4-8,2.4-15.1,4.1-15.7,3.7s-1.6-2.4-2-4.5c-1.3-5.8-12.4-44.6-19.2-66.7-7.3-23.9-8.6-28.5-7.9-29.2,1-1,26-8.5,27.7-8.3,1.1.1,4,7.3,8.6,21.7M243.6,397.5c.3.5.9,2.8,1.3,5.1l.8,4.2-8.3.8c-4.6.4-14.9.4-22.8,0l-14.5-.8v-10.1h21.5c11.8,0,21.7.4,22,.9M735.1,411.9c1.4,4.5,2.3,8.4,2.1,8.6-.2.2-2.3.7-4.6,1.1l-4.2.8-2.6-7.8c-3-8.9-2.3-10.2,5.4-10.9.8,0,2.5,3.6,3.9,8.1M326.4,408c.3,1.1,1.5,5.2,2.5,9,1.9,6.9,10.3,34.6,12.2,40.2.5,1.6,2.9,10,5.3,18.6,2.4,8.7,5.3,18.9,6.5,22.7,2.5,7.8,1.8,9.5-4.1,10.2-3.3.4-3.4.3-7.4-13-2.2-7.4-5.3-17.9-6.8-23.3-5.2-19-16.4-55.5-18.6-60.9-.7-1.6,0-2.4,3.1-3.7,5.2-2.2,6.6-2.2,7.3.2M715,411.5c2.1,4.2,4,13.3,3,14.2-.6.5-2.7,1.3-4.8,1.8-3.2.7-3.8.5-3.8-1.3,0-1.2-1-4.9-2.1-8.2l-2.1-6.1,3-1.1c4.5-1.6,5.7-1.5,6.9.7M809.5,417.9c2.8,10,7.8,27,10.3,35.3,2.1,7,4.4,15.2,5.5,19.3.8,3.3,1.6,3-31,12.3-5.9,1.7-14.1,4.1-18.1,5.4-4,1.3-7.5,2.1-7.7,1.9-.2-.3-2.1-6.2-4.1-13.3-2.1-7.1-4.2-14.1-4.7-15.7s-2.6-8.7-4.6-15.7c-2-7.1-4.2-14-4.8-15.5-1.9-4.8-1.2-5.6,7.4-8.2,4.6-1.4,15.3-4.7,23.6-7.3,8.3-2.6,16.5-5.1,18.1-5.7,6.9-2.3,7.7-1.7,10.3,7.3M314,432.8c3.5,11.2,7.5,24.9,9,30.3,1.5,5.4,5.1,18.2,8.1,28.4,2.9,10.2,5.4,19.2,5.4,20,0,1.8-43.1,16.2-44.4,14.8-.7-.8-8.5-25.3-15.7-49.8-11.1-37.2-14.5-49.9-13.9-50.5,1.3-1.4,40.8-14,43-13.8,1.8.2,3.3,3.8,8.5,20.6M699.1,422.4c1.2,4.1,2.1,7.8,2.1,8.2,0,.4-3.8,1.9-8.4,3.3-4.6,1.4-12.4,3.9-17.2,5.4-4.8,1.6-9.1,2.8-9.5,2.8-1,0-4.9-16.3-4.1-17.1s32.7-10.7,33.9-10.4c.6.1,2,3.6,3.2,7.7M248.9,417c.8.9,1.2,3.4,1,5.5-.4,3.8-.5,3.9-7.1,4.7-3.7.5-14.7.7-24.5.6l-17.7-.3-.4-5.5-.4-5.5,23.1-.3c12.7-.2,23.4-.5,23.8-.6.4-.1,1.4.5,2.1,1.4M842.3,425.2c.6,1.6,1.4,5.5,1.9,8.7.7,5.5.6,5.9-1.8,5.9s-3.4.5-4.5,1c-1.1.6-4.1,1.4-6.8,1.8l-4.8.8-1.9-7.7c-1.1-4.2-1.6-8.2-1.3-8.8.4-.6,2.1-1.1,3.8-1.2,1.7,0,4.7-.8,6.6-1.7,5.2-2.4,7.5-2.1,8.7,1.1M655,435.1c2.4,8.6,2.4,10.5.2,10.5s-7.3,1.8-14.2,4.1c-6.9,2.2-12.8,3.8-13.2,3.4-1.7-1.7-5.5-16.3-4.5-17.4.6-.6,3.7-1.8,6.8-2.6,3.2-.8,8.5-2.2,11.9-3.1,10.5-2.8,10.7-2.7,12.9,5.1M742.5,436.6c3.1,11,5.9,20.7,11.6,39.9,2.8,9.6,4.7,17.9,4.3,18.5-.5.5-2.6,1.1-4.7,1.2l-3.9.2-4.5-15.2c-10.9-36.6-14-48.5-12.9-49.6.9-.8,4.1-1.8,6.8-2.1.7,0,2.1,3.1,3.3,7.1M724.6,443.6c1.4,4.6,2.7,9.5,3,10.8.5,2.1,4.2,14.4,11,36.5,1.6,5.2,2.2,8.9,1.5,9.6s-2.9,1.2-5,1.4c-3.9.3-4,.3-6-7.2-1.1-4.2-3.2-11.2-4.6-15.7-1.4-4.5-3.7-12.6-5.2-18.1s-3.5-12.8-4.5-16.3c-2.3-8.1-2.3-7.9.8-8.5,6.4-1.2,6.5-1.1,9.1,7.6M249.6,487.4c-.4,28-1.2,51.3-1.7,51.8-.5.5-11.9,1.1-25.3,1.2l-24.3.2.3-29.7c.6-48.6,1.2-72.1,1.9-73.3.4-.7,10.6-1.1,25.2-1h24.5c0,0-.7,50.9-.7,50.9M615.4,444.7c3.5,11.3,3.5,11.5-5.1,14.3-5.5,1.8-7.8,2.2-8.4,1.2-1.5-2.6-5.9-16-5.3-16.5.9-.9,13-5.1,15-5.1,1.3,0,2.5,2,3.8,6.1M705.1,443.9c.6,1.9,2.3,7.9,3.8,13.3,1.5,5.4,4.9,17.3,7.6,26.2,7.4,24.6,7.8,22-4.3,25.6-5.7,1.7-13.4,4.2-17.2,5.4-3.8,1.3-7,2.1-7.1,1.9-.1-.2-1.2-3.5-2.3-7.3s-3-10.4-4.3-14.6c-1.2-4.2-4.4-14.9-7-23.9-2.6-9-5-17.2-5.3-18.2-.5-1.5.9-2.3,6.2-3.8,3.7-1.1,11.3-3.5,16.7-5.3,5.4-1.9,10.4-3.3,11-3.1.6.2,1.6,1.9,2.1,3.8M590.5,451.7c3.1,13.6,4.1,11.8-8.8,15.8-10.7,3.3-18.6,5.7-41.8,12.4-5.1,1.5-12.7,3.8-16.9,5.1-20.4,6.3-30.9,9.2-31.6,8.8-1.2-.7-4.8-16.6-4.1-17.8.4-.6,2.6-1.5,5-1.9,2.4-.4,8.3-2,13.1-3.5,4.8-1.5,13.5-4.1,19.3-5.8,5.8-1.7,14.9-4.6,20.4-6.4,19.7-6.4,40-12.5,42.7-12.7.7,0,1.9,2.6,2.7,6M849.1,453.5c.8,2.4,2.1,8,3.1,12.5.9,4.5,2.8,12.6,4.1,18.1,4,16.7,6.9,29.6,6.6,29.8-.1,0-3.4,1-7.2,2.1-4.8,1.3-7.3,1.6-8.2.7-.7-.7-2.1-5-3.1-9.6-2-9-9-34.1-12.9-46.1-1.3-4.1-2.2-7.5-2-7.7.2-.2,2.8-1,5.6-1.8s5.8-1.7,6.4-1.9c4.3-1.3,6.1-.4,7.4,3.8M261.3,456.4c.5,2.1,2.1,7.6,3.6,12.3,2.7,8.3,2.8,9.6,2.5,39.6l-.3,31.1-5,.4-5,.4.2-36.5c.2-38.1.8-52.6,2.4-51.6.5.3,1.3,2.3,1.8,4.3M664.8,469.2c2.1,7.2,5.2,17.6,6.7,23.1,1.5,5.4,3.9,13.6,5.2,18,1.3,4.5,2,8.5,1.5,9-1,1-21.7,7.5-25.8,8.1-3,.4-3.2-.1-12.3-30.5-2.4-8-5.6-18.5-7.1-23.3-1.5-4.8-2.8-9.3-2.8-10s2.2-1.9,5-2.7c19.5-5.7,23.7-6.7,24.7-5.9.6.5,2.8,6.9,5,14.1M624.6,477.1c3.7,12.1,11.6,38,14.4,47,1,3.1,1.3,6.1.8,6.6-1.8,1.7-14.7,4.8-15.7,3.8-.6-.6-3.6-9.9-6.8-20.8-3.2-10.9-7.4-25-9.3-31.3-4-12.8-4-12.6,4-14.7,2.6-.7,5.2-1.4,5.8-1.7,2.6-.9,3.5.6,6.7,11.1M597.9,478.5c1,3.4,4.2,14.5,7.2,24.8s6.5,22.2,7.9,26.5c1.5,4.9,2.1,8.3,1.4,8.9-.6.6-5,2.1-9.8,3.4-4.8,1.3-13.5,3.7-19.2,5.5s-13.1,3.9-16.3,4.7c-3.2.9-9.5,2.7-14,4.1-4.5,1.4-11.6,3.5-15.7,4.7-4.2,1.2-11.2,3.3-15.7,4.6-4.5,1.3-8.8,2.2-9.5,1.9-.7-.3-2-3.3-2.8-6.7-.8-3.4-2.1-8-2.9-10.3-3.9-10.6-13.5-44.4-13.2-46.1.3-1.3,2.8-2.7,7.4-4,3.8-1.1,11.7-3.4,17.5-5.2,5.8-1.7,13.6-4.1,17.5-5.3,20.1-6,40.6-12.2,48.4-14.5,4.8-1.5,9.1-2.7,9.5-2.8.4,0,1.5,2.6,2.5,6M480,486.5c3,11.1,3,10.9-5.2,13.3-4,1.1-8.2,2.3-9.2,2.6-1.6.4-2.5-1.1-4.5-7.9-1.4-4.6-2.1-8.8-1.5-9.4,1.3-1.3,15.9-6.7,17.3-6.4.6.1,2.1,3.6,3.2,7.7M830.8,491.7c2.7,8.6,2.7,9.4.2,10.2-5.2,1.6-15.8,4.7-24.8,7.2-5.4,1.5-14.4,4.1-19.8,5.7s-10.3,2.6-10.7,2.1c-.9-.9-4.8-15.5-4.2-16,.5-.5,24.6-7.5,32.4-9.5,3.5-.9,10.1-2.9,14.6-4.4,4.5-1.5,8.6-2.7,9.2-2.6.6.1,2,3.4,3.2,7.2M453.6,497.1c1,3.1,1.6,6.4,1.3,7.3-.3.9-3.7,2.5-7.4,3.5s-13.5,4.1-21.8,6.8c-13.8,4.5-15.1,4.7-16.4,2.9-2-2.8-4.6-14.9-3.4-16.1.5-.5,10.4-3.8,22-7.3,23.6-7.1,22.3-7.3,25.7,2.9M399.2,513.8c1.7,5.2,2,7.3,1,8.3-1.2,1.2-25.5,8.6-28.2,8.6-1,0-5.8-13.9-5.8-16.8,0-.6,6.3-3,14-5.4,10.4-3.2,14.3-4,15.4-3,.8.7,2.4,4.5,3.7,8.3M763,505.7c0,1,1,4.6,2.2,8l2.2,6.3-4.5,1.8c-2.5,1-4.7,1.4-5,1-.8-1.4-4.2-13.4-4.2-15s3.8-3.6,7.3-3.8c1.1,0,2,.7,2,1.7M489.7,519.9c2.3,7.5,5.8,18.9,7.7,25.4,1.9,6.4,4.3,14,5.2,16.8,2.7,8.5,2.6,8.7-7.1,11.7-5.4,1.7-9.2,2.3-9.8,1.7-1.6-1.6-18.6-58.6-18.7-62.5,0-1.4,2.1-2.6,7.3-4.2,11.6-3.7,10.8-4.3,15.5,11.1M281.7,524.6c2,6.6,3.4,12.8,3,13.8-.5,1.2-1.9,1.7-4.5,1.4l-3.8-.4-.9-14c-1.3-21.9-.4-22,6.1-.8M746.5,517.5c1.4,4.3,2.1,8.3,1.6,8.8-.5.5-2.7,1.2-4.9,1.6l-4,.6-2.2-7.7c-2.5-8.8-1.8-10.1,5.8-11,.7,0,2.4,3.4,3.8,7.7M836.4,513.4c.7,2,1.3,4,1.3,4.5,0,1.1-6.5,3.5-23.3,8.8-23.8,7.5-32,9.7-32.8,8.9-1.4-1.5-3.2-8.3-2.4-8.8.4-.3,6.3-2.1,13-4.2,6.7-2.1,18.5-5.8,26.2-8.3,7.7-2.5,14.6-4.5,15.3-4.6.7,0,1.9,1.6,2.6,3.6M460.2,522c1.1,3.8,4.4,15.3,7.4,25.5,8.8,29.9,9.1,30.9,8.4,31.5-.4.4-3.2,1.4-6.3,2.3-3.1.9-12,3.4-19.6,5.6-19.1,5.5-18.6,5.5-19.6,2.2-14.7-49-17.1-57.3-17.1-59.2s1.4-2.3,3.2-3c7.2-2.8,39.4-12.5,40.5-12.2.6.2,2,3.4,3.1,7.2M360.4,524.6c2.8,9.2,2.5,10.2-3.9,11.4-3.5.7-3.6.6-5.5-6.1-1.1-3.8-2.2-7.8-2.5-8.9-.4-1.5.5-2.5,3.3-3.7,2.1-.9,4.4-1.5,5-1.4.6.2,2.2,4.1,3.6,8.7M728.3,523.6c1.1,4.1,1.8,7.8,1.5,8.3-.3.5-3.8,1.7-7.8,2.8-4,1.1-11.2,3.3-15.9,4.9-4.7,1.6-9.2,2.7-10,2.3-1.5-.6-5.5-14.6-4.7-16,.3-.4,6.7-2.7,14.2-5.1,7.5-2.4,14.2-4.5,14.9-4.7,4.1-1.5,5.8.2,7.8,7.5M342.1,530.7c1.8,5.7,2,7.9,1,8.9-.7.7-6.3,2.8-12.4,4.5-6.1,1.7-15,4.4-19.8,6-4.8,1.5-9.3,2.8-10,2.8-1.5,0-5.7-13-4.9-15.3.5-1.7,41.8-16.1,43.1-15,.4.3,1.8,4,3.1,8.2M867.5,529.5c.9,2.9,1.6,5.9,1.6,6.7,0,1.7-3.3,3.1-9.7,4.1-3.5.6-4.6.3-5.1-1.3-.3-1.1-1.4-3.9-2.5-6.4-1-2.4-1.5-4.7-1.1-5.1,1.1-1.1,11.5-3.8,13.5-3.5.9.1,2.3,2.6,3.2,5.5M683.5,532.7c.7,2.4,1.7,6.1,2.4,8.2,1.1,3.6,1,3.9-1.9,5.1-6.8,2.8-26.4,7.8-27.2,7-.9-1-4.5-12.8-4.5-14.8s4.1-2.5,9-3.9c5-1.4,11.1-3.3,13.7-4.2,6.8-2.3,7.2-2.2,8.5,2.6M844.4,538.3c1.5,5.1,3.2,10.4,3.7,11.7,1.5,3.8,4.2,11.9,8.8,26.8,2.4,7.7,5.1,16.6,6.1,19.8,6.1,19.7,6.2,20.3,3.9,21.5-3,1.6-11.1,4.2-19.9,6.4-7.3,1.8-12.8,3.5-29.1,8.7-4.1,1.3-7.7,2.2-7.9,2-.6-.6-6.4-20.5-17.6-60.2-1.9-6.7-4.3-15.1-5.4-18.6-3.8-12.2-4.5-10.9,8.3-14.9,6.3-2,16.2-5,22-6.7,5.8-1.7,12.3-3.8,14.6-4.7,8-3.2,9.5-2.2,12.6,8.2M770.5,530.4c.3.5.9,2.8,1.3,5.1.7,4,.6,4.3-3,5.5-2.1.7-4.2,1.3-4.6,1.3-.7,0-2.6-6.6-2.8-9.9,0-1.8,8.1-3.7,9.1-2.1M407.9,543c1.8,6.4,5.9,20.4,9.1,31.1,3.2,10.7,5.5,20,5.1,20.7-.4.6-4.5,2.2-9.1,3.6-4.6,1.4-10.7,3.2-13.5,4.1-5.6,1.9-7.7,1.1-8.6-3.4-.3-1.4-4.1-14.8-8.4-29.7-4.3-14.9-7.6-27.7-7.3-28.6.3-.8,5.7-3,12.1-4.9s12.3-3.8,13.3-4.3,2.3-.8,2.9-.6c.6.2,2.6,5.5,4.5,11.9M752.6,538.3c2,5.3,1.4,7-3,8.4-4.1,1.3-4.2,1.2-5.8-2.7-2.2-5.3-2.1-5.7,1.6-7.2,5-2,6.1-1.7,7.3,1.5M644.9,544.8c.8,2.3,1.7,6.1,2.2,8.4l.8,4.2-6.2,1.8c-9.3,2.8-10.1,2.5-11.6-3.1-.7-2.7-1.8-6.2-2.4-7.8-1.5-3.5-.8-4.1,6.5-6.4,7.8-2.4,9.1-2,10.7,2.9M734.4,545.3c.4,2.3.5,4.6.2,5.1-.3.6-3.1,1.6-6.2,2.4-3.1.7-9.9,2.7-15.2,4.4-5.3,1.7-10.4,2.7-11.3,2.3-2.2-.9-3.6-6.4-2-8,1.3-1.3,28.6-10,31.9-10.2,1.3,0,2.2,1.2,2.7,4M367.5,548.8c.8,2.6,2.7,9.1,4.3,14.6s5,17.1,7.6,25.8c2.6,8.7,4.8,16.2,4.8,16.7,0,.7-7.2,4.1-8.6,4.1s-3-6.4-9.5-29.1c-3.6-12.5-7.3-25.2-8.2-28.2-2.1-6.9-2.2-6.7.9-7.9,4.9-2,7.2-.9,8.7,4.1M620.9,555.7l1.9,7.9-4.2,1.8c-2.3,1-6.8,2.4-10,3.2-3.2.8-10.5,2.9-16.3,4.6s-13.9,4.2-18.1,5.4c-4.2,1.2-10.7,3-14.6,3.9-3.8.9-11.5,3.3-16.9,5.3-10.7,4-17.1,5.8-19.8,5.8s-7.5-15.1-6.1-16.4c.5-.4,4.8-1.9,9.6-3.3,4.8-1.4,11.9-3.5,15.7-4.7s10.9-3.3,15.7-4.7c4.8-1.4,12.9-3.8,18.1-5.3,5.1-1.5,13.3-3.9,18.1-5.2,4.8-1.4,11.9-3.5,15.7-4.6,3.8-1.2,7.5-2,8.1-1.9s2,3.8,3,8.2M288.3,549.6c2,2.5,6.4,17.2,5.7,19-.5,1.4-2.5,1.7-9.7,1.4l-9.1-.3v-9.7c-.2-8.8,0-9.8,2.2-10.7,3.7-1.5,9.6-1.3,10.9.3M350.3,558.2c1.5,5.1,4.8,16.3,7.2,25,2.5,8.7,5.3,18.1,6.3,21,1,2.9,1.8,6,1.8,7,0,2.8-42.1,15.6-44.2,13.3-.6-.6-3.7-10.3-7-21.5-3.2-11.2-7.2-24.3-8.9-29.1-1.6-4.8-3-9.3-3-10.2,0-1.8,4.8-3.9,16-7.2,4.4-1.3,12.1-3.6,17.3-5.2,5.1-1.6,9.8-2.8,10.5-2.6.6.1,2.4,4.4,3.9,9.5M777.8,556.3c1.4,4.1,2.9,9.2,3.3,11.2.9,4.7,14.4,51,18.9,64.5,1.9,5.7,1.4,6.7-3.7,7.8-3.1.6-3.6.3-4.8-3.2-1.4-4-5.3-17.1-9.7-32.4-3.9-13.7-8-27.5-11.8-39.9-1.9-6.2-3.5-11.7-3.6-12.2-.1-1.3,5.2-3.9,7.2-3.5.9.2,2.9,3.7,4.3,7.8M872,552.2c.4,2.2.8,4.5.8,4.9,0,.5-2.4,1.5-5.4,2.2l-5.4,1.4-1.6-3.8c-.9-2.1-1.7-4.5-1.9-5.3-.4-1.7,3.6-3.2,9.1-3.4,3.3-.1,3.7.3,4.4,4M248.8,559.5c.3,9.3.2,9.7-2.5,10.7-1.6.6-13,1-25.4.9l-22.6-.2-.3-9.2c-.2-5.1,0-9.9.3-10.8.5-1.3,5.4-1.5,25.4-1.3l24.8.3.3,9.6M266.7,558.4c.2,5,.2,9.7,0,10.5-.5,1.7-9.1,2-10.1.3-.4-.6-.4-5.4,0-10.5l.8-9.3h8.8l.4,9M690.8,556.4c2.1,3.9.9,7.2-2.9,8.4-1.9.6-7.7,2.2-12.8,3.7-5.1,1.5-10.1,3-11.1,3.5-1.3.6-2.2-.3-3.3-3.5-1.8-4.9-1.3-5.5,6.3-7.5,2.6-.7,8.3-2.5,12.8-4.1,9.9-3.4,9.5-3.4,11.1-.5M760.2,564.2c1.7,5.6,4,13.3,5.2,17.2s3.8,13,5.8,20.4c2,7.4,4.4,15.5,5.3,18.1s2.7,8.6,4.1,13.3c2.5,8.4,2.5,8.7.4,10.2-1.2.9-3.5,1.5-5.1,1.3-3.3-.4-2.5,1.7-16.4-47.5-4.7-16.7-7.2-25.3-9.4-31.7-2.8-8.4-2.8-8.9.4-10.2,5.8-2.3,6.5-1.7,9.7,9M740.1,563.6c1,2.7,2.6,7.8,3.5,11.4.9,3.5,3.1,11.1,4.8,16.9,1.7,5.8,4.2,14.4,5.5,19.2,1.3,4.8,3.8,13.4,5.7,19,1.9,5.6,3.7,12.2,4.1,14.6l.7,4.3-16.7,5c-9.2,2.8-17,5-17.5,5-.4,0-1.1-1.8-1.6-3.8s-2.4-9-4.3-15.4c-1.9-6.4-4.4-15.1-5.5-19.2-1.1-4.2-2.6-9.4-3.4-11.7-.8-2.2-3.1-10.4-5.3-18.1s-4.5-15.4-5.2-17.1c-.9-2.3-.8-3.4.2-4.3.8-.6,8-3.1,16-5.4,8-2.3,14.8-4.5,15.1-4.8,1.2-1.2,2.3-.1,4,4.5M651.5,571.6c.2,3.8,0,3.9-7.2,6.1-4,1.2-7.6,2-7.9,1.7-.3-.3-.9-2.3-1.2-4.5l-.6-4,7.4-2.5c4.1-1.4,7.8-2.1,8.4-1.6.5.5,1.1,2.7,1.2,4.8M879.1,579.7c1.4,6.7,4.2,19,6.2,27.3,2,8.3,4.8,19.9,6.1,25.6,1.3,5.8,2.8,11.8,3.4,13.4.5,1.6,1.3,4.6,1.7,6.7.7,3.3.4,3.8-2.3,4.5-1.7.4-3.5.3-4-.2-.9-1-7.6-24.3-11-38.3-.9-3.8-2.6-9.9-3.6-13.4-1.1-3.5-2.7-9.3-3.7-12.8-1-3.5-2.8-9.4-4-13.1-1.2-3.7-2.3-7.4-2.3-8.3,0-1.5,7.3-4.2,9.9-3.7.6.1,2.3,5.7,3.6,12.4M698.8,582.9c1.5,5.6,4,14.1,5.4,18.9,1.4,4.8,4.3,14.5,6.3,21.6,2,7.1,5.2,18.3,7.1,24.9,1.9,6.7,3.1,12.5,2.5,12.9-1.3,1.1-23.7,8.1-27.1,8.5-3,.3-3.4-.5-9.9-23-1.5-5.1-4.9-16.7-7.6-25.6-12.8-43-11.8-38.9-9.4-40.3,3.2-1.8,23.9-7.9,26.8-8,2.7,0,3.1.7,5.7,10.1M626.7,576.8c2,5.2,1.4,5.8-7.9,8.5-5,1.4-15.6,4.6-23.6,7.2-8,2.5-20.3,6.2-27.4,8.2-15.5,4.4-30,8.7-35.5,10.4-5.6,1.7-5.5,1.8-7-3-1.7-5.1-1.7-5.1,10.9-8.5,5.2-1.4,10.6-3,11.8-3.5,3.2-1.4,12.6-4.2,21.6-6.4,4.2-1,8.6-2.4,9.9-3s5.5-1.9,9.3-3c10.6-2.8,21.5-6,27.4-8,7.5-2.5,9.2-2.3,10.5,1.1M299.3,582.6c3.4,14.4,6,38,4.4,39.6-1.6,1.7-26.3,2.3-28.2.7-1.2-1-1.5-5.7-1.2-20.8.2-10.7.3-20.2.4-20.9,0-1.3,9.8-2.4,19.9-2.2,3.5,0,4.2.6,4.9,3.6M248.1,586c.3,3.3.2,13-.2,21.7l-.7,15.7h-50.1v-20.4c0-11.2.3-20.9.7-21.6.5-.7,10.4-1.2,25.3-1.3h24.4c0,0,.6,5.8.6,5.8M266.2,596.2c.2,8.8,0,18.5-.6,21.6-.9,5.4-1.1,5.6-5.3,5.9l-4.4.4v-21.4c0-11.8.4-21.8.8-22.3.5-.5,2.7-.7,5-.5l4.1.3.3,16M511.2,589.6c.8,3.6,1.3,6.7,1.1,6.8-2.1,1.5-17.9,6.3-18.6,5.7-.5-.5-1.9-4-3.2-7.9-2.9-8.5-2.6-8.9,8.6-12.1,9.6-2.7,9.9-2.5,12.1,7.4M658.2,592.5c1.1,4.2,4.2,14.9,6.9,23.9,2.7,9,6.1,20.5,7.6,25.6,5,16.9,7.3,24.4,8.6,27.6,1.4,3.6,1.2,3.9-6.5,6.2-7.6,2.3-9.3,2.2-10-.9-.4-1.4-1.8-6.3-3.2-10.8s-3.8-12.4-5.3-17.5-4.9-16.7-7.5-25.6c-9.5-32.3-9.3-31.4-7.8-32,7.9-3.1,12.2-4.4,13.6-4.3,1,0,2.4,3,3.7,7.7M481.9,595.4c2.9,10.5,3.9,9.5-15.5,15.9-9.6,3.2-19.8,5.9-22.6,6l-5.1.2-2.3-7.4c-1.3-4.1-1.9-7.9-1.3-8.4.9-.9,20-7,34.2-10.8,9.6-2.6,10.7-2.2,12.6,4.5M633,597.4c1.8,6.3,4.1,14.5,9.4,33.5,3.2,11.3,7.5,25.9,11.1,37.3,4,12.6,4,12.3-1.5,14.3-2.7,1-6.2,2.1-7.9,2.6s-9.7,2.9-18.1,5.4-21.7,6.7-29.7,9.2c-35.2,10.9-39.8,12-40.9,10.3-.6-.9-1-2.4-1-3.5,0-1-.4-2.2-.8-2.7-.8-.8-6.4-19.5-12.5-41.5-1.5-5.4-4.6-16.4-6.9-24.4-2.3-8-4.2-15.2-4.2-16s3-2.3,6.7-3.3c6.8-1.9,17.3-4.9,30-8.7,3.8-1.1,14.6-4.3,23.9-7,16.3-4.7,35.5-10.3,37.9-11.1,2.5-.8,2.8-.4,4.6,5.6M425.9,605.6c1.5,1.9,5.1,15.1,4.4,15.9-.3.3-7,2.6-14.8,5-12.1,3.7-14.5,4.1-15.5,2.7-1.6-2.1-4.4-14.5-3.5-15.5.6-.6,25.6-9.2,27.6-9.5.4,0,1.2.6,1.9,1.4M517,608.1c2.4,6.2,2.2,6.5-6.4,9.5-11.5,4-13.1,3.8-14.1-1.2-.4-2.3-.5-4.4-.2-4.7.7-.7,16.2-6,18.1-6.2.8,0,2,1.1,2.5,2.6M488.6,618.7c.9,2.2,1.7,4.3,1.7,4.6s-7.7,3-17.2,5.9c-9.5,3-18.7,5.9-20.6,6.5-5.7,1.8-8.5,1.3-9.3-1.5-1.3-4.9-.8-6.4,2.5-7.2,4.8-1.1,29.4-8.7,34.1-10.5,6.1-2.4,7-2.2,8.8,2.2M389.5,622.5c1,3.7,2.1,7.6,2.4,8.7.4,1.4-.4,2.4-2.5,3.2-6,2.3-7.1,1.6-9.2-5.6-2.6-9.1-2.4-10.3,1.3-11.7,5.4-2,6-1.6,7.9,5.3M371.2,628.1c3.3,11.5,4.1,10.6-15.2,16.3-22.2,6.5-25.4,6.8-27.4,2.7-.8-1.7-1.6-5.1-1.8-7.6-.3-4.4-.2-4.5,6.1-6.6,15.1-5.1,34.5-11,35.5-10.8.6.1,1.8,2.9,2.7,6M521.8,625.7c0,1.7,7.3,28,11.6,42,1.2,3.8,3.3,10.9,4.7,15.7,1.4,4.8,4.1,13.6,6.1,19.6s3.3,11,3.1,11.2c-.5.3-12.9,4-17,5-3.1.8-3.9-.9-7.9-15.9-3.7-13.8-12.4-43.5-17.4-59.3-2.3-7.3-3.9-13.7-3.6-14.2.3-.5,3.3-1.6,6.7-2.4,3.4-.8,6.9-1.9,7.9-2.4,2.8-1.6,5.8-1.2,5.8.7M873.1,634.7c1.1,4,2.2,8.1,2.5,9.2.5,1.9-8.7,5.4-28.7,10.8-13.5,3.7-23,6.5-26,7.6-2.9,1.1-3.1,1-4.3-3.7-.7-2.7-1.7-6.1-2.4-7.6-2.8-6.7-3.5-6.4,38.4-18.8,6.7-2,12.4-3.9,12.7-4.2.3-.3,1.7-.6,3.1-.6,2.2,0,2.9,1.2,4.5,7.3M435,635.1c1.8,4.2,1.4,6.4-1,6.4-.8,0-7.1,1.8-14,4.1-7,2.2-12.9,4.1-13.2,4.1s-1.3-1.9-2.3-4.2c-1.9-4.5-.8-7.4,2.9-7.5,1,0,6.6-1.6,12.4-3.4s11.2-3.4,12-3.4c.8,0,2.3,1.8,3.2,4.1M246.8,634.1c.7.7,1.1,3,.8,5.2l-.4,3.9-25.4.3-25.4.3v-10.4l7.9-.3c17-.7,41.2-.1,42.4,1M304.7,637.6c.4,6.1-.3,6.4-17.8,5.9l-12.8-.3-.4-3.9c-.6-6.2.5-6.6,16.3-6.6h14.4l.4,4.9M265.6,634.7c.3.8.3,3.2,0,5.3-.6,3.7-.7,3.8-5.4,3.5-4.3-.3-4.9-.7-5.2-3.7-.2-1.8,0-4,.3-5,.8-2.1,9.6-2.3,10.3-.2M315.5,637.9c0,1.8-.5,3.7-1.1,4.1-1.4.9-2.9-4.6-1.9-7,1.1-2.8,3-.8,3,3M495.7,643.2c9.8,32.7,13.8,46.7,16.2,55.9,1.5,5.8,3.5,12.8,4.5,15.6,2.2,6.1,2.3,8.2.4,8.8-.8.2-4.9,1.5-9,2.8-22.2,6.9-28.5,8.6-31.7,8.8-3.6.2-3.6,0-6.3-9.7-1.5-5.4-3.7-13.7-5.1-18.4-1.3-4.6-3.4-12-4.6-16.3s-4.4-15.2-7-24.2c-2.6-9-4.8-17.2-4.8-18.3s3.4-3.1,14.9-6.7c22.9-7.2,26.4-8.2,28.1-7.9,1,.1,2.8,4.1,4.4,9.5M395.8,644c2.9,7.7,2.9,7.8-1.7,9.7-5.1,2.1-6.8,1.1-8-5-.7-3.4-.5-3.9,3.1-5.4,5.3-2.3,5.5-2.3,6.7.7M377.9,652.1c.8,2.3,1.1,4.7.7,5.3-1.2,1.9-41.7,14-42.9,12.8-1.1-1.1-2.4-7.6-1.7-8.5.4-.6,7.8-3.3,16.5-6.1,8.7-2.7,17.6-5.7,19.8-6.6,5.4-2.1,6-1.8,7.7,3.1M806.6,656.3c2.4,9.2,2.1,10.1-3.5,11.2l-3.6.7-1.5-7.4c-.8-4.1-1.9-8.1-2.5-9.1-1.2-2,2.8-4.7,6.4-4.3,1.9.2,2.8,2,4.6,8.8M444,665.9c5.7,19.8,14.2,49,18,61.4,1.6,5.3,2.7,10.2,2.4,11-.3.8-6.8,3.5-14.4,5.9-10.8,3.4-14.2,4-15.2,2.9-1.3-1.4-7-20-11-35.8-1.2-4.8-5.1-18.4-8.5-30.3-4.1-13.9-5.9-22-5.2-22.9.6-.7,2.5-1.6,4.3-2,1.7-.4,7.4-2,12.5-3.6,5.1-1.6,10.1-2.8,11-2.6,1.1.2,3.2,5.7,6.2,16M321.7,654.6c.4,1.4.7,3.7.7,5.2,0,2.3-.6,2.6-4.6,2.6h-4.7v-5.2c0-4.5.4-5.2,2.6-5.6,3.8-.6,5.2,0,6,3M246.8,656.5c1.5,7.3,2.1,7.2-25,6.8l-24.6-.3-.8-4.1c-.5-2.2-.4-4.6.1-5.2.6-.7,10.3-1.2,25.2-1.2h24.2l.8,4M264.7,657.7v5.2h-4.7c-4.4,0-4.7-.2-5-3.9-.6-6.1.4-7.4,5.3-7,4.4.4,4.4.4,4.4,5.6M304.1,655.7c.3,2.1.3,4.4,0,5.1-.5,1.3-28,3.2-29.8,2-1.1-.7-1.2-9.1-.1-10.1.4-.4,7.2-.8,15-.8h14.2l.6,3.8M788.9,661.2c1.1,4.8,2.1,9.1,2.1,9.6,0,1.1-8.4,3.4-9.2,2.6-.4-.4-1.5-3.9-2.5-7.8-1-4-2.3-8.1-2.7-9.2-.7-1.6,0-2.2,3-3.1,6.5-1.9,7.1-1.4,9.3,8M880.7,660.6c1.5,6.6,1.1,8.8-1.6,8.8s-7,1.8-13.6,3.9c-43.9,14.2-40.6,13.8-43,5.4-2.1-7.4-2.1-7.5,10.8-11,17.4-4.8,34.9-10,37.6-11.1,7.7-3.3,8.2-3.1,9.8,4.1M770.2,666c3,10.9,2.9,11.3-2.8,12.7-2.7.7-9.7,2.8-15.4,4.7-11.7,3.9-14.6,4.2-14.6,1.9s-1.1-4.9-2.4-9c-1.3-4-1.9-7.7-1.5-8.2,1.2-1.1,32.1-10.3,33.4-9.9.6.2,2,3.7,3.2,7.8M401.6,665c4.6,14.6,12.7,42.9,20.5,72.1,1.5,5.5,3,10.6,3.5,11.3,1.1,1.8-4.4,5.1-7.6,4.7-2-.3-2.9-1.6-4-5.6-.8-2.9-2.7-10-4.4-15.7-1.6-5.8-5.3-18.9-8.1-29.1-2.8-10.3-6.5-23-8.1-28.2-3-9.8-2.9-10.7,1.5-12.3,4-1.5,5.7-.8,6.9,3M384.1,674.9c1.3,4.3,3.2,10.8,4.2,14.3,2.3,7.9,10.2,35.5,13.9,49,1.5,5.4,3.3,11.4,4,13.3,1.4,3.6,0,6.6-2.9,6.6s-9.3,2.4-18.8,5.3c-9.5,2.9-18.1,5.1-19,5-2.2-.4-12.1-31-22.9-70.8-4.6-16.9-4.8-18.6-1.8-18.6s24.6-6.9,34-10.3c6.1-2.2,6.8-1.7,9.2,6.6M303.2,693.3c0,32.4-.8,82.4-1.4,84.8-.4,1.8-2.2,2-15.4,2s-15.1-.4-15.5-1.5c-.8-2,1.4-90.8,2.4-99.4l.8-7,12.2-.7c6.7-.4,13.3-.6,14.6-.6,2.2,0,2.3.9,2.3,22.2M327.4,674.6c.6,1.9,2.6,9.3,4.5,16.3,6.4,23.3,7.7,27.8,14.3,50.4,4.9,16.8,6.5,24.3,6.5,29.8v7.4l-13.1.8c-18.7,1.1-28.6.9-29.4-.4-.8-1.3,1.5-104.5,2.4-107,.4-1.1,2.5-1.4,7.1-1.2,6.3.3,6.7.5,7.6,3.8M245.5,673.4c1.3,1.6,1.3,2.7-.6,79.3-.4,14.7-1,27.2-1.5,27.6-.8.8-23.2,1.5-39.7,1.2l-9.8-.2.8-30.6c.4-16.8.8-41.1.9-53.9,0-16.2.5-23.6,1.4-24.1.7-.5,11.6-.8,24.3-.8,18.1,0,23.2.3,24.2,1.6M264.5,674.8c.3,1.7.1,18.3-.4,37-.6,18.7-1,41.6-1.1,51,0,18.7,0,18.5-7.2,18.5h-3.5l.8-36.4c.4-20,.9-44.1,1.1-53.4.2-9.3.7-17.6,1.1-18.4.5-.8,2.6-1.4,4.7-1.4,3.3,0,4,.5,4.5,3M727.4,680.9c2.5,9.7,2.5,9.8-5.7,11.9-2.6.7-8,2.3-12,3.6-4,1.3-8.1,2.2-9.1,2-1.7-.3-4.7-7.3-6.7-15.2-.6-2.6-.4-3.2,1.3-3.3,1.1,0,7-1.8,13.1-4,15.8-5.6,16.4-5.4,19.1,5.1M812.4,674.9c.3.5,1.3,3.6,2.3,7,2,6.9,1.7,7.4-5.9,9-3.6.8-3.8.6-3.8-2.5s-.5-5-1.1-7.2c-1-3.6-.9-4,2.6-5.5,4.4-1.9,5.2-2,5.9-.8M795.2,683.9c2.6,6.3,2.2,9.8-1.4,11.2-5.2,2-6.5,1-8.1-5.9-.8-3.5-1.3-6.5-1.2-6.6.6-.6,6.1-2.5,7.5-2.6.8,0,2.3,1.7,3.2,4M687.6,691.6c1.2,4.2,2.2,8.3,2.3,9.1.2,1.3-11.1,5.9-14.5,6-.7,0-6.2-15.8-6.3-17.9,0-1.2,11.9-5.3,14.5-5,1.1.1,2.5,3.1,3.9,7.8M776.6,691.6c.9,2.9,1.6,5.8,1.6,6.5,0,1.4-7.2,4.2-23.2,9.1-11.6,3.5-11.7,3.6-11.8.9,0-1.1-.7-4-1.6-6.4-1.9-5.4-1.8-5.6,11-9.4,5.4-1.6,12.3-3.7,15.2-4.7s5.7-1.6,6.3-1.5c.6.1,1.8,2.5,2.6,5.4M663.2,699.4c1.6,5,2.7,9.4,2.4,9.9-.3.5-3.5,1.7-7.2,2.7-8.1,2.3-35.6,10.7-54.4,16.7-12.5,4-29.3,9.2-36.3,11.1-3.1.9-3.5.3-6.3-9.9-2.8-10.1-2.8-10.1.4-10.8,8.9-2.1,22.6-6.1,31.2-9,5.4-1.8,12.8-4.1,16.3-5.1,3.5-1,10.6-3,15.7-4.6,24.6-7.5,32.7-9.9,34-10,.7,0,2.7,4,4.3,8.9M733.7,705.2c.6,3.7,1,7,.7,7.4-.2.4-1.9,1.1-3.7,1.5-1.8.4-7.5,2.1-12.7,3.8-5.2,1.7-10.2,2.8-11.1,2.4-1.7-.7-5-11.2-3.8-12.4.8-.8,25.9-9.1,28.1-9.3.8,0,1.9,2.8,2.5,6.6M791.3,709.3c.7,5.1.5,68.2-.3,68.7-.3.2-11.5.2-24.8,0l-24.2-.5v-19.4c0-10.7.3-23.7.8-28.9l.7-9.5,8.9-2.6c4.9-1.4,14.9-4.6,22.3-7.1s14-4.6,14.7-4.6c.7,0,1.6,1.7,1.9,3.8M694.8,716c1.6,3.2,2.9,6.3,2.9,6.8,0,.9-13.7,6-16.1,6s-4.3-9.8-4.3-12.1c0-.6,3.1-2.2,7-3.7s7.1-2.7,7.3-2.8c.1,0,1.6,2.5,3.2,5.7M669.8,723.1c.7,2.6,1.5,5.4,1.9,6.2.8,2-5.6,4.2-52,18.2-6.7,2-16.2,5-21,6.6-18.1,6.1-26.7,8.3-27.7,6.9-.9-1.2-3.7-10-3.7-11.5s3-1.5,6.7-2.6c41.3-12.3,67.8-20.4,81.9-24.9,6.1-1.9,11.4-3.6,11.9-3.6.5,0,1.4,2,2.1,4.6M553.1,731.8c1.5,4.9,2.4,9.4,2.1,10.2s-4.4,2.6-9.1,4.1c-8.2,2.6-8.6,2.6-10.1.6-1.5-2.1-3.1-7-4.5-14.1l-.7-3.6,9.2-2.9c5-1.6,9.5-2.9,9.8-3,.4,0,1.8,3.9,3.3,8.7M734.6,725.6c-.4,1.4-.7,13.8-.7,27.4v24.8h-10.6l.2-25c.1-13.7.6-25.5,1-26.2.9-1.5,5.8-3.5,8.7-3.6,1.7,0,2,.5,1.5,2.5M715.3,753.2v24.3l-3.8.6c-2.1.3-11.4.4-20.7.2l-16.9-.4.3-18.4c.2-10.1.7-18.8,1.2-19.2.5-.4,5.3-2.1,10.8-3.8,5.4-1.6,13.3-4,17.5-5.3,12.8-3.9,11.7-6,11.7,21.8M524.8,741.1c3.4,10.2,3.4,10.7.2,11.6-6.8,1.9-23.3,6.9-31.2,9.4-4.8,1.5-9.6,2.8-10.6,2.8-2.2,0-7.5-17.4-5.8-19.1,1.4-1.4,41.6-13.5,43.6-13.1.6.1,2.3,3.8,3.7,8.3M665.2,760.9c-.1,9-.3,16.4-.5,16.6-.2.2-7.2.5-15.5.6l-15.2.3-.8-12.2c-.5-7.2-.3-12.6.3-13.3s4.7-2.1,9.1-3.4c4.4-1.3,10.3-3,13.2-3.9,9.8-3,9.6-3.4,9.4,15.1M469.3,753.6c.7,2.7,1.8,6.2,2.4,7.6,2.6,6.2,2,6.7-13.7,11.7-8.1,2.6-15,4.5-15.3,4.3-.3-.3-1.7-4.7-3.1-9.8-1.9-6.8-2.3-9.7-1.3-10.4.7-.6,4.7-1.9,8.9-2.9,4.2-1,9.7-2.6,12.2-3.6,7.5-2.8,8.5-2.5,9.9,3.1M560.7,759c1.1,2.8,1.6,5.5,1,5.9-.9.8-10.7,3.9-16.9,5.3-2.9.7-3.2.4-5-5.4-1-3.4-1.8-6.2-1.8-6.4,0-.2,14-4.6,18.1-5.7,1.6-.4,2.3.5,4.5,6.3M624.9,756.7c.4.6.3,5.6-.1,11.1l-.8,10h-19.5v-7.5c0-4.7.5-7.9,1.5-8.4,1.3-.9,15.5-5.8,17.4-6.1.4,0,1.1.4,1.5,1M429.7,764.1c.8,2.1,2.1,6.6,2.9,10l1.5,6.2-4.1,1.7c-2.3.9-4.5,1.3-5,.8-1.1-1.2-5.8-16.5-5.8-18.7s3.8-3.6,7.2-3.8c1.1,0,2.5,1.5,3.3,3.7M531.5,767.3c1,2.9,1.4,5.6,1,6-.5.4-4.2,1.8-8.4,3.1-4.2,1.3-13.5,4.3-20.7,6.6-7.2,2.3-13.6,3.9-14.2,3.6-1.6-1-4.8-11.5-3.9-12.3.5-.4,4.8-2,9.6-3.4,9.7-2.9,20-6,28-8.5,2.9-.9,5.6-1.3,6-.9.4.4,1.6,3,2.6,5.9M596.4,771.4v6.4h-14.3c-7.9,0-18.2.3-22.9.6-9.7.6-10-.8-.6-3.4,3.2-.9,11-3,17.4-4.8,6.4-1.8,12.4-3.6,13.4-4.2,1-.6,2.9-1,4.4-1,2.4,0,2.6.5,2.6,6.4M410.8,768.2c1.3,2.5,5.3,18.9,4.7,19.3-.4.3-14.7,4.5-33.7,10.1-4.2,1.2-7.9,1.8-8.3,1.4-.9-.9-5.7-18.2-5.7-20.4s3-2.3,6.7-3.4c3.7-1,12.2-3.5,18.9-5.4,14.6-4.2,15.9-4.3,17.3-1.7M477.5,783c1.6,5.6,1,8.8-1.5,8.8s-6.5,1.6-12.5,3.5c-6,1.9-11.4,3.5-12.1,3.5-1.5,0-5.8-9.8-5.1-11.8.4-1.1,23.6-8.5,28.5-9,.7,0,2,2.2,2.8,5.1M595,787.7c1.1.4,1.4,3.1,1.2,10.2l-.3,9.6h-70.3c-38.6.2-70,0-69.7-.3,1-1,33.9-11.9,36.2-12,1.3,0,8.2-2,15.4-4.4l13.1-4.3,36.5.3c20.1.2,37.2.6,38,.9M625.3,797.3l-.3,10.2h-10.2c-5.6,0-10.2-.4-10.2-.9v-19.5h21.1l-.3,10.2M665.1,797.6v10.5l-16-.3-16-.3-.4-2.9c-.2-1.6,0-6.2.4-10.2l.8-7.3h31.3v10.4M714.7,797.6v9.9h-40.8l-.3-8.6c-.2-4.7,0-9.4.3-10.2.5-1.3,4.6-1.5,20.7-1.3l20.1.3v9.9M733.3,797.6v9.9l-5,.4-5,.4v-21.2l5,.4,5,.4v9.9M791.6,797.6v9.9h-24.8c0,0-24.8.1-24.8.1v-20.6l24.8.3,24.8.3v9.9M294.3,789l7.2.7v19.3l-5.5.7c-5.3.6-21.5,1.2-24.5.9-1-.1-1.5-3.1-1.5-10.6v-10.4l4.4-.5c8-.8,12.7-.9,19.9-.1M352.8,798.7c0,8.9-.3,10.5-2,11-4.1,1.1-39.4.5-40.8-.7-1.1-.9-1.3-3.4-.8-9.5.4-4.5.9-8.9,1.2-9.7.3-1.1,5.7-1.5,21.5-1.5h21v10.4M242.7,790.8c1,1.7.6,18.8-.5,19.8-.4.4-11.4,1-24.4,1.3l-23.6.5-.7-4.8c-.4-2.6-.3-7.4.3-10.6l1-5.8,17.5-.6c9.6-.3,20.2-.7,23.5-.9,3.5-.1,6.4.3,6.9,1.1M261.2,799.9v9.9l-5,.4-5,.4v-9.3c0-10.2,1.1-12.1,7-11.5,2.9.3,2.9.5,2.9,10.2M439.4,795.9c2,5.4,2,5.8,0,7.2-1.1.8-3.5,1.5-5.3,1.5-2.7,0-3.4-.7-4.4-4.4-1.8-6.6-1.5-8.2,2-9.4,4.6-1.7,5.3-1.2,7.6,5.1M364.9,803.4c2.3,7.8,2.4,7.3-.8,6.9-2.4-.3-2.7-1.1-3-7.9-.4-8.8,1-8.4,3.7,1.1M420.4,801.8c.9,3.1,1.1,5.7.4,6.3-.6.5-10,3.6-20.9,6.9-22,6.5-22.5,6.5-23-1.5l-.3-4.5,12.2-4c18.9-6.1,26.1-8.2,28.1-8.3,1.3,0,2.4,1.6,3.4,5.2M594.9,817.9c.9.9.8,68.3-.1,69.2-.2.2-46.8.5-103.4.7l-103,.2v-60.5l10.5-3.1c5.8-1.7,13.4-4.2,16.9-5.5,6.3-2.4,7.6-2.4,92.3-2.1,47.3.2,86.3.7,86.8,1.2M624.4,818c.4.3.7,2.5.6,4.9-.1,2.4-.3,17.9-.4,34.4l-.2,30h-9.8q-9.8,0-10.4-3.3c-.7-3.7.2-64.1,1-66.6.4-1.3,2.4-1.5,9.5-.8,4.9.4,9.3,1,9.7,1.3M664.4,851.5c0,19.1-.4,34.9-.7,35.2-.8.8-29.9,1.2-30.7.4-1-1-1.1-6.3-.8-39.1l.2-30.5,3.8-.5c2.1-.3,9.3-.4,16-.4h12.2c0,.1-.1,34.8-.1,34.8M715,852.1l.3,35.3-21.1-.3-21.1-.3v-34.3c.2-25.6.6-34.6,1.7-35.3.8-.5,10.1-.8,20.7-.6l19.2.3.3,35.3M733.4,852.1v35.3c0,0-5,0-5,0h-5v-34.8c0-19.1.4-35.1.8-35.6s2.7-.7,5-.5l4.1.3v35.3M791.6,851.8v35h-50.1v-3.2c.1-1.8.2-17.3.4-34.6l.2-31.4,5-.5c2.7-.3,13.9-.4,24.8-.4h19.8v35.1M300.8,826.8c-.1,16.8-1.5,61.9-1.9,62.3-.2.2-7.2.6-15.6.8l-15.2.4.4-33.8c.2-18.6.8-34.5,1.3-35.5.8-1.4,3.8-1.7,15.9-1.7h15v7.6M351.1,853.2c-.4,19-1.1,34.9-1.4,35.3-.3.3-9.9.6-21.2.6h-20.6l.4-34.4c.2-18.9.7-34.8.9-35.3.3-.5,10-.9,21.6-.9h21.1l-.8,34.6M370.8,822.8c1.6,4.8,3.9,7.5,6.6,7.5s2.2,1,2.3,6.1c.3,12.4.3,21.6,0,36.8l-.3,15.5-10.2-.3-10.2-.3.4-33.8c.2-18.6.7-34.2,1-34.7.3-.5,2.5-.8,4.8-.6,3.6.3,4.4.9,5.4,4M242.2,854.7c-.2,18.9-.6,34.7-.9,35.3-.3.5-11.2.9-24.2.9h-23.7l-.6-6.1c-.3-3.4-.3-19,.1-34.7l.7-28.6,12.8-.7c7.1-.4,18.1-.6,24.5-.6h11.7c0,0-.4,34.4-.4,34.4M260.9,834.3c-.5,34.2-1.4,54.6-2.4,55.6-.6.6-2.6.9-4.4.7l-3.3-.4.3-33.8c.1-18.6.5-34.5.9-35.3.4-1,2.1-1.4,4.9-1.2l4.3.4-.2,14M714.2,901.4c.4,3.1.2,5-.6,5.3-.7.3-10.2.4-21,.2l-19.7-.3-.4-3.9c-.2-2.1,0-4.5.7-5.2.8-1,6.9-1.3,20.8-1.1l19.6.2.7,4.8M791.4,896.7c.5,0,.8,2.3.6,5l-.4,5h-24.8c0,0-24.8.2-24.8.2v-5c0-4.9,0-5,4.4-5.4,3.2-.3,32.6-.2,44.9.3M378.2,897.7c1,.6,1.4,2.7,1.2,5.5l-.4,4.5-10.1.3-10.1.3-.5-4.3c-.7-6.1,1.2-7.5,10.5-7.5,4.3,0,8.5.5,9.3,1M595.2,901.8v5.1l-7.9.6c-4.3.3-51.1.5-104,.4l-96.2-.2-.4-4c-.3-2.8.2-4.5,1.6-5.5,1.6-1.1,24.4-1.5,104.4-1.5h102.4c0,0,0,5.1,0,5.1M623.6,901c1,6.3-.6,7.5-9.6,7.3-10.3-.3-10.6-.5-10.6-6.4v-5.1h19.5l.7,4.3M664.6,901.9v4.7l-16.6.3-16.6.3v-4.5c0-2.5.4-4.9.8-5.3.4-.4,7.9-.7,16.6-.5l15.8.3v4.7M733.3,901.2c0,4.7-1.2,5.8-5.8,5.6-3.3-.1-3.5-.5-3.9-5.2l-.4-5,5,.4c4.8.3,5,.5,5,4.2M298.9,903.4l-.4,5.5-15.4.3-15.4.3v-10.5l9.6-.4c5.3-.2,12.4-.5,15.8-.6l6.2-.2-.4,5.5M350.2,903c.2,2.5-.1,4.9-.8,5.2-.6.4-10.2.7-21.4.7h-20.2l-.4-3.9c-.7-7.4-1.2-7.3,21.6-6.9l20.7.3.4,4.5M241.5,903.2c.5,2.5.3,4.7-.5,5.4-.9.9-9.3,1.3-24.9,1.4h-23.6c0,0-.4-4.5-.4-4.5-.2-2.5.1-4.9.8-5.2.6-.4,11.7-.8,24.5-1l23.4-.3.8,4.2M259.5,904.3v5.2h-4.6c-5.5,0-6-.7-5.1-6.2.7-4.1.9-4.3,5.2-4.3h4.5v5.2M655.3,916.5h8.6v10.4l-15.3.4c-16.8.4-17.8,0-17.2-6.3.4-3.7.6-3.9,6.2-4.5,3.2-.4,6.5-.5,7.4-.3.9.2,5.4.4,10.2.4M713.9,921.7l.4,5.3h-42.1v-5.2c0-5.1,0-5.2,4.4-5.7,2.4-.3,11.7-.4,20.7-.2l16.3.3.4,5.3M733.4,918.1c.4,1.5.5,4,.3,5.5-.3,2.4-1,2.7-5.6,2.7s-5.3-.1-5.6-3.9c-.6-6,.3-7.2,5.6-7.2s4.8.4,5.4,2.8M788.6,916.1c3.5.7,3.7,1,3.4,5.5l-.4,4.8h-50.1l-.4-4.9-.4-4.9,5.6-.4c10.1-.8,38.5-.9,42.2-.1M377.8,922.3v5.2h-19.8v-4.7c0-4.6,0-4.7,5.2-5.4,2.9-.4,7.3-.7,9.9-.6h4.7v5.4M595.2,921.8v5.2h-18.9c-135.8,1-188.5.9-189.2-.1-.4-.7-.4-3,0-5.1.7-3.5,1.2-4,5.1-4.4,2.4-.2,49-.5,103.7-.7l99.4-.2v5.2M623.8,921.8v4.7h-19.8l-.4-3.3c-.7-6.3,0-6.7,10.6-6.4l9.6.3v4.7M298.5,923.5v5.2h-30.3v-9.3l11.7-.7c19.5-1.1,18.6-1.4,18.6,4.8M349.8,922.9v4.7l-21.3.3c-11.7.2-21.3,0-21.4-.6-1.6-9.8-1.7-9.7,22.2-9.4l20.5.3v4.7M240.9,924c0,3.6-.6,5.3-1.8,5.8-1,.4-12,.7-24.5.7h-22.6v-5.2c0-5.1,0-5.2,4.4-5.5,2.4-.2,13.4-.5,24.5-.6l20.1-.3v5.1M259.3,924c.4,5-.9,6.5-5.9,6.5-2.7,0-3.3-.6-3.9-4.1-1.2-6.2,0-7.8,5-7.4,4.2.3,4.4.6,4.8,4.9M593.9,990.7c-.2,35.7-.7,55.6-1.4,56.1-2.1,1.3-206,1.1-206.9-.2-.8-1.3-.4-45.1.8-85.7l.7-23.9,77.5-.6c42.6-.3,89.2-.7,103.5-.8l26-.2-.3,55.3M622.6,964.3c0,15.7-.2,40.8-.5,55.7l-.5,27.1h-19.6v-40.5c.2-22.3.6-47.2.9-55.3l.7-14.8,6-.4c3.3-.2,7.5-.4,9.5-.3h3.5c0,.1,0,28.7,0,28.7M663.4,974.8c0,21.5-.3,46.5-.6,55.7l-.6,16.7-15.7.2-15.7.2.4-55.4c.2-30.5.6-55.6.8-55.9s7.4-.6,15.9-.6h15.6v39M703.5,935.9l10.7.8-.2,55.2c-.2,49.1-.4,55.2-2.1,55.6-1,.3-10.5.4-21.1.3l-19.2-.2.3-31.4c.1-17.3.3-42.3.3-55.6v-24.1s7.3-.4,7.3-.4c4-.2,8.6-.5,10.3-.6s7.8.1,13.7.5M732.2,991.1v55.4l-5,.4-5,.4v-110.7l2.6-.5c1.4-.3,3.7-.5,5-.4,2.3.2,2.3,1,2.3,55.5M791.2,937.8c.2,1.4.3,26.8,0,56.4l-.4,53.8-25.3-.3-25.3-.3.3-51.2c.2-28.1.6-53.4,1-56.1l.7-5h24.2q24.2,0,24.6,2.6M349.1,938.2c.9.8-1.7,107.1-2.6,108.6-.7,1.1-6.2,1.5-21.2,1.5s-20.5-.4-20.7-.9c-.6-1.2,1.4-98.8,2.1-104.9l.6-4.9,7.2-.4c7.5-.5,33.7.3,34.5,1.1M377.4,991.7c-.2,30.1-.5,54.9-.6,55-.1.1-4.7.4-10.1.6l-9.8.3-.7-6.4c-.7-6.9,1-97.9,1.9-102.3.5-2.6,1-2.7,10.2-2.3l9.6.3-.4,54.8M298.4,944.6c.4,3.9.5,7.5.3,7.9-.5.7-2.3,66.3-2.4,85.2v9.9c0,0-3.5.8-3.5.8-1.9.4-8.9.8-15.6.9h-12.1c0,.1.9-32.8.9-32.8.5-18.1,1-42.9,1.1-55.1l.2-22.1,3.4-.7c1.9-.4,8.7-.8,15.2-.9h11.8c0-.1.7,7,.7,7M240.2,979.7c-.5,22.6-.9,47.4-1,55.1v14c-.1,0-13,.9-13,.9-7.1.5-18.3.7-25.1.6l-12.2-.3v-11.1c.4-29.4,1.9-87.5,2.5-92.9l.6-6.1,6-.4c3.3-.2,14.4-.5,24.5-.6l18.5-.2-.9,41.1M258.7,973.6c-.1,18.9-.6,43.7-1,55.1l-.7,20.7h-9.7l.2-14.9c0-8.2.6-33.1,1.1-55.4l.9-40.6,4.8.3,4.8.3-.3,34.4M346.7,1057.8c.7.9.9,5,.4,10.8l-.8,9.3-21.3.3-21.3.3.3-10.2.3-10.2,14-.6c25.7-1.2,27.1-1.2,28.3.3M376.5,1060c1.3,6.6.8,15.8-.9,17.2-1,.9-5,1.2-10.8,1l-9.1-.3-.3-9.8c-.2-7.1,0-10.1,1.2-10.8.8-.5,5.5-1,10.4-1h8.9s.7,3.6.7,3.6M592.9,1066.7v10.3l-11.9.6c-9.8.5-190.3.4-195.2-.1-2-.2-2-17.8,0-19.7,1.1-1.1,25.8-1.4,104.3-1.4h102.9v10.3M622,1066.7c0,8.4-.4,10.5-1.8,11.1-2.6,1-17.7.9-18.3-.2-.2-.5-.2-5.5,0-11.1l.5-10.2h19.6v10.4M662.8,1066.8v10.4l-13.1.8c-19.9,1.2-18.9,1.7-19.3-9.2-.2-5.1,0-9.9.3-10.8.5-1.2,4.3-1.6,16.4-1.6h15.8v10.4M713.1,1066.4c.2,5.5.1,10.2-.2,10.4-.3.2-9.8.5-21,.8l-20.4.4-.3-9.2c-.2-5.1,0-9.9.3-10.8.5-1.2,5-1.6,20.9-1.6h20.3l.4,10M731.8,1066.4c.4,11.2-.2,12.5-6.3,11.9-2.8-.3-3.8-.9-3.8-2.4,0-1.1.2-6,.3-10.8l.2-8.7h9.2l.4,10M789.9,1057.5c.7,0,1.1,3.8.9,10.2-.2,5.6-.7,10.1-1.2,9.9s-11.9-.3-25.4-.3h-24.5v-19.7l5.5-.5c3-.3,14.1-.3,24.5,0,10.4.2,19.5.4,20.2.4M295.1,1068.6v10.5h-30.3v-9c.2-4.9.6-9.7.9-10.6.5-1.3,3.5-1.6,15-1.5h14.4v10.6M238.5,1069v10.3l-7.2.7c-3.9.4-15.2.7-25.1.7h-17.9v-10.4c0-7.2.4-10.6,1.5-11,.8-.3,12.1-.6,25.1-.7h23.6c0,0,0,10.2,0,10.2M256.6,1069.2c0,9.6,0,9.9-3.1,11-5.9,2.1-6.8.6-6.8-10.1s.4-10.1.8-10.6c.5-.5,2.7-.7,5-.5l4.1.3v9.9M346.3,1109.7c0,12.3-.3,22.7-.6,23-.3.3-10,.7-21.5.9l-20.9.3-.3-19.2c-.2-10.6,0-20.9.3-23,.6-3.5,1-3.7,6.2-4.1,3-.2,12.6-.4,21.2-.4h15.7s0,22.4,0,22.4M375.5,1110v22.7l-10.8.3-10.8.3v-9.7c0-5.3.3-15.5.8-22.7l.8-13.1,6.5-.4c3.6-.2,8.1-.4,10-.3h3.5v22.8M592.9,1109.3c0,19.5-.3,22.7-1.8,23.3-2.7,1-206.6.9-207.2-.2-.3-.5-.2-11,0-23.3l.6-22.4h208.3v22.6M621.4,1110v22.7h-19.8v-21c0-11.5,0-21.9.3-23.1.4-1.8,1.6-2,10-1.7l9.5.3v22.7M662.3,1099.2c.8,12.3.2,30.8-1.2,33-.8,1.2-23.9,1.6-28.3.4-2.6-.7-2.6-.9-2.6-22.5s.3-22.2.8-22.6c.4-.4,7.5-.8,15.6-.8h14.8l.9,12.5M712.7,1109.4l-.3,22.7-11.7.5c-6.4.3-15.7.2-20.5-.2l-8.9-.7-.6-8.3c-.3-4.6-.3-14.7,0-22.6l.6-14.3h41.7l-.3,22.7M731,1110v22.7h-9.3l-.3-21.5c-.2-11.8,0-22.2.3-23.1.4-1,2.1-1.4,5-1.2l4.4.4v22.7M790.8,1109.1l-.3,22.4-7.6.7c-4.2.4-15.6.4-25.4.1l-17.8-.6v-21.8c0-12,.3-22.1.8-22.5.4-.4,12-.8,25.7-.8h24.9l-.3,22.4M255.4,1111.1v22.7l-3.1,1.1c-1.7.6-4,.7-5.1.3-1.9-.7-2-2.4-1.3-23,.4-12.2,1.1-22.7,1.5-23.3.4-.6,2.3-.9,4.4-.8l3.7.4v22.7M294.7,1110.6c-.2,12.2-.7,22.5-1.2,23-.4.5-7.4,1-15.4,1.2l-14.5.3v-21.8c.2-12,.6-22.6,1-23.6.6-1.6,2.9-1.8,15.6-1.5l14.9.3-.4,22.1M237.7,1096.8c.4,4.3.4,14.7,0,23.1l-.7,15.3-24.5.8c-13.5.4-24.9.4-25.3-.1-.9-1,.8-44.1,1.9-45.8.4-.7,10.3-1.1,24.4-1.1h23.7l.7,7.8M345.8,1150.2c0,5.6-.4,7.5-1.8,8-1,.4-10.7.7-21.6.7s-19.9-.4-20.3-1.5c-.3-.8-.2-4.3.3-7.7l.9-6.2,19.2-.6c10.6-.3,19.4-.7,19.6-.9.2-.2,1.1,0,2,.3,1.2.4,1.6,2.7,1.6,8M374.3,1150.2v8.2h-19.8v-15.2l7.6-.7c12.9-1.2,12.2-1.6,12.2,7.7M592.3,1149.6v7.6h-49c-26.9.2-73.3.4-103.2.6-29.8.2-54.9.2-55.7.1-1.1-.1-1.4-2.1-1.2-7.4l.3-7.3,7-.6c3.8-.3,50.8-.6,104.3-.6h97.3v7.6M621,1149c-.2,3.8-.5,7.1-.6,7.2-.1.1-4.4.4-9.5.6l-9.3.4-.4-6.9c-.2-3.8.2-7.2.8-7.6.6-.4,5.2-.7,10.3-.7h9.1l-.4,7M662.2,1149v7l-15,1c-8.2.5-15.6.7-16.3.4-.9-.3-1.2-3.1-1-8.1l.4-7.6h15.9c0,.1,15.9.2,15.9.2v7M711.9,1142c.3.3.3,3.9,0,8.1l-.4,7.6-20.5-.2-20.5-.2-.5-6.2c-.8-10-1.8-9.5,21.1-9.5s20.5.2,20.7.5M730.4,1149.6v8.2h-9.3v-16.3h9.3v8.2M791,1149.6v8.2h-51.3v-16.3h51.3v8.2M292.6,1143.3c2.3.9,2.6,13.2.4,15.4-.9.9-6,1.4-15,1.4-16.3,0-17.1-.5-15.5-9.6l1-6.1,13.4-.6c7.4-.4,13.5-.7,13.6-.9.1-.1,1,0,2,.5M234.8,1144.6c2.5.7,2.6,1.3,2.3,7.9l-.3,7.1-6.4.8c-3.5.4-15,.8-25.4.9h-19c0,.1.3-7.8.3-7.8l.3-7.9,16.9-.6c9.3-.3,19.5-.7,22.7-.9,3.2-.1,7,0,8.5.5M254.6,1152.3l.3,7.9h-9.4v-7.4c0-4.1.4-7.8.8-8.2.5-.5,2.4-.7,4.4-.5,3.5.3,3.5.4,3.9,8.2M591.4,1167.5c.8.5,1.5,2.7,1.5,4.9v4l-6.7.2c-3.7.1-50.9.3-104.9.4l-98.2.2v-10l18.4-.3c39.9-.7,188.6-.2,190,.7M621.4,1171.8v5.2l-10.2.3-10.2.3v-5.1c0-2.8.4-5.5.8-5.9.5-.5,5-.7,10.2-.5l9.4.3v5.2M661.4,1171.5l-.4,5.5-14.9.3-14.9.3-1.2-3.2c-2.7-7-.2-8,21.4-8.4l10.3-.2-.4,5.5M706.8,1167.1h5.1l-.4,4.9-.4,4.9h-20.4c0,0-20.4.2-20.4.2l-.4-4.9-.4-4.9,5.6-.5c3.1-.3,10.3-.3,16,0,5.7.2,12.7.4,15.5.4M730.6,1167.4c.3.8.2,3.3-.2,5.5-.6,3.9-.9,4.1-5.3,4.1s-4.7-.2-5-3.9c-.2-2.1.3-4.6,1-5.5,1.7-2.1,8.8-2.2,9.5-.2M787.8,1167c2.4.9,2.7,1.7,2.3,5.9l-.5,4.8-25.2-.3-25.2-.3-.4-3.9c-.7-7.4-1.3-7.2,23.6-7.2s23.9.5,25.4,1M345.5,1172.6c.4,6.2.9,6.1-24.3,5.8l-19.2-.2v-4.6c0-5.9.4-6,24.5-5.9h18.6c0,0,.4,5,.4,5M374.3,1172.4v4.7h-21l-.4-4c-.2-2.2.2-4.3,1-4.8.7-.5,5.6-.8,10.9-.7h9.5v4.8M293.9,1173.5v4.7l-14,.8c-7.7.5-14.6.6-15.4.3-1.5-.5-2.1-8.9-.7-10.3.4-.4,7.4-.7,15.4-.5l14.7.3v4.7M236.5,1174.6c-.2,2.5-.4,4.7-.6,4.8-.2.1-11.5.6-25.1,1l-24.8.7v-5c0-2.8.4-5.4.8-5.8.4-.4,11.8-.7,25.4-.5l24.6.3-.3,4.6M253.7,1174c0,4.1-.3,4.6-3.3,5-4.9.7-6,0-6-4.2s.6-5.3,5.4-5.3,3.9.2,3.9,4.5M373.9,1222.5c-.3,19.9-.5,40.9-.6,46.6v10.5c-.1,0-10.8.3-10.8.3l-10.7.3.6-40.5c.3-22.3.6-43.2.7-46.4l.2-5.8,4.7-.7c2.6-.4,7.3-.7,10.5-.6l5.8.2-.5,36.1M591.7,1232.4c0,25.7-.1,46.7-.3,46.7-.2,0-47.7.3-105.5.7l-105.3.6.6-23.1c.3-12.7.7-33.3.8-45.8.1-12.5.7-23.4,1.3-24.2.8-1.1,24.1-1.4,104.7-1.5h103.6s0,46.6,0,46.6M620.8,1199c0,7.3-.3,28.2-.8,46.6l-.8,33.4h-19.5v-36.4c.2-20,.6-41,.9-46.6l.6-10.2h19.5v13.2M660.6,1231.8c-.2,25-.7,45.9-.9,46.3-.3.5-7.6.9-16.2.9h-15.7l.7-45.2c.4-24.8.9-45.8,1.2-46.7.4-1.1,4.2-1.4,15.9-1.2l15.5.3-.4,45.5M711.2,1219.3c-.3,18.4-.9,39.3-1.3,46.5l-.7,12.9-19.4.6c-10.7.4-19.8.4-20.3,0-1.1-.6-1.1-76.9,0-86.9l.7-6.7h41.6l-.6,33.5M729.3,1216.1c-.3,16.3-.6,33.7-.6,38.5,0,4.8-.2,12.3-.4,16.6l-.2,7.9h-5.4c-5,0-5.3-.2-4.7-2.6.4-1.4,1-20.2,1.3-41.7.4-21.5,1-41.3,1.3-44.1.6-5,.7-5,4.9-4.7l4.3.4-.5,29.7M789.8,1212c-.3,35.5-1.5,67-2.6,67-.5,0-12,0-25.5,0h-24.6l.9-45.8c.5-25.2,1.1-46.2,1.4-46.6.3-.5,11.8-.8,25.6-.6l25.1.3-.2,25.6M292.7,1234.1v46.6l-14.6.8c-8,.4-15,.4-15.5,0-.5-.5-.8-21.5-.6-46.8l.3-46,11.7-.7c6.4-.4,13.2-.6,15.2-.6h3.5v46.7M344.3,1233c-.4,25.4-.8,46.3-1.1,46.6-.2.2-9.9.6-21.4.8l-20.9.3.3-45.9c.2-25.3.6-46.4.9-46.9.3-.5,10.1-1,21.7-1h21.1l-.6,46.1M235.4,1189.1c1.1.1-.2,91.3-1.3,92.4-.4.4-11.5.9-24.7,1.2l-23.9.4-.3-46.9-.3-46.9,15.5-.3c13.6-.3,32.4-.2,35,.1M253.8,1189.6c.2.8.3,21.8,0,46.6l-.3,45.2h-10.6l.8-45.8c.5-25.2,1.1-46.1,1.3-46.6.9-1.5,8.3-1,8.7.6" class="st0"></path>
</svg>