<svg viewBox="0 0 1024 1536" version="1.1" xmlns="http://www.w3.org/2000/svg" id="svg">
  
  <defs>
    <style>
      .st0 {
        fill-rule: evenodd;
      }
    </style>
  </defs>
  <path d="M460.7,216.3c-39.4,1.1-47.5,2.5-56.5,9.3-3.2,2.4-6.3,7.8-16.7,29.1-7,14.3-13.7,26.9-14.9,28-1.2,1.1-7.7,3.8-14.5,6.1-16.1,5.5-33.5,11.8-36.2,13.1-1.2.6-11.7,4.4-23.3,8.6-11.6,4.1-22.6,8.1-24.4,8.8-1.8.7-3.5,1.4-3.8,1.5-.3.1-1.3.5-2.2.9-.9.4-11,4.1-22.4,8.2-11.4,4.1-22.9,8.5-25.5,9.7-2.6,1.2-10.6,4.4-17.7,7.3-27.6,10.9-29.4,12.3-37.2,28.1-5.4,11-8.3,20.6-15.4,49.9-3,12.5-6.2,25.2-7,28.2-2,6.8-2.4,8.7-11.6,52.6-11.9,57-13.4,64.7-19.9,98.6-3.3,17.6-6.3,33-6.6,34.1-1.3,5.6-8.7,45.4-13.6,73.2-3,17-6.6,37.5-8.1,45.6-1.5,8.1-5.9,34.4-9.8,58.5-3.9,24.1-7.5,46.2-8.1,49.2-1.8,9.7-8.6,57.6-13.7,97-2.7,21.2-5.4,41.5-5.9,45.2-1.2,8.7-4.8,46.8-7.5,79.4-1.7,20.5-2.9,28.7-6,41.7-8.4,35-16.9,76.6-15.9,77.7.6.6,6.4,2.2,12.8,3.6,10.6,2.3,68.8,15.5,71.4,16.2.6.2,1.8.6,2.7,1,3.4,1.4,43.5,9.6,45.3,9.2,1.5-.3,3.1-6.1,8-29.1,11.8-54.7,10.5-50,34.8-120.3,5.1-14.6,12.6-36.6,16.9-48.8,6.2-18,7.7-21.4,7.7-17.7,0,2.5-.9,40-2.1,83.5-1.2,43.4-2.3,87.7-2.4,98.4l-.3,19.4,10.8,5.6c17.3,8.9,25.2,14,38.5,24.5,36.5,28.8,47.3,36.2,68.9,47.1,24.8,12.4,45.3,17.7,78.5,20.1,44.3,3.2,198.9,2.2,226.5-1.6,38.9-5.3,66.1-17.4,105-47,6.8-5.1,18-13.7,24.9-19,16.5-12.5,24.4-17.7,37.5-24.3l10.8-5.5-.2-12.8c-.1-7-.7-28.2-1.3-47-.6-18.8-1.5-55.9-2.2-82.4-.6-26.5-1.3-51.5-1.5-55.6s-.2-7.1.1-6.9c.3.3,2.6,6.5,5.1,13.9,2.5,7.4,8.9,25.6,14,40.5,5.2,14.9,13.7,39.8,19,55.3,5.3,15.5,9.9,28.9,10.2,29.8.3.9,4.2,18.9,8.7,39.9,4.5,21.1,8.7,38.9,9.3,39.5,1.4,1.4,11.1-.4,36.4-6.5,12.1-2.9,83.8-19.3,94.7-21.6,2.4-.5,2.5-.9,2-5.6-1.1-9.8-15.7-79.2-17-81-1.3-1.8-3.1-15.1-4.4-32.5-2.4-33.1-11.7-119-14-129.5-.6-2.7-4-25.9-7.6-51.5-3.6-25.6-7.7-53.7-9.2-62.3s-4.9-29.4-7.7-46.1c-9.2-55.9-21.6-126.6-30.1-170.7-13-67.6-21.4-109.6-22.8-114.4-.9-3-3.6-15.2-6.1-27.1-13.3-63.6-26-109.8-32.7-118.8-6.7-9-9.9-11.1-27.5-18.2-9.5-3.8-19.9-8.1-23-9.5-3.2-1.4-13.6-5.5-23.3-9.1-9.7-3.6-21.7-8.2-26.8-10.2-5.1-2-18.5-6.9-29.8-10.8s-22.1-7.8-23.8-8.7c-2.8-1.3-39.3-14.1-47.2-16.6-3.2-1-7.6-9-19.7-35.3-10.8-23.5-14.9-27.9-29-31-12.5-2.7-86.3-3.8-144.7-2.2M593.5,225.8c11,1.5,22.8,6.2,22.8,9.2s-.5,2.2-7.9,1.5c-28.6-2.5-44.4-3-95.1-3-52.4,0-85.3,1.1-99.8,3.3-5.1.8-5.3.7-5.3-1.7,0-3.8,9.7-7.8,23.3-9.6,13.1-1.7,148.8-1.5,162.1.3M599.7,239.1c12.7,1.2,15.4,1.7,15.4,3.1,0,3.8-4.8,18.5-8.7,26.9l-4.3,8.9-90.2-.3-90.2-.3-5.3-11.9c-4.8-10.9-6-14.3-7.8-22.3l-.6-2.8,20.8-1.3c11.5-.7,21.8-1.5,23-1.7,6.1-1.1,133.7.4,147.7,1.7M409.9,266.7c11,25.6,31.4,52,56.1,72.7,9.7,8.1,33.5,26.3,37.2,28.3,1.6.9,1.2,1.8-3.5,7.8-2.9,3.7-7.3,9-9.7,11.8-5.9,6.9-21.2,27.4-34.1,45.7l-10.7,15.3-2.2-4.1c-1.2-2.3-4.2-7.8-6.6-12.3-11.2-20.5-27.6-55.5-34.2-73.2-4-10.7-7.6-19.9-8.1-20.5-1.2-1.5-9.1-26.3-12-37.4-1.4-5.4-2.1-10.9-1.8-13.3.3-2.3,5.3-13.8,11.2-25.6l10.7-21.5,1.8,8.5c1,4.7,3.7,12.7,5.9,18M635.1,266.6c8.5,18.2,9.5,21,8.9,24.9-.9,6.8-15.6,53.2-19.6,61.9-.8,1.8-4.3,10.3-7.7,19-5.3,13.5-23.2,50.1-28.6,58.5-.9,1.5-3.5,6-5.6,10.1l-3.9,7.4-6.1-9c-14.6-21.5-28.9-39.9-45.7-58.6-4.8-5.3-8.1-9.9-7.6-10.4.5-.5,9.3-7.1,19.4-14.7,20.2-15.2,22.1-16.8,34.1-28.7,12.4-12.3,18.7-20,26.7-32.5,10-15.7,16.4-29.6,19.7-42.9l2.8-11.3,1.8,3c1,1.6,6.1,12.2,11.3,23.5M598.9,284c0,.6-3.3,5.7-7.3,11.4-10.9,15.5-37.1,41-58.6,57.2-9.7,7.3-18.3,13.6-19,13.8-1.3.5-14-7.9-32.2-21.4-14.3-10.6-38.4-35.2-48.1-49-4.5-6.5-8.3-12.2-8.3-12.7s39-.8,86.7-.7c57,.1,86.7.6,86.7,1.3M373.4,292.7c0,.9.4,2.5,1,3.5,1.2,2.3,3.6,11.2,3.2,11.6-.2.2-8.4,3.1-18.2,6.4-9.8,3.3-18.9,6.6-20.1,7.2-1.2.6-13.6,5-27.6,9.8-14,4.8-26.9,9.4-28.7,10.2s-13.5,5-26,9.3c-12.5,4.3-23.3,8.2-23.8,8.6-.6.5-4.5,2-8.7,3.3-4.2,1.4-13.9,5.1-21.5,8.3-7.7,3.2-14.1,5.7-14.2,5.5-.2-.2-1.7-3.3-3.5-7l-3.2-6.7,9.3-4.3c5.1-2.4,16.8-7.1,26.1-10.5,9.2-3.4,18.8-7,21.1-8.1,6.3-2.7,14.2-5.7,31.4-11.9,8.3-3,16.6-6.2,18.4-7s11.8-4.5,22.2-8.1c10.4-3.6,24.1-8.5,30.4-10.9,14.3-5.4,29.4-10.6,31.2-10.7.7,0,1.4.6,1.4,1.5M667.7,296.4c36.4,12.6,56.8,19.9,63.4,22.5,3.9,1.5,16.6,6.3,28.3,10.7,11.7,4.4,23.4,8.9,26,10.1,2.6,1.2,12.3,4.9,21.5,8.3,17.5,6.5,34.7,14.4,34.7,16s-5.2,11.6-6,12.6c-.2.2-3.8-1.2-8-3-4.3-1.9-13.4-5.6-20.4-8.2-7-2.7-13.7-5.3-14.9-5.9-2.5-1.2-40.7-14.7-78.6-27.7-14.6-5-27.2-9.4-27.9-9.6-.8-.3-1.5-.4-1.7-.3-.2.1-1-.3-1.9-1-.8-.7-9.2-3.8-18.6-6.9-14-4.6-17-6-16.6-7.5.3-1,1.1-4,1.7-6.7,1.9-7.7,2.3-8.7,3.1-8.6.4,0,7.6,2.4,15.9,5.3M479.6,293.2c0,.6,0,8.8,0,18.2v17.1s32.8,0,32.8,0h32.9v-35.8l-32.8-.3c-21.6-.2-32.8,0-32.8.8M541.7,310.5v14.6l-29.4.3-29.4.3v-30.4l29.4.3,29.4.3v14.6M380,313.2c0,2.4,10.8,35,13.6,41.2,1.4,3,4.9,11.6,7.9,19,5.5,13.9,21.8,46.8,34.4,69.7,3.9,7,7,13.3,7,13.9,0,3.5,4.7-1.2,12.7-12.6,5-7.2,13.3-19.1,18.5-26.4l9.5-13.4.7,9.1c.4,5,.8,207.3.8,449.6v440.5c.1,0-6.7-.6-6.7-.6-3.7-.4-17.7-.9-31.2-1.2-31.5-.8-41.3-1.3-55.8-3.4-21.9-3.1-40.9-8.7-56.9-16.8-18.6-9.5-24.2-13-41-25.7-41.1-31.2-48.7-36.2-66.3-43.3l-10.1-4.1.3-19.4c.4-27.5,3-111,4.9-157.1.9-21.5,2.1-70.7,2.8-109.5.7-38.8,1.6-89.7,2.2-113.3.6-23.5,1.5-65.3,2.2-92.7.6-27.4,1.6-64.3,2.3-81.8,1.5-41.6,1.4-50.6-.6-68.8-2.2-20-7.7-57.8-9.8-67.3-.9-4.2-3.3-16.9-5.4-28.2-4.2-23.1-11.3-52.1-14.5-59.3-1.2-2.6-2.5-6.2-3-7.9-.4-1.8-2.4-7.4-4.4-12.4-2-5.1-3.6-9.4-3.6-9.5s4-2.3,8.9-4.6c10.8-5.1,31.6-13,70.3-26.5,15.9-5.5,29.4-10.4,30-10.8.6-.4,12.1-4.4,25.4-8.9,13.3-4.5,25.7-8.9,27.4-9.7,4.2-1.9,24.5-8.9,26.3-9,.7,0,1.4.6,1.4,1.5M659.1,316c7.1,2.4,13.9,4.8,15.1,5.4s12.4,4.5,24.9,8.8c12.5,4.2,24.2,8.4,26,9.2,1.8.8,14.2,5.2,27.6,9.8,13.4,4.6,26.3,9.2,28.7,10.2,2.4,1.1,8.5,3.4,13.6,5.2,8.8,3.1,29.5,11.5,36,14.5,2,1,2.8,1.9,2.3,3-2,4.8-10.7,30.2-13.6,39.6-7.3,24.1-10,37.5-18.3,88.3-1.8,11-4,24.2-4.9,29.3-.9,5.1-2.6,17.9-3.8,28.6-2.1,17.9-2.1,21.9-1.1,53.1.6,18.6,1.6,54.5,2.3,79.8,1.3,52.1,3.9,146.1,5.4,197.8.6,19.1,1.8,67.9,2.7,108.4s2.4,99.8,3.3,131.7c.9,31.9,1.6,60.8,1.6,64.1v6.1s-5.7,1.9-5.7,1.9c-14.4,4.7-34.6,17.5-62.6,39.6-19.4,15.3-27.6,20.8-43.7,29.2-20.5,10.7-34.9,15.2-60.9,19-9,1.3-63.4,3.9-87.8,4.2h-6.5c0,0-.3-449.1-.3-449.1l-.3-449.1,4.7,5.8c8.2,10,26.8,35.9,30.2,41.8,1.8,3.1,3.7,6,4.3,6.3,1.5.9,3.1-1.5,12.4-19.6,4.6-8.9,10.4-19.9,12.9-24.4,4.6-8.2,18-37.2,19.5-42.3.4-1.5,1.2-3,1.6-3.3,1-.7,10.9-28.2,14.7-40.6,2.5-8.3,5.7-16.8,6.4-16.8s6,1.9,13.2,4.3M180.8,369.9c1,2.2,3.3,7.5,5.1,11.7s6.8,17.7,10.9,30c8.3,24.7,12.5,43.7,19.6,88.2,10.6,66.3,11.4,76.8,9.8,124.9-.7,20.7-2,71.1-2.9,111.9-.9,40.8-2.1,87.9-2.7,104.6-.6,16.7-1.7,57.8-2.3,91.4l-1.1,61-7.5,22.4c-4.1,12.3-12.1,35.8-17.9,52.2s-13.1,38.1-16.4,48.2c-3.3,10.1-6.2,18.6-6.4,18.8-.3.4-22.3-4.5-26.5-5.8-.9-.3-17.7-4.1-37.4-8.5-26.8-6-35.7-8.4-35.5-9.5.4-2.3,15.4-66.6,25.9-110.4,5.2-21.8,9.5-40.5,9.5-41.7.1-2.6-1.7-3.6-2.8-1.5-.4.8-4,15.9-7.9,33.5-3.9,17.6-7.6,33-8.2,34.1-.6,1.2-4.7,18.5-9.2,38.5-9.8,43.7-11.1,48.1-13.4,47.3-.9-.3-5.9-1.7-10.9-3.2-7.1-2-9.3-3-9.5-4.6-.3-2.2,3.3-44,5.2-60.1.6-5.1,2.3-20.4,3.8-34.1,3-27.5,10.6-86.9,12.9-101.4.8-5.1,2.7-16.8,4.3-26,3.3-20.2,3.6-21.7,10.5-65.6,3-19.1,5.9-36.1,6.5-37.9.6-1.8,2.8-14,4.9-27.1,6.9-42.7,12.3-73.5,14.5-82.9,1.2-5.1,5.6-28,9.8-50.9,4.2-23,8.1-43,8.6-44.4.6-1.5,3-13.2,5.4-26,7-36.7,19.7-94.3,28.7-130.1,5.7-22.7,16.8-50.9,19.9-50.9s1.7,1.8,2.6,4.1M853.6,378.2c5.1,10.6,12.9,38.5,19.1,68.4.9,4.2,2,8.6,2.6,9.8.6,1.2,3.5,13.9,6.5,28.2,3,14.3,7.2,34.1,9.3,43.9,2.1,9.8,6.7,33,10.3,51.5,3.6,18.5,7.7,39.7,9.2,47.2,10.4,53,23.4,127,36.3,207,3,18.8,6.4,39.8,7.6,46.6,3.6,21.8,13.9,96.6,19.5,141.5,1.8,14.6,5.2,49.8,7.1,73.8l.7,8.8-8,2.5c-4.4,1.4-8.3,2.5-8.7,2.6-.4,0-1.1.4-1.5.9s-1.7.8-2.7.8c-1.5,0-2.6-2.8-5.3-13.8-4.1-16.5-12.6-52.6-18.1-76.6-2.2-9.5-4.3-18.3-4.9-19.5-1.1-2.7-9.7-39.9-9.7-42.1s-2.9-4.4-3.7-3.2c-.3.5,2.5,14.3,6.4,30.7,3.8,16.3,10.1,43.4,14,60.1,3.9,16.7,8.3,35.2,9.9,41.2,5.4,21.3,6,23.6,5.4,24.2-.3.3-16.5,4.1-36.1,8.5-19.5,4.4-36.5,8.4-37.7,8.9-1.2.5-7.2,2.1-13.4,3.4-9.4,2.1-11.4,2.2-12.6,1-.8-.8-5.2-13.2-9.8-27.5-4.6-14.3-8.7-26.5-9.2-27.1-.5-.6-4.6-12.5-9.2-26.6-4.6-14-8.8-26-9.2-26.6-.4-.6-3-8.4-5.8-17.3l-4.9-16.3-1.2-49.9c-.6-27.4-1.6-70.6-2.2-95.9-.6-25.3-1.8-79.2-2.7-119.8-.9-40.5-2.1-79.8-2.7-87.3-1.7-21.9-2.3-53-1.3-61.8,5.2-43.3,10.9-83,15.4-107.1,5.3-28.9,16.7-69.8,24-85.8,1.5-3.3,4.1-9,5.7-12.8,2.9-6.5,3.1-6.7,5.1-5,1.1,1,3.9,5.8,6.3,10.6M534.6,399c2.3,3.6,1,4.8-5,4.8s-10.3,1.2-16.5,2.7c-6.1,1.5-13.8,3-17,3.4l-5.9.7.7-6.8c.8-7.3,2.8-10.7,14.7-24.8l4.9-5.8,11.2,11.7c6.2,6.4,11.9,12.8,12.8,14.2M506.2,383.7c-2.9,2.9-3.6,8.7-1.5,12.6,1.5,2.8,6.7,5.4,9.3,4.7,2.9-.7,6.9-7,6.9-10.6s-5.3-9.3-9.2-9.3-4,1.2-5.5,2.7M515.4,386.4c3.4,3.4,2.7,6.9-2.3,10.6-1.4,1-2.2.8-4.1-.9-2.8-2.6-3.1-7.7-.6-10.2,2.3-2.3,4.4-2.1,7,.5M535.8,854.4l-.3,448.5h-44.4l-.3-443.2c-.2-299.7,0-443.7.8-444.6.6-.7,3.7-1.7,6.8-2.1,3.1-.4,10.3-1.9,16-3.3,9.9-2.5,14-3.3,19.2-3.6l2.4-.2-.3,448.5M443.5,407.7c-.4.4-.7,1.8-.7,3.1s-.8,2.6-2.2,3c-2.2.6-4.3,4.7-4.3,8.5s1.5,3.6,3.3,5.4,3.3,4.2,3.3,5.3.7,2.1,1.6,2.1,1.6-1,1.6-2.7.6-2.7,1.5-2.7c2.2,0,4.9-3.5,5.7-7.4.6-3,.2-4-3.2-7.2-2.2-2-3.9-4.7-3.9-5.9,0-2.2-1.1-2.9-2.5-1.5M578,407.7c-.4.4-.7,1.6-.7,2.7s-1.2,3.2-2.7,4.6c-3.7,3.7-3.7,9.5,0,13.1,1.4,1.4,2.8,3.5,3,4.5.5,2.4,3.1,3.3,3.1,1s1.7-3.5,3.8-5.5c2.4-2.4,3.8-4.8,3.8-6.6s-1.3-4.1-3.8-6.4c-2.1-2-3.8-4.6-3.8-5.8,0-2.2-1.1-2.9-2.5-1.5M449.1,421.4c.4,3.5-3.5,6.6-6.4,5.1-3.3-1.7-3.6-5.2-.9-8.2,2.2-2.3,2.7-2.5,4.7-1.1,1.2.8,2.4,2.7,2.6,4.2M581.8,417.5c2.6,2.3,2.5,6,0,8.4-4.6,4.2-9.4-4-4.9-8.5,2.1-2.1,2.5-2.1,5,0M511.1,496.9c0,1.4-1.2,3-3.2,4.2-4,2.3-5.9,6.7-5.1,11.7.7,4.5,2.4,6.8,5.8,8.1,1.5.6,2.5,1.8,2.5,3.1,0,2.7,2,2.9,3,.3.4-1,2.3-3.4,4.3-5.3,3-2.8,3.6-4.2,3.6-8s-.6-5.2-3.7-8.1c-2-1.9-3.9-4.4-4.1-5.5-.6-2.9-3.1-3.4-3.1-.6M516.5,505.7c1.2,1.2,2.2,3.6,2.2,5.4,0,3.4-3.2,7.6-5.8,7.6s-7.2-4.4-7.2-7.7,3.3-7.5,6.5-7.5,3.1,1,4.3,2.2M581,586.2c-.3.8-.4,37.3-.2,81.1l.3,79.6,3.5,7.2c4.5,9.1,13.9,18.1,22.7,21.7l6.3,2.5h123.6l6.3-2.5c8.8-3.5,18.2-12.5,22.7-21.7l3.5-7.2v-161.6l-94.1-.3c-76.7-.2-94.2,0-94.6,1.1M592.2,608c.2,10.1,0,19-.2,19.8-.4,1.1-1.1,1.1-3.3.1l-2.7-1.3v-37.7l3,.3,3,.3.3,18.4M755,609.6v20.5l-12.7,2.9c-13.2,3-58.8,14.2-62.6,15.3-3.7,1.1-6,.7-26-4.3-10.7-2.7-27.3-6.7-36.9-8.9-9.5-2.2-18.1-4.4-19-4.9-1.4-.7-1.6-4-1.3-21l.3-20.2h158.2v20.5M765.6,608.1l.3,18.5-3.2,1.2c-1.8.7-3.5.9-3.8.6-.9-.9-.7-37.7.2-38.6.4-.4,2-.6,3.5-.5l2.7.3.3,18.5M511.1,625.3c0,1.7-.6,2.8-1.5,2.8s-2.8,1.5-4.3,3.3c-4.1,4.9-3.9,11,.6,15.2,1.9,1.7,3.8,3.1,4.3,3.1s1,1,1,2.2.7,2.2,1.6,2.2,1.6-.9,1.6-1.9c0-1,1.5-3.1,3.3-4.6,5.7-4.7,5.2-15.1-.8-17.8-1.3-.6-2.5-2.2-2.7-3.7-.4-3.7-3-4.3-3-.8M516.8,634.4c4,3.5.9,11-4.6,11s-6.5-2.5-6.5-6.4c0-6.8,5.8-9.2,11.1-4.7M621.3,640c19.6,4.7,39.3,9.6,43.8,10.8s9.3,2.2,10.8,2.2c2.2,0,10.9-2,20.6-4.8,10-2.9,67-16.8,68.9-16.8s.4,25.5.3,56.6l-.3,56.6-2.9,6.3c-4,8.6-12.8,17.1-21,20.4l-6.5,2.6h-119.2l-6.5-3c-10.8-5.1-18.2-13.6-22.1-25.6-2.2-6.6-2.3-9.1-2.3-60.4s.2-53.5.4-53.5,16.4,3.9,36,8.6M511.8,752.5c-.4.4-.7,1.6-.7,2.6s-1,2.2-2.1,2.6c-8.3,2.6-8.6,17-.5,20.1,1.6.6,2.6,1.9,2.6,3.3,0,3,2.6,2.2,3.1-1,.2-1.3,1-2.4,1.8-2.4s2.5-1.3,3.8-3c3.5-4.4,2.5-11.7-2.1-15.5-1.8-1.5-3.4-3.6-3.4-4.6,0-2-1.5-3.3-2.6-2.2M515,761.2c1.7,1.1,3.7,5.2,3.7,7.4s-4.2,6.9-6.7,6.9-6.3-3.9-6.3-7.2c0-5.1,5.8-9.5,9.3-7.1M511.1,883.8c0,1.2-1.2,2.6-3.1,3.3-7.7,3.2-7.3,16.6.5,19.6,1.6.6,2.6,1.9,2.6,3.3,0,3,2.6,2.2,3.1-1,.2-1.3,1-2.4,1.7-2.4,2.6,0,5.2-4.2,5.8-9.2.5-4.6.3-5.2-3.4-8.6-2.2-2-3.9-4.5-3.9-5.4s-.7-1.7-1.6-1.7-1.6.9-1.6,2M516.5,891.5c3.7,3.7,1.9,11.4-3,12.6-3.5.9-7.9-3.3-7.9-7.4s3.4-7.4,6.5-7.4,3.1,1,4.3,2.2M511.1,1010.7c0,1.2-1.4,2.9-3.2,4-7.7,4.6-7.3,15.7.7,19.8,1.3.7,2.4,2.2,2.4,3.5,0,2.9,2.6,2.1,3.1-1,.2-1.3.9-2.4,1.6-2.4,2.2,0,6.2-7,6.2-10.8s-.9-4.5-3.8-7.2c-2.1-2-3.8-4.6-3.8-5.8s-.7-2.2-1.6-2.2-1.6.9-1.6,2.1M516.5,1019.5c6.1,6.1-2.5,15.9-8.9,10.1-4.1-3.7-.9-12.3,4.5-12.3s3.1,1,4.3,2.2M983.1,1115.3c1.4,5.9,1.3,6.1-.9,6.6-4.4,1-29.4,7.1-31,7.5-.9.3-18.9,4.4-40,9.2-21.1,4.8-40.5,9.5-43.1,10.3-7,2.4-7.6,2.2-9.4-4.1-.9-3.1-1.6-5.7-1.4-5.8.1,0,9-2.2,19.7-4.7,10.7-2.5,20.2-4.7,21.1-5,.9-.3,16.5-3.9,34.7-8.1,18.2-4.2,36.5-8.7,40.6-10.1,4.2-1.4,7.7-2.4,7.9-2.3.2.1,1,3,1.8,6.3M55.3,1112.6c4.2,1.2,17.6,4.5,29.8,7.2,12.2,2.7,32,7.3,43.9,10.2,11.9,2.9,25.5,6.1,30.2,7.1,8.3,1.8,8.5,1.9,7.8,4.7-1.6,6.3-3.2,8.3-6.6,8-1.8-.2-4.4-.8-5.9-1.4-1.9-.8-67.5-15.6-82.9-18.8-.6-.1-1.6-.5-2.2-.8s-7.6-2-15.5-3.7c-13.4-2.9-14.4-3.2-13.8-5.3.3-1.2.9-4.1,1.3-6.4.8-4.8.6-4.8,13.9-.8M988,1136.5c1.3,5.7,4.9,22.6,8.1,37.6l5.7,27.3-9.3,2.3c-5.1,1.3-27.9,6.6-50.5,11.9-22.7,5.3-46.2,10.8-52.4,12.2-7.7,1.8-11.3,2.3-11.6,1.4-1.7-5.9-3.9-15.4-9.8-42.9-3.8-17.6-6.8-32-6.7-32.1.5-.4,26.5-6.6,63.6-15.2,21.8-5,40.3-9.4,41.2-9.7,6.8-2.1,18-4.5,18.6-3.9.4.4,1.8,5.3,3.1,11M49.9,1127.9c4.8,1.2,22.8,5.4,40.1,9.2,36.8,8.2,49.3,11.1,51.5,11.8.9.3,5.7,1.5,10.7,2.6,5,1.1,9.3,2.4,9.7,2.7.3.3-2.7,16.4-6.8,35.6-4.1,19.2-7.6,36.1-7.9,37.4-.4,1.8-1.3,2.4-3.3,2.4-2.5,0-12.4-2.2-17.5-3.8-.9-.3-18.9-4.4-40.1-9.2-21.2-4.8-40.7-9.4-43.4-10.2s-8.4-2.4-12.8-3.4c-4.3-1-7.9-2.2-7.9-2.5,0-.4,1.2-6.1,2.7-12.6,2.6-11.5,8.5-38.3,12-54.5,1-4.4,2.3-7.9,3-7.8.7,0,5.2,1,10,2.2M222.9,1214.4c14.1,4.8,31.9,15.9,56.8,35.3,23,17.9,32.6,24.2,49.9,33,17,8.6,30.3,13.3,47.2,16.5,6.3,1.2,13.6,2.6,16.3,3.2,8.7,1.9,34.5,3.2,63.7,3.2h28.5v10l-30.1-.7c-39.3-.9-48.8-1.5-66.4-4-15.3-2.2-27.7-5.2-35.1-8.5-2.4-1.1-8.8-3.8-14.2-6-5.3-2.2-11.9-5.3-14.6-6.8-12.5-7.2-35.7-23.4-51.3-35.7-25-19.7-38.5-28.5-53.1-34.4-3.2-1.3-4.1-2.2-4.1-4.4s.2-2.8.4-2.8,3,.9,6.2,2M807,1215.5c0,2.7-.6,3.3-4.6,4.6-2.5.8-8.2,3.7-12.7,6.4-4.5,2.7-9.4,5.5-10.9,6.3-1.5.8-8.6,6-15.7,11.7-17.4,13.7-41.8,32-45.7,34.2-1.7,1-7.5,4.5-12.9,7.9-5.4,3.3-15.1,8.3-21.7,11-6.6,2.7-12.8,5.4-13.8,5.9-3.1,1.7-23.4,6.5-34.5,8.2-10,1.5-59.1,3.7-84.2,3.7h-11.1s0-4.2,0-4.2v-4.3l6.8-.6c3.7-.3,21.9-.9,40.4-1.2,18.5-.3,36-1,39-1.6,3-.5,9.1-1.5,13.5-2.2,23.8-3.6,45.6-11.3,65-22.7,11.8-7,34.8-23.3,49.3-35,7.6-6.1,24.5-18,31.5-22.1,4.5-2.7,19.4-9,21.4-9.1.4,0,.8,1.3.8,3M536,1311.1v4.3h-45.5v-4.2c0-2.3.2-4.4.4-4.6s10.5-.3,22.8-.1l22.3.3v4.3" class="st0"></path>
</svg>