<svg xmlns="http://www.w3.org/2000/svg" height="1536" width="1024" version="1.1" id="svg"><path fill-rule="evenodd" fill="black" stroke="none" d="M325.407 455.043 C 312.673 457.529,305.789 464.219,303.150 476.675 C 302.547 479.522,299.815 487.898,297.079 495.288 C 288.592 518.210,281.092 544.172,277.313 563.701 L 276.500 567.903 266.000 563.367 C 255.365 558.773,229.042 547.246,203.511 536.004 C 195.816 532.616,183.441 528.009,176.011 525.767 C 162.898 521.811,162.058 521.688,147.500 521.608 C 134.170 521.534,131.880 521.774,126.934 523.765 C 123.873 524.998,120.192 527.242,118.754 528.753 C 114.243 533.492,108.077 545.160,105.412 554.000 C 104.002 558.675,97.759 577.800,91.537 596.500 C 78.839 634.665,75.539 646.255,73.453 660.000 C 71.672 671.742,71.650 688.066,73.403 698.000 C 74.131 702.125,74.514 706.065,74.254 706.755 C 73.995 707.445,72.216 708.753,70.302 709.661 C 68.388 710.569,65.624 713.121,64.161 715.332 L 61.500 719.352 61.222 767.719 C 60.958 813.704,61.040 816.301,62.879 820.460 C 67.561 831.043,77.795 841.000,83.992 841.000 C 85.472 841.000,87.594 842.503,89.870 845.162 C 94.163 850.176,103.998 856.721,108.514 857.569 C 110.316 857.907,112.685 857.704,113.779 857.118 C 115.498 856.199,116.121 856.585,118.345 859.946 C 123.199 867.280,133.092 872.653,140.029 871.723 C 143.930 871.200,144.376 871.427,149.313 876.459 C 155.202 882.460,160.976 885.025,173.233 887.085 C 180.577 888.319,181.076 888.282,183.231 886.349 C 184.479 885.231,188.200 883.260,191.500 881.970 C 194.800 880.681,201.517 877.685,206.427 875.313 C 211.338 872.941,215.923 871.000,216.618 871.000 C 218.763 871.000,232.032 882.269,249.652 899.056 C 272.277 920.611,279.000 927.783,279.001 930.364 C 279.002 934.704,284.973 945.133,290.741 950.872 C 296.687 956.788,306.786 961.787,310.169 960.489 C 311.284 960.061,312.494 961.168,314.322 964.286 C 319.154 972.531,331.312 979.377,341.261 979.455 C 345.702 979.490,347.141 979.877,347.545 981.145 C 348.550 984.304,358.105 992.154,364.702 995.241 C 371.388 998.370,379.511 999.448,383.107 997.684 C 384.321 997.089,385.030 997.658,386.004 1000.009 C 387.814 1004.380,392.267 1007.437,401.176 1010.425 C 410.636 1013.598,415.804 1013.729,419.418 1010.886 C 422.296 1008.622,422.694 1008.729,424.407 1012.232 C 425.869 1015.223,430.461 1017.369,442.000 1020.455 C 453.656 1023.573,459.903 1023.178,463.168 1019.117 C 464.703 1017.208,465.405 1016.876,465.766 1017.892 C 466.901 1021.084,473.422 1027.024,476.848 1027.987 C 481.526 1029.303,499.958 1030.478,503.190 1029.667 C 504.621 1029.308,506.458 1027.565,507.557 1025.524 C 508.601 1023.586,509.825 1022.000,510.278 1022.000 C 510.731 1022.000,511.715 1023.462,512.464 1025.250 C 514.096 1029.146,517.488 1032.484,521.274 1033.918 C 522.799 1034.496,530.375 1035.484,538.108 1036.113 L 552.169 1037.258 556.930 1032.569 L 561.691 1027.880 563.556 1030.690 C 564.582 1032.235,565.515 1034.085,565.630 1034.800 C 566.407 1039.659,572.256 1041.153,593.442 1041.901 L 610.383 1042.500 611.942 1039.624 C 613.994 1035.836,617.961 1031.000,619.015 1031.000 C 619.476 1031.000,621.066 1033.480,622.550 1036.512 C 624.469 1040.435,625.973 1042.206,627.766 1042.656 C 631.448 1043.580,660.622 1042.341,666.697 1041.002 C 671.192 1040.012,672.406 1039.185,675.687 1034.883 C 679.317 1030.123,679.517 1030.008,680.342 1032.205 C 682.161 1037.047,682.714 1037.501,687.166 1037.797 C 692.586 1038.158,725.732 1031.777,735.681 1028.457 C 742.703 1026.113,760.000 1017.980,766.988 1013.736 C 778.495 1006.746,787.894 996.888,790.635 988.934 C 791.501 986.419,791.988 976.280,792.197 956.391 C 792.474 929.949,792.344 927.203,790.664 924.000 C 789.655 922.075,787.630 919.483,786.164 918.240 L 783.500 915.980 787.000 916.740 C 788.925 917.158,793.864 917.500,797.976 917.500 L 805.452 917.500 807.824 913.209 C 810.631 908.130,812.181 908.689,813.868 915.391 C 814.468 917.772,815.639 920.285,816.471 920.976 C 817.614 921.925,823.108 922.132,838.978 921.826 C 862.283 921.376,861.229 921.696,864.657 914.032 C 866.137 910.725,866.271 910.656,867.558 912.532 C 872.069 919.111,873.673 921.017,875.108 921.501 C 879.808 923.089,911.346 916.218,926.391 910.328 C 951.972 900.313,962.103 892.002,965.416 878.313 C 966.601 873.415,968.509 837.867,968.282 824.913 C 968.203 820.358,966.107 816.316,961.155 811.161 C 956.506 806.323,956.270 805.286,955.082 784.477 C 954.075 766.834,952.453 760.672,946.403 751.500 C 937.945 738.678,930.930 734.028,887.000 712.126 C 845.284 691.328,832.423 684.600,817.000 675.508 C 811.225 672.103,802.900 667.385,798.500 665.022 C 794.100 662.659,786.402 657.719,781.394 654.044 C 776.386 650.369,765.586 643.458,757.394 638.686 C 749.202 633.914,741.717 629.399,740.760 628.652 C 739.803 627.905,737.918 624.803,736.572 621.758 C 734.179 616.348,733.957 616.160,726.812 613.482 C 720.159 610.989,718.688 609.883,710.500 601.217 C 705.550 595.978,697.955 587.149,693.623 581.596 C 687.815 574.151,684.138 570.482,679.623 567.624 C 673.206 563.562,660.401 551.078,635.712 524.816 C 618.477 506.482,613.654 503.289,604.785 504.339 C 592.003 505.853,577.776 516.366,562.326 535.714 L 554.968 544.928 545.734 539.446 C 532.280 531.458,501.779 515.634,484.502 507.679 C 446.210 490.048,387.323 466.880,362.497 459.678 C 346.458 455.026,333.679 453.429,325.407 455.043 M353.500 464.970 C 397.049 476.747,461.854 503.380,519.750 533.294 C 536.938 542.175,551.000 549.999,551.000 550.681 C 551.000 551.364,550.048 552.809,548.885 553.892 L 546.770 555.863 537.635 550.855 C 519.906 541.136,473.098 519.094,445.755 507.589 C 396.712 486.953,363.363 475.884,344.311 473.916 C 333.009 472.749,330.449 473.364,329.411 477.498 C 329.011 479.091,329.511 481.078,330.849 483.219 C 333.836 488.000,352.145 505.634,362.000 513.222 C 366.675 516.822,373.650 522.576,377.500 526.009 C 383.558 531.412,407.888 549.995,423.500 561.144 C 437.651 571.249,485.754 600.049,521.000 619.519 C 532.825 626.051,542.651 631.495,542.836 631.617 C 543.593 632.116,521.320 654.000,520.054 654.000 C 519.299 654.000,512.566 650.712,505.091 646.694 C 497.616 642.676,490.375 638.807,489.000 638.098 C 486.465 636.789,467.243 615.711,456.080 602.000 C 443.837 586.962,442.002 585.157,435.818 582.067 C 430.642 579.480,428.531 579.000,422.340 579.000 C 418.229 579.000,415.000 579.430,415.000 579.977 C 415.000 580.514,413.895 581.678,412.544 582.563 C 410.225 584.083,409.820 584.026,405.294 581.556 C 398.895 578.063,384.870 567.740,369.814 555.441 C 363.041 549.909,351.200 540.234,343.500 533.941 C 326.296 519.882,311.576 505.838,308.448 500.501 C 306.182 496.635,306.149 496.281,307.517 490.497 C 308.297 487.198,309.438 481.885,310.051 478.690 C 313.123 462.693,327.865 458.038,353.500 464.970 M354.792 482.588 C 365.759 484.848,377.947 488.892,406.500 499.745 C 433.341 509.948,442.597 513.924,484.621 533.297 C 514.184 546.926,538.660 559.086,541.965 561.785 L 544.064 563.500 541.516 569.982 C 535.534 585.196,534.648 600.317,538.937 614.000 C 542.190 624.377,544.005 624.669,518.500 610.721 C 494.849 597.786,448.228 569.282,426.131 554.244 C 404.905 539.800,377.319 518.850,366.996 509.337 C 362.319 505.027,355.630 499.255,352.130 496.511 C 346.172 491.840,340.000 484.491,340.000 482.070 C 340.000 480.542,345.860 480.748,354.792 482.588 M308.783 511.147 C 314.569 518.504,315.017 519.427,314.452 522.818 C 314.115 524.843,311.799 536.581,309.306 548.902 C 305.283 568.783,304.879 571.963,305.715 577.152 C 306.375 581.250,306.334 582.999,305.578 582.998 C 304.398 582.996,287.016 574.278,285.661 573.008 C 285.199 572.575,285.297 568.333,285.878 563.581 C 287.580 549.667,299.969 502.833,301.882 503.079 C 302.222 503.123,305.327 506.753,308.783 511.147 M614.290 514.125 C 618.386 516.192,633.343 530.866,644.741 544.000 C 647.844 547.575,653.760 553.974,657.888 558.220 C 662.016 562.466,665.192 566.104,664.947 566.304 C 664.701 566.504,658.777 568.314,651.783 570.326 C 632.976 575.735,595.878 592.091,588.413 598.263 C 586.811 599.588,580.100 604.426,573.500 609.014 C 566.900 613.602,559.393 619.120,556.817 621.278 C 554.057 623.590,551.644 624.898,550.942 624.464 C 550.287 624.060,548.370 620.752,546.683 617.114 C 543.976 611.279,543.566 609.195,543.205 599.424 C 542.729 586.549,544.142 579.546,549.514 568.172 C 553.755 559.194,562.394 545.762,569.699 536.789 C 576.222 528.777,590.313 516.668,596.247 513.974 C 601.925 511.397,609.002 511.456,614.290 514.125 M360.500 556.543 C 396.745 584.263,399.112 586.000,400.643 586.000 C 402.952 586.000,402.149 587.759,398.750 590.148 C 395.087 592.722,372.127 611.805,367.451 616.162 C 365.560 617.924,364.041 618.650,363.451 618.075 C 362.928 617.565,355.300 612.936,346.500 607.788 C 337.700 602.640,326.058 595.138,320.628 591.116 L 310.756 583.803 311.259 572.652 C 311.578 565.592,312.738 557.464,314.420 550.500 C 319.545 529.285,320.252 526.494,320.692 525.735 C 320.937 525.314,324.143 527.600,327.818 530.814 C 331.493 534.028,346.200 545.606,360.500 556.543 M162.687 530.490 C 192.433 537.497,264.246 568.925,309.688 594.821 C 317.285 599.150,328.450 605.296,334.500 608.479 C 340.550 611.662,348.960 616.258,353.188 618.692 L 360.876 623.117 356.828 626.775 L 352.780 630.432 348.140 627.859 C 345.588 626.444,337.875 622.011,331.000 618.009 C 317.443 610.117,241.435 571.717,226.000 564.962 C 193.943 550.932,155.561 539.009,142.500 539.024 C 132.346 539.035,130.100 542.848,134.041 553.381 C 140.557 570.795,174.191 609.244,203.843 633.173 C 210.804 638.791,219.285 645.959,222.688 649.102 C 226.092 652.245,232.617 657.644,237.188 661.099 C 241.760 664.555,252.025 672.578,260.000 678.929 C 272.994 689.277,283.150 696.634,319.352 721.924 C 325.197 726.008,330.897 730.325,332.018 731.519 L 334.056 733.689 329.278 737.400 C 326.650 739.442,320.296 745.024,315.158 749.806 C 310.019 754.588,305.436 758.500,304.973 758.500 C 303.302 758.500,255.989 720.688,233.000 700.980 C 184.014 658.986,139.025 615.183,123.832 594.692 C 116.500 584.804,110.000 571.655,110.000 566.712 C 110.000 559.211,118.584 539.675,124.296 534.175 C 129.733 528.941,133.857 527.860,146.000 528.489 C 151.775 528.788,159.284 529.688,162.687 530.490 M156.473 549.688 C 185.206 555.220,214.074 567.009,278.000 599.319 C 333.028 627.131,348.000 635.051,348.000 636.349 C 348.000 637.027,345.759 641.131,343.019 645.470 C 335.577 657.256,330.594 671.828,329.312 685.562 C 328.981 689.103,328.389 692.000,327.995 692.000 C 327.602 692.000,321.254 689.126,313.890 685.613 C 306.525 682.101,293.525 675.978,285.000 672.007 C 249.586 655.513,236.330 648.141,220.033 635.879 C 191.319 614.275,183.140 606.658,160.573 580.500 C 148.601 566.624,140.000 553.023,140.000 547.969 C 140.000 547.026,145.778 547.628,156.473 549.688 M683.614 581.250 C 691.482 589.293,696.006 594.641,695.994 595.885 C 695.991 596.223,692.306 596.647,687.805 596.828 C 673.461 597.402,654.262 603.337,638.500 612.069 C 624.735 619.695,616.326 626.276,613.859 631.352 C 611.813 635.564,611.804 635.772,613.551 638.437 C 615.587 641.545,618.856 643.112,621.732 642.360 C 622.803 642.080,626.922 642.522,630.886 643.342 C 635.375 644.271,639.158 644.528,640.918 644.024 C 644.266 643.063,658.966 634.414,667.677 628.279 C 676.587 622.003,681.447 620.593,691.675 621.315 C 699.783 621.887,700.116 621.826,700.958 619.610 C 701.439 618.346,703.271 616.716,705.030 615.987 C 707.903 614.798,709.110 614.947,716.865 617.452 C 721.614 618.986,726.086 620.711,726.803 621.287 C 727.520 621.862,729.901 625.406,732.095 629.163 C 735.089 634.289,737.382 636.829,741.292 639.350 C 744.156 641.197,747.256 643.562,748.180 644.605 C 749.806 646.441,749.708 646.494,745.180 646.226 C 742.606 646.074,733.588 645.005,725.141 643.852 L 709.782 641.756 707.369 644.358 C 706.042 645.789,700.578 650.285,695.228 654.349 C 689.878 658.412,680.775 665.885,675.000 670.954 C 663.939 680.663,650.017 691.000,648.001 691.000 C 647.344 691.000,643.978 688.413,640.520 685.250 C 626.686 672.597,604.237 656.881,582.836 644.865 C 577.701 641.982,572.695 638.808,571.711 637.812 C 569.538 635.611,563.988 635.438,560.099 637.449 C 554.239 640.479,548.000 649.771,548.000 655.468 C 548.000 657.502,547.508 658.000,545.500 658.000 C 544.125 658.000,543.000 658.412,543.000 658.916 C 543.000 660.397,550.019 665.500,556.624 668.822 C 559.992 670.516,563.000 672.558,563.308 673.359 C 563.615 674.161,567.159 676.935,571.184 679.524 C 575.208 682.113,580.300 685.689,582.500 687.472 C 589.666 693.278,603.370 702.484,609.237 705.431 C 612.392 707.017,615.741 709.162,616.679 710.198 C 618.304 711.993,618.212 712.254,614.747 715.719 L 611.110 719.356 605.805 715.837 C 602.887 713.901,595.573 709.273,589.551 705.552 C 577.068 697.839,567.615 690.839,550.559 676.680 C 543.991 671.228,536.229 665.180,533.309 663.242 C 530.200 661.178,528.000 658.978,528.000 657.934 C 528.000 653.928,565.001 622.723,588.000 607.333 C 613.094 590.540,654.971 573.251,671.022 573.055 C 675.392 573.002,675.817 573.278,683.614 581.250 M110.730 584.803 C 113.255 589.111,113.302 589.476,112.083 595.383 C 111.389 598.747,107.305 612.075,103.007 625.000 C 96.590 644.297,94.639 651.728,92.096 666.551 C 88.419 687.988,88.192 697.644,91.106 708.590 C 94.714 722.141,94.717 722.096,90.530 717.500 C 88.527 715.300,85.527 710.702,83.864 707.281 C 81.173 701.746,80.732 699.506,79.855 686.905 C 79.040 675.197,79.151 670.909,80.494 662.124 C 83.245 644.137,86.945 630.382,95.055 608.000 C 99.340 596.175,103.143 585.150,103.506 583.500 C 104.762 577.801,104.868 577.646,106.569 579.058 C 107.420 579.763,109.292 582.349,110.730 584.803 M433.349 587.575 C 436.974 589.387,444.416 597.716,463.216 621.000 C 479.109 640.683,484.000 647.040,484.000 648.012 C 484.000 648.410,481.188 649.521,477.750 650.479 C 468.662 653.013,452.714 659.122,442.971 663.800 C 426.533 671.695,356.824 716.993,345.365 727.226 C 343.249 729.115,343.213 729.107,341.246 726.316 C 336.565 719.671,334.237 702.797,335.948 687.917 C 338.884 662.394,349.203 644.362,375.108 619.487 C 391.256 603.981,403.133 595.432,416.954 589.365 C 425.418 585.649,428.765 585.284,433.349 587.575 M129.266 612.250 C 145.420 632.746,197.208 680.553,263.342 736.020 C 274.804 745.634,287.485 755.975,291.520 759.000 C 298.980 764.592,300.183 766.000,297.500 766.000 C 296.675 766.000,296.000 766.188,296.000 766.418 C 296.000 766.648,295.726 767.551,295.391 768.424 C 294.932 769.619,296.228 770.669,300.641 772.680 C 306.937 775.549,336.883 795.263,350.304 805.374 C 354.812 808.770,364.982 816.032,372.905 821.511 C 380.828 826.991,389.445 833.392,392.052 835.737 C 398.410 841.453,400.470 841.311,406.695 834.729 C 409.437 831.829,411.891 828.828,412.147 828.058 C 412.489 827.032,416.056 828.611,425.557 833.997 C 441.897 843.260,444.891 845.033,453.500 850.546 C 461.073 855.396,470.265 860.000,472.375 860.000 C 473.098 860.000,474.538 860.937,475.575 862.083 C 477.573 864.291,481.068 865.995,490.000 869.119 C 493.025 870.177,497.750 872.155,500.500 873.516 C 506.692 876.580,526.500 884.527,534.316 887.083 C 537.515 888.130,543.301 890.376,547.174 892.076 C 551.046 893.776,556.754 895.414,559.858 895.715 C 562.961 896.017,566.242 896.908,567.149 897.696 C 569.524 899.757,578.634 901.974,584.785 901.988 C 587.816 901.995,591.062 902.650,592.395 903.523 C 594.898 905.163,605.231 907.509,616.500 908.996 C 620.350 909.503,624.994 910.365,626.819 910.910 C 630.812 912.101,641.247 912.584,642.763 911.647 C 643.359 911.278,645.344 911.849,647.173 912.916 C 652.066 915.767,666.090 916.826,669.486 914.601 C 671.865 913.042,672.167 913.062,674.755 914.943 C 676.937 916.529,679.243 916.967,686.000 917.079 C 722.560 917.688,721.517 917.733,724.679 915.395 C 726.238 914.243,729.760 912.982,732.507 912.594 C 739.190 911.648,746.833 907.855,752.722 902.560 C 755.382 900.168,759.229 897.513,761.270 896.661 C 763.311 895.808,766.107 893.983,767.484 892.607 L 769.988 890.103 770.459 892.302 C 770.719 893.511,771.658 900.472,772.548 907.772 L 774.164 921.044 771.589 925.438 C 763.897 938.563,741.043 950.212,708.880 957.402 C 694.147 960.696,678.761 961.966,653.500 961.976 C 624.989 961.986,596.405 959.934,561.993 955.406 C 542.791 952.879,535.110 951.625,501.500 945.530 C 465.173 938.942,456.682 937.150,438.000 932.131 C 412.760 925.349,402.652 922.009,384.244 914.364 C 366.979 907.193,359.313 903.256,342.000 892.667 C 322.767 880.905,311.033 871.534,273.542 838.000 C 239.584 807.626,225.813 797.725,191.500 779.015 C 182.150 773.916,170.225 767.373,165.000 764.475 C 159.775 761.577,149.200 756.081,141.500 752.264 C 118.525 740.872,107.236 733.538,104.104 727.969 C 100.813 722.117,96.914 707.049,96.293 697.780 C 95.119 680.277,101.054 649.037,110.500 623.000 C 114.191 612.825,117.441 603.487,117.722 602.250 C 118.003 601.013,118.543 600.000,118.922 600.000 C 119.301 600.000,123.956 605.513,129.266 612.250 M703.750 605.157 C 705.538 606.261,707.000 607.316,707.000 607.504 C 707.000 607.691,704.228 609.229,700.840 610.922 C 696.150 613.266,693.337 614.000,689.050 614.000 C 679.227 614.000,672.455 616.462,661.154 624.142 C 642.481 636.831,635.198 639.088,626.158 634.986 L 621.815 633.015 626.435 628.713 C 628.976 626.346,636.780 621.294,643.778 617.486 C 654.831 611.471,658.599 610.009,672.500 606.350 C 690.363 601.648,697.614 601.371,703.750 605.157 M575.840 647.078 C 581.679 649.995,583.635 652.000,580.644 652.000 C 578.323 652.000,570.314 658.751,567.927 662.719 C 566.676 664.798,565.513 666.681,565.341 666.902 C 564.761 667.651,553.909 659.927,553.296 658.328 C 551.690 654.143,561.384 644.000,566.990 644.000 C 568.470 644.000,572.452 645.385,575.840 647.078 M771.411 654.898 C 774.201 657.986,772.530 658.695,768.231 656.248 C 765.622 654.763,764.401 653.317,764.172 651.438 L 763.843 648.752 766.672 650.768 C 768.227 651.877,770.360 653.735,771.411 654.898 M733.628 652.043 C 743.367 653.166,752.498 653.830,753.919 653.518 C 756.121 653.034,757.541 654.001,763.502 660.038 C 772.608 669.261,779.115 674.032,804.500 690.094 C 823.749 702.274,866.605 724.847,882.495 731.175 C 892.086 734.994,907.268 743.337,916.349 749.778 C 927.971 758.020,928.330 758.461,926.436 762.123 C 923.172 768.436,916.790 770.406,892.721 772.531 C 875.210 774.076,873.740 774.060,855.000 772.112 C 796.802 766.064,734.306 745.334,680.500 714.231 C 673.350 710.098,664.462 704.960,660.750 702.813 C 657.038 700.667,654.000 698.705,654.000 698.453 C 654.000 697.820,659.708 692.758,671.500 682.934 C 677.000 678.352,685.325 671.388,690.000 667.459 C 701.489 657.803,712.131 650.160,714.211 650.072 C 715.152 650.033,723.890 650.919,733.628 652.043 M498.744 658.750 C 504.385 663.566,514.000 675.348,514.000 677.443 C 514.000 678.072,511.637 679.085,508.750 679.693 C 502.295 681.052,480.311 688.953,469.500 693.799 C 456.478 699.637,427.394 717.535,412.750 728.724 C 407.756 732.539,407.000 733.560,407.000 736.488 C 407.000 739.359,407.657 740.302,411.441 742.856 C 414.117 744.661,416.031 745.407,416.256 744.731 C 416.527 743.919,418.679 743.999,424.065 745.022 C 435.442 747.184,438.255 746.926,443.196 743.268 C 447.354 740.190,474.134 722.099,476.820 720.554 C 479.992 718.730,490.753 717.223,495.027 718.005 C 500.220 718.955,502.726 717.940,503.579 714.543 C 504.431 711.148,515.818 700.530,520.000 699.230 C 527.599 696.869,529.440 696.868,533.714 699.218 C 535.996 700.473,545.365 708.689,554.534 717.475 C 570.853 733.112,571.145 733.464,568.353 734.157 C 564.079 735.217,541.739 737.861,531.500 738.519 C 516.694 739.469,516.682 739.474,510.308 746.171 C 495.131 762.117,479.128 775.610,451.568 795.697 L 444.636 800.750 440.242 798.414 C 437.825 797.129,431.945 792.536,427.174 788.207 C 422.403 783.878,415.986 778.348,412.913 775.918 C 409.840 773.488,404.215 768.995,400.413 765.934 C 392.519 759.577,377.696 749.929,367.667 744.618 C 358.841 739.945,353.371 739.745,346.886 743.857 C 341.445 747.308,336.102 753.495,335.322 757.250 C 335.007 758.763,334.595 760.000,334.405 760.000 C 334.216 760.000,332.458 759.100,330.500 758.000 C 326.051 755.501,322.995 755.399,323.015 757.750 C 323.024 758.712,323.361 759.967,323.765 760.539 C 325.006 762.292,336.279 769.585,342.327 772.547 C 345.477 774.089,350.292 777.497,353.028 780.120 C 355.764 782.744,361.382 787.433,365.513 790.542 C 369.643 793.651,373.580 796.966,374.261 797.910 C 374.943 798.854,378.826 802.405,382.891 805.802 C 389.729 811.516,390.560 811.934,393.984 811.387 C 397.417 810.838,398.095 811.183,403.316 816.147 L 408.947 821.500 404.052 826.852 L 399.158 832.204 393.274 827.308 C 390.038 824.615,384.132 820.407,380.150 817.956 C 372.061 812.978,362.693 806.353,351.540 797.721 C 347.432 794.543,340.959 790.043,337.154 787.721 C 319.400 776.889,308.160 768.745,308.728 767.124 C 309.968 763.578,314.495 758.659,319.411 755.514 C 322.258 753.693,325.209 751.453,325.970 750.537 C 329.035 746.843,400.225 697.606,421.015 684.800 C 441.963 671.897,456.867 664.727,478.000 657.386 C 490.814 652.934,492.026 653.014,498.744 658.750 M515.000 659.428 C 518.025 661.309,523.425 664.655,527.000 666.863 C 530.575 669.072,536.974 674.029,541.220 677.880 C 551.966 687.626,566.131 698.187,585.215 710.683 C 594.172 716.548,603.189 722.844,605.253 724.673 C 607.317 726.503,609.706 728.000,610.563 728.000 C 611.419 728.000,614.499 725.750,617.406 723.000 C 620.314 720.250,623.103 718.000,623.605 718.000 C 625.095 718.000,634.304 723.063,637.000 725.365 C 639.925 727.863,641.222 728.634,654.500 735.767 C 660.000 738.722,666.075 742.652,668.000 744.502 C 669.925 746.352,672.850 748.160,674.500 748.521 C 677.471 749.170,685.028 752.526,700.500 760.066 C 709.331 764.370,721.744 769.484,735.500 774.486 C 740.450 776.286,745.759 778.260,747.299 778.873 C 748.838 779.486,752.438 780.416,755.299 780.940 C 758.159 781.464,764.550 783.058,769.500 784.482 C 774.450 785.907,779.834 786.894,781.465 786.678 C 783.493 786.408,785.918 787.199,789.136 789.178 C 792.865 791.473,795.050 792.085,799.670 792.128 C 802.877 792.157,808.194 793.081,811.486 794.181 C 815.467 795.511,818.731 795.979,821.233 795.579 C 824.161 795.111,826.133 795.573,830.140 797.668 C 835.757 800.605,845.720 802.072,846.915 800.137 C 847.408 799.340,849.143 799.655,852.815 801.206 C 857.573 803.217,858.592 803.307,864.759 802.271 C 869.492 801.475,873.123 801.439,876.947 802.150 C 879.943 802.707,884.668 802.933,887.447 802.652 C 890.226 802.372,896.860 801.715,902.189 801.192 C 907.518 800.669,914.268 799.324,917.189 798.203 C 920.110 797.082,924.379 795.669,926.676 795.064 C 928.973 794.459,933.181 792.397,936.027 790.482 C 938.902 788.547,942.457 787.000,944.029 787.000 C 946.717 787.000,946.893 787.284,947.611 792.750 C 948.027 795.913,948.396 802.132,948.433 806.571 C 948.494 813.952,948.257 814.961,945.653 818.382 C 940.077 825.706,923.670 835.320,911.468 838.413 C 901.044 841.055,877.076 844.096,862.000 844.690 C 838.454 845.617,774.264 840.072,756.000 835.534 C 752.975 834.783,748.175 833.868,745.332 833.501 C 741.609 833.021,737.555 831.278,730.832 827.268 C 725.700 824.206,714.525 817.793,706.000 813.017 C 670.865 793.334,656.046 784.365,627.500 765.505 C 591.110 741.463,583.060 735.075,557.928 710.297 C 545.779 698.318,537.604 691.000,536.375 691.000 C 534.376 691.000,525.809 681.028,515.444 666.635 C 512.725 662.859,509.883 658.922,509.128 657.885 C 507.123 655.131,508.795 655.570,515.000 659.428 M594.140 660.593 C 597.940 663.119,602.215 665.498,603.641 665.879 C 606.122 666.543,605.983 666.727,600.366 670.208 C 597.140 672.208,592.949 675.454,591.054 677.422 C 589.158 679.390,587.203 681.000,586.709 681.000 C 584.499 681.000,572.000 671.605,572.000 669.944 C 572.000 667.403,576.691 662.152,581.926 658.832 C 584.382 657.274,586.580 656.000,586.811 656.000 C 587.042 656.000,590.340 658.067,594.140 660.593 M784.434 663.050 C 790.827 666.658,792.467 668.378,791.329 670.285 C 789.295 673.694,776.069 665.512,777.533 661.750 C 778.399 659.525,778.082 659.465,784.434 663.050 M276.806 675.854 C 289.288 681.824,305.350 689.092,312.500 692.005 C 319.650 694.918,326.009 697.694,326.630 698.174 C 327.252 698.654,328.532 703.199,329.475 708.273 C 330.418 713.348,331.412 718.320,331.685 719.322 C 332.159 721.066,332.037 721.071,328.840 719.437 C 324.673 717.306,311.711 708.427,293.500 695.229 C 285.800 689.649,274.600 681.577,268.612 677.292 C 256.591 668.689,252.084 665.079,253.306 665.032 C 253.750 665.014,264.325 669.884,276.806 675.854 M616.673 675.612 C 621.539 679.253,624.000 681.771,624.000 683.108 C 624.000 683.507,620.360 686.384,615.911 689.501 C 606.822 695.870,606.277 695.881,597.959 689.856 C 593.292 686.474,593.002 684.308,596.750 680.800 C 600.055 677.707,609.032 672.046,610.673 672.019 C 611.319 672.009,614.019 673.626,616.673 675.612 M803.736 675.506 C 808.043 677.969,808.974 678.987,808.986 681.250 C 808.994 682.763,808.768 684.000,808.485 684.000 C 808.202 684.000,805.502 682.607,802.485 680.905 C 797.753 678.234,797.000 677.399,797.000 674.821 C 797.000 673.178,797.337 671.986,797.750 672.172 C 798.163 672.359,800.856 673.859,803.736 675.506 M823.423 687.087 C 830.867 691.102,832.101 692.714,830.122 695.837 C 829.443 696.908,828.307 696.681,824.388 694.686 C 818.985 691.936,815.587 688.677,814.548 685.250 C 813.608 682.150,814.684 682.373,823.423 687.087 M523.965 687.934 C 525.424 690.662,525.291 690.999,522.750 691.009 C 519.057 691.025,509.917 696.905,503.288 703.530 L 497.076 709.739 489.288 710.211 C 478.364 710.874,468.844 715.044,458.346 723.764 C 453.861 727.489,446.272 732.685,441.483 735.309 C 433.247 739.821,432.576 740.018,429.137 738.922 C 423.132 737.010,418.997 734.841,419.055 733.636 C 419.143 731.835,423.866 728.548,436.627 721.408 C 443.157 717.755,452.442 712.066,457.259 708.767 C 466.308 702.570,481.638 695.244,495.387 690.545 C 505.131 687.214,509.875 686.250,517.215 686.110 C 521.909 686.020,523.114 686.345,523.965 687.934 M635.750 690.055 C 637.538 691.731,639.000 693.499,639.000 693.985 C 639.000 695.228,623.873 706.000,622.126 706.000 C 620.376 706.000,614.000 701.265,614.000 699.965 C 614.000 697.135,627.256 687.374,631.500 687.079 C 632.050 687.041,633.962 688.380,635.750 690.055 M841.750 696.989 C 844.260 698.519,845.000 699.657,845.000 701.985 C 845.000 705.565,845.020 705.561,839.911 702.955 C 835.690 700.801,834.409 698.983,835.362 696.500 C 836.135 694.485,837.859 694.617,841.750 696.989 M647.024 701.046 C 648.036 702.935,647.962 702.993,646.060 701.805 C 643.896 700.454,643.328 699.000,644.965 699.000 C 645.495 699.000,646.422 699.921,647.024 701.046 M859.742 706.222 C 865.082 709.027,865.984 709.897,865.992 712.250 C 865.996 713.763,865.765 715.000,865.477 715.000 C 865.028 715.000,849.994 708.946,849.222 708.454 C 848.426 707.947,851.138 702.996,852.225 702.972 C 852.926 702.956,856.309 704.419,859.742 706.222 M638.310 711.283 C 637.986 714.428,637.274 717.000,636.728 717.000 C 635.252 717.000,629.000 712.966,629.000 712.013 C 629.000 711.161,638.118 704.784,638.619 705.285 C 638.774 705.440,638.635 708.139,638.310 711.283 M664.792 712.425 C 673.186 717.842,698.688 731.851,708.848 736.626 C 713.057 738.604,715.985 740.419,715.356 740.659 C 714.337 741.048,697.313 732.702,678.940 722.807 C 671.846 718.986,652.000 706.173,652.000 705.414 C 652.000 704.694,657.406 707.657,664.792 712.425 M653.707 714.295 C 655.752 716.123,655.807 716.473,654.457 719.084 C 653.655 720.633,653.000 722.823,653.000 723.950 C 653.000 726.622,652.487 726.547,646.250 722.970 C 640.409 719.620,639.811 717.781,642.487 711.378 L 643.973 707.820 647.737 710.072 C 649.806 711.310,652.493 713.211,653.707 714.295 M884.831 720.308 C 885.627 724.561,884.340 724.862,878.326 721.831 C 874.129 719.716,872.302 718.165,871.793 716.283 C 871.403 714.847,871.323 713.287,871.613 712.817 C 872.444 711.472,884.451 718.277,884.831 720.308 M82.324 719.981 C 89.423 729.123,113.995 746.432,135.822 757.667 C 142.795 761.256,158.175 769.172,170.000 775.258 C 191.184 786.161,213.344 799.484,230.000 811.333 C 240.611 818.881,260.831 834.964,263.500 837.978 C 264.600 839.220,269.775 843.882,275.000 848.338 C 280.225 852.793,289.000 860.513,294.500 865.494 C 313.966 883.121,321.229 888.584,341.149 900.590 C 358.798 911.226,361.707 912.697,381.674 921.072 C 401.311 929.310,410.173 932.183,438.000 939.332 C 465.674 946.442,482.406 949.821,520.323 955.956 C 559.173 962.243,578.848 964.461,628.000 968.096 C 643.406 969.236,680.378 968.582,695.000 966.912 C 718.183 964.264,749.389 953.543,765.942 942.539 C 771.012 939.168,773.342 936.807,775.558 932.795 C 778.008 928.359,778.536 927.870,778.815 929.782 C 778.998 931.037,778.179 934.064,776.996 936.509 C 770.334 950.270,735.149 965.727,700.838 969.964 C 686.343 971.755,650.332 973.970,635.500 973.984 C 597.216 974.019,537.568 967.239,487.000 957.103 C 432.864 946.253,390.703 933.953,365.500 921.656 C 335.082 906.815,309.785 889.216,278.691 861.261 C 257.404 842.122,227.500 818.283,210.961 807.266 C 193.775 795.818,180.718 788.419,147.302 771.192 C 113.969 754.008,96.305 742.691,81.906 729.293 C 76.254 724.033,73.108 717.779,74.981 715.523 C 75.676 714.685,76.568 714.000,76.962 714.000 C 77.356 714.000,79.769 716.692,82.324 719.981 M70.939 723.250 C 73.541 732.056,79.197 737.455,100.500 751.464 C 122.381 765.854,124.690 767.190,161.063 786.511 C 194.277 804.155,200.426 807.888,224.500 825.023 C 247.980 841.735,260.942 852.096,274.309 864.836 C 297.093 886.550,319.711 903.049,350.000 920.051 C 371.008 931.843,380.310 936.102,394.827 940.578 C 401.247 942.557,414.150 946.588,423.500 949.535 C 474.212 965.518,561.651 979.065,624.500 980.675 C 649.302 981.311,682.996 979.861,699.500 977.449 C 723.100 974.000,750.773 965.337,763.729 957.344 C 775.508 950.077,784.000 939.956,784.000 933.184 C 784.000 931.983,784.450 931.000,785.000 931.000 C 786.550 931.000,786.179 939.635,784.452 943.768 C 782.521 948.390,779.521 951.653,775.000 954.051 C 773.075 955.071,770.500 956.990,769.279 958.314 C 762.515 965.646,735.368 975.262,707.000 980.376 C 651.783 990.329,573.496 986.792,486.000 970.391 C 449.346 963.520,404.271 951.998,385.158 944.613 C 360.583 935.118,322.042 913.250,300.576 896.623 C 270.432 873.274,266.680 870.151,239.925 846.147 C 227.759 835.233,207.115 819.525,195.000 811.964 C 190.325 809.046,174.575 800.496,160.000 792.962 C 117.500 770.996,83.911 750.816,74.976 741.880 C 69.604 736.509,68.014 732.487,68.006 724.250 C 67.999 717.903,69.235 717.482,70.939 723.250 M667.300 721.641 C 669.060 722.544,671.433 724.009,672.574 724.897 C 674.604 726.476,674.609 726.574,672.829 729.505 C 671.829 731.152,671.008 733.261,671.005 734.191 C 671.002 735.121,670.549 736.161,669.998 736.501 C 668.840 737.217,657.006 730.178,656.307 728.358 C 656.050 727.688,656.602 725.533,657.534 723.570 C 659.475 719.479,662.080 718.964,667.300 721.641 M897.500 725.334 C 902.253 727.928,903.566 729.169,903.816 731.304 C 903.990 732.787,903.792 734.000,903.375 734.000 C 902.958 734.000,899.553 732.180,895.808 729.955 C 891.098 727.157,889.000 725.308,889.000 723.955 C 889.000 721.276,890.517 721.522,897.500 725.334 M687.502 734.108 C 689.976 735.344,692.000 736.597,692.000 736.894 C 692.000 738.850,688.514 746.000,687.560 746.000 C 685.014 746.000,676.056 740.751,675.474 738.918 C 675.134 737.846,675.360 735.439,675.977 733.568 C 677.022 730.402,677.303 730.226,680.051 731.015 C 681.675 731.480,685.028 732.872,687.502 734.108 M917.250 736.220 C 920.052 738.172,920.999 742.265,918.942 743.536 C 917.684 744.313,910.142 739.534,909.344 737.453 C 907.652 733.044,911.769 732.402,917.250 736.220 M582.050 741.526 C 585.362 743.238,585.564 743.846,583.684 746.418 C 582.444 748.113,582.095 748.026,577.684 744.916 C 575.108 743.101,573.000 741.252,573.000 740.807 C 573.000 739.442,578.931 739.913,582.050 741.526 M702.627 741.918 C 704.896 742.948,706.998 744.188,707.297 744.672 C 708.326 746.337,705.650 754.000,704.043 753.990 C 701.029 753.971,692.000 749.103,692.000 747.496 C 692.000 744.685,694.994 739.999,696.776 740.022 C 697.724 740.034,700.357 740.887,702.627 741.918 M572.169 748.585 C 578.230 754.993,591.181 766.234,599.000 771.872 C 616.235 784.299,627.772 791.954,638.000 797.750 C 644.325 801.333,655.575 808.168,663.000 812.939 C 670.425 817.709,683.025 825.235,691.000 829.663 C 698.975 834.091,712.475 841.577,721.001 846.299 C 733.918 853.454,737.106 855.686,740.130 859.692 C 744.616 865.635,745.392 868.045,743.887 871.349 C 736.897 886.690,679.004 889.502,620.000 877.365 C 608.988 875.100,575.962 865.471,565.000 861.329 C 525.090 846.249,494.122 832.716,470.500 820.030 C 463.900 816.485,456.363 812.496,453.750 811.165 C 451.137 809.834,449.000 808.363,449.000 807.896 C 449.000 807.430,452.262 804.647,456.250 801.712 C 480.623 783.777,487.767 778.051,498.913 767.519 C 514.598 752.697,520.187 748.287,524.813 747.082 C 526.841 746.554,534.800 745.593,542.500 744.947 C 550.200 744.301,558.525 743.457,561.000 743.072 C 563.475 742.687,565.837 742.539,566.248 742.744 C 566.660 742.948,569.324 745.577,572.169 748.585 M932.750 746.676 C 936.656 749.592,936.766 750.452,933.500 752.592 C 931.196 754.101,930.807 754.103,928.535 752.615 C 925.244 750.458,923.696 747.348,924.440 744.385 C 924.978 742.238,925.308 742.089,927.275 743.103 C 928.499 743.735,930.962 745.342,932.750 746.676 M729.000 746.006 C 730.925 746.969,733.931 748.065,735.681 748.442 C 737.430 748.820,739.409 749.788,740.077 750.593 C 740.867 751.545,738.418 750.998,733.086 749.032 C 724.319 745.799,721.000 744.252,721.000 743.397 C 721.000 742.666,724.791 743.902,729.000 746.006 M72.801 748.056 C 77.563 752.248,96.783 765.235,110.091 773.254 C 114.266 775.770,131.816 785.365,149.091 794.577 C 207.672 825.816,221.130 835.085,268.757 877.000 C 275.319 882.775,283.498 889.924,286.932 892.887 C 293.330 898.406,324.693 919.547,341.884 929.929 C 367.886 945.631,400.352 959.122,429.809 966.466 C 445.310 970.331,502.084 980.815,519.000 982.937 C 527.525 984.007,540.800 985.792,548.500 986.905 C 584.855 992.159,643.565 994.298,677.145 991.590 C 700.135 989.737,706.216 988.668,729.297 982.425 C 757.309 974.849,771.891 968.507,779.402 960.637 L 784.304 955.500 783.708 971.090 C 782.972 990.333,782.027 993.125,774.178 999.246 C 765.889 1005.709,754.094 1013.387,749.500 1015.309 C 738.075 1020.089,708.883 1027.871,696.223 1029.511 C 689.745 1030.351,687.178 1028.940,684.539 1023.087 C 682.501 1018.566,680.235 1017.491,675.516 1018.804 C 673.003 1019.504,672.421 1020.287,671.826 1023.771 C 670.257 1032.962,668.803 1033.585,646.698 1034.536 C 628.289 1035.328,627.469 1035.020,626.393 1026.903 C 625.614 1021.031,623.379 1018.745,618.844 1019.180 C 615.892 1019.462,615.345 1019.991,614.174 1023.689 C 613.332 1026.350,612.381 1027.700,611.567 1027.387 C 610.817 1027.100,609.747 1028.196,608.987 1030.032 C 608.272 1031.757,606.696 1033.545,605.484 1034.006 C 604.271 1034.467,597.070 1034.584,589.480 1034.266 C 576.420 1033.718,575.525 1033.547,572.762 1031.079 C 571.157 1029.645,568.641 1026.003,567.172 1022.986 C 563.845 1016.156,560.649 1014.097,556.486 1016.103 C 554.221 1017.194,553.239 1018.705,552.001 1023.000 C 550.089 1029.640,549.910 1029.691,534.523 1027.992 C 522.211 1026.632,520.824 1025.798,518.898 1018.593 C 517.475 1013.267,516.549 1012.245,511.884 1010.847 C 507.246 1009.458,505.332 1010.720,502.477 1017.051 C 501.303 1019.654,499.825 1021.257,498.229 1021.657 C 494.381 1022.623,482.470 1021.294,479.031 1019.516 C 475.634 1017.759,472.010 1012.634,472.004 1009.579 C 471.999 1006.940,469.134 1004.000,466.568 1004.000 C 463.721 1004.000,460.005 1006.710,459.978 1008.807 C 459.966 1009.738,459.140 1011.561,458.143 1012.857 L 456.330 1015.214 448.560 1013.608 C 440.132 1011.865,433.190 1009.161,431.319 1006.893 C 430.669 1006.105,429.994 1003.445,429.819 1000.980 C 429.539 997.045,429.196 996.466,427.000 996.218 C 425.275 996.023,422.953 997.220,419.509 1000.077 C 414.680 1004.084,414.344 1004.198,409.185 1003.592 C 402.650 1002.824,398.505 1001.150,394.250 997.563 C 391.515 995.256,391.000 994.143,391.000 990.534 C 391.000 986.036,389.833 984.337,386.500 983.982 C 382.725 983.581,381.928 984.007,379.837 987.551 C 377.948 990.753,377.435 991.036,374.621 990.427 C 370.100 989.449,361.106 984.617,356.641 980.768 C 353.231 977.827,352.764 976.882,352.621 972.625 C 352.504 969.158,351.921 967.415,350.538 966.404 C 347.646 964.290,346.354 964.664,343.293 968.500 C 341.757 970.425,339.913 972.000,339.195 972.000 C 338.477 972.000,335.157 970.538,331.816 968.750 C 324.183 964.665,319.000 958.857,319.000 954.388 C 319.000 951.940,318.282 950.625,316.096 949.068 C 312.441 946.466,311.188 946.475,308.370 949.122 C 305.048 952.243,302.353 951.061,294.692 943.126 L 288.000 936.194 288.000 930.177 L 288.000 924.159 278.250 915.330 C 272.887 910.473,262.425 900.633,255.000 893.462 C 247.575 886.291,238.575 877.912,235.000 874.843 C 218.062 860.298,188.022 841.224,184.042 842.487 C 180.859 843.497,180.262 845.629,179.561 858.500 C 179.202 865.100,178.664 872.188,178.366 874.250 L 177.824 878.000 172.501 878.000 C 169.456 878.000,164.764 877.076,161.537 875.841 C 156.863 874.053,155.313 872.805,152.495 868.558 C 150.624 865.739,148.787 861.519,148.413 859.180 C 147.975 856.443,147.026 854.549,145.750 853.866 C 143.212 852.508,141.563 854.069,139.798 859.500 C 138.178 864.486,135.475 865.112,131.179 861.497 C 125.608 856.809,121.884 851.152,120.163 844.761 C 118.775 839.607,118.072 838.442,116.184 838.173 C 112.573 837.659,111.000 839.718,111.000 844.956 C 111.000 847.547,110.732 849.935,110.404 850.262 C 109.533 851.134,103.018 847.306,99.165 843.658 C 94.866 839.588,92.875 835.804,91.487 829.061 C 90.870 826.070,89.910 823.470,89.352 823.284 C 87.227 822.576,83.000 827.093,83.000 830.073 C 83.000 831.683,82.759 833.000,82.465 833.000 C 80.368 833.000,76.300 828.650,72.812 822.678 C 68.712 815.657,68.695 815.588,67.821 801.567 C 67.018 788.677,67.038 744.027,67.847 744.008 C 68.037 744.004,70.267 745.825,72.801 748.056 M366.250 750.721 C 369.413 752.762,372.000 754.794,372.000 755.237 C 372.000 755.679,369.878 757.494,367.285 759.271 C 364.692 761.047,360.451 764.442,357.861 766.815 C 353.178 771.108,353.137 771.122,350.090 769.547 C 348.405 768.675,345.468 766.593,343.562 764.920 C 339.616 761.455,339.785 759.771,344.730 753.287 C 350.278 746.013,357.602 745.140,366.250 750.721 M595.645 751.680 C 598.489 754.229,598.702 754.814,597.862 757.767 C 596.764 761.633,595.852 761.359,588.974 755.094 L 584.500 751.018 586.843 749.024 C 589.468 746.788,590.554 747.116,595.645 751.680 M719.738 749.431 C 722.619 750.378,725.181 751.483,725.430 751.887 C 726.163 753.072,723.816 761.133,722.603 761.599 C 721.992 761.833,718.794 760.968,715.496 759.675 C 710.351 757.659,709.524 756.983,709.666 754.913 C 709.935 751.007,711.929 746.760,713.264 747.253 C 713.944 747.503,716.857 748.484,719.738 749.431 M742.739 758.443 C 742.957 758.627,739.955 767.024,739.376 767.852 C 738.951 768.459,728.562 764.822,727.267 763.613 C 725.423 761.892,727.453 755.555,730.255 754.280 C 732.029 753.474,733.550 753.783,737.500 755.750 C 740.250 757.120,742.608 758.332,742.739 758.443 M940.952 759.211 C 939.148 765.746,926.416 775.075,917.445 776.434 C 912.982 777.110,914.327 776.313,922.500 773.437 C 929.354 771.024,935.000 765.320,935.000 760.806 C 935.000 756.347,938.563 752.135,940.607 754.178 C 941.655 755.226,941.734 756.380,940.952 759.211 M756.486 755.559 C 758.538 756.416,760.019 757.314,759.778 757.556 C 759.291 758.043,750.000 755.050,750.000 754.406 C 750.000 753.547,752.910 754.064,756.486 755.559 M607.206 760.750 C 612.276 764.797,612.684 765.683,610.715 768.375 C 609.529 769.997,609.031 769.806,604.215 765.889 C 599.419 761.987,597.968 759.365,599.667 757.667 C 600.953 756.380,602.549 757.033,607.206 760.750 M756.033 762.517 C 758.765 763.901,761.000 765.196,761.000 765.395 C 761.000 766.760,757.840 772.888,756.610 773.909 C 755.379 774.930,753.997 774.662,749.052 772.443 C 742.255 769.392,741.405 767.298,745.073 762.635 C 747.655 759.351,749.742 759.329,756.033 762.517 M378.507 762.148 C 381.474 761.892,384.410 763.603,392.418 770.256 C 396.141 773.348,395.478 775.186,389.352 778.757 C 386.765 780.266,382.985 782.962,380.953 784.750 C 378.920 786.538,376.416 788.000,375.387 788.000 C 372.781 788.000,363.206 781.226,362.452 778.848 C 362.110 777.770,362.431 776.054,363.165 775.034 C 369.837 765.763,373.658 761.298,374.486 761.806 C 375.028 762.138,376.837 762.292,378.507 762.148 M781.000 764.598 C 781.000 765.542,778.230 764.884,776.441 763.514 C 774.665 762.154,774.777 762.120,777.750 763.112 C 779.538 763.708,781.000 764.377,781.000 764.598 M947.955 772.827 C 947.999 775.122,943.105 781.000,941.150 781.000 C 940.597 781.000,939.188 779.783,938.018 778.296 L 935.891 775.591 939.360 772.546 C 941.269 770.871,943.396 768.375,944.088 767.000 L 945.345 764.500 946.628 767.500 C 947.333 769.150,947.930 771.547,947.955 772.827 M773.068 767.603 C 776.056 768.485,779.663 769.888,781.084 770.721 C 783.665 772.233,783.666 772.239,782.084 776.673 L 780.500 781.111 775.500 780.437 C 772.750 780.066,768.813 779.092,766.750 778.273 C 763.684 777.055,763.000 776.280,763.000 774.026 C 763.000 771.857,766.204 766.000,767.391 766.000 C 767.526 766.000,770.081 766.721,773.068 767.603 M619.428 769.323 C 621.015 770.484,621.070 770.918,619.869 772.855 C 617.800 776.194,614.576 775.283,614.187 771.250 C 613.934 768.629,614.236 768.000,615.746 768.000 C 616.775 768.000,618.432 768.596,619.428 769.323 M798.000 769.046 C 799.095 769.787,798.691 769.880,796.500 769.390 C 792.823 768.567,792.025 767.995,794.583 768.015 C 795.638 768.024,797.175 768.487,798.000 769.046 M795.659 773.596 C 797.749 773.988,800.627 775.027,802.054 775.904 L 804.649 777.500 802.787 781.750 C 801.203 785.365,800.485 786.000,797.982 786.000 C 796.364 786.000,793.231 785.276,791.020 784.391 C 787.646 783.041,787.000 782.326,787.000 779.938 C 787.000 776.114,789.061 771.809,790.607 772.403 C 791.295 772.667,793.568 773.204,795.659 773.596 M829.414 775.049 C 830.424 776.020,824.299 775.317,819.500 773.911 C 817.356 773.283,818.213 773.194,822.500 773.601 C 825.800 773.914,828.911 774.566,829.414 775.049 M630.189 781.611 C 628.079 784.516,627.837 784.520,625.182 781.694 C 623.130 779.510,623.105 779.278,624.703 777.308 L 626.390 775.229 629.134 777.257 C 631.784 779.216,631.820 779.366,630.189 781.611 M824.149 781.336 C 824.170 781.743,823.474 783.858,822.602 786.037 C 821.231 789.464,820.596 790.000,817.909 790.000 C 814.604 790.000,808.000 787.313,808.000 785.968 C 808.000 785.525,807.733 784.469,807.408 783.620 C 807.051 782.690,807.844 781.123,809.403 779.678 L 811.990 777.280 818.050 778.939 C 821.383 779.851,824.127 780.930,824.149 781.336 M911.000 778.000 C 909.625 778.440,906.700 778.786,904.500 778.769 L 900.500 778.737 904.000 778.000 C 905.925 777.595,908.850 777.249,910.500 777.231 C 913.407 777.200,913.423 777.224,911.000 778.000 M929.660 786.505 C 925.496 790.151,920.376 792.417,919.501 791.001 C 919.202 790.517,919.245 788.319,919.597 786.116 C 920.151 782.654,920.799 781.841,924.369 780.132 L 928.500 778.155 931.000 780.649 L 933.500 783.143 929.660 786.505 M411.750 786.285 C 412.988 787.420,414.000 789.097,414.000 790.013 C 414.000 791.791,399.904 803.261,396.320 804.399 C 394.689 804.916,392.914 804.049,388.933 800.790 C 386.051 798.430,383.199 795.682,382.596 794.683 C 381.385 792.674,382.230 791.788,393.329 783.434 L 399.157 779.046 404.329 781.633 C 407.173 783.056,410.512 785.149,411.750 786.285 M891.500 780.046 C 884.440 781.146,875.904 781.115,878.500 780.000 C 879.600 779.527,884.100 779.169,888.500 779.204 C 896.037 779.264,896.210 779.312,891.500 780.046 M643.363 787.834 C 642.153 792.931,641.720 793.034,636.732 789.414 C 631.984 785.969,631.974 785.950,633.477 783.045 L 634.983 780.131 639.490 782.650 C 643.498 784.890,643.926 785.463,643.363 787.834 M845.435 783.975 C 847.375 784.713,848.000 785.658,848.000 787.853 C 848.000 789.449,847.343 791.301,846.539 791.967 C 842.533 795.292,828.000 793.685,828.000 789.917 C 828.000 788.914,828.522 786.948,829.161 785.547 C 830.225 783.212,830.842 783.000,836.595 783.000 C 840.046 783.000,844.024 783.439,845.435 783.975 M914.163 787.000 C 913.423 792.492,911.695 794.471,907.101 795.085 C 904.696 795.407,901.732 795.480,900.514 795.247 C 898.515 794.865,898.371 794.439,899.031 790.832 C 899.948 785.818,900.568 785.231,905.500 784.715 C 913.254 783.902,914.535 784.240,914.163 787.000 M871.651 787.996 C 871.321 789.643,870.278 792.173,869.331 793.617 C 867.700 796.106,867.278 796.216,861.198 795.728 C 854.060 795.155,851.406 793.447,852.466 790.107 C 853.527 786.765,857.808 785.084,865.375 785.040 L 872.250 785.000 871.651 787.996 M894.985 788.750 C 894.976 790.813,894.630 793.034,894.214 793.687 C 892.931 795.706,888.135 797.000,881.935 797.000 C 876.210 797.000,876.000 796.908,876.000 794.400 C 876.000 792.776,877.277 790.523,879.400 788.400 C 882.523 785.277,883.296 785.000,888.900 785.000 L 895.000 785.000 894.985 788.750 M650.471 791.355 C 652.547 792.873,652.010 795.675,649.455 796.655 C 647.147 797.541,645.647 795.543,646.392 792.573 C 647.126 789.649,647.844 789.434,650.471 791.355 M661.193 795.304 C 662.561 796.570,664.122 797.459,664.663 797.279 C 665.205 797.098,667.720 798.533,670.253 800.467 C 672.786 802.401,678.603 806.145,683.179 808.785 C 691.236 813.434,691.491 813.695,691.219 816.991 C 691.065 818.863,690.797 820.536,690.624 820.710 C 690.450 820.883,687.129 819.184,683.243 816.935 C 678.265 814.052,675.992 812.103,675.548 810.334 C 675.074 808.445,674.603 808.084,673.648 808.877 C 672.734 809.636,671.116 809.351,667.878 807.861 C 663.725 805.950,663.411 805.548,663.816 802.645 L 664.255 799.500 661.665 801.889 C 659.161 804.199,658.987 804.221,656.459 802.565 C 654.818 801.490,654.060 800.285,654.426 799.333 C 654.746 798.498,655.280 796.731,655.613 795.407 C 656.371 792.387,658.013 792.356,661.193 795.304 M427.131 799.826 L 430.293 802.651 424.515 807.358 C 421.337 809.947,417.863 813.176,416.796 814.533 C 415.728 815.890,414.276 817.000,413.568 817.000 C 411.768 817.000,403.000 809.118,403.000 807.499 C 403.000 806.044,408.746 801.219,413.500 798.681 C 418.311 796.113,423.460 796.545,427.131 799.826 M439.453 811.692 L 442.406 815.240 437.166 812.584 C 434.284 811.124,432.194 809.495,432.522 808.964 C 433.690 807.075,436.544 808.198,439.453 811.692 M433.750 816.973 C 436.087 818.034,437.993 819.037,437.985 819.201 C 437.856 821.825,433.847 831.426,432.969 831.214 C 429.957 830.487,420.001 822.802,420.639 821.696 C 424.831 814.425,426.673 813.761,433.750 816.973 M450.775 818.418 C 457.729 821.953,462.169 824.913,460.601 824.968 C 459.508 825.007,443.000 816.078,443.000 815.448 C 443.000 814.601,444.067 815.009,450.775 818.418 M707.077 822.039 C 714.224 825.632,715.036 826.322,714.443 828.289 C 713.391 831.774,712.279 832.477,709.770 831.244 C 708.522 830.631,705.365 829.227,702.755 828.123 C 697.873 826.059,695.208 822.505,696.337 819.564 C 697.197 817.323,698.124 817.537,707.077 822.039 M958.449 832.099 C 950.659 847.163,915.390 860.891,876.500 863.996 C 861.177 865.220,837.074 865.234,825.500 864.026 C 820.550 863.509,806.600 862.376,794.500 861.507 C 774.674 860.083,772.302 859.721,770.500 857.843 L 768.500 855.760 774.500 856.473 C 799.244 859.414,867.012 861.053,883.500 859.110 C 896.738 857.549,917.675 853.374,927.000 850.435 C 935.311 847.815,944.732 842.557,949.841 837.685 C 953.209 834.473,958.847 824.570,959.180 821.279 C 959.279 820.300,959.528 821.614,959.733 824.198 C 959.975 827.256,959.527 830.013,958.449 832.099 M951.589 825.827 C 948.743 831.331,937.895 838.731,926.500 842.943 C 919.257 845.620,898.688 850.374,887.000 852.072 C 874.151 853.939,817.649 853.650,796.500 851.610 C 764.608 848.533,762.500 848.143,759.320 844.724 C 757.769 843.055,756.964 841.951,757.532 842.269 C 759.307 843.266,799.872 848.894,813.451 850.029 C 838.480 852.120,876.368 851.170,896.816 847.939 C 920.183 844.246,938.300 836.891,947.500 827.362 C 950.250 824.514,952.646 822.326,952.824 822.499 C 953.002 822.672,952.446 824.170,951.589 825.827 M450.957 826.478 C 455.173 828.658,456.011 830.670,454.209 834.283 C 453.377 835.950,452.653 838.551,452.599 840.063 C 452.500 842.801,452.489 842.806,449.662 841.156 C 445.423 838.682,438.999 832.503,439.004 830.904 C 439.006 830.132,439.895 828.045,440.980 826.266 C 443.111 822.769,443.815 822.784,450.957 826.478 M474.214 830.722 C 484.113 835.941,484.526 838.041,474.685 833.114 C 468.463 829.998,462.745 826.064,464.379 826.022 C 464.863 826.010,469.288 828.125,474.214 830.722 M727.178 833.692 C 730.655 835.723,733.605 837.440,733.733 837.508 C 734.292 837.806,731.488 843.992,730.898 843.759 C 726.085 841.859,718.095 837.229,718.054 836.315 C 717.987 834.841,719.788 830.000,720.404 830.000 C 720.653 830.000,723.701 831.661,727.178 833.692 M470.125 837.637 C 473.356 839.087,476.000 840.765,476.000 841.367 C 476.000 841.969,475.044 844.768,473.875 847.587 L 471.751 852.713 466.625 850.777 C 457.780 847.436,455.371 843.670,458.161 837.547 C 459.671 834.231,462.585 834.253,470.125 837.637 M492.498 838.926 C 496.047 840.536,499.975 842.611,501.226 843.537 C 503.498 845.220,503.496 845.221,500.230 844.632 C 496.351 843.932,486.424 839.215,484.857 837.328 C 483.099 835.209,485.329 835.676,492.498 838.926 M743.357 843.191 C 744.164 844.481,743.981 845.363,742.587 846.904 C 741.581 848.016,741.023 849.617,741.347 850.463 C 742.283 852.901,740.342 852.250,738.073 849.365 C 736.012 846.745,735.351 842.982,736.713 841.621 C 737.935 840.399,742.247 841.418,743.357 843.191 M959.061 860.096 C 958.410 877.647,958.226 878.939,955.789 883.096 C 952.635 888.476,947.348 892.831,937.772 897.935 C 921.830 906.433,900.124 912.545,883.594 913.191 L 875.688 913.500 874.483 908.233 C 872.882 901.232,870.627 898.817,866.051 899.201 C 862.707 899.483,862.382 899.835,860.465 905.249 C 857.266 914.289,857.577 914.154,839.466 914.339 C 827.987 914.456,823.570 914.174,823.275 913.304 C 822.328 910.511,814.879 899.891,813.494 899.360 C 812.664 899.041,810.506 899.058,808.698 899.397 C 805.821 899.937,805.263 900.568,804.221 904.463 C 802.524 910.808,800.596 911.571,790.305 909.970 C 785.723 909.257,781.580 908.185,781.098 907.587 C 779.905 906.105,777.919 890.900,777.141 877.278 L 776.500 866.056 780.000 866.530 C 811.343 870.776,871.272 872.080,892.019 868.967 C 903.881 867.188,935.392 857.776,944.135 853.402 C 946.685 852.126,951.185 848.857,954.135 846.138 C 957.086 843.418,959.557 841.262,959.626 841.346 C 959.695 841.431,959.441 849.868,959.061 860.096 M488.417 846.432 C 499.601 850.642,499.018 849.861,496.650 857.453 C 495.527 861.054,494.078 864.000,493.430 864.000 C 488.935 864.000,477.558 857.617,476.325 854.404 C 475.600 852.516,479.202 844.008,480.727 844.004 C 481.402 844.002,484.862 845.095,488.417 846.432 M513.979 848.519 C 517.565 849.905,521.625 851.967,523.000 853.102 L 525.500 855.165 522.105 854.578 C 518.413 853.941,503.563 846.063,505.979 846.024 C 506.792 846.011,510.392 847.134,513.979 848.519 M754.714 851.377 L 758.400 854.754 755.205 857.949 L 752.011 861.143 747.505 857.451 C 745.027 855.420,743.000 853.505,743.000 853.194 C 743.000 851.801,747.529 848.000,749.189 848.000 C 750.201 848.000,752.688 849.520,754.714 851.377 M200.980 859.930 L 210.460 866.473 206.980 867.065 C 205.066 867.391,200.249 869.310,196.275 871.329 C 192.301 873.348,188.522 875.000,187.878 875.000 C 187.012 875.000,186.885 872.215,187.395 864.336 C 187.774 858.471,188.321 853.289,188.611 852.820 C 189.240 851.803,189.021 851.677,200.980 859.930 M515.428 857.511 C 519.668 859.996,519.954 860.394,518.583 861.908 C 515.856 864.921,513.964 870.564,515.249 871.849 C 515.882 872.482,515.992 873.000,515.494 873.000 C 514.819 873.000,500.123 866.558,498.208 865.422 C 498.047 865.327,499.061 862.659,500.461 859.493 L 503.006 853.737 506.886 854.258 C 509.020 854.544,512.863 856.008,515.428 857.511 M538.381 858.852 C 543.396 860.971,549.975 863.515,553.000 864.505 C 556.025 865.496,561.075 867.587,564.221 869.153 C 567.368 870.719,570.693 872.000,571.611 872.000 C 572.528 872.000,577.603 873.316,582.889 874.925 C 588.175 876.534,598.575 879.306,606.000 881.084 C 613.425 882.863,618.899 884.521,618.165 884.771 C 616.641 885.288,588.536 878.861,579.500 875.929 C 576.200 874.858,570.314 873.124,566.420 872.075 C 559.167 870.122,554.412 868.252,550.000 865.615 C 548.625 864.794,544.253 863.186,540.284 862.043 C 536.316 860.899,531.816 858.861,530.284 857.513 C 526.473 854.159,527.787 854.377,538.381 858.852 M762.000 863.350 C 762.000 864.642,760.623 867.601,758.940 869.925 C 751.384 880.355,739.884 888.204,730.197 889.542 C 727.614 889.899,722.800 890.896,719.500 891.757 C 710.953 893.988,662.676 893.911,652.500 891.650 C 648.650 890.794,642.350 889.618,638.500 889.037 C 634.650 888.455,629.025 887.322,626.000 886.519 L 620.500 885.059 626.000 885.585 C 629.025 885.874,634.650 886.740,638.500 887.509 C 659.859 891.777,693.777 892.893,715.916 890.058 C 725.184 888.871,741.706 883.733,746.632 880.506 C 749.802 878.429,752.991 873.187,752.996 870.048 C 753.000 867.434,758.476 861.000,760.696 861.000 C 761.413 861.000,762.000 862.057,762.000 863.350 M533.934 865.631 C 537.270 867.078,540.000 868.750,540.000 869.347 C 540.000 870.227,537.104 878.786,536.476 879.763 C 536.383 879.908,532.863 878.813,528.653 877.329 C 522.033 874.995,521.000 874.311,521.000 872.266 C 521.000 869.405,523.474 864.375,525.229 863.669 C 527.322 862.827,527.630 862.897,533.934 865.631 M559.000 874.926 C 563.971 876.786,564.097 877.307,561.384 884.750 C 560.532 887.087,559.244 889.000,558.523 889.000 C 557.801 889.000,554.246 888.084,550.622 886.965 C 541.806 884.242,539.691 880.206,544.125 874.568 C 546.030 872.147,546.678 871.938,550.375 872.554 C 552.644 872.932,556.525 873.999,559.000 874.926 M769.000 874.935 C 769.000 879.083,767.618 882.227,763.963 886.389 C 760.599 890.220,756.665 891.176,755.607 888.418 C 754.051 884.364,755.086 882.242,761.099 877.157 C 764.453 874.321,767.603 872.000,768.099 872.000 C 768.594 872.000,769.000 873.321,769.000 874.935 M582.731 882.192 C 585.608 883.258,588.251 884.597,588.604 885.168 C 589.611 886.798,584.884 896.000,583.039 896.000 C 580.335 896.000,569.702 892.997,568.307 891.840 C 566.108 890.014,566.842 886.250,570.127 882.508 C 573.526 878.636,573.154 878.646,582.731 882.192 M609.303 888.619 C 613.261 889.509,616.631 890.352,616.792 890.493 C 616.952 890.634,616.052 893.280,614.792 896.374 C 612.106 902.965,611.132 903.211,600.605 899.960 C 595.263 898.310,594.000 897.526,594.000 895.860 C 594.000 893.993,599.882 887.000,601.453 887.000 C 601.812 887.000,605.344 887.728,609.303 888.619 M751.000 893.429 C 751.000 895.857,745.567 900.685,739.241 903.878 C 735.840 905.595,732.819 907.000,732.529 907.000 C 732.238 907.000,732.000 904.178,732.000 900.729 L 732.000 894.459 739.750 892.389 C 747.601 890.292,751.000 890.606,751.000 893.429 M640.750 894.541 C 643.638 894.897,645.989 895.483,645.977 895.844 C 645.964 896.205,644.726 898.750,643.227 901.500 C 640.838 905.881,640.067 906.533,637.000 906.770 C 635.075 906.918,630.575 906.204,627.000 905.184 C 622.050 903.770,620.429 902.852,620.203 901.333 C 619.538 896.872,626.519 892.621,633.000 893.540 C 634.375 893.735,637.862 894.185,640.750 894.541 M727.216 895.549 C 727.517 895.851,727.057 898.739,726.192 901.967 C 724.760 907.313,724.234 908.028,720.297 909.994 C 716.010 912.135,704.991 913.308,703.459 911.787 C 703.064 911.395,703.587 908.395,704.620 905.122 C 706.500 899.170,706.501 899.168,712.000 897.598 C 719.857 895.353,726.170 894.503,727.216 895.549 M668.783 898.598 L 673.066 899.132 670.533 902.143 C 669.140 903.799,668.000 905.964,668.000 906.954 C 668.000 910.056,665.387 911.325,660.404 910.642 C 655.465 909.965,649.000 907.293,649.000 905.928 C 649.000 905.464,650.688 903.332,652.750 901.190 C 656.779 897.007,656.454 897.059,668.783 898.598 M700.000 901.040 C 700.000 903.555,696.704 910.171,694.566 911.945 C 692.854 913.366,685.707 912.839,680.081 910.879 C 676.441 909.610,676.416 909.471,679.023 905.193 C 681.635 900.910,685.996 899.088,693.750 899.039 C 699.387 899.004,700.000 899.200,700.000 901.040 M489.450 1026.129 C 490.017 1026.649,489.545 1027.000,488.282 1027.000 C 485.473 1027.000,483.000 1026.005,483.000 1024.874 C 483.000 1023.835,488.011 1024.810,489.450 1026.129"></path></svg>