<svg viewBox="0 0 1024 1536" version="1.1" xmlns="http://www.w3.org/2000/svg" id="svg">
  
  <defs>
    <style>
      .st0 {
        fill-rule: evenodd;
      }
    </style>
  </defs>
  <path d="M304,354.7c-26.2.3-48,.9-48.3,1.3-.7.7-1.6,10.3-3.4,37.8-.5,8-2.3,21.5-4,30-5.3,27.6-13.1,84.3-15.6,114-.8,9.6-2.4,25.8-3.5,36-1.1,10.2-2.2,22.3-2.6,27s-1.7,19.3-3,32.5-2.6,27.8-3,32.5c-.3,4.7-1.7,20.7-3,35.5-1.3,14.8-2.9,34.2-3.5,43-.6,8.8-1.9,25.5-3,37-1.1,11.5-2.4,28.9-3,38.6-.6,9.7-1.7,24.3-2.5,32.5-.8,8.2-1.9,23-2.6,32.9s-2.2,32.8-3.6,51c-1.3,18.2-2.9,42.5-3.4,54-.6,11.5-1.9,34.9-3,52s-2.4,41.6-3,54.5c-.6,12.9-1.5,30.5-2,39-.9,14.1-.8,15.6.7,16.8.9.7,2.4,1.2,3.2,1.2s7.2,1.3,14.1,2.9c38.1,8.8,106.8,19.1,141.5,21.1,9.4.6,22.2,1.5,28.5,2s26.6,1.3,45.1,1.6c32.5.6,33.7.6,34.2-1.3.5-1.8,2-15.4,8.7-79.4,12.7-121,28.7-262,36.1-317,1.7-12.4,3.2-24.3,3.5-26.5,1.5-12,4.8-27.7,6.9-32.9l1.2-2.9,1.5,2.9c1.8,3.6,5,18.2,7.1,32.4,4.3,29.9,12.5,93.7,13.6,106.5.5,5.5,2,19.5,3.4,31,2.9,24.2,7.3,63.4,11.6,105,1.7,16,4.4,41.6,6,57,3.2,30.3,7.9,76.5,10.6,104.5.9,9.6,2.1,18.4,2.7,19.4.9,1.8,2.2,1.9,32.6,1.2,17.4-.4,37.7-1.1,45.1-1.6s18.5-1.2,24.5-1.6c6-.3,18.7-1.5,28-2.5,9.3-1.1,22.6-2.6,29.5-3.4,35.1-4.1,104.6-16.9,107.7-19.9,1.2-1.2,1-6.5-2.2-68.1-.8-15.9-2-34.8-2.5-42s-1.4-22-2-33c-.6-11-1.9-32.2-3-47-1.1-14.8-2.4-34.7-2.9-44-.9-16.8-3.7-53.8-8.7-116-1.4-17.6-3-38.5-3.5-46.5s-1.8-24.2-2.9-36c-1.1-11.8-2.5-28.2-3-36.5-.6-8.2-2.1-26.2-3.4-40-1.3-13.8-2.7-29.3-3-34.5-.3-5.2-1.7-19.8-3-32.5-1.3-12.7-2.7-27-3-32-.3-5-1.5-15.8-2.5-24-1.1-8.2-2.4-19-3-24-2.1-18.2-9-62.9-12.6-81.5-.8-4.1-2.3-18.7-3.4-32.4-1.4-18.3-2.3-25.3-3.4-26.4-1.2-1.2-29.5-1.5-208.8-1.6-114-.1-228.8,0-255,.4M627.6,360.6c46.2.1,83.1.6,82,1-1.1.4-8.8,1.6-17,2.5-8.2.9-26.2,3-40,4.6-55.5,6.5-85.9,8.3-139.5,8.4-42.5,0-65.1-.8-93.5-3.5-5.5-.5-15.5-1.4-22.3-1.9-6.8-.5-20-2.1-29.5-3.4-9.5-1.3-22.8-2.9-29.6-3.5s-15.6-1.7-19.5-2.4c-7-1.2-6.7-1.3,14.4-1.7,21.5-.5,135.9-.5,294.5-.1M280.1,364.2c7.4.9,23.6,2.9,36,4.5s30.8,3.9,41,5c24.3,2.8,25,2.9,25,4.3,0,.7-1.1,10.7-2.5,22.2-1.3,11.5-2.5,21.2-2.5,21.4,0,.2-1.9,0-4.3-.2s-9.2-1.1-15.2-1.6c-11.6-1.1-33.9-4.2-64.5-9-10.2-1.6-22.1-3.5-26.5-4.1s-8.3-1.5-8.7-1.8c-.4-.3,0-9.8.7-21.1.8-11.3,1.4-20.9,1.4-21.4,0-.5,1.5-.6,3.3-.3,1.8.3,9.3,1.3,16.8,2.1M764.1,364.4c0,2.5,1.5,24.6,2.4,36l.4,5.2-7.2,1.1c-3.9.6-15.5,2.4-25.7,4-26.9,4.3-54,8.1-64.4,9.1-5,.5-12.3,1.1-16.2,1.5l-7.1.7-1.8-14.9c-1-8.2-2-18.3-2.3-22.6l-.5-7.7,3.4-.5c1.9-.3,11.3-1.5,20.9-2.6,20.1-2.3,59.8-7.2,81-9.9,8-1,15.1-1.9,15.8-2,.7,0,1.2,1,1.2,2.6M399.7,378.2c.6.2.9,1.7.6,3.4-.4,3-.6,3.1-6.1,3.1-7.2,0-8.5-.9-7.7-4.7.6-2.9.7-2.9,6.4-2.6,3.1.2,6.2.6,6.8.7M637.1,381.2v3.3l-6.2.5c-3.4.3-6.3.4-6.4.4,0,0-.4-1.8-.8-3.8l-.7-3.7,6.3-.3c3.5-.2,6.6-.2,7,0,.4.2.8,1.8.8,3.6M429.1,380.7c23.3,1.7,50,3,63.2,3h12.8v47.9l-8.2-.5c-4.5-.2-18.1-.9-30.2-1.5-12.1-.6-29-1.7-37.5-2.5s-18.1-1.4-21.2-1.4c-3.1,0-5.9-.3-6.1-.8-.4-.7,2.6-33.3,3.8-42.1l.6-4.3,4.7.6c2.6.3,10.8,1,18.2,1.6M619.5,397c1,10,2,20.5,2.3,23.3l.6,5.1-9.3.7c-5.1.4-16.5,1.3-25.3,2.1-20.5,1.8-72.6,4.1-74.8,3.3-1.5-.6-1.7-2.8-1.4-23.9l.3-23.3,24-.6c22-.6,71.6-3.5,74-4.3.5-.2,2.6-.4,4.5-.4h3.5c0,0,1.7,18.2,1.7,18.2M399,388.3c.2.2-.3,8.5-1.2,18.6-.9,10.1-1.9,23.1-2.2,29l-.6,10.7-4.1-.5c-11.7-1.5-10.9-1.1-10.3-5.8.8-5.7,2.3-21.4,3.7-38.2.6-7.7,1.4-14.3,1.6-14.7.4-.7,12.3,0,13.2.8M640,406.2c1.1,9.9,2.3,22.6,2.7,28.2l.7,10.2-3.6.6c-2,.3-5.1.8-7,1.1l-3.4.5-.7-7.8c-.4-4.3-1.6-17.2-2.7-28.6-1.1-11.5-1.7-21.1-1.3-21.5.8-.8,12.9-1.8,13.2-1.1.1.3,1.1,8.6,2.2,18.5M526.1,400c-4.3,2.9-5.7,7.3-4,12.8,1.5,4.9,4.8,7.2,10.3,7.2s4.7-.6,7.7-3.9c3.3-3.5,4-3.9,9.8-4.3,6.9-.4,9.5-2.1,7.3-4.7-.9-1.1-3.2-1.5-8.1-1.5s-6.9-.2-7.5-2.1c-.8-2.6-6.2-5.9-9.6-5.9-1.4,0-4.1,1-6,2.3M536.2,404.7c3.5,3.5,3.6,4.9.8,8.4-2.1,2.6-6.1,3.5-8.6,1.8-2.1-1.3-3.4-6.1-2.3-8.2,1.1-2,4.8-5,6.3-5s2.2,1.3,3.8,2.9M261.2,411.7c2.3,0,2.5,2.8.8,13.1l-1.1,6.9h-3.9c-4.5,0-4.5.3-2.2-12.2,1.3-7,2-8.8,3.1-8.4.8.3,2.3.6,3.4.6M768.6,414c3.6,17.3,3.6,17.8-1.4,17.8s-4-.4-4-1.8c0-1-.5-5.1-1-9.2-1-8-.6-9,3.8-9,1.5,0,2.4.7,2.7,2.2M298.1,417.6c24.9,3.9,48.4,7.2,54.7,7.8l6.3.6v5.4c0,5.1-2.8,27.3-3.6,28.2-.2.2-1-.3-1.9-1.2-.9-.9-3-1.8-4.8-2-1.8-.2-12.2-1.8-23.2-3.5-53.6-8.3-52.2-8.2-54.8-5.3-2,2.2-7.2,31.1-8.2,45.9l-.7,10.2h-3.9c-2.9,0-3.9-.4-3.9-1.6,0-3.8,13.7-86.9,14.6-88.5.2-.3,3.8,0,8.1.7,4.3.7,13.8,2.2,21.3,3.4M758.9,431.5c6.3,35.4,7.4,42,9.2,53.8,1,6.6,2.2,13.4,2.5,15.1l.6,3.1-15.9.7c-24.2,1.1-39.9,0-50.9-3.6-18.1-6-27.4-15.8-34.6-36.5-2.8-8.2-4.5-20.3-4.9-36.7,0-1.4.8-1.8,4.2-1.8,2.3,0,11.9-1.1,21.2-2.5s20.6-3,25-3.5,13.6-2.1,20.5-3.4c6.9-1.3,14.1-2.4,16.1-2.5h3.6c0,0,3.1,17.7,3.1,17.7M373.9,427.3c1.7.3,2.2,1.2,2.2,3.1s-.3,2.4-1.2,1.5c-2.1-2.1-7.5-1.5-9.2,1-2.2,3.1-1.9,5.5,1,8.4s3.1,2.3,4.6,1.8c1.5-.5,1.9-.3,1.4.5-.4.6-1.1,4.2-1.6,7.9-1.2,9.7-5.4,23.5-9.7,32.2-2.7,5.4-5.9,9.7-11.4,15.2-13.8,13.8-28.8,19.2-57.3,20.5-16.5.8-39.1-.4-37.6-2,1.8-1.8,1.3-6.5-.9-8-1.7-1.2,1.5-1.3,23.3-.9,27.1.5,35-.3,47.4-4.9,13.2-4.9,24.6-16.3,30.7-30.5,3.2-7.5,6.2-23,7.2-37.5l.7-9.6,4.1.4c2.3.2,5.1.7,6.4.9M661.5,437.5c1.8,28.8,13.3,52.6,30,62.2,2.9,1.6,9.7,4.2,15.2,5.7,9.8,2.7,10.5,2.8,37.6,2.8,23,0,27.3.2,25.8,1.3-2,1.4-2.4,4.3-.9,7.2.9,1.7,0,1.9-14.7,2.6-25.5,1.2-48.7-1.6-61.7-7.5-13.7-6.2-25.4-18.1-32.3-32.8-3.3-7-4.2-10.2-8.1-28l-1.8-8.2,2.3.6c1.6.4,3-.2,4.8-2,3.1-3.1,3.2-5.9.4-8.8-1.7-1.7-2.9-2-6-1.5-3.4.5-3.9.4-3.9-1.3s1.9-2.6,9.1-2.9h3.6c0-.1.7,10.6.7,10.6M431.5,433.2c9.8.8,30.4,2,45.6,2.7l27.7,1.2.7,141.3c.4,77.7.4,142.1,0,143.1-1.6,4-4.5,17.5-6.4,30.3-3,19.7-7,49.5-7.7,57-.3,3.6-1.7,14.6-3,24.5s-2.7,20.9-3,24.5-1.9,17.5-3.5,31c-4.4,37.3-10.5,91.7-17.9,160.5-1.7,15.4-4.2,38.3-5.6,51-1.4,12.7-2.9,28.1-3.4,34.3-.5,6.2-1.2,11.6-1.6,12-1.6,1.6-59-.2-88-2.9-6-.5-16.4-1.4-23-1.9-31-2.5-100.5-12.8-132.3-19.6l-7.3-1.6.6-8.6c3-43.1,3.7-54.5,4.6-74.1.6-12.4,1.9-34.8,3-49.9,1.1-15.1,2.4-36.4,3-47.5.5-11.1,2.1-35,3.4-53.1s2.7-38.2,3-44.5c.3-6.3,1.5-21.8,2.6-34.3,1.1-12.5,2.6-31.7,3.4-42.5.8-10.8,2.4-28.3,3.4-38.7s2.2-22.8,2.6-27.5c.3-4.7,1.7-18.8,3-31.5,1.3-12.7,2.9-28.6,3.5-35.5.6-6.9,1.9-19.9,3-29,1.1-9.1,2.2-20.1,2.5-24.5.3-4.4,1.9-18.5,3.6-31.4,1.6-12.9,2.9-24,2.9-24.7,0-1,6.8-1.4,31.2-1.7l31.2-.4,9.6-3.1c28-9.1,42.8-27.1,49.4-60.3,2.6-12.7,3.3-14.5,3.1-7.6-.2,6.8-.7,6.5,13.3,8.4,5.7.8,7.8.7,8.7-.2,1.3-1.3,3.3-15.1,3.3-22.4v-4.3h6.2c3.4,0,14.3.7,24.1,1.5M623.5,438.5c.4,3.7.6,9.3.6,12.3,0,8.8.5,9.1,13,7.4,5.8-.8,10.6-1.4,10.8-1.4s.3-2.6.4-5.8c0-3.2.3-4.4.6-2.8,1.2,8.6,6.6,27.5,9.4,32.9,10.2,19.7,23.9,31,44.6,36.9,10.7,3,10.9,3.1,40.8,3.5l30,.4,3.2,29.7c1.8,16.3,3.5,32.8,3.8,36.7.3,3.8,1.4,14.4,2.5,23.5,1,9.1,2.4,22.6,3,30,.6,7.4,2.2,24.3,3.5,37.5s2.7,28,3,33c.3,5,1.7,19.8,3,33,1.3,13.2,2.9,31,3.4,39.5.5,8.5,1.9,25.8,3,38.5,1.1,12.7,2.3,28.6,2.6,35.5.3,6.9,1.7,27.8,3,46.5,1.3,18.7,2.9,43.5,3.4,55.1.6,11.6,1.9,33.9,3,49.5,1.1,15.6,2.4,38.8,3,51.4.6,12.7,1.5,29.5,2.1,37.5.6,8,1.1,16.2,1.3,18.2l.2,3.7-7,1.5c-23.6,5.1-91.1,15.4-121.5,18.5-42.6,4.4-119.2,8.1-121.5,5.8-.7-.7-3.4-24.6-9.5-84.8-1.8-17.3-4.3-41.4-5.7-53.5-1.4-12.1-2.9-26.7-3.3-32.5-.5-5.8-2-20.6-3.5-33-6.4-55.1-8.6-74.8-9.1-79.5-.3-2.8-1.6-14-3-25-12-96.5-15.8-116.6-23.2-122.4l-2.3-1.8v-54.1l6.8-.7c18.7-1.8,33.2-12,42.3-29.8,1.6-3.2,4-10.2,5.2-15.5,2.2-9.5,2.2-11.3,2.5-94.5l.3-84.8h7.2c4-.2,13.1-.8,20.2-1.5,7.2-.7,16.2-1.3,20.1-1.4l7.1-.2.6,6.8M259.6,434.6c.3.5.3,2.3,0,4-.6,2.8-1,3.1-4.5,3.1s-4.6-.8-3.2-5.8c.5-1.8,1.3-2.2,3.9-2.2s3.6.4,3.9.9M772.5,436c1.3,5,.9,5.8-3.4,5.8s-4-.4-4-.9-.3-2.3-.6-4c-.6-3.1-.6-3.1,3.4-3.1s4.1.4,4.6,2.2M372.1,436.7c0,2.1-2.4,2.8-3.5,1-.8-1.4.3-3,2.1-3s1.4.9,1.4,2M655.1,436.7c0,1.1-.6,2-1.4,2-1.8,0-2.9-1.6-2.1-3,1.1-1.8,3.5-1.1,3.5,1M552.9,522.5c-.4,93.6,0,88.8-6,101-5.1,10.6-19.1,21-30.8,22.9-2.2.4-4,1-4,1.5,0,2.4,11.8-.5,19.6-4.8,10.4-5.8,17.7-15.6,21.6-29.2,2.2-7.5,2.2-8.6,2.5-92.8l.3-85.2h7.7l.7,41.2c.4,22.7.5,61.7.3,86.8-.4,38.7-.7,46.4-2.1,51.5-4.8,17.1-14.8,30.3-28.1,37-6.3,3.2-8.8,3.9-15.5,4.3l-8,.5-.3-30.9c-.2-17-.3-66.4-.3-109.9v-79s19-.5,19-.5c10.5-.3,20-.6,21.3-.8l2.3-.2-.3,86.8M257.4,449.2c-.1,2.8-1.6,13.1-3.2,23-1.6,9.9-3.3,20.7-3.7,24l-.8,6-3.8.3c-3.7.3-3.8.2-3.3-2.5.3-1.5,1.2-8,2.1-14.3s2.6-18,4-26c1.4-8,2.5-14.9,2.5-15.3s1.5-.7,3.2-.5c3.2.3,3.2.3,3,5.3M773.9,447.2c.2,1.6,1.4,9.8,2.8,18,2.1,12.4,5.4,34.5,5.4,36.5,0,.3-1.5.6-3.4.8-3.4.2-3.4.2-4-4.5-.3-2.6-1.9-12.2-3.5-21.3-3-16.9-5-30-5-32s1.5-1,3.8-.8c3.4.3,3.8.6,4,3.3M392.9,449.3c1.5.3,2.2,1.2,2.2,2.6,0,2-.3,2.1-6.7,1.4-8.4-.9-9.3-1.3-9.3-3.7s.5-1.9,5.8-1.3c3.2.3,6.8.8,8,1.1M644.1,449.7c0,2.6-.4,2.7-8.3,3.6-6.8.7-6.8.7-6.5-1.6.3-2,1-2.5,5.3-3,9.2-1.1,9.5-1,9.5,1M299,452.7c42.6,6.9,51.3,8.4,52.7,9.4,1.3.9,1.3,1.8,0,6.8-2,7.6-4.4,12.2-9.4,17.9-5.5,6.3-11.5,10.1-21.9,13.9-8.2,3-9.7,3.2-26.9,3.7l-18.2.6v-3.4c0-1.9,1.3-10.1,3-18.4,2-10,2.6-15.3,2-16-1.5-1.5-2.5.9-3.9,9.3-2.1,13.8-4.4,26.1-5,27-.3.5-1.8.7-3.3.4-3.4-.6-3.4-1.3-.8-18.2,1.1-6.9,2.4-16.2,3.1-20.6.6-4.4,1.6-9.7,2.1-11.8.9-3.5,1.2-3.8,4.5-3.8s12,1.4,22.2,3M274.7,455c-2.2,3.1-1.9,5.5,1,8.4s5.8,2.6,8.7-.8c2.3-2.7,2.2-4.9-.3-7.6-2.7-2.9-7.4-2.9-9.4,0M281.1,458.7c0,1.1-.5,2.2-1.1,2.6-1.5.9-3.3-1.1-2.6-3,.9-2.2,3.7-1.9,3.7.4M286.1,463.1c0,.9,3.9,1.8,13.8,3,7.6,1,17.4,2.2,21.8,2.7,4.4.6,9.5,1.3,11.2,1.6,2.4.4,3.2.2,3.2-.8,0-1-5.9-2.2-23.2-4.6-26.1-3.7-26.7-3.7-26.7-1.9M340.1,464.7c-2.7,2.7-2.3,6.7,1,9.1,3.3,2.4,6.6,1.5,8.6-2.4,1.4-2.8,1.4-3.2-.4-5.6-2.5-3.4-6.5-3.9-9.2-1.1M346.5,468.2c.8,2-2.1,4.2-3.5,2.8s-.3-4.2,1.5-4.2,1.7.6,2,1.4M248.6,507.8c-3.2,1.2-4.7,3.7-4.3,7,.4,2.6.1,3-2,3s-2.4-.2-1.7-5.2c.4-2.9.8-5.5,1-5.8.2-.3,2.3-.3,4.6-.1,3.3.3,3.9.6,2.3,1.2M783.1,507.1c0,.7.3,3.4.6,6,.6,4.4.5,4.6-1.8,4.6s-2.4-.3-2-4c.3-3.5,0-4.1-2.4-5.2l-2.8-1.3,2.4-.7c4-1.1,5.9-.9,5.9.5M775.8,512.2c.3.8.3,2.3,0,3.2-.6,1.5-.8,1.5-2.2,0-1.7-1.6-1.2-4.8.7-4.8s1.3.7,1.6,1.5M251.8,513.3c.6,1.6-1.5,3.7-2.9,2.8-.4-.3-.8-1.4-.8-2.4,0-2.3,2.8-2.6,3.7-.3M247.6,521.8c.3.6,0,6.7-.9,13.8-1.4,11.9-2.8,24.5-10.6,99.2-1.6,15.7-3.5,34.1-4,41s-1.9,20.8-2.9,31-2.2,22.3-2.5,27-1.7,20.2-3,34.5c-1.3,14.3-2.7,30.5-3,36-.3,5.5-1.7,24.4-3,42-1.3,17.6-2.9,41-3.5,52-.6,11-1.7,28.1-2.4,38s-1.9,27.5-2.5,39c-.6,11.5-2,34.3-3.1,50.5-2.2,33.1-3.5,57.4-4.5,79.4l-.7,14.9-3.1-.6c-1.7-.3-3.2-.7-3.3-.9-.1-.1.1-7.7.7-16.7.5-9.1,1.4-25.9,1.9-37.5,2.1-43.4,9.1-149.9,14.1-214,1.6-20.9,3.2-41.6,3.4-46,.5-7.6,1.8-23.3,8.5-100.5,1.6-19,3.5-41,4-48.9.6-7.9,1.9-22.7,3-33,1.1-10.3,2.2-22.5,2.5-27.1s1.7-18.8,3.1-31.4c1.4-12.6,2.7-27.4,3.1-32.8l.6-9.8h3.8c2.1,0,4.1.5,4.4,1M785.1,522c0,3.1,3.1,37,4.9,54.2,1.1,10.5,2.3,22.6,2.6,27s1.9,22.6,3.5,40.5c1.6,17.9,4.3,49.4,6,70,1.7,20.6,4.2,50.8,5.5,67,1.3,16.2,2.7,33.5,3,38.5.3,5,1.9,26.5,3.5,48,4.6,60.9,7.9,110.1,9,132.5.5,11.3,1.9,33.6,3,49.5,1.1,15.9,2.4,38.1,2.7,49.2.7,19.7.6,20.2-1.3,20.7-4.1,1.1-4.2.8-4.9-12.2-.4-7-1.8-30.3-3.1-51.8-1.3-21.4-3.1-50.9-4-65.5s-2.2-36.4-3-48.5-1.9-30.8-2.5-41.5c-.6-10.7-2-31-3-45-1-14-2.4-33.2-3-42.5-.6-9.3-1.8-23.3-2.6-31-.8-7.7-1.9-20.5-2.5-28.5-.6-8-2.1-25.3-3.4-38.5-1.3-13.2-2.7-28.5-3-34s-1.7-19.7-3-31.5c-1.3-11.8-2.6-25.3-3-30-.5-7.5-2.2-23.3-8.1-79-.8-8-1.8-15.5-2.1-16.8-.6-2.1-.3-2.2,4-2.2s4.6.4,4.6,1.2M198,1122.4l2.4.6-.7,12.6c-.4,6.9-.9,12.9-1.1,13.3-.2.4-1.6.3-3.1,0-2.6-.7-2.7-1-2.5-6.7.3-10.1,1.4-20.4,2-20.4.3,0,1.7.3,3,.6M830.6,1134.8c.4,7.2.6,13.2.4,13.4s-1.5.6-3,1l-2.6.7-.6-7.8c-1.4-18.4-1.4-18.7,1.4-19.4,1.4-.4,2.8-.7,3.1-.8.3,0,.9,5.8,1.3,13M219.6,1126.7c70.8,14,155.3,22.9,219.4,23h15.4s-.5,2.3-.5,2.3c-.3,1.2-1.1,7.4-1.8,13.7l-1.2,11.4-26.1-.6c-49.6-1.2-105.6-6.1-156.1-13.7-19.7-3-61.2-10.6-64.9-11.9-1.7-.6-1.9-1.7-1.7-11.6.2-11,.7-15.4,1.9-15.4.4,0,7.4,1.3,15.6,3M821.5,1131c1.2,14.3,1.1,18.9-.4,19.7-6.2,3.4-97.8,17.8-129.9,20.5-36.7,3-82.8,5.5-103.1,5.5h-15.6s-1.2-11.4-1.2-11.4c-1.8-17.6-3.5-15.6,13.1-15.6,50.2,0,123.2-6.5,180.2-16.1,6.6-1.1,15.4-2.5,19.5-3.1,4.1-.6,13.3-2.3,20.5-3.8s13.7-2.8,14.6-2.9c1.3,0,1.7,1.3,2.2,7.1" class="st0"></path>
</svg>