<svg xmlns="http://www.w3.org/2000/svg" height="1536" width="1024" version="1.1" id="svg"><path fill-rule="evenodd" fill="black" stroke="none" d="M678.000 555.576 C 677.175 555.765,668.850 556.612,659.500 557.458 C 650.150 558.304,630.350 560.118,615.500 561.489 C 578.296 564.924,571.382 565.547,532.000 569.014 C 513.025 570.684,487.825 572.924,476.000 573.990 C 464.175 575.057,443.250 576.857,429.500 577.991 C 400.978 580.343,338.365 585.954,228.000 596.048 C 185.925 599.896,140.925 603.983,128.000 605.130 C 103.471 607.306,101.481 607.809,98.319 612.635 C 94.106 619.065,94.043 621.262,94.021 761.114 C 94.007 846.715,94.362 896.635,95.007 900.037 C 96.535 908.094,100.931 914.010,110.826 921.323 C 120.880 928.755,169.005 960.917,173.715 963.353 C 175.506 964.279,179.238 965.000,182.239 965.000 C 186.996 965.000,220.436 961.984,282.000 956.003 C 293.275 954.907,321.625 952.206,345.000 950.000 C 368.375 947.794,396.725 945.090,408.000 943.991 C 433.309 941.525,493.027 935.879,535.000 931.984 C 573.106 928.448,641.684 921.824,674.500 918.509 C 687.700 917.176,710.650 914.925,725.500 913.508 C 740.350 912.091,753.888 910.487,755.585 909.943 C 760.090 908.499,764.114 903.771,765.499 898.296 C 766.423 894.643,767.283 893.331,769.106 892.793 C 770.423 892.404,788.600 890.473,809.500 888.502 C 872.111 882.596,914.139 878.109,917.620 876.961 C 919.424 876.365,922.253 874.337,923.907 872.453 C 930.280 865.195,930.000 871.839,929.996 727.568 C 929.993 597.892,929.971 596.465,927.975 593.192 C 926.866 591.372,924.561 589.122,922.854 588.192 C 921.147 587.261,916.319 584.294,912.125 581.597 C 896.297 571.420,866.579 557.277,859.000 556.315 C 857.075 556.070,831.875 557.944,803.000 560.479 C 774.125 563.014,743.698 565.587,735.384 566.198 L 720.269 567.307 716.884 564.739 C 715.023 563.327,710.350 560.560,706.500 558.591 C 699.778 555.152,699.104 555.014,689.500 555.121 C 684.000 555.182,678.825 555.387,678.000 555.576 M704.202 567.847 C 708.216 569.963,719.825 576.783,730.000 583.004 C 740.175 589.224,749.600 594.899,750.944 595.614 C 752.720 596.559,752.993 597.046,751.944 597.398 C 751.150 597.664,734.975 599.287,716.000 601.005 C 668.027 605.348,599.809 611.516,573.000 613.935 C 549.333 616.070,502.845 620.146,475.000 622.526 C 465.925 623.302,444.100 625.285,426.500 626.932 C 408.900 628.580,368.625 632.194,337.000 634.965 C 305.375 637.736,274.775 640.458,269.000 641.013 C 263.225 641.569,250.625 642.687,241.000 643.499 C 231.375 644.310,212.955 645.880,200.067 646.987 C 187.179 648.094,175.690 649.000,174.535 649.000 C 171.911 649.000,117.236 616.431,118.215 615.452 C 118.683 614.983,146.451 612.142,186.500 608.465 C 201.900 607.052,233.625 604.118,257.000 601.948 C 280.375 599.777,312.325 596.859,328.000 595.463 C 343.675 594.068,372.700 591.367,392.500 589.461 C 412.300 587.556,436.150 585.320,445.500 584.493 C 454.850 583.666,468.800 582.328,476.500 581.520 C 494.723 579.608,511.494 578.247,532.500 576.976 C 551.162 575.847,561.538 574.975,632.500 568.572 C 658.900 566.190,684.191 564.186,688.702 564.120 C 696.397 564.007,697.357 564.238,704.202 567.847 M872.096 570.754 C 888.482 579.021,912.034 593.348,910.927 594.376 C 910.692 594.594,902.175 595.512,892.000 596.417 C 881.825 597.322,851.012 600.074,823.527 602.531 C 796.042 604.989,771.855 607.000,769.777 607.000 C 766.399 607.000,766.000 606.732,766.000 604.460 C 766.000 603.063,765.099 600.154,763.997 597.995 C 762.120 594.316,753.572 587.969,736.117 577.298 L 732.735 575.230 739.617 574.621 C 743.403 574.286,759.775 572.869,776.000 571.471 C 792.225 570.074,814.725 568.100,826.000 567.086 C 859.558 564.066,858.708 563.999,872.096 570.754 M921.500 732.191 C 921.500 860.616,921.496 860.859,919.435 863.677 C 914.841 869.960,914.196 870.065,825.779 878.984 C 798.433 881.743,773.796 884.000,771.029 884.000 L 766.000 884.000 766.000 750.545 L 766.000 617.091 769.250 616.556 C 771.038 616.262,785.775 614.879,802.000 613.482 C 818.225 612.085,849.050 609.402,870.500 607.520 C 920.908 603.097,918.263 603.316,920.000 603.429 C 921.325 603.516,921.500 618.534,921.500 732.191 M757.771 750.000 C 758.068 906.749,758.336 899.445,752.207 901.859 C 750.718 902.446,742.975 903.618,735.000 904.464 C 727.025 905.311,716.225 906.468,711.000 907.036 C 702.148 907.999,637.010 914.253,586.500 918.990 C 574.400 920.125,553.250 922.154,539.500 923.499 C 464.139 930.874,408.525 936.259,385.000 938.458 C 350.746 941.660,261.186 950.173,221.500 953.999 C 179.182 958.078,177.687 958.182,176.143 957.154 C 175.319 956.605,175.176 956.009,175.778 955.637 C 176.430 955.234,176.587 904.416,176.235 807.164 C 175.836 697.192,175.991 659.124,176.837 658.600 C 177.463 658.214,210.494 654.985,250.238 651.426 C 289.982 647.867,362.325 641.373,411.000 636.995 C 459.675 632.617,543.600 625.198,597.500 620.508 C 651.400 615.818,707.200 610.908,721.500 609.598 C 735.800 608.287,749.750 607.279,752.500 607.358 L 757.500 607.500 757.771 750.000 M139.250 640.244 L 168.000 657.481 168.002 680.491 C 168.003 693.146,168.280 757.950,168.617 824.500 C 168.982 896.574,168.862 946.436,168.319 947.816 C 167.437 950.057,166.667 949.642,144.454 934.939 C 119.475 918.406,106.265 908.580,103.649 904.587 C 102.098 902.219,101.992 891.585,102.236 761.764 C 102.381 684.619,102.876 620.918,103.336 620.206 C 103.994 619.188,104.845 619.348,107.336 620.960 C 109.076 622.086,123.438 630.764,139.250 640.244 M659.000 649.882 C 655.636 650.476,655.488 650.684,655.195 655.250 C 654.920 659.539,654.653 660.000,652.445 660.000 C 650.317 660.000,650.000 660.454,650.000 663.500 C 650.000 666.567,650.310 667.000,652.500 667.000 L 655.000 667.000 655.000 678.965 C 655.000 692.373,654.894 692.175,662.769 693.378 C 666.682 693.975,667.118 693.821,667.991 691.524 C 669.155 688.462,668.423 686.269,665.977 685.493 C 663.739 684.782,663.046 681.545,663.304 673.000 L 663.500 666.500 666.750 666.187 C 669.740 665.898,670.000 665.593,670.000 662.361 C 670.000 658.999,669.861 658.863,666.750 659.172 L 663.500 659.495 663.822 654.248 C 663.998 651.361,663.773 649.059,663.322 649.132 C 662.870 649.204,660.925 649.542,659.000 649.882 M557.250 656.706 C 555.217 657.097,554.992 657.736,554.918 663.320 C 554.873 666.719,554.641 676.614,554.402 685.308 L 553.968 701.117 558.197 700.808 L 562.426 700.500 562.463 689.164 C 562.498 678.480,562.636 677.718,564.861 675.914 C 567.758 673.565,570.332 673.475,572.503 675.646 C 573.924 677.067,574.053 678.788,573.442 688.206 L 572.735 699.120 577.603 698.810 L 582.471 698.500 582.593 687.500 C 582.736 674.639,581.776 669.657,578.749 667.537 C 576.020 665.626,570.310 665.608,567.000 667.500 C 563.239 669.650,563.052 669.449,563.211 663.420 C 563.313 659.543,562.921 657.563,561.929 656.935 C 561.143 656.438,560.275 656.085,560.000 656.151 C 559.725 656.218,558.487 656.467,557.250 656.706 M631.631 662.011 C 628.933 663.357,627.237 663.662,626.032 663.017 C 625.081 662.508,622.997 662.441,621.402 662.868 C 618.164 663.734,618.350 662.326,618.792 682.548 C 618.986 691.458,619.177 692.259,621.646 694.548 C 623.101 695.896,625.112 697.000,626.115 697.000 C 627.786 697.000,627.928 695.986,627.811 684.834 C 627.685 672.773,627.707 672.648,630.398 670.334 C 636.709 664.905,639.048 668.644,638.419 683.157 C 637.876 695.692,638.432 696.798,644.956 696.176 C 648.979 695.792,649.155 695.641,648.491 693.136 C 648.107 691.686,647.590 685.138,647.343 678.584 C 647.095 672.030,646.431 665.805,645.866 664.749 C 644.852 662.855,639.272 659.962,636.782 660.040 C 636.077 660.062,633.759 660.949,631.631 662.011 M595.276 664.654 C 590.617 666.303,586.000 671.038,586.000 674.165 C 586.000 675.973,586.429 676.106,590.250 675.481 C 592.993 675.033,595.221 673.904,596.534 672.296 C 599.071 669.188,603.343 669.397,603.807 672.651 C 604.063 674.452,603.249 675.085,598.807 676.542 C 591.825 678.831,588.615 681.185,586.554 685.527 C 582.078 694.959,591.578 702.603,600.793 696.985 C 603.797 695.153,607.453 694.926,609.870 696.420 C 612.286 697.913,613.181 693.694,613.065 681.356 C 612.935 667.564,612.596 666.566,607.282 664.345 C 603.287 662.675,600.674 662.742,595.276 664.654 M471.311 665.714 C 470.522 665.987,470.302 667.591,470.655 670.481 C 471.144 674.472,470.993 674.864,468.844 675.168 C 466.980 675.432,466.500 676.114,466.500 678.500 C 466.500 680.878,466.982 681.568,468.823 681.829 C 471.117 682.154,471.143 682.301,470.897 693.714 C 470.610 707.085,471.129 708.000,478.991 708.000 C 484.113 708.000,486.000 706.735,486.000 703.300 C 486.000 701.411,485.464 701.000,483.000 701.000 L 480.000 701.000 480.000 691.125 L 480.000 681.250 483.000 680.650 C 485.540 680.142,486.000 679.586,486.000 677.025 C 486.000 674.331,485.672 674.000,483.000 674.000 C 480.125 674.000,480.000 673.818,480.000 669.636 L 480.000 665.273 476.250 665.287 C 474.188 665.295,471.965 665.487,471.311 665.714 M446.526 668.950 C 445.687 670.573,445.000 672.607,445.000 673.469 C 445.000 675.857,450.025 674.349,452.745 671.145 C 455.938 667.384,455.610 666.000,451.526 666.000 C 448.690 666.000,447.771 666.542,446.526 668.950 M421.000 675.000 C 421.000 680.428,420.676 682.000,419.559 682.000 C 418.766 682.000,417.840 681.550,417.500 681.000 C 417.160 680.450,414.899 680.000,412.476 680.000 C 398.965 680.000,394.150 700.319,404.952 711.750 C 407.343 714.281,412.715 714.777,416.316 712.801 C 417.517 712.142,420.750 711.579,423.500 711.551 L 428.500 711.500 428.770 689.750 L 429.039 668.000 425.020 668.000 L 421.000 668.000 421.000 675.000 M535.994 668.934 C 529.706 670.847,526.820 673.189,524.434 678.315 C 520.120 687.581,521.299 695.853,527.919 702.750 C 533.631 708.702,548.051 701.687,550.531 691.750 C 551.196 689.083,551.092 689.000,547.087 689.000 C 543.703 689.000,542.760 689.432,541.868 691.390 C 540.489 694.417,536.843 696.402,534.203 695.564 C 529.966 694.220,528.633 684.008,532.116 679.580 C 534.802 676.165,539.955 676.258,541.487 679.750 C 542.244 681.474,543.295 681.996,545.987 681.985 C 547.919 681.976,550.036 681.628,550.691 681.212 C 552.645 679.970,548.645 672.364,544.808 670.024 C 541.293 667.881,539.987 667.720,535.994 668.934 M496.500 673.506 C 491.935 675.125,489.000 678.218,489.000 681.410 C 489.000 683.349,489.427 683.549,492.750 683.165 C 494.987 682.907,497.388 681.778,498.702 680.366 C 501.243 677.636,502.838 677.421,505.559 679.441 C 508.481 681.611,506.324 684.160,500.429 685.505 C 493.497 687.085,491.042 688.655,489.415 692.548 C 487.431 697.298,487.653 701.289,490.073 704.365 C 492.755 707.775,498.789 707.999,503.209 704.851 C 506.018 702.851,506.408 702.810,508.863 704.257 C 510.313 705.111,513.075 705.966,515.000 706.155 L 518.500 706.500 518.256 702.543 C 518.109 700.157,517.377 698.231,516.412 697.691 C 515.074 696.942,514.868 695.161,515.155 686.810 C 515.494 676.927,515.469 676.800,512.693 674.413 C 509.402 671.582,502.946 671.221,496.500 673.506 M441.738 679.226 C 439.242 680.673,437.139 683.087,435.488 686.400 C 428.349 700.726,437.444 713.919,451.796 710.055 C 455.574 709.038,462.000 703.313,462.000 700.965 C 462.000 699.135,454.012 699.931,451.150 702.048 C 448.917 703.698,447.870 703.901,445.751 703.095 C 442.569 701.886,440.420 698.477,442.161 697.401 C 442.802 697.004,447.791 696.465,453.248 696.202 C 460.205 695.867,463.320 695.329,463.677 694.399 C 464.572 692.066,460.936 683.090,457.841 679.995 C 455.358 677.512,454.047 677.004,450.173 677.023 C 447.223 677.037,444.113 677.850,441.738 679.226 M227.500 681.733 C 221.589 683.213,216.347 691.164,217.573 696.792 C 219.423 705.288,222.220 707.452,232.891 708.641 C 238.901 709.310,242.000 711.186,242.000 714.155 C 242.000 719.851,231.034 722.402,227.246 717.586 C 225.776 715.717,224.236 715.109,220.424 714.890 C 215.515 714.609,215.501 714.617,215.815 717.554 C 216.236 721.481,218.420 724.675,222.304 727.044 C 226.854 729.818,239.182 729.796,243.759 727.005 C 250.328 723.000,252.712 715.034,249.584 707.546 C 247.740 703.134,245.104 701.583,236.093 699.608 C 225.760 697.343,223.772 695.228,228.000 691.000 C 231.581 687.419,241.000 689.362,241.000 693.682 C 241.000 694.905,241.688 695.112,244.125 694.625 C 245.844 694.281,248.094 694.000,249.125 694.000 C 253.047 694.000,249.891 686.124,244.701 682.960 C 241.575 681.053,232.733 680.423,227.500 681.733 M605.000 683.686 C 605.000 686.943,601.424 691.006,598.576 690.985 C 593.192 690.945,592.506 686.539,597.507 684.123 C 599.153 683.328,601.175 682.326,602.000 681.897 C 604.508 680.594,605.000 680.887,605.000 683.686 M366.000 683.705 C 363.940 684.662,360.553 685.226,357.767 685.075 L 353.034 684.819 353.169 700.909 L 353.303 717.000 357.402 716.999 L 361.500 716.997 361.509 705.593 C 361.517 695.810,361.788 693.892,363.414 692.095 C 365.599 689.681,369.220 689.356,370.933 691.419 C 371.711 692.356,372.048 696.690,371.926 704.169 L 371.742 715.500 376.643 715.794 L 381.544 716.089 381.208 701.794 L 380.871 687.500 377.920 684.750 C 374.540 681.600,371.165 681.304,366.000 683.705 M452.915 686.250 C 453.383 687.487,453.566 688.837,453.324 689.250 C 452.573 690.525,442.000 690.132,442.000 688.829 C 442.000 684.231,451.320 682.029,452.915 686.250 M326.556 688.267 C 321.047 691.388,318.790 695.692,318.679 703.290 C 318.557 711.619,321.222 716.758,327.217 719.752 L 331.622 721.951 336.936 719.932 C 345.235 716.779,349.000 710.947,349.000 701.246 C 349.000 695.166,346.713 690.352,342.518 687.603 C 338.937 685.257,331.310 685.574,326.556 688.267 M419.116 689.116 C 422.219 692.219,421.348 700.444,417.573 703.691 C 414.182 706.608,413.491 706.582,410.333 703.424 C 408.130 701.221,407.829 700.210,408.254 696.438 C 409.226 687.820,414.359 684.359,419.116 689.116 M308.174 689.750 C 307.680 690.712,306.961 692.850,306.575 694.500 C 303.548 707.438,300.988 711.377,299.589 705.250 C 299.244 703.737,298.228 699.688,297.332 696.250 L 295.703 690.000 290.745 690.000 C 286.553 690.000,285.884 690.254,286.418 691.646 C 287.746 695.107,293.931 714.662,294.753 718.000 C 295.498 721.023,296.069 721.544,298.946 721.824 C 305.271 722.438,306.685 721.494,308.025 715.756 C 308.700 712.865,310.996 705.719,313.126 699.875 C 315.257 694.031,317.000 688.968,317.000 688.625 C 317.000 688.281,315.216 688.000,313.035 688.000 C 310.267 688.000,308.800 688.528,308.174 689.750 M266.653 691.401 C 261.480 692.830,257.354 696.230,256.824 699.500 C 256.554 701.166,257.138 701.553,260.325 701.815 C 263.384 702.067,264.627 701.616,266.527 699.565 C 268.921 696.982,273.339 696.121,274.506 698.009 C 275.903 700.270,273.846 702.938,270.194 703.600 C 265.176 704.511,259.464 707.500,257.566 710.209 C 256.630 711.545,256.000 714.546,256.000 717.666 C 256.000 721.927,256.408 723.173,258.223 724.443 C 261.275 726.581,266.308 726.394,271.070 723.964 C 274.712 722.106,275.252 722.063,277.253 723.464 C 279.540 725.066,282.721 725.428,285.418 724.393 C 287.510 723.590,287.581 718.000,285.500 718.000 C 284.290 718.000,283.977 716.309,283.882 709.250 C 283.729 697.967,283.055 695.121,280.000 692.867 C 276.514 690.296,272.321 689.835,266.653 691.401 M507.000 692.309 C 507.000 695.647,504.966 697.882,501.265 698.608 C 498.727 699.107,497.886 698.865,497.356 697.486 C 496.402 695.000,498.076 692.835,502.067 691.393 C 506.825 689.673,507.000 689.706,507.000 692.309 M338.000 695.000 C 340.942 697.942,340.836 707.481,337.826 710.686 C 333.393 715.404,328.081 712.897,327.270 705.706 C 326.438 698.325,329.390 693.335,334.750 693.063 C 335.438 693.029,336.900 693.900,338.000 695.000 M272.532 715.726 C 269.444 718.382,265.210 718.711,264.309 716.364 C 263.341 713.841,265.285 711.658,270.104 709.857 L 274.500 708.214 274.838 710.833 C 275.078 712.691,274.408 714.112,272.532 715.726 M608.998 714.402 C 608.449 714.951,608.000 717.785,608.000 720.700 C 608.000 725.333,607.748 726.000,606.000 726.000 C 604.900 726.000,603.966 726.337,603.923 726.750 C 603.881 727.163,603.696 728.288,603.512 729.250 C 603.268 730.525,603.831 731.000,605.588 731.000 L 608.000 731.000 608.000 744.500 L 608.000 758.000 612.500 758.000 L 617.000 758.000 617.000 744.500 L 617.000 731.000 619.500 731.000 C 621.430 731.000,621.997 730.487,621.985 728.750 C 621.963 725.588,620.798 724.114,618.485 724.322 C 615.522 724.588,616.051 721.742,619.250 720.209 C 621.141 719.303,622.000 718.127,622.000 716.445 C 622.000 715.100,621.663 713.940,621.250 713.867 C 617.782 713.254,609.798 713.602,608.998 714.402 M474.267 726.806 L 470.035 727.113 470.567 748.773 C 470.860 760.686,471.236 770.570,471.404 770.737 C 471.571 770.905,474.067 770.536,476.951 769.917 C 480.773 769.097,482.492 769.092,483.296 769.896 C 484.956 771.556,487.816 771.234,491.864 768.932 C 497.514 765.719,499.090 762.845,499.712 754.620 C 500.380 745.790,499.011 741.029,494.782 737.470 C 492.146 735.252,491.112 734.974,487.657 735.558 C 485.435 735.933,482.915 736.945,482.058 737.807 C 480.646 739.226,480.471 738.816,480.195 733.436 C 480.027 730.171,479.577 727.275,479.195 727.000 C 478.813 726.725,476.595 726.638,474.267 726.806 M592.923 726.250 C 592.880 726.388,592.765 731.829,592.667 738.343 C 592.500 749.468,592.347 750.301,590.134 752.093 C 587.457 754.260,583.971 754.571,582.200 752.800 C 581.402 752.002,581.000 747.644,581.000 739.800 L 581.000 728.000 577.545 728.000 C 574.436 728.000,574.031 728.325,573.496 731.250 C 573.169 733.038,573.036 739.658,573.201 745.963 L 573.500 757.425 576.898 759.713 C 580.927 762.425,583.952 762.593,588.297 760.347 C 590.055 759.437,593.521 758.650,595.997 758.597 L 600.500 758.500 600.775 742.250 L 601.050 726.000 597.025 726.000 C 594.811 726.000,592.965 726.112,592.923 726.250 M550.604 730.038 C 543.811 732.071,538.000 740.818,538.000 749.010 C 538.000 759.910,545.390 766.463,555.535 764.559 C 559.470 763.821,568.000 756.557,568.000 753.944 C 568.000 752.303,567.450 752.133,563.750 752.631 C 561.413 752.946,558.534 754.092,557.354 755.178 C 554.380 757.915,549.992 757.268,548.058 753.807 C 547.230 752.325,546.810 750.856,547.125 750.542 C 547.439 750.228,552.714 749.683,558.848 749.332 L 570.000 748.694 569.923 745.097 C 569.766 737.755,567.816 733.828,563.082 731.325 C 558.490 728.896,555.463 728.584,550.604 730.038 M411.000 737.333 C 411.000 740.817,410.748 743.919,410.440 744.227 C 410.132 744.535,408.536 744.116,406.893 743.297 C 401.458 740.585,394.348 744.173,391.614 751.007 C 389.387 756.573,389.506 766.611,391.851 770.983 C 396.032 778.778,404.147 780.986,412.692 776.656 C 415.474 775.246,417.999 773.446,418.302 772.656 C 418.842 771.247,419.236 754.086,419.079 738.750 L 419.000 731.000 415.000 731.000 L 411.000 731.000 411.000 737.333 M515.317 733.228 C 509.387 735.134,503.928 743.881,504.056 751.270 C 504.139 756.087,507.112 762.517,510.477 765.161 C 517.014 770.297,529.077 766.604,533.133 758.225 C 534.882 754.613,535.154 752.750,534.646 747.884 C 533.289 734.907,526.383 729.670,515.317 733.228 M365.500 734.765 C 364.887 735.216,364.500 743.823,364.500 757.000 L 364.500 778.500 368.214 778.500 L 371.928 778.500 372.539 756.250 L 373.149 734.000 369.824 734.015 C 367.996 734.024,366.050 734.361,365.500 734.765 M558.376 739.222 C 559.899 741.654,558.438 742.672,552.250 743.492 C 546.437 744.262,545.666 743.350,548.595 739.168 C 549.839 737.392,550.972 736.958,553.744 737.195 C 555.758 737.368,557.765 738.246,558.376 739.222 M316.667 738.667 C 316.300 739.033,316.000 741.283,316.000 743.667 L 316.000 748.000 319.872 748.000 C 323.626 748.000,323.764 747.876,324.394 743.939 C 324.751 741.706,324.782 739.456,324.463 738.939 C 323.801 737.870,317.678 737.656,316.667 738.667 M304.000 740.264 C 302.148 741.216,301.370 742.579,301.000 745.524 C 300.638 748.406,299.881 749.772,298.250 750.487 C 296.901 751.079,296.000 752.352,296.000 753.668 C 296.000 755.181,296.698 755.960,298.250 756.180 C 300.482 756.497,300.497 756.616,300.159 770.750 L 299.817 785.000 302.159 784.986 C 308.540 784.949,308.486 785.067,308.652 770.879 C 308.785 759.486,309.035 757.693,310.652 756.499 C 312.068 755.454,312.226 754.857,311.328 753.945 C 310.684 753.291,310.394 752.136,310.685 751.378 C 311.005 750.544,310.550 750.000,309.534 750.000 C 307.055 750.000,308.050 746.783,310.981 745.322 C 312.524 744.553,313.446 743.236,313.450 741.797 C 313.454 739.890,312.864 739.456,309.977 739.240 C 308.065 739.096,305.375 739.557,304.000 740.264 M434.379 740.437 C 428.735 742.893,423.976 751.377,424.022 758.899 C 424.054 764.155,427.312 770.593,430.872 772.434 C 434.635 774.380,442.212 774.462,445.800 772.595 C 448.894 770.985,452.416 767.311,453.320 764.750 C 453.849 763.249,453.289 763.000,449.376 763.000 C 446.330 763.000,443.971 763.664,442.273 765.000 C 440.874 766.100,438.961 767.000,438.020 767.000 C 435.768 767.000,432.613 763.451,433.292 761.682 C 433.867 760.182,439.074 759.037,445.500 758.997 C 452.641 758.953,454.000 758.190,454.000 754.221 C 454.000 752.229,452.888 748.778,451.461 746.343 C 447.456 739.509,441.357 737.400,434.379 740.437 M523.811 742.039 C 527.504 745.479,526.237 756.331,521.816 759.135 C 517.313 761.991,513.000 758.178,513.000 751.343 C 513.000 745.735,514.475 742.145,517.235 741.037 C 520.608 739.682,521.413 739.804,523.811 742.039 M490.125 746.125 C 491.935 747.935,492.161 749.007,491.651 753.375 C 490.264 765.270,479.284 764.771,479.653 752.828 C 479.904 744.738,485.290 741.290,490.125 746.125 M339.500 748.861 C 325.078 757.769,327.804 779.595,343.713 782.601 C 346.040 783.041,347.883 782.618,350.393 781.066 C 354.070 778.793,360.000 772.571,360.000 770.984 C 360.000 769.390,350.823 771.177,348.842 773.158 C 346.331 775.669,342.458 775.491,340.557 772.777 C 337.262 768.073,338.833 767.267,352.246 766.781 C 356.507 766.626,360.042 766.050,360.102 765.500 C 360.729 759.788,358.270 753.020,354.298 749.525 C 350.787 746.436,343.924 746.128,339.500 748.861 M443.840 749.380 C 444.318 751.899,442.368 752.966,437.250 752.985 C 432.627 753.001,431.926 751.845,434.699 748.780 C 436.988 746.250,443.325 746.666,443.840 749.380 M408.876 751.351 C 410.960 753.862,411.362 761.399,409.595 764.817 C 407.746 768.392,403.790 769.901,401.421 767.935 C 396.657 763.980,396.133 756.768,400.282 752.250 C 402.589 749.738,407.142 749.262,408.876 751.351 M316.000 767.000 L 316.000 783.000 319.952 783.000 L 323.905 783.000 324.202 766.999 L 324.500 750.997 320.250 750.999 L 316.000 751.000 316.000 767.000 M270.891 753.750 C 270.831 754.163,270.871 759.522,270.981 765.660 C 271.162 775.795,270.988 777.012,269.090 778.910 C 266.774 781.226,263.047 781.647,261.200 779.800 C 260.402 779.002,260.000 774.644,260.000 766.800 L 260.000 755.000 255.250 754.998 L 250.500 754.996 251.000 769.973 C 251.458 783.683,251.685 785.134,253.687 787.134 C 256.177 789.621,263.158 790.056,267.061 787.967 C 268.311 787.298,271.847 786.694,274.917 786.625 C 280.026 786.511,280.494 786.309,280.429 784.250 C 280.389 783.013,280.277 775.475,280.179 767.500 L 280.000 753.000 275.500 753.000 C 273.025 753.000,270.951 753.337,270.891 753.750 M350.500 758.000 C 350.500 760.317,350.080 760.537,344.750 761.012 C 338.558 761.563,337.926 760.979,340.594 757.170 C 341.893 755.314,342.955 754.950,346.344 755.197 C 350.030 755.466,350.500 755.783,350.500 758.000 M224.907 758.320 C 220.451 760.667,217.389 764.965,218.364 767.506 C 219.169 769.603,226.053 768.163,228.702 765.344 C 231.223 762.661,234.189 762.318,236.000 764.500 C 237.789 766.655,235.766 768.736,230.634 770.019 C 220.232 772.618,216.122 777.202,217.359 784.826 C 218.111 789.461,220.407 791.724,225.171 792.529 C 228.648 793.116,229.645 792.817,232.894 790.206 C 236.599 787.228,236.640 787.220,239.062 789.082 C 240.403 790.112,242.963 790.966,244.750 790.978 C 247.807 790.999,248.000 790.791,248.000 787.469 C 248.000 785.252,247.441 783.723,246.500 783.362 C 245.306 782.903,245.000 780.757,245.000 772.827 C 245.000 767.350,244.537 762.003,243.970 760.945 C 241.237 755.837,232.032 754.569,224.907 758.320 M237.000 776.932 C 237.000 779.049,236.165 780.458,233.998 782.001 C 230.029 784.828,226.500 784.357,226.500 781.000 C 226.500 779.031,227.456 778.031,231.000 776.291 C 236.812 773.438,237.000 773.458,237.000 776.932 M678.580 839.750 C 678.246 845.112,677.542 855.976,677.014 863.890 C 676.487 871.805,676.229 878.561,676.441 878.904 C 676.653 879.247,678.827 879.369,681.271 879.175 L 685.716 878.821 686.361 870.161 C 686.715 865.397,687.300 854.413,687.660 845.750 L 688.313 830.000 683.750 830.000 L 679.187 830.000 678.580 839.750 M712.932 843.679 C 712.372 845.152,710.705 850.327,709.228 855.179 C 707.751 860.030,706.278 864.000,705.954 864.000 C 705.631 864.000,704.558 860.573,703.570 856.384 C 699.913 840.872,700.578 841.963,695.210 842.666 C 692.619 843.004,690.338 843.417,690.141 843.583 C 689.943 843.749,692.134 851.558,695.010 860.937 C 699.967 877.107,700.155 878.115,698.638 880.429 C 697.593 882.025,695.906 882.979,693.769 883.185 C 690.683 883.482,690.483 883.743,690.187 887.852 L 689.875 892.205 695.187 891.528 C 705.077 890.269,706.347 888.409,716.891 859.750 L 723.789 841.000 718.870 841.000 C 714.455 841.000,713.846 841.275,712.932 843.679 M658.272 844.850 C 657.047 845.207,655.129 846.288,654.011 847.250 C 651.510 849.402,651.000 849.435,651.000 847.443 C 651.000 846.229,650.062 845.953,646.750 846.193 L 642.500 846.500 641.878 853.000 C 641.536 856.575,640.937 867.263,640.547 876.750 L 639.839 894.000 644.351 894.000 L 648.863 894.000 649.558 886.027 L 650.254 878.054 652.762 880.027 C 655.708 882.345,658.835 882.524,663.282 880.629 C 667.690 878.751,670.503 875.383,672.399 869.715 C 677.538 854.354,670.165 841.378,658.272 844.850 M618.640 849.470 C 615.891 851.335,615.000 851.580,615.000 850.470 C 615.000 849.400,613.805 849.000,610.607 849.000 L 606.215 849.000 605.602 866.750 C 605.264 876.513,604.781 887.337,604.527 890.803 L 604.065 897.107 608.783 896.803 L 613.500 896.500 613.774 890.000 C 614.142 881.264,614.540 880.274,616.850 882.364 C 617.998 883.403,620.419 884.000,623.484 884.000 C 627.790 884.000,628.708 883.581,632.008 880.112 C 636.035 875.879,638.000 870.112,638.000 862.525 C 638.000 849.692,628.124 843.033,618.640 849.470 M597.250 849.800 L 593.000 850.115 592.949 855.807 C 592.862 865.399,591.468 874.964,589.946 876.411 C 587.452 878.782,584.346 879.203,582.555 877.413 C 581.176 876.033,580.929 873.738,581.073 863.629 C 581.241 851.798,581.191 851.492,579.021 851.167 C 577.798 850.984,575.775 851.091,574.527 851.404 C 572.365 851.947,572.225 852.576,571.547 864.823 C 570.552 882.830,572.490 887.000,581.858 887.000 C 584.690 887.000,586.739 886.249,588.923 884.411 C 591.957 881.858,592.000 881.853,592.000 883.999 C 592.000 886.003,592.337 886.120,596.250 885.474 C 598.587 885.087,600.697 884.589,600.937 884.366 C 601.562 883.785,602.601 849.838,602.000 849.646 C 601.725 849.558,599.587 849.627,597.250 849.800 M561.375 852.689 C 559.416 853.074,559.194 853.970,558.531 864.214 C 557.718 876.756,556.734 879.778,553.174 880.671 C 548.174 881.926,547.525 880.397,547.220 866.643 L 546.940 854.000 542.612 854.000 L 538.283 854.000 537.642 865.750 C 537.289 872.231,537.426 879.294,537.948 881.500 C 539.039 886.108,542.996 890.000,546.588 890.000 C 550.113 890.000,555.608 887.511,556.867 885.344 C 557.860 883.637,557.941 883.667,557.970 885.750 C 557.996 887.734,558.514 888.000,562.358 888.000 L 566.715 888.000 567.358 881.853 C 567.711 878.473,568.000 870.373,568.000 863.853 C 568.000 850.795,568.316 851.327,561.375 852.689 M662.171 854.655 C 664.274 856.558,664.666 863.790,662.935 868.756 C 660.580 875.513,651.722 875.364,650.443 868.546 C 648.464 857.999,656.002 849.072,662.171 854.655 M524.834 867.089 C 524.507 878.914,524.439 879.230,521.694 881.589 C 518.273 884.529,517.565 884.565,514.932 881.932 C 512.994 879.994,512.908 879.154,513.559 868.570 C 514.030 860.931,513.910 857.062,513.188 856.616 C 512.601 856.254,510.294 856.249,508.061 856.606 L 504.000 857.256 504.000 871.705 L 504.000 886.154 506.923 889.077 C 511.444 893.598,518.933 892.935,523.228 887.633 L 524.956 885.500 524.978 888.007 C 524.999 890.362,525.273 890.493,529.500 890.157 L 534.000 889.799 534.000 872.399 L 534.000 855.000 529.584 855.000 L 525.167 855.000 524.834 867.089 M626.000 857.000 C 628.541 859.541,628.821 869.383,626.449 872.770 C 619.103 883.258,610.456 871.013,616.613 858.840 C 618.766 854.583,622.793 853.793,626.000 857.000 M481.583 858.438 C 475.349 860.732,472.667 864.058,472.667 869.495 C 472.667 875.691,474.858 877.737,483.052 879.194 C 489.226 880.293,492.000 881.451,492.000 882.931 C 492.000 884.546,489.298 886.939,486.793 887.543 C 484.659 888.057,483.569 887.639,481.651 885.569 C 479.516 883.265,478.708 883.023,475.083 883.603 C 471.460 884.182,471.027 884.525,471.577 886.382 C 472.931 890.947,476.572 893.341,482.850 893.796 C 493.622 894.575,499.824 890.741,500.725 882.745 C 501.465 876.179,498.568 873.318,489.500 871.661 C 483.117 870.495,482.500 870.169,482.500 867.965 C 482.500 866.208,483.279 865.274,485.355 864.544 C 487.815 863.679,488.473 863.866,490.119 865.899 C 491.701 867.853,492.647 868.157,495.638 867.671 C 500.233 866.926,500.567 866.540,499.208 863.557 C 496.809 858.292,488.523 855.885,481.583 858.438"></path></svg>