<svg viewBox="0 0 1024 1536" version="1.1" xmlns="http://www.w3.org/2000/svg" id="svg">
  
  <defs>
    <style>
      .st0 {
        fill-rule: evenodd;
      }
    </style>
  </defs>
  <path d="M218.8,221.9c-2.6,2.9-2.5-7.4-3.3,294.6-.3,127.2-.4,128.5-3,136.7-3.2,9.9-9.8,22.9-17.3,33.7-44,63.8-53.2,84.3-55,123.1-.6,12-.2,16.2,2,25.5,3.2,13.6,7.4,21.3,19.8,36.6,15.2,18.7,26.3,26.9,57.6,42.6,9.9,5,20.6,10.8,23.7,12.9,13.6,9.2,30.2,23.9,41.1,36.4,6.5,7.4,14.1,16.1,16.9,19.2,7.8,8.7,19.4,24.4,38.5,52,33.2,47.9,40.4,58.4,51.4,74,6,8.6,12.4,17.6,14.2,19.9,1.8,2.4,7.3,9.9,12.4,16.8,8.1,11,20.1,26.2,38.8,49.2,6.7,8.3,17.1,16.4,32.8,25.6,17.8,10.4,28.1,14.1,48.6,17.4,21.8,3.5,43.4,1.8,62.9-5,5.1-1.8,10.3-3.6,11.5-3.9,1.5-.5,2.6.5,3.9,3.6,1,2.4,3.7,6.5,6.1,9.2,2.3,2.6,6.6,7.9,9.6,11.7,25.4,32.6,50.7,50.1,84.3,58.4,31.9,7.9,60.5,5.5,91.3-7.8,12.7-5.5,20.7-10.6,32.8-21.1,19-16.3,33.7-39.5,39.6-62.6,4.8-18.6,5.5-56.4,1.3-72.1-5.5-20.8-26-50.3-78.5-113.5-5.2-6.2-15.3-18.6-22.4-27.5-7.2-8.9-19.7-24.3-28-34.1-8.2-9.9-17.2-20.8-20-24.4-2.7-3.5-8.2-10.3-12.1-15.1-34.4-41.9-53.8-68.8-62.6-86.3-8.4-16.8-11.9-28.5-16.1-54.5-2.6-16.1-2.6-18.2-2.9-255.4-.2-173.4-.6-239.6-1.7-240.6-1-1-28.7-1.5-96.1-1.7l-94.7-.4v-36c0-35.8,0-36-2.8-38-2.5-1.7-15.2-1.9-112.6-1.9h-109.8l-2.4,2.6M243.1,230.8c.6,1.6,1.3,37.1,1.5,79.1l.5,76.2-9,.4-9,.4v-79.5s0-79.5,0-79.5h7.5c6.7,0,7.6.3,8.6,2.8M266.2,228.7c1.8.7,2,8.8,2,79.1v78.4h-18.4l-.8-20.3c-.4-11.1-.9-46.5-1.1-78.5l-.3-58.2,6.2-.4c3.4-.2,7.2-.5,8.3-.7,1.1-.1,3,.1,4.1.5M339.6,228.9c.3.5,1,36,1.5,79l.9,78h-11.4c0,0-11.4.1-11.4.1v-156.6l5.9-.5c11.5-.9,13.9-.9,14.4,0M363.8,307.2l.3,78.6h-18.4l-.8-15.7c-.4-8.6-.8-43.8-.8-78.2,0-71.1-1.4-63.9,11.8-63.5l7.5.2.3,78.6M387.8,307v79h-19.9v-158h19.9v79M412.1,307.3v78.7h-10.7c0,0-10.7.1-10.7.1v-77.5c0-51.7.4-78.1,1.2-79.1.9-1.1,4.2-1.5,10.8-1.2l9.5.4v78.7M434.9,229.9c1.2.4,1.6,17.2,1.6,78.4v77.9h-9.8c-7.8,0-10-.4-10.6-2-.9-2.5-1-149.8,0-153.3.6-2.3,1.5-2.5,9-2.1,4.6.2,9,.7,9.9.9M291.8,307.7v78.5h-10c0,0-10-.1-10-.1v-156.8h19.9v78.5M315.5,303.8c0,41,.3,76.4.8,78.5,1,4.9-1.7,6.2-7.8,4-3.3-1.2-4.7-1.2-6,0-1,.8-2.9,1.1-4.3.6-2.5-.8-2.6-1.3-2.6-79.3v-78.4h19.9v74.6M462.3,305.8c1.1.9,1.7,71.1.9,109.4l-.9,45.8-7.6-.5-7.6-.5-.3-75.2c-.2-41.4,0-76.4.3-77.9.6-2.5,1.2-2.7,7.8-2,3.9.4,7.3.8,7.5,1M485.8,340.1c1.1,47.9,1.1,49.5.7,87.4l-.3,33.2-9.7-.2-9.7-.2.5-77.3c.3-42.5.6-77.6.8-77.9.2-.3,4-.6,8.6-.6h8.2l.8,35.5M534.6,375.7c.2,39.1,0,74-.4,77.6-.7,5.7-1.2,6.6-4,7.3-1.8.4-4.2.2-5.4-.6-1.5-.9-3.5-1-6.3-.2-2.3.7-4.3,1.2-4.5,1.2-.8,0-.2-155.5.6-156.3.5-.5,5.1-.7,10.3-.5l9.4.4.4,71M558.3,382.2l-.3,78.2-3.7-.3c-2.1-.2-6.4-.3-9.7-.3h-5.9v-155.8h20l-.3,78.2M582,382.1l.3,77.5h-10s-10,0-10,0v-154.1l4.7-.5c2.6-.3,6.9-.5,9.7-.4h5c0,.1.3,77.6.3,77.6M600.2,304.8l5.8.8v154.2h-19.6l-.8-3.9c-.4-2.1-.8-36.9-.8-77.2,0-57.5.3-73.4,1.6-73.9,2.3-.9,7.3-.9,13.8,0M509.6,308.7c.5,1.9.9,36.8.9,77.6v74.2h-19.9l-.7-72.3c-.4-39.8-.5-74.7-.1-77.6l.6-5.3h9.2c8.9,0,9.2,0,10.1,3.4M628.4,382.9c0,42.7-.3,78-.7,78.4-.4.4-2.2,0-3.9-1-2.1-1.1-5.3-1.4-9.3-1l-6,.7v-154.9h19.9v77.7M233.5,429.9c1.2,0,2.2-.6,2.2-1.2s1.1-1.2,2.4-1.2,2.8.6,3.2,1.2c1.1,1.8,9,1.5,9.7-.3.4-1.2,1.2-1.2,3.4.1,2.3,1.4,3.4,1.4,5.8,0,2.4-1.3,3.5-1.3,5.4-.1,3.1,2,8.3,1.9,9,0,.5-1.2.9-1.2,2.2,0,2,1.9,8.6,2.1,8.6.3s1.1-1.2,2.5-1.2,2.5.6,2.5,1.2c0,1.8,7.2,1.5,7.8-.3.5-1.2,1.1-1.2,3.2,0,3.2,1.9,8.9,2.1,8.9.3s3.3-1.6,6.2.3c2,1.2,3,1.2,5,0,3-1.9,6.2-2,6.2-.3s4.5,1.6,7.5-.3c1.9-1.2,2.8-1.2,4,0,1.8,1.8,7.3,2,7.3.3s3.3-1.6,6.2.3c2,1.2,3,1.2,5,0,3.1-2,6.6-2,8.5,0s2,1.2,4,0c1.9-1.2,3.2-1.2,5.7,0,2.5,1.1,3.8,1.1,5.6,0,2.9-1.8,8.6-2,8.6-.2s.8,1.2,1.9,1.2,1.9-.6,1.9-1.2,1.4-1.2,3-1.2,3.4.6,3.8,1.2,1.9,1.2,3.2,1.2,2.4-.6,2.4-1.2c0-1.7,4.5-1.6,7.5.3,2,1.2,3,1.2,5,0,3.1-1.9,6.2-2,6.2-.2s1.8,1.1,5.6.5l5.6-.8v16.6c0,15.7-.1,16.6-2.5,16.8-1.4.1-2.5-.3-2.5-1,0-1.6-4.6-1.5-5.6,0-1.1,1.7-6,1.6-7.8-.2s-2.2-1.1-4.6.2-3.5,1.4-4.6.2c-1.8-1.8-6.8-1.9-7.8-.2-.4.7-2.1,1.2-3.8,1.2s-3-.6-3-1.2-1.1-1.2-2.4-1.2-2.8.6-3.2,1.2c-1.1,1.7-5.1,1.6-8.1-.3-1.9-1.2-2.8-1.2-4,0-1.8,1.8-7.3,2-7.3.3s-1.1-1.2-2.4-1.2-2.8.6-3.2,1.2-1.9,1.2-3.2,1.2-2.4-.6-2.4-1.2c0-1.7-5.4-1.6-7.2.2s-2.2,1.1-4.6-.2c-2.6-1.4-3.6-1.4-6.3,0-2.4,1.3-3.5,1.3-4.6.2-1.8-1.8-7.2-2-7.2-.2s-5.4,1.6-7.2-.2-2.2-1.1-4.6.2c-2.6,1.4-3.6,1.4-6.3,0-2.5-1.4-3.7-1.4-5.6-.2-3.1,1.9-7.1,1.9-7.8,0-.5-1.2-1.1-1.2-3.2,0-3.3,2-5.8,2-8.9,0-1.9-1.2-2.8-1.2-4,0-2,2-7.6,2-9.5,0-1.2-1.2-1.8-1.2-3,0-1.9,1.9-7.5,1.9-9.4,0s-2.2-1.1-4.6.2c-2.6,1.4-3.7,1.4-6.1.1-2.4-1.3-3.4-1.3-5.6,0-2.1,1.3-3.2,1.4-5.1.1-2.9-1.8-7.8-2-9.4-.4-.7.8-1.1-4.6-.8-14.6.4-17.6.8-20.2,3.1-17.9s2.5,1.5,3.7,1.5M485.8,501.6c.4,1,1.7,1.9,2.9,1.9s2.5-.8,2.9-1.9c.4-1,1.5-1.9,2.5-1.9s2.1.8,2.5,1.9c.4,1,2.1,1.9,3.7,1.9s3.3-.8,3.7-1.9c.4-1,1.6-1.9,2.7-1.9s2.3.8,2.7,1.9c.8,2.1,5.4,2.6,5.4.6s1.1-1.2,2.5-1.2,2.5.6,2.5,1.2c0,2,5.9,1.4,6.7-.6.4-1,1.6-1.9,2.7-1.9s2.3.8,2.7,1.9c.4,1,2.1,1.9,3.7,1.9s3.3-.8,3.7-1.9c.4-1,1.4-1.9,2.3-1.9s1.9.8,2.3,1.9c.4,1,2.2,1.9,3.9,1.9s3.5-.8,3.9-1.9c.4-1,1.5-1.9,2.5-1.9s2.1.8,2.5,1.9c.4,1,2.1,1.9,3.7,1.9s3.3-.8,3.7-1.9c.4-1,1.8-1.9,3.1-1.9s2.4.8,2.4,1.9,1.1,1.9,2.5,1.9,2.9-.8,3.2-1.9c.4-1,1.5-1.9,2.5-1.9s2.1.8,2.5,1.9c1,2.6,6.7,2.4,8.7-.3,1.6-2.1,1.8-2.1,3.4,0,2.1,2.7,8.1,2.9,9.1.3.4-1,1.4-1.9,2.3-1.9s1.9.8,2.3,1.9c.4,1,2.1,1.9,3.9,1.9s3.2-.7,3.2-1.9.8-1.9,1.7-1.9,2.1.8,2.5,1.9c.4,1,2.1,1.9,3.7,1.9s3.3-.8,3.7-1.9c.4-1,1.3-1.9,2-1.9,1.8,0,1.7,33.2,0,34.4-1,.6-43.6,1-78.4.7-1,0-18.7.2-39.3.6-39.4.6-38.9.6-52,.5-4.6,0-9,.3-9.7.7-.8.5-1.3-5.4-1.3-17.6s.3-18.1,1.5-16.9c1.8,1.8,8.5,2,8.5.2s4.1-1.6,5.8.1c1,1,2.1.9,4-.3,2.1-1.3,3.1-1.3,5.1-.1,3.4,2.1,8.1,1.9,10-.3.9-1,2.1-1.9,2.7-1.9s1.5.8,1.8,1.9M435.9,539.2c-.5,1.2-1.5,1.3-4.6.2-3-1.1-4.6-1-6.5.2-2,1.2-3.1,1.2-5.4,0-2.4-1.3-3.5-1.3-6.1.1-2.5,1.4-3.7,1.4-5.6.2-2.9-1.8-7.4-2-7.4-.3s-4.2,1.6-6-.3c-1.2-1.2-2.1-1.2-4.1,0-2.1,1.3-3.3,1.3-6.3.1-2.9-1.2-4.3-1.2-6.7,0-2.4,1.3-3.7,1.3-6.9,0-2.9-1.2-4.2-1.2-5.3-.2-1.8,1.8-5.9,1.9-5.9.2s-1.1-1.2-2.5-1.2-2.5.6-2.5,1.2-1.1,1.2-2.4,1.2-2.8-.6-3.2-1.2-2.1-1.2-3.8-1.2-3,.6-3,1.2-1.4,1.2-3.1,1.2-3.1-.6-3.1-1.2-1.1-1.2-2.4-1.2-2.8.6-3.2,1.2c-1,1.7-5.1,1.6-8-.3-1.9-1.2-3.1-1.1-5.6.2-2.7,1.4-3.7,1.4-6.3,0-2.5-1.4-3.4-1.4-5,0-1.6,1.3-2.5,1.3-5.1,0-2.3-1.2-4-1.3-6.5-.4-2.2.8-4.6.9-7,0-2.6-.9-3.8-.8-4.1.2-.6,1.8-6.1,1.9-7.1.2-1.1-1.8-5.3-1.6-5.9.3-.4,1.2-1.2,1.2-3.9,0-4.1-1.9-9.5-2-9.5-.3s-1.1,1.2-2.4,1.2-2.8-.6-3.2-1.2c-1.1-1.7-6-1.6-7.8.2-1.1,1.1-2.2,1.1-4.7-.2-2.5-1.3-4-1.4-6.9-.3l-3.7,1.4v-35.5l3.9.6c2.5.4,4.3,0,4.9-1.2.9-1.4,1.5-1.4,3.6-.2,3,1.9,8.8,2.1,8.8.3s1.1-1.2,2.5-1.2,2.5.6,2.5,1.2c0,1.8,6.7,1.6,8.5-.2,1.2-1.2,1.8-1.2,3,0,1.8,1.8,6.8,2,7.9.2,1.1-1.8,5.3-1.5,5.9.3.4,1.2,1.5,1.2,5.3-.2,3.5-1.3,4.9-1.3,5.3-.3.7,2.2,7.9,1.7,9.8-.8,1.6-2.1,1.8-2.1,3.4,0,2,2.5,7.1,2.9,9.3.7,1.2-1.2,2.1-1.2,4,0,2.1,1.3,3,1.2,5.2-.3,3.5-2.4,6.7-2.4,7.6,0,.4,1,2.1,1.9,3.9,1.9s3.2-.7,3.2-1.9c0-2.4,2.1-2.4,4.4-.1,1.8,1.8,6.8,1.3,6.8-.7s2.7-1.3,5.3,1c2.2,2,2.6,2,6.2,0,2.9-1.7,4.2-1.9,5.6-.7,1.2,1,2.6,1.1,4.5.2,1.6-.7,15.9-1.1,34.9-.9,23.4.2,32.2,0,32.4-1.1.2-.8.4,7,.7,17.2s.1,19.3-.2,20.2M460.1,579.5c0,.7,1.1,1.2,2.5,1.2s2.5-.6,2.5-1.2c0-1.7,4.5-1.6,7.7.3,2.1,1.2,2.8,1.2,3.2,0,.7-1.9,8.7-2.1,9.3-.2.3.9,1.5.9,3.9-.2,2.8-1.3,4-1.2,6.6.2,2.6,1.4,3.6,1.4,5.8,0,2.1-1.3,3.1-1.3,5.6,0,2.4,1.3,3.5,1.3,5.4.1,3.1-1.9,6.5-1.9,8.4,0,1.2,1.2,1.8,1.2,3,0,1.8-1.8,6.8-2,7.9-.2.4.7,2.1,1.2,3.8,1.2s3-.6,3-1.2c0-2,4.6-1.4,5.4.6.4,1,1.8,1.9,3.1,1.9s2.7-.8,3.1-1.9c.9-2.5,3.2-2.4,6,.2,2.2,1.9,2.6,2,5.7,0,2.6-1.5,4-1.7,5.8-.7,1.7.9,3,.9,4.6,0,2.8-1.8,6.9-1.8,7.9-.2.4.7,1.9,1.2,3.2,1.2s2.4-.6,2.4-1.2,1.4-1.2,3.1-1.2,3.1.6,3.1,1.2,1.4,1.2,3,1.2,3.4-.6,3.8-1.2,1.9-1.2,3.2-1.2,2.4.6,2.4,1.2c0,1.8,6.7,1.6,8.5-.2,1.2-1.2,1.8-1.2,3,0,1.8,1.8,7.2,2,7.2.2s1.1-1.2,2.5-1.2c2.4,0,2.5.8,2.5,16.2s-.3,16.3-2.1,17.1c-1.2.5-2.3.2-2.6-.7-.6-1.8-6.1-2-7.1-.2-.4.7-2.1,1.2-3.8,1.2s-3-.6-3-1.2-.8-1.2-1.9-1.2-1.9.6-1.9,1.2-1.4,1.2-3,1.2-3.4-.6-3.8-1.2-1.9-1.2-3.2-1.2-2.4.6-2.4,1.2c0,1.7-5.4,1.6-7.1-.1-1-1-2.6-.9-6.1.3-3.7,1.3-4.8,1.4-5.2.1-.6-1.8-5.3-2.1-5.3-.3s-7.2,1.5-7.8-.3c-.5-1.2-1.1-1.2-3.2,0-3.2,1.9-7.7,2.1-7.7.3s-2.8-1.5-7.4.8c-3.7,1.8-4.2,1.8-6.2,0-2.5-2.2-5.1-2.6-5.1-.8s-4.5,1.6-7.7-.3c-2.1-1.2-2.8-1.2-3.2,0-.7,1.9-6.8,2.1-8.6.3-.9-.9-2.3-.8-4.6.2-2.7,1.2-3.9,1.2-6.4-.2-2.4-1.3-3.5-1.3-4.6-.2-1.8,1.8-6.8,1.9-7.4.1-.3-.9-1.5-.9-3.9.2-2.8,1.3-4,1.3-6,0-2.1-1.3-3.3-1.2-6.7.4-3.3,1.6-4.7,1.7-6.6.5-1.7-1.1-3.4-1.1-6.2-.1-3,1-4.4.9-6.4-.5-2-1.4-3.2-1.5-5.1-.5-2.5,1.3-2.5,1-2.5-14.4s.2-15.7,2.2-15c1.2.4,3.6,0,5.3-1,3.8-2.1,6.2-2.4,6.2-.7M303.1,584.8c2.3,2.8,2.4,2.8,6.3.6,2.3-1.3,4.5-1.8,5.1-1.1s1.4,22.6,1.8,49c.4,26.3,1.2,48.4,1.8,49.1.7.7,1.2-17.6,1.2-46.7,0-45.2.2-48.1,2.4-51l2.4-3.1,3.1,2.9c2.5,2.3,3.6,2.6,5.6,1.6,1.4-.7,2.7-2,3-2.9.4-1.2,1-1.2,2.6.1,1.9,1.5,2.1,6.7,2.1,52.7s.5,51,1.1,51c1.8,0,2.7-20.8,2.7-60.6s.6-44.1,4.5-44.1,1.9.6,2.4,1.2c1.1,1.8,7.8,1.5,8.4-.3.4-1.2,1-1.2,2.6.2,1.9,1.5,2.1,6.5,2.1,50.8s.5,49.1,1.1,49.1c2.1,0,2.7-11.9,2.7-54.5s.3-43.2,1.9-44.8c1.7-1.7,2.2-1.7,4.2.2,2.1,1.9,2.7,1.9,6.7.3,3.2-1.3,4.7-1.5,5.7-.4,1,1,1.4,15.8,1.4,48.6s.3,47.1,1.6,46.7c1.2-.4,1.6-10.8,1.6-45.9,0-37.3.4-45.9,1.9-48.2,1.9-2.9,5.5-3.7,6.8-1.6,1,1.7,6.9,1.6,6.9,0s1-1.1,2.2-.9c2,.4,2.2,3.8,2.8,45.2.5,34.2,1,44.9,2.2,45.3,1.2.4,1.6-8.8,1.6-43.3s.3-44.1,1.8-45.6c2.2-2.2,5.3-2.3,6.1-.2.5,1.2,1.1,1.2,3.2,0,4.3-2.6,8.8-2,9.5,1.2.3,1.5.8,32,1.1,67.6.5,68,1.2,77.3,6.8,97.2,3.7,13.2,7.9,22.5,15.6,35,7.9,12.8,28.8,41,47.5,64,6.9,8.5,19.8,24.5,28.7,35.5,8.9,11,24.3,29.8,34.4,41.8,61.3,73.3,92.9,113.3,99.7,126.1,2.2,4.1,3.8,7.6,3.5,7.8-.9.7-19.9,7-33.5,11.2-59.8,18.3-74,23.8-86.9,34-8.2,6.4-50,50.4-61,64.1-3.5,4.4-10.1,11.7-14.6,16.1l-8.2,8-6.8-7.6c-3.8-4.2-11.5-13.4-17.2-20.5-10.1-12.6-15.1-19.2-32.4-42.8-8.2-11.2-47.5-67.8-68.9-99.3-34.3-50.5-74.4-92.2-106.1-110.4-6.8-3.9-7.7-4.8-6.3-6.5.9-1.1,5.5-6.4,10.4-11.9,4.8-5.5,11.2-13.1,14.3-16.9,3-3.8,12.5-15.3,21.1-25.6,8.6-10.2,18.9-23.4,23-29.2,10.2-14.8,20.1-28,27.2-36.4,3.9-4.6,5.5-7.4,4.6-7.9-2.1-1.3-10.4,8.5-30.5,36.2-10,13.7-23.2,30.8-29.4,38-6.2,7.2-15.4,18.2-20.4,24.4-5,6.2-12.3,14.9-16.1,19.2-3.8,4.3-7,8.3-7,8.9,0,3-14.1-3.6-31.8-15-12.3-7.9-31.1-27.3-37.7-38.9-13.3-23.6-13.4-47.5-.4-83.5,6.6-18.1,29.6-57.2,33.7-57.2s5.2,1.3,8.9,3c3.7,1.6,12.3,5.1,19.2,7.7,25.2,9.7,92.8,45.4,101.9,53.9,3.6,3.4,6.1,2.9,3.9-.7-4.8-8-76.9-46.3-111.5-59.2-12.1-4.5-18.6-8.1-18.6-10.3s3-6.5,6.7-12.1c8.5-12.9,15.2-26.3,18.9-37.5l2.9-8.8v7.2c.2,3.9.8,7.2,1.4,7.2s1.2-13.5,1.2-38v-38l4.8.8c3,.5,5.2.2,5.7-.6.5-.8,2.2-1.4,3.9-1.4h3v43.6c0,28.3.4,43.6,1.2,43.6s1.2-8.4,1.3-22.7c0-12.5.4-31.5.8-42.3.8-19.3.9-19.5,3.9-20.9,2.2-1,3.5-1,4.4-.1,1.7,1.7,8.3,1.7,8.3,0s1.1-1.2,2.5-1.2c2.4,0,2.5.8,2.5,45.7s.4,45.3,1.2,44.6c.7-.7,1.3-18.3,1.4-42.4.1-22.7.5-42.7.8-44.6.7-3.8,2.3-4.2,5.3-1.5,1.8,1.7,2.5,1.7,6.1-.1,7.8-3.9,7.6-5.3,7.9,46.4.3,36.3.7,47.1,1.9,47.5,1.2.4,1.6-9.3,1.6-45.9s.2-46.6,2.2-48.6c2.8-2.8,2.6-2.8,5.3.4M592.7,653.6c2.3,2.3,6.6,2.5,7.4.3.4-1.2,1.1-1.2,2.9-.2,2.2,1.3,2.3,3.1,1.9,32.4-.5,33.5.7,64.4,2.5,63.3.6-.4,1.1-21.3,1.1-46.4v-45.7s3.2-2.3,3.2-2.3c2.3-1.7,3.6-2,4.6-.9,1.9,1.9,8,1.8,8.7-.2.4-1,1-1.1,1.9-.3.9.8,1.6,23.4,2.1,66.7.9,69.9,2,83.7,8.4,105.3,8.1,27.2,26.8,55.4,81.2,122.1,6.7,8.2,15.4,18.9,19.2,23.7,3.9,4.8,15,18.3,24.7,30,9.7,11.7,22.5,27.4,28.5,34.9,5.9,7.5,14.9,18.7,20,24.8,30.3,37.1,52,66.7,53.6,73,.7,3,.3,3.4-6.5,5.8-4,1.4-11.7,3.8-17.2,5.3-5.5,1.5-13.3,3.8-17.4,5-9.9,3-21.4,5.8-27.1,6.8-7.4,1.3-30.7,9.3-38.9,13.4-14.9,7.5-25.4,17.7-51.6,50-10.7,13.2-38.6,45.2-42.2,48.5-2.4,2.1-2.7,1.9-9.9-5.6-7.3-7.7-21.6-24.6-28.3-33.5l-3.4-4.5,10-6.6c19-12.5,37.1-32,45.9-49.6,10.2-20.2,14.2-38.3,14.2-64.5,0-21.4-2.5-34.9-9.2-48.3-8-16.2-30.7-47.7-50.4-70.1-4.2-4.8-15.6-18.5-25.3-30.5-9.7-12-20.8-25.5-24.6-29.9-3.8-4.5-13.4-16-21.2-25.6-19.8-24.4-42.8-52.8-53.3-65.9-4.9-6.1-12.4-15.3-16.7-20.3-16-19.1-28.9-39.7-34-54.5-3.6-10.4-7.5-27.5-8.2-35.5-.3-3.8-1.1-13.3-1.8-21.2-1.6-18.2-1.5-51.6,0-47.7,1.3,3.4,1.5,3.4,7.1.7,4.2-2,4.4-2,5.8.3,1,1.6,1.6,17.7,2,49.7.5,39.1.9,47.4,2.4,47.8,1.5.5,1.7-6.6,1.1-47.9-.4-26.7-.4-49.2,0-50,.7-1.8,6.6-2.1,6.6-.3s1.4,1.2,3.1,1.2,3.1-.6,3.1-1.2,1.4-1.2,3.1-1.2c5.4,0,6,5.7,5.5,57.2-.3,36.3,0,46.8,1.1,47.2,1.2.4,1.5-10.4,1.5-50s.3-51.4.8-52.5c.8-2.2,4.9-2.7,6.1-.7,1.1,1.7,5.1,1.6,8.2-.3,2.1-1.3,2.7-1.2,3.7.3.7,1.1,1.2,23.3,1.2,54.5,0,34.3.5,52.7,1.3,52.7s1.2-18.4,1.2-52.8v-52.8l3.1-1.7c2.4-1.3,3.5-1.3,4.6-.2,1.8,1.8,7.2,2,7.2.2s1.3-1.2,2.9-1.2c2.9,0,2.9.1,3.7,19.6.4,10.8.8,35.4.8,54.8,0,32.6.8,41.3,3.2,33.8.5-1.5.5-25.8,0-53.9l-.8-51.2,3.2-2.3c3.1-2.2,3.4-2.2,5.6-.1,2.3,2,2.6,2,5.7,0,2.7-1.8,3.5-1.9,4.4-.5.6.9,1.1,21.6,1.1,45.9,0,47.9.7,62.1,3,59.8,1-1,1.2-16.3,1-52.1-.4-42.7-.1-51.1,1.4-53.1,1.7-2.2,2-2.3,4.8-.3,3.8,2.7,6.9,2.6,8.5-.1,1-1.7,1.7-1.9,3.5-.8,2.1,1.3,2.3,4.7,2.6,51.4.2,31.9.8,50,1.6,50s1.2-17.8,1.2-49.9.2-49.9,1.9-49.9,1.9-.8,1.9-1.9.5-1.9,1.2-1.9,2,.8,3,1.9M676.4,1067.7c9.2,19.4,8.6,58-1.3,84.5-11.4,30.4-37.1,56.5-66.7,67.9-17.1,6.5-30.9,9.1-49.2,9.1-14.9,0-19.2-.5-29.9-3.3-19.1-5.1-46.9-19.3-54.7-27.9-2.3-2.6-2.3-2.7,7.6-12.9,5.5-5.7,14.2-15.4,19.3-21.5,16.1-19.3,50.5-53.8,59.4-59.6,4.6-3.1,14.1-7.5,21.4-10.1,7.2-2.5,15.3-5.5,18.1-6.5,5.4-2.1,37.3-12.1,47.4-14.9,8.2-2.3,20.6-6.6,23-8,3-1.7,3.3-1.5,5.7,3.5M869.6,1146.3c5.5,13,6.9,35.9,3.7,57.3-3.2,21.4-9.7,37.5-21.7,53.5-13.7,18.4-29.3,30.3-50.9,39-42.7,17.1-87.4,11.9-127.2-14.8-8.1-5.4-9.5-8.4-5.8-11.5,3.3-2.8,26.3-29.2,41.6-47.9,18.6-22.7,37.4-41.6,46.1-46.4,8.5-4.7,32.2-12.7,50.5-17.1,7.5-1.8,17.6-4.4,22.4-5.8,4.8-1.4,11.8-3.3,15.6-4.3s9.7-2.9,13.1-4.3c8.9-3.5,10.3-3.3,12.5,2.1" class="st0"></path>
</svg>