<svg viewBox="0 0 1024 1536" version="1.1" xmlns="http://www.w3.org/2000/svg" id="svg">
  
  <defs>
    <style>
      .st0 {
        fill-rule: evenodd;
      }
    </style>
  </defs>
  <path d="M641.1,606c3.6.4,10.1,1,14.5,1.4,4.4.4,10.5,1.1,13.5,1.6,3,.5,8.2,1.2,11.5,1.5s10.5,1.2,16,2c10.8,1.6,16.3,2.4,21,2.9,1.6.2,6.6.9,11,1.5,4.4.6,12.5,1.8,18,2.6,5.5.8,14.7,2.1,20.5,3,10.5,1.6,14.9,2.2,20.5,2.9,1.6.2,5.7.9,9,1.5s8.4,1.3,11.3,1.6c2.9.3,7.9.9,11,1.5,3.1.6,7.9,1.2,10.7,1.5,2.8.3,8.1,1.1,12,2s9.5,1.7,12.5,2,8,1,11,1.6,7.3,1.2,9.5,1.4c2.2.2,6.7.9,10,1.5s7.8,1.3,10,1.5,7.8,1.1,12.5,2,9.9,1.8,11.5,2c22.3,3,35.8,5.2,39.6,6.7,4.4,1.7,4.9,4.3,4.3,24.1-.3,10.1-.7,19.3-1,20.6-.3,1.3-2.2,4.1-4.4,6.3-6.3,6.4-10.8,14.7-14,25.8-1.6,5.7-3,10.9-3,11.7s-.4,2.2-.9,3.1c-.5,1-1.7,4.9-2.6,8.7-4.8,19.9-11.4,38.7-18.8,53-11.8,22.8-29.4,36.7-60.4,47.4-5,1.7-10,3.3-11.1,3.5-1,.2-4.2,1.1-7,1.9-3.3,1-9.2,1.5-16.7,1.5-10.6,0-12.4-.3-21.8-3.5-23.1-7.9-31.7-15.4-41-35.2-9.2-19.7-13.9-49.9-10.8-69.1.6-3.5.8-6.6.5-6.9-.9-.9-10.2,1.7-18.2,5-12.4,5.1-14.3,7.9-14.4,21.2,0,5-.4,12.1-1,15.6-.5,3.6-1.2,8.5-1.5,11-.7,6.2-3.4,18.2-5.7,25.7-1,3.4-1.9,6.9-1.9,7.7,0,6.2-13.1,34.8-21.8,47.7-14,20.7-32.6,33.4-64.2,43.8-12.6,4.2-35.2,8.3-44.9,8.2-10.7-.1-11-.1-17.1-1.8-22.7-6-38.9-17.9-48.1-35.3-4.5-8.4-7-14.9-10.4-26.5-1-3.3-2.1-6.9-2.6-8-.4-1.1-1.1-3.6-1.5-5.5-1.2-6-6.3-21-9-26.6-1.5-3-3.8-6.2-5.3-7.2-2.9-2.1-12-5.3-13-4.7-.4.2-6.7-.4-14.1-1.5-7.4-1-16.6-2.1-20.5-2.4-3.8-.3-10.4-1-14.5-1.6-4.1-.5-10-1.2-13.1-1.4-3.1-.2-9.2-.9-13.5-1.5-7.5-1-18.2-2.1-21.4-2.2-.8,0-5.8-.7-11-1.4-5.2-.7-12.2-1.6-15.5-1.9-8.3-.8-29-3.3-41.5-5-5.8-.8-13.2-1.7-16.4-2-8.6-.8-19.3-3.4-25.4-6.1-2.9-1.3-5.7-2.4-6.2-2.4s-1-.5-1-1-.6-1-1.2-1c-1,0-13.2-7.6-21-13.2-2.2-1.6-8.7-5.3-20.2-11.8-5-2.8-9.7-5.4-10.5-5.9-20.1-11.9-32.1-16-46.8-16-15.1,0-21.6,6-27.6,25.5-11,35.8-15.5,47.1-21.2,52.6-2.8,2.7-4.2,3.2-11.6,4.1-10.8,1.2-15-.3-21.4-7.5-7.1-8.1-11-21.1-8.3-27.4,1.1-2.5,11.3-14.2,22.4-25.7,1.1-1.2,5.8-6.4,10.5-11.6,17-19.3,25.1-27,32.2-30.6,3.7-1.9,6.8-3.2,6.8-3s1.9-.2,4.2-1c6.9-2.5,19-2.8,31.8-1,6.3.9,13.1,1.8,15,2,1.9.2,8,1.1,13.5,2,5.5.9,14.5,2.4,20,3.2,5.5.9,13.4,2.2,17.5,3s9.1,1.7,11,1.9c4.8.7,6.5,1,14,2.4,19.2,3.5,22.9,4.1,26.7,4.6,2.3.3,7,1.2,10.5,1.9,3.5.8,8.3,1.7,10.8,2,2.5.3,6.1,1,8,1.5,1.9.5,5.7,1.1,8.3,1.5,2.7.3,6.8,1,9.3,1.6,2.4.5,5.9,1.2,7.7,1.4,1.8.2,6.3,1.1,10.1,2,3.8.9,8.9,1.8,11.5,2.1,2.6.3,6.5.9,8.7,1.4s6.2,1.1,8.8,1.5c2.7.3,6.9,1,9.5,1.6,4.4,1,6,1.3,13.7,2.4,1.7.2,5.2.9,8,1.4,7.5,1.5,10.7,2.1,13.8,2.5,6.9,1,16.1,2.8,26.4,5.2l11.2,2.6,11.3-3.7c11.8-3.9,13.9-4.8,35.5-15.2,7.2-3.5,13.4-6.4,13.7-6.4.6,0,11.1-4.7,14.1-6.2,8.5-4.6,48.3-16.3,58.6-17.2.8,0,2.1-.5,2.8-.9.7-.4,1.5-.6,1.8-.3.3.3,3.1-.1,6.2-.9,3.1-.8,12.3-2.1,20.4-2.9,15.8-1.6,26.4-1,38.3,2.1,7.1,1.8,24.2,8.2,26.9,10,1.6,1.1,2.4.9,5.5-1,4.8-3,14.6-6.6,19.6-7.2,2.2-.3,7.1-1.2,11-2s7.9-1.6,9-1.8c1.1-.2,4.6-.8,7.8-1.5,3.2-.7,7.1-.9,8.7-.6,2.6.6,4-.3,13.3-8.2,5.7-4.9,12.5-10.6,15-12.8,5.4-4.5,5.7-5.5,2-5.1-1.5.2-7.2-.3-12.8-1-5.5-.7-12.8-1.6-16.1-1.9-9.6-.9-20.5-5-43-16-11.5-5.7-24.6-11.8-29-13.6-4.4-1.8-9.4-3.8-11-4.5-4.2-1.8-17.6-6.4-20-6.9-1.1-.2-5.8-1.3-10.4-2.5-12.3-3-32.1-2.4-44,1.3-9.3,2.9-16.2,5.9-20.1,8.8-5.7,4.3-25.7,24.9-32.3,33.3-22.8,28.7-28.5,33.9-43.1,39.2-5.4,1.9-19,4.3-24.6,4.3-9.8,0-22-6.3-28.4-14.7-6.1-8-4.5-12.7,6.6-19.5,2.9-1.8,8.9-5.7,13.3-8.7,7.2-4.9,16.1-10.5,67.5-41.9,24.6-15,28.2-17.2,28.5-17.2s3-1.5,6.1-3.4c6-3.5,18.7-8.4,23.2-9,1.4-.2,5.5-.8,9.1-1.4,7-1.2,22.5-1.2,33,0M599,612.9c-9.2,2.5-14.9,5-25.4,10.9-9.2,5.2-31.1,18.4-43.5,26.1-4.7,2.9-14.6,9-22,13.5-15.8,9.6-30.3,18.8-31,19.6-.3.3-2.8,1.9-5.5,3.5s-5.2,3.1-5.5,3.5c-.3.3-2.1,1.6-4.1,2.8-8.3,5.1-8.5,7.5-1.2,14.5,9.1,8.9,17.9,11.1,32.4,8.3,16.8-3.3,20.5-5.1,29.9-14.6,4.7-4.7,11.2-11.9,14.5-16s6.4-8,7-8.6c.6-.6,4.1-4.7,7.7-9,14.1-16.6,26.1-26.8,38.1-32.4,13.6-6.3,38.1-8.6,54.1-5,2.5.6,6,1.2,7.8,1.4,1.8.2,4.5.9,6,1.5s3.8,1.2,5,1.5c5,1,33,11.9,39.8,15.6,21.9,11.8,45,21.9,51.7,22.5,1.5.1,7.4,1,13.2,1.9,5.8.9,12.3,1.7,14.5,1.7,2.2,0,6.3.6,9.2,1.1,4.9.9,8.6.1,10.3-2.1,1.4-1.9,24.3-12.5,29-13.5.3,0,4.3-1.3,9-2.7,4.7-1.4,9.6-2.8,11-3.1,1.4-.3,6.1-1.4,10.5-2.5,12.5-3.1,23.8-5.1,30.8-5.2,6.2-.1,4.2-1.8-3-2.6-3.7-.4-7.4-.9-8.2-1.1-.8-.2-3.2-.5-5.3-.8-2.1-.3-6.8-.9-10.5-1.5-3.7-.6-11.2-1.7-16.7-2.5s-14.3-2.2-19.6-3c-5.3-.8-12-1.8-15-2.1-3-.3-9.2-1.2-13.9-2.1s-10.5-1.7-13-2-7.2-.9-10.5-1.5c-3.3-.6-8.2-1.3-11-1.5s-8.6-1.1-13-1.9c-4.4-.8-10.5-1.7-13.5-2-3-.3-8-1-11.1-1.5-3.1-.5-8.2-1.2-11.5-1.5-3.3-.3-8.2-1-10.9-1.5-2.8-.5-6.8-1.2-9-1.4-9.1-1-14.3-1.6-20-2.5-3.3-.5-8.9-1.2-12.5-1.5-6.6-.5-22-2.2-27.5-2.9-7.8-1.1-30.2.3-37.6,2.3M892.3,652.5c-5.1.8-10.7,1.7-12.5,1.9-9.6,1.3-38.3,8.3-43.2,10.5-1.1.5-4.7,1.9-8,3-16.5,5.9-32.4,16.3-54.1,35.6-2.8,2.5-6,5.1-6.9,5.9-1.7,1.2-1.5,1.5,2.3,3.4,2.7,1.4,4.8,1.8,6.1,1.4,1.1-.4,7.1-5.4,13.3-11.1,17.3-15.8,18.7-17.1,19.3-17.1s1.5-.8,2.5-1.8c2.4-2.2,18.4-11.2,19.9-11.2s2.1-.7,3.3-1.4c2.5-1.6,24.6-8.5,35.2-10.9,3.9-.9,10-2.3,13.6-3.1,3.7-.8,8.8-1.8,11.5-2.1,2.7-.3,7.8-1,11.4-1.6,3.6-.6,8.1-.9,10-.9,1.9,0,4.4,0,5.5,0l2-.2-2-.9c-3.2-1.4-19.3-1.1-29.3.5M925.1,658c-20.4.8-30.9,2.1-43.8,5.5-3.1.8-7.3,1.7-9.2,2.1-6.6,1.1-25.4,6.4-30.5,8.5-1.6.7-4.6,1.9-6.5,2.7-13.1,5.5-24.2,12.8-34.1,22.4-20.6,20-21.9,20.9-30.4,20.3-4.3-.3-9.2.5-19.4,3.2-7.5,2-14.3,3.7-15.1,3.8-2.8.3-12.5,3.8-17.2,6.2-6,3-8.9,3-13.6,0-5.7-3.7-22.6-9.1-33-10.6-8.5-1.2-22-1-35.7.5-7.5.8-37.3,6.9-44.7,9.2-2.6.8-5.9,1.6-7.5,1.9s-4.2,1.1-5.8,1.8c-1.7.7-6.2,2.3-10,3.6-3.9,1.3-10.3,3.8-14.3,5.7-4,1.9-7.5,3.4-7.8,3.4s-5.7,2.5-12.2,5.6c-24.5,11.8-31.3,14.6-44.1,18-.9.2-1.1.9-.5,2.1.8,1.6,1,8.2,1.3,34.4v7.6c0,0,4,1.6,4,1.6,10.9,4.4,15,11.5,22,39.1,1.7,6.6,3.3,12.7,3.7,13.5.3.8,2.5,7.1,4.9,14,5.2,15.2,8.9,22.1,15.1,28.4,5.7,5.8,10,8.6,17.5,11.4,7.4,2.8,24.3,2.8,36.8,0,4.7-1,9.9-2.1,11.6-2.4,9.5-1.7,27-8,39-14.1,10.6-5.4,15.1-8.8,25.5-19.3,10.6-10.7,16.9-21,25.5-41.5,5.2-12.4,10.8-32.2,10.7-37.4,0-1.9.3-3.9.8-4.5.5-.6,1.2-3.8,1.5-7.1s1.1-8.9,1.6-12.5c.5-3.6.9-10.3,1-15,0-10,2-15.4,7.1-19.3,8.6-6.5,28.8-13.1,41.4-13.6,5.1-.2,6.3,0,8.1,2.1,2,2.2,2.2,3.6,2.6,19.3.2,9.3,1,20.4,1.6,24.5,1.8,11.6,4.3,23.4,5.2,24.5.5.5.8,1.8.8,2.8,0,3.9,7.4,21.6,11.8,28.1,5,7.4,8,10.1,15.7,14,4.5,2.3,6.1,2.5,16.4,2.5,11.1,0,19.9-1.9,33.6-6.9,9.4-3.4,24.1-10.5,29.9-14.4,15.5-10.4,28.1-28.5,36.1-52,1.5-4.4,3.1-8.9,3.6-10,.5-1.1,3-10,5.4-19.9,2.5-9.8,5-18.7,5.5-19.8.6-1,.8-1.9.5-1.9-1,0,4.4-14.3,7.3-19.4,1.7-2.9,4.9-7.4,7.2-10,3.1-3.5,4.2-5.7,4.4-8.4.1-2,.6-10.4,1-18.6.8-14,.7-15-1.1-16.3-1.3-1-3.2-1.2-5.9-.8-2.2.3-13.7,1-25.5,1.5M945.8,674.7c1.7,1.4,1.9,2.1,1,4-1.2,2.7-3,2.9-5.2.7-2-2-2-2.8.2-4.8,1.7-1.5,2-1.5,3.9,0M907.6,673.9c5.9,1.4,12.2,4.9,14.2,7.7,5.4,7.5,7.2,26.7,4.4,45.4-.6,4.1-1.3,9.5-1.6,12-2.2,23.6-13.7,58.9-23.4,72-11.6,15.6-25.7,24-54.8,32.3-16.2,4.7-25.6,4.7-34.5.3-8.7-4.4-15.4-13.5-19.4-26.6-4.1-13.5-6.3-24.5-7.5-38-1.9-21.7,1.3-39.1,9.9-53.5,9.2-15.3,31.1-32,51.8-39.5,29.3-10.6,50.1-14.7,60.9-12.1M915.6,685c5.1,10,3.3,42.7-4.1,72-1.3,5.2-2.7,10.6-3,12s-1,3.4-1.5,4.5-1.4,3.8-2,6c-2.1,7-10.6,23.9-14.8,29.1-6.9,8.7-20.2,17.2-36.1,23-11.7,4.3-25.3,7.3-32.9,7.4-7.8,0-4,1.8,4.2,1.9,18.4.2,47.1-10.3,61-22.3,8.6-7.5,11.5-11,16.2-19.9,6.3-11.9,15-41.7,16.8-57.4.3-2.7,1-7.8,1.6-11.4.6-3.6,1-13.2,1-21.3,0-14.9-.7-18.5-4.6-24.5-2.2-3.3-3.7-2.7-1.9.8M937.9,686.2c2.5,2.5.6,6.8-2.9,6.8s-3.4-4.7-1.8-6.6c1.4-1.7,3.1-1.8,4.7-.2M947.5,691.1c2,2.9.1,6.1-3.4,5.7-3-.3-3.9-3.8-1.5-6.2,2.1-2.1,3.1-2,4.9.5M742.1,714.4c-3,.9-7.5,1.8-10,2.1-2.5.3-6.6,1-9.1,1.6-2.5.6-5.3,1.2-6.1,1.3-3.3.5-12.8,5.2-12.8,6.4s.6,1.3,1.4,1.3,1.9.7,2.6,1.5c1.4,1.7,5.6,2,6.5.5,2.2-3.6,24.6-10.4,41.8-12.6,5.4-.7,6-1.5,2-2.9-3.7-1.3-9.7-1-16.3.9M630.6,714.5c-5.5.8-12.1,1.7-14.7,2-2.6.3-6.6.9-9,1.4-2.4.5-6.1,1.2-8.3,1.5-2.2.3-5.6,1-7.5,1.6s-5.1,1.3-7,1.6-5.5,1.4-8,2.4c-2.5,1-8.5,3-13.5,4.5-5,1.5-10.4,3.3-12,4-3.4,1.5-5.7,2.5-13,5.6-5.9,2.6-27.2,12.6-29.9,14.1-3.4,1.9-28.8,11.8-30.2,11.8-2.2,0-1.5,1.7.9,2.4,5,1.3,12.5-.2,23.2-4.8,1.7-.7,5.9-2.5,9.5-4s10.5-4.7,15.5-7c5-2.3,10.7-4.8,12.8-5.6,2.1-.7,3.8-1.7,3.8-2.1s.5-.8,1.1-.8,2.5-.6,4.2-1.4c7.1-3.1,9.7-4.1,21.6-8.3,11.8-4.2,29.1-9.2,33.5-9.8,1.1-.1,5.4-1,9.5-1.9,15.6-3.4,24.9-4.7,38.5-5.4,13.7-.7,13.9-.8,9-1.9-7-1.7-18.3-1.6-30,.1M143.6,716.5c-5.3,1.1-15,6.3-19.9,10.6-2.6,2.3-7.8,7.7-11.4,12-8.9,10.4-32.3,36.2-38.3,42.3-5.6,5.6-5.9,7.7-2.9,15.8,2.8,7.3,8,14.5,11.7,16.3,9.1,4.3,12.5,0,23.2-29.1,3.3-9.1,5.6-14.2,11.5-26.4,8-16.4,22.3-27,36.4-27,7.5,0,32.4,6.8,36.7,10,.5.4,4.8,2.8,9.5,5.2,8.2,4.3,10.3,5.5,22,12,5.9,3.3,25.2,15.7,26,16.7,1,1.3,10.7,6.7,15.5,8.7,6.6,2.8,11.9,4.2,18.6,4.8,3,.3,8.6,1,12.4,1.6s9.7,1.2,13,1.5c3.3.3,10,1.1,15,1.9,5,.8,12.2,1.7,16,2s9.5,1,12.5,1.5,8,1.2,11,1.4c6.7.6,27.1,3,48.5,5.6,8.8,1.1,19.4,2.2,23.6,2.5,4.2.3,11.8,1.1,17,1.8,5.2.7,10.2,1.1,11.1.9,1.4-.3,1.8-2.2,2.3-10.5,1-16.1.3-31-1.5-31.2-.8-.1-3.3-.7-5.5-1.3-4.6-1.2-24.6-5.2-29-5.8-1.7-.2-5.2-.8-8-1.4-2.8-.6-6.8-1.2-9-1.5s-7.4-1.1-11.5-1.9c-10.1-2-27.3-5-39.5-7.1-5.5-.9-13.2-2.3-17-3.1-3.9-.8-8.4-1.6-10-1.9s-3.9-.6-5-.8c-1.1-.2-5.2-.9-9-1.6-10.6-1.8-23-4-33.5-6.2-5.2-1.1-11.5-2.2-13.9-2.5-2.4-.3-6.3-.9-8.5-1.4-2.2-.5-6.3-1.2-8.9-1.5-2.7-.3-6.7-1-9-1.5-2.3-.5-6.4-1.2-9.1-1.5-2.7-.3-8.2-1.3-12.3-2.1-4.1-.8-9.1-1.7-11.1-2-2-.3-6.2-.9-9.2-1.4s-7.3-1.2-9.5-1.5-6.5-1-9.5-1.5c-3-.6-8.6-1.3-12.5-1.6s-7.3-.8-7.5-1.1c-.6-.6-17.3.3-21.5,1.2M671.4,736.5c13.3,2.9,21.4,9.2,26.7,20.8,3.1,6.6,3.3,8.1,3.7,19.7.4,11-.2,19.5-2.1,30.8-.9,5.5-8,31.9-9.6,35.7-10.9,26.2-19.3,38.9-33,49.5-5,3.8-20.1,11.6-27.2,14-5,1.7-22,6.7-23.1,6.8-.1,0-.9.2-1.7.5-5.6,1.7-20.8,3.5-27.5,3.2-18.4-.7-27.7-8.3-37-30-5.1-11.9-8.9-26.3-10.2-38.6-.3-3-1-6.2-1.4-7.1-1.1-2-1-34.1,0-35.4.4-.5,1.1-2.8,1.4-5.1,1.2-8.7,6.5-19.6,14.3-29.2,6.9-8.5,27-20.4,42.3-25.2,4.1-1.3,9.5-3,12-3.8,5.6-1.8,21-5.2,27-5.9,2.5-.3,7.2-.9,10.5-1.5,8.3-1.3,27.8-1,34.8.5M757,743c-1.2.6-1.9,2.1-1.9,3.8,0,2.3.8,3.1,5.5,5.3,3,1.4,5.7,2.4,6,2.1.9-.9.6-8.3-.5-10.3-1.2-2.2-5.8-2.6-9-.9M753.1,764.3c0,35.3,14.8,71.4,33.1,80.7,4.9,2.5,5.7,2.1,2.8-1.1-2.6-2.9-6.7-10.9-10.7-20.9-6.1-15-9.4-28.9-10.7-44.5-.3-3.3-.8-8.7-1.1-12l-.6-6-5.7-3c-3.1-1.7-6-2.9-6.4-2.7-.4.2-.7,4.5-.7,9.6M692.1,758.2c2,5.5,2.2,27.1.4,37.3-.9,5-1.7,9.9-1.9,11-.2,1.1-.4,2-.5,2-.2,0-.5,1.3-1.4,5.1-7.9,35.1-22.1,60.7-40.6,73.4-9.6,6.6-33.5,16.7-41.5,17.6-1.1.1-3.8.7-6,1.3-2.2.6-5.4,1.3-7,1.5-1.6.3-6.4,1-10.6,1.7-4.2.7-9.7,1-12.2.8-5.2-.4-6.3.6-1.7,1.6,6.7,1.5,23.7.5,33-1.9,3-.8,8.7-2.2,12.5-3.1s8.2-2.3,9.7-3.1c1.5-.7,3.1-1.4,3.5-1.5,4.1-.6,20.5-8.9,26-13.2,5.4-4.1,16.2-14.9,16.2-16s1.8-3.3,4.1-6.6c11.3-17,22.1-55.3,23.5-82.9.5-10.1-.4-15.7-3.7-23.9-2.3-5.7-3.9-6.5-1.9-1M120.9,760.9c-3.4,7.9-11.4,28.2-14.4,36.6-1.5,4.4-3.6,9.5-4.7,11.4-1.9,3.4-1.8,4.9.1,3.7,1.9-1.1,7.7-11.9,10.3-19.1,1.4-3.8,4.7-13.5,7.3-21.5,2.6-8,4.9-15.1,5.2-15.9.4-.9.1-1.1-.7-.6-.7.4-2.1,2.8-3.2,5.4M469.6,789.9v19.4l6.5,1.6c3.6.9,7,1.9,7.6,2.3.6.4,1.4.4,1.8,0,.8-.8.8-12.7,0-27.9l-.6-11.9-6.1-1.6c-9.8-2.5-9.1-4-9.1,18.1M447.5,777.5c2.1,2.1,1.8,5.4-.7,6.9-1.4.9-2.1.7-3.2-.8-1.8-2.5-1.8-2.9.4-5.6,1.7-2.1,1.9-2.1,3.6-.5M517.1,783.1c.9,1.6.7,2.6-.5,4.6-2.1,3.2-4.9,2.7-5.3-.9-.6-5,3.7-7.7,5.9-3.6M436.7,783.6c.5,2,.2,3.1-1.1,4-2.4,1.8-4.7,0-4.3-3.6.4-3.8,4.5-4.2,5.4-.5M526.7,789.6c.8,3.1-2.5,7.1-5,6.1-2.3-.9-2.1-6.3.4-7.6,3-1.6,4-1.3,4.7,1.6M447.1,789.5c.7.9,1,2.6.6,4.1-.5,2.1-1.2,2.5-3.4,2.3-2-.2-2.8-1-3-2.6-.6-4.3,3.3-6.7,5.8-3.7M517.1,802c0,3.6-2.4,5-4.7,2.7-2.2-2.2-.8-5.7,2.2-5.7s2.4.5,2.4,3M492.6,826.8c2.2,4.4,8.2,22.9,13.4,41.7,4.9,17.7,16.3,36.5,26.4,43.7l3.2,2.3-1.8-2.8c-8.8-13.6-13.6-26-22.3-58.2-1.5-5.5-3-10.7-3.4-11.5-6.9-15-7-15.1-11.6-18-2.6-1.6-5-2.7-5.4-2.5-.4.3.3,2.6,1.6,5.2" class="st0"></path>
</svg>