<svg viewBox="0 0 1024 1536" version="1.1" xmlns="http://www.w3.org/2000/svg" id="svg">
  
  <defs>
    <style>
      .st0 {
        fill-rule: evenodd;
      }
    </style>
  </defs>
  <path d="M487.6,174.1c-7.4.2-23.2,1-35,1.7-54.9,3.5-80.4,10.8-90.5,26l-3.3,5v28.3c0,22.4-.5,30.6-2.2,39.3-2.9,14.4-14.4,48.6-16.8,49.9-1,.5-14.4,6.2-29.7,12.7-37.8,15.8-79.6,34.5-103.4,46-48.1,23.3-71.2,46.8-83.9,85.1-22.9,68.9-55.6,233.6-76.6,385.4-11.5,83-24.2,230.6-24.4,284-.2,38.6,5.7,63.5,20.8,88.7l4.3,7.1-.8,20.5c-.4,11.3-1.6,37.5-2.6,58.2-2.2,44.2-2.3,43.2,8.1,46.8,6,2.1,12.2,2.4,59.5,2.9,47.4.6,53.2.4,56.7-1.4,2.1-1.1,4.5-3.1,5.1-4.3,1.4-2.5,3.9-31.2,6.8-77.4,1.1-16.5,2.2-31.2,2.6-32.5.4-1.3,3.6-9.1,7.2-17.2,3.6-8.1,6.7-15.5,7.1-16.6,1-3.1,2,10.5,2.7,36.2,1.1,40.7,1.8,47.3,5.1,50.5l2.8,2.8h303.4c166.8,0,304.6-.4,306.2-.8,1.6-.4,3.4-2.2,4.1-4,.7-1.8,2.1-20.6,3.1-41.8,1-21.3,2.1-40.6,2.5-42.9l.6-4.3,3,7.8c1.6,4.3,4.9,12.2,7.3,17.5,4.8,10.7,4.4,6.9,10.7,97.7,1.6,23.1,1.7,23.7,5,27l3.3,3.3,38.7.4c45.6.4,75.6-1,81.1-3.8,6.4-3.3,7-6.7,5.5-30.6-.7-11.6-2-37.9-2.8-58.3l-1.4-37.1,3.1-4.7c15.4-23.3,21.9-50.7,21.8-92.3-.1-65.1-13.2-209.3-28.4-312.1-9.6-65.4-14.2-92.4-27-160.1-18-95.2-35.2-168.6-47.2-200.3-8.6-22.9-24.4-43-45.7-58.2-20.6-14.7-71.6-39.3-145.7-70.4l-25.7-10.8-4-10.4c-12-31.3-15.4-52.9-14-90.3.6-14.8-.9-19.5-8.1-25.7-16.9-14.9-53-21.3-126.2-22.5-16.2-.3-35.5-.3-42.9,0M595.8,186.1c35.7,4.6,53.2,11.1,58.8,21.9,1.7,3.3,1.9,6.5,1.2,21.7-1.4,31.1,3.8,60.9,16,89.9l2.9,7-6.8,9.2c-25.2,34-61.6,56.5-106,65.6-13.3,2.7-31,4.9-39.6,4.9h-5.8s0-42.3,0-42.3v-42.3l4.3-1.8c2.4-1,4.6-2.6,5-3.5.4-1-.2-6.9-1.3-13.2-1.4-8-1.9-16.6-1.6-28.1.4-15,.2-16.6-1.7-17-1.3-.3-2.1-1.5-2.1-3.4s.6-3,3.6-3,10.1-.9,18.1-1.9c40.4-5.3,68.4-14.5,88.3-29.2,9.7-7.1,12.3-10.8,10.4-14.9-1.9-4.2-3.9-3.8-9.5,2-7.5,7.7-17.7,14-31.5,19.3-31.1,12.1-75.9,18.3-107.6,15-42.9-4.4-76.6-16-93.9-32.2-8.2-7.7-10.7-8.5-12.9-4.5-1.2,2.3-.5,3.5,7,10.8,10,9.7,24,17.3,44.5,23.9,15.7,5.1,41.1,10,58.1,11.2,10.5.8,12,1.1,12,3.1s-1,2.8-2.3,3.5c-2.1,1.1-2.4,3.3-2.9,24.9-.3,13-1.2,25.5-1.9,27.7-1.2,3.6-1,4.4,1.5,6.9,1.5,1.5,3.4,3,4.1,3.3.9.3,1.6,14,2.2,43.1l.9,42.6h-4.2c-2.3,0-10.5-.8-18.3-1.7-54.8-6.8-98.5-30.4-126.9-68.6-8.2-11-8.2-8.1-.1-31.2,8.4-24.1,9.9-34,9.9-66.5,0-20.9.4-29.6,1.6-31.5,5.9-10.3,30.4-18,67.1-21.1,8.8-.7,18.2-1.5,20.9-1.8s31.7-.3,64.4,0c45.2.3,63.1.8,74.5,2.3M378.7,257c-.9,35.3-3.6,48.5-13.7,65.1-4.9,8.1-3.7,10.6,1.6,3.3,4.9-6.7,10.4-22.5,13.1-37.4,2.6-14.5,3.4-57.1,1-57.9-1-.3-1.6,7.5-2.1,26.9M641.5,248.1c0,34.2,8.5,75,17.3,83,3.9,3.6,3.7,1.4-.6-6.9-7.6-14.5-12.4-39.4-13.6-72-.5-12.3-1.4-22.4-1.9-22.4s-1.1,8.3-1.1,18.4M397.1,265.1c-.7,28.7-2.2,37.1-11.2,66.5-6,19.5-5.7,26.8.4,8.4,10.4-31.6,13.3-46.4,14.5-73.5.8-17.5,0-26.9-2-26.9s-1.3,11.5-1.7,25.5M622.7,248.6c-.8,10,.7,30.4,3.4,45.6,3.5,20,11.8,53.8,13.6,55.6,2.3,2.3,1.6-3.2-2.8-20.8-9.3-37.5-11.3-50.4-11.3-73.1,0-17.6-1.6-21.7-2.9-7.2M417.1,262.1c0,6.3-.6,17.5-1.3,24.8-1.3,14-9.2,55-13.3,69.8-1.4,5.1-2,9-1.3,9.7.7.7,1.6-.2,2.3-2.1,2.8-7.5,12.5-54.2,14.2-68.9,2.1-18.2,2.5-44.8.6-44.8s-1.2,4.6-1.2,11.4M604.1,270c1,22.7,3.1,39.3,7.4,58.6,5.4,24,10.1,38.1,12.1,36.1.3-.3-1.6-8.1-4.2-17.4-8.9-31.7-12.2-52.4-12.2-78.5,0-15.8-.3-18.1-2-18.1s-1.9,2-1.1,19.3M513.7,262.6c-.2,1.7-1.1,3.4-1.9,3.7-1.7.6-2.1-6.6-.7-12,.8-3,.9-3,1.9,1.1.6,2.3.9,5.5.7,7.3M584.3,257.5c-1,2.6,2.7,55.6,5.1,72.9,2.1,15.4,9,48,10.4,49.5,2.3,2.4,2.1-1.9-.7-13.3-6.2-25.6-10-55.3-11.2-88-.7-20.4-1.7-26.1-3.7-21M435.1,280.4c-.9,26.3-4.2,53.4-9.5,78.6-3.5,16.3-3.9,22.4-1.3,18.2,1.6-2.6,8.6-40.5,10.6-57.3,2.4-20,3.9-61.9,2.2-61.9s-1.5,8.9-2,22.4M453.5,292.6c-.4,16.4-1.3,35.6-2,42.7-1.2,12.8-5.7,44.7-7,50-.8,3.2,1.6,3.8,2.5.6,1.5-5,6.9-47.7,8-64.1,1.8-26.5,2.1-58,.6-58.5-.9-.3-1.6,9.1-2.1,29.3M566,282.7c1.3,31.2,2.9,51.1,6.3,78.4,3.3,26.7,3.7,28.7,5.2,27.8.5-.3,0-7.4-1.2-15.7-3.7-25.5-6.1-54.4-6.9-82.5-.6-21.3-1.2-27-2.5-27.5-1.4-.5-1.6,2.7-.8,19.5M471.8,301.9c-.4,20.1-1.6,47.3-2.6,60.4-2.1,28-2.2,30.7-.8,30.7s2.1-9,4.4-49.4c2.9-49.9,3.4-78.1,1.5-78.1s-1.8,7.5-2.4,36.5M490.6,294.4c0,16.1-.8,43.3-1.8,60.5-2.2,38.6-2.3,43.9-.5,42.1,1.7-1.7,4.7-62.3,5.1-101.8.2-22.3,0-29.1-1.2-29.5-1.2-.4-1.5,5.9-1.6,28.7M547.1,273.4c0,24.8,5.2,117.8,6.6,119.3,1.8,1.8,1.8-2.1.2-26.2-1-14.1-2.1-35.1-2.5-46.5-1.4-41.4-2.2-54.6-3.3-54.6s-1.1,3.6-1.1,8M529.1,268.5c-1.2,3.1,2.6,123.3,4.1,128,.3,1,.9,1.2,1.4.6.5-.6.5-10.2,0-21.4-.5-11.1-1.2-40-1.8-64.1-.9-40.3-1.6-48.8-3.8-43.1M516.8,287.8c.4,12.7.1,16.9-1,16.9-2.1,0-3.2-5.4-2.3-10.5.6-3.4.4-4.2-1.2-4.2-2.5,0-3.7,4.9-2.7,10.6.6,3.4.4,4.3-.8,3.9-2-.7-3.1-35.3-1-35.3s1.3,3.7,1.3,9.3c0,8.2.3,9.2,2.1,8.9,1.7-.3,2.2-1.9,2.5-8.4.3-8.2,1.5-13.5,2.2-9.8.2,1,.6,9.4.8,18.7M515.9,309.5c2.2,0,3,.7,3,2.5s-.6,2.5-7,2.1c-5.4-.3-7.1-.8-7.4-2.4-.4-2.1,3.5-3.6,6.9-2.7.9.2,3,.4,4.6.4M513.1,485.9c-.2,133.6-.5,164.1-1.8,164.1s-1.6-30.5-1.9-164.1c-.3-154.4-.1-164.1,1.8-164.1s2.1,9.7,1.9,164.1M351.2,341.7c9.3,12.1,25.2,27.4,37,35.9,26.6,18.9,67.3,33.2,101.4,35.5,6.3.4,12.7,1,14.2,1.3l2.8.6.3,118.7.3,118.7h8.6l.3-118.6.3-118.6,8.3-.7c49-4.4,77.1-13.1,108.1-33.5,12.3-8.1,31.7-26.4,41.4-39,3.8-5,7.4-9.1,8-9.1,1.4,0,77,33.2,105.6,46.4,46,21.2,60.2,29.3,74.9,43,7.1,6.6,20.6,23.4,20.6,25.7s-1.4,2.4-3.2,4.1c-4.2,3.9-13.5,15.7-20.6,26.1-3.2,4.7-5.7,7.4-5.7,6.1,0-1.6,8.7-28.5,12.6-38.6.2-.4-.2-1-.9-1.2-1.7-.6-10,21.5-14.4,38.2-2.7,10.4-5.5,17.5-10.7,27-3.9,7.1-7.8,14.8-8.7,17.2-.9,2.4-2.3,5.1-3,6-.7.9-2.5,5.6-4,10.4-3.8,12.5-4.6,8.5-3.8-18.7.9-31.8,5.7-57.4,16.9-89.7,4.5-13.1,5.2-16.9,2.5-14.1-2.1,2.1-14.6,41.5-17.7,55.7-4.7,21.4-5.7,29.3-6.5,54-.8,24.8.6,43.6,4.8,65,2.5,12.5,2.6,17.7,3.4,175.4.5,89.4,1.3,213.3,1.8,275.4l1,112.9-3.2,16.6c-3,15.7-4.9,36.4-8.6,95.7l-1.4,22.7-301.3.3c-246,.3-301.6,0-302.6-1.3-.8-1-2.1-18.2-3.2-43.9-2.2-50-2.3-51.3-6.6-71.1-3.3-15.3-3.3-15.4-3.3-70.5,0-30.4.4-152.9,1-272.3.9-205,1.1-217.9,3.3-231.2,3.3-20.1,5.8-39.4,6.7-52.1,1.2-16.9-2.8-56-8.1-79.1-4.8-20.7-15.5-51.6-18.1-52.5-1.8-.6-1.9-.8,3.1,12.8,9.8,27.1,17,63.5,18.4,93.1.4,8.1.2,17.2-.4,20.2l-1,5.5-3.5-9.8c-2.9-8.1-11.3-26.1-20.8-44.2-1.1-2-3.8-10.6-6.2-19-5-18.2-11.5-35.6-13.3-35.6s-.9,1-.5,2.1c.4,1.2,3.5,10.3,7,20.4,3.4,10,6.1,18.7,5.9,19.3-.2.6-3.2-3.2-6.7-8.4-3.5-5.2-9.9-13.7-14.4-18.7-4.4-5.1-8.1-9.6-8.1-10,0-.5,2.7-5,6.1-10,14.6-21.8,35.8-35.3,100.6-63.8,37.4-16.5,95-41.3,95.8-41.3.4,0,3.8,4,7.6,8.9M340.5,348.6c-.8,1.3,1,29.3,3.6,55.4,6.4,64.9,5.9,36,6.4,407.8.3,222,.9,346.3,1.6,347.1,1.2,1.2,2.1-357.1,1.5-572.8-.3-103.4-.7-114.7-5.9-172.3-1.7-18.5-3.4-40.8-3.8-49.4-.7-14.4-1.6-18.6-3.4-15.8M680.4,362c-.5,8-1.9,27.2-3.3,42.7-8.3,93.8-9,124.9-8.1,349.6.4,99.9.8,232,.8,293.6,0,79.1.4,111.8,1.3,111.2.9-.6,1.2-95.3.9-322.4-.4-338.6-.4-339.8,5.1-400.7,6-66.2,7.3-87.3,5.4-88-.9-.3-1.6,4.4-2.2,14M298.1,364c0,.4,2.5,22.9,5.5,50.1,3,27.2,6.1,60.2,7,73.3,1.1,17.8,1.4,106.6,1.2,348.4-.2,206.7.1,324,.9,323.2,1.7-1.8,3.1-578.4,1.6-637.3-1.2-46.3-1.9-55.5-9.1-121.3-2.7-24.8-4.4-36.2-5.5-36.6-.8-.3-1.5-.2-1.5.2M723.2,364.9c-.8,2.4-10.3,91.8-11.7,110.9-3.1,40.8-3.6,112.5-2.9,393.4.5,189.6,1.2,290.1,2,289.6.8-.5,1-101.3.5-290.4-.4-161.4-.2-307.8.4-330.7,1.3-47.5,3.3-75.6,9.1-127,2.3-20.2,4.3-38.8,4.5-41.3.4-4.6-.9-7.6-1.9-4.5M362.9,370.5c.9.4,1.9.3,2.4,0s-.3-.7-1.6-.6c-1.4,0-1.7.3-.7.7M257.6,382.4c0,.3,1.6,10.9,3.6,23.6,4.7,29.7,8.2,57.6,10.1,80.7,1.2,14.5,1.5,88.1,1.4,345.7-.1,241,.2,327,1.2,325.9,2-2,2.8-617.2.9-654.6-1.6-31.3-3.5-49.3-9.4-88.2-5-33.2-5.1-33.7-6.7-33.7s-1.2.2-1.2.5M763.7,384.7c-.5,1.6-6.9,43.2-9.2,59.8-6.3,45.2-7.2,89.3-7.3,355.1,0,218.7.9,360.3,2.5,359.4.5-.3.6-125.2.3-277.5-.7-299.5,0-368.7,4.5-411.3,2.1-19.7,8.7-66.2,11.8-83.1.5-2.6.3-4-.7-4s-1.6.7-1.9,1.5M385,388.6c-.3.3.6,14.7,1.8,32.2,2.2,29.6,2.3,54.5,2.8,385.5.3,205.8,1,353.3,1.6,352.7.6-.6,1.2-146.1,1.3-342.8.2-303.8,0-345-1.7-371.7-1.1-16.5-2.4-35.7-2.8-42.7-.7-11.3-1.5-14.7-3-13.2M635,403.7c-.4,8.6-1.6,30.5-2.6,48.8-1.5,27.7-1.8,87.8-1.8,370.2,0,218.1.4,337,1.2,337s1.3-122.7,1.6-346.8c.3-308.1.6-350.6,2.5-380.6,1.1-18.6,2.3-36.1,2.6-38.9.3-3.6,0-5.2-1-5.2s-1.7,4.6-2.3,15.6M217.7,403.1c6.7,28.8,12.4,62.2,14.9,87.4,1.7,17,2,48.9,2.5,237.4.3,119.8,0,265.5-.5,323.8-.6,58.4-.7,106.6-.2,107.1.5.6,1.3.4,1.7-.4.5-.8,1.1-140.9,1.5-311.4.6-324.5.3-345-4.7-378-2.2-14.7-11.2-60.9-12.9-66.5-1-3.2-3.1-2.6-2.3.6M799.4,422.7c-5.6,26.3-7.6,38.3-10.9,64.4-2.6,20.2-2.6,24.1-2.8,250-.2,311.2.3,422.6,1.8,422.6s1-93.7.5-282.4c-.8-290-.1-358,3.8-391.6,2.3-19.6,8.4-56.6,11.7-70.3,2.7-11.3,2.9-13.7,1.4-13.7s-3,9.5-5.5,21.2M593.1,412.9c-2.5,7-3.1,748.5-.6,746,.9-.9,2.4-747.5,1.5-747.5s-.6.7-.9,1.5M429.1,785.9c.2,204.5.6,372.1.9,372.4.3.3.8.3,1.1,0,1-1,1-705.4,0-724.6-.5-10.3-1.3-18.9-1.7-19.2-.4-.3-.6,166.9-.4,371.4M468.6,790.3c0,244,.4,368.2,1.2,368.7.8.5,1.2-122.5,1.2-367.9s-.4-368.7-1.2-368.7-1.2,123.5-1.2,367.9M552,790.4c0,244.5.4,368,1.2,368s1.2-123.5,1.2-368-.4-368-1.2-368-1.2,123.5-1.2,368M898.7,486c30.2,104.2,67.4,311.9,82.6,461.4,8.6,84.5,14.7,179.2,13.1,204.2-1.7,27.2-7.3,47.8-18.5,67.6-5.7,10.1-6.8,12.9-6.2,16.4.3,2.4,1.5,28.7,2.7,58.6,1.9,48.5,1.9,54.5.2,56.2-2.3,2.3-37.8,4.1-82.7,4.1-24.8,0-29.8-.3-31.1-1.8-.9-1.1-2.2-10.8-3.2-25.5-.9-13-2.8-37.9-4.2-55.3l-2.5-31.7-6.5-14.9c-13-29.7-13.8-33.6-10.4-49.2,2.3-10.4,2.4-16.2,2.5-97.6,0-47.6.3-85.7.5-84.7.6,2.5,10.5,83.3,15.9,129.4,6.3,54.7,13.3,100,15.5,100s1.4-.6-.8-11.8c-2.9-15.3-7.8-50-11.1-79.4-1.7-14.9-6.9-58-11.5-95.8-4.6-37.8-8.8-76.7-9.2-86.5-.9-21.8-1.4-292.9-.5-293.8s10.4,57.2,17.6,103.9c5.1,33.3,11.7,83.4,16,120.5,1.7,14.8,3.4,28.4,3.7,30.1.5,2.6,11.4,99.7,15.3,136.8,6.8,64.1,11,121.6,11.1,150,0,16.5.5,26.1,1.2,26.1,1.6,0,1.6-45.5,0-68.1-.7-9.4-2.3-28.8-3.6-42.9-1.3-14.2-2.9-31.8-3.6-39.3-2-22.9-7.3-72.7-11.1-105.2-4.5-38.6-8.8-77.5-12.9-115.6-8.2-76.6-16-129.1-33.5-225.7-9.5-52.3-9.8-57.3-4.6-73.6,7.5-23.3,34.4-70.2,52.4-91l6.6-7.6,2.8,6.2c1.5,3.4,5.3,14.9,8.4,25.4M150.9,472.1c23.4,30.9,47.8,81.6,47.8,99.2s-1.1,12.4-2.5,19.8c-5.6,30.4-22.3,133.6-26.9,166.1-2.7,19.2-6.9,52.6-9.3,74.2-5.6,50.3-10.1,91.2-17.6,157.6-6.6,58.8-8.4,76.4-13.1,130-3.6,41.3-5.4,102.1-3.1,103.6,1,.6,1.4-5.8,1.4-24.1,0-24.1,4.5-89.7,9.2-135.3,10.7-102.6,25.8-228.4,35.1-292.6,7-48.3,16.9-109.4,18.3-112.2.7-1.5.9,54.7.5,150.3l-.6,152.7-4.3,36.2c-2.4,19.9-7.3,63-11,95.7-3.7,32.7-7.6,66.4-8.6,74.8-2,15.6-7.4,49.1-8.6,53.1-.4,1.2-.1,2.1.6,2.1,1.8,0,2.2-1.8,6.2-27,4.4-27.3,6.7-45.9,14.9-119,10.4-93,9.5-92.9,9.6-.9v80.6c.1,0-4.1,20.2-4.1,20.2-2.3,11.1-5.9,25.8-8,32.7-3.5,11.5-4,16.4-1.3,12.1,1.7-2.7,8.2-27.2,11.5-42.9,2.7-13.1,3-13.7,3.8-9.2.5,2.7,1.3,7.6,2,10.8,2.2,11.4,1.4,17-4.2,31.1-2.9,7.3-7,16.7-9.1,20.7-4.7,9.2-4.8,9.8-7,43.5-3,43.9-5.5,72.8-6.8,75.7l-1.1,2.8h-33.5c-33.8,0-74.8-1.7-78.6-3.1-2.7-1-2.7-10.7.3-72.9l2.3-47.2-5.9-10.4c-10.7-19-12.1-22.7-15.9-41.9-3.6-17.9-4.3-35.2-2.6-68.5,4.1-81,12.6-172,24.1-258.2,14.4-108.2,39.3-242.6,60.8-328.7,5.8-23.3,15.3-55.5,18.5-63.1l2.3-5.4,3.1,2.9c1.7,1.6,6.9,7.9,11.5,14M146.3,479.5c-1.6,3.1-11,35.2-17.5,60.1-10.7,40.9-18.8,80.5-33.1,160.7-24.9,140.1-33.8,215.4-47.3,400.5-2.6,35.2-1.9,58.6,2.4,79.7,3,14.7,9.4,36.6,11.7,40.4,2.7,4.3,2-.3-1.8-12.1-2.3-7-5.7-20.2-7.6-29.4-3.2-15.6-3.4-18.6-3.3-44.3,0-16.5,1.2-40.4,2.8-59.5,1.5-17.5,4-49,5.7-69.9,8.3-102.8,20.2-196.3,36.8-288.3,17.6-97.4,22.9-123.7,32.7-163.2,5.5-22,14.6-54.9,18.4-66.6,2.6-7.8,2.7-12.9.2-8.2M875.8,478.6c0,.6,3.6,13.5,7.9,28.7,16.2,56.6,27.1,106,41.8,189.8,3.1,17.9,7.6,43.3,9.9,56.4,12.3,70.4,24.6,170.1,30.5,249,.4,5.7,1.6,18.7,2.5,28.8,3.6,37.9,6.7,87.4,6.7,105.9,0,26.2-4.5,51.9-13,75-1.8,4.8-2.8,9-2.4,9.5,1.3,1.3,2.7-1.7,7.3-15.6,12.9-38.9,13.4-62.5,3.7-176.7-2.3-27.3-4.8-56.9-5.5-65.6-3.9-47.6-16.3-145.2-25.2-198.7-22.9-136.6-39-211.6-61.4-285.5-.7-2.2-2.9-3-2.9-1.1M171.1,527c-18.6,81.5-35.3,170.5-45.9,244.4-4.5,31.1-13,99.1-14.8,117.8-.7,7.4-2.1,19.6-3.1,27-2,14.7-5.6,50.5-12.2,119.6-8.7,90.2-10.2,117.9-8.1,141.6,1.3,14,6.7,44.5,8.1,46,1.9,1.9,1.6-2.7-1.2-16-6.6-32.2-6.9-60.1-1.3-119.4,1-10.1,3.4-36.3,5.4-58.3,8.7-94.8,21.4-204.5,31.4-270.8,9-59.9,25-145.3,38.5-205.1,3.4-15.2,6.2-28,6.2-28.5,0-2.2-2.5-.7-3,1.8M850.1,526c0,1,3.3,16.4,7.3,34.2,20.3,90.2,36.6,185.3,47.9,278.6,6,49.5,15.1,130.8,17.7,158.3,9.9,102.4,11.1,119.6,11.1,158.9,0,28.8-.4,37-2.2,46.6-3.5,18.3-3.7,19.6-2.4,19.6s6.3-26.1,7.8-44.5c1.4-16.3.7-34.4-3.2-86.1-5.7-74.6-23-234.2-33.7-311-5.6-40.1-17.6-110.4-25.8-151.5-10.7-53.6-22.1-104.9-23.3-104.9s-1,.8-1,1.8M511.4,690.7c-.7,253.6-.3,468.8.7,468.5,1.7-.6,2.3-495.2.6-495.2s-1.3,9.7-1.3,26.7M212,1172.5c-.7,1.2,1.9,81,3.3,102.1.5,6.7,1.3,11.3,2.1,11.3s1.1-3.5.6-10.7c-.4-5.9-1.4-29.5-2.1-52.4-1.3-40-2.3-52.9-3.8-50.3M245.3,1178.9c0,13.9,3.7,107.5,4.3,108.1.3.3.8.3,1.2,0,.5-.5-1-60-2.6-97.7-.4-9.6-1.2-17.5-1.8-17.5s-1.1,3.2-1.1,7.1M263.7,1184.8c0,27.5,2.7,100.6,3.8,101.7,1.4,1.5,1.4,4.5-.2-59.4-.8-29.3-1.9-53.9-2.5-54.5-.6-.7-1.1,4.3-1.1,12.3M281.9,1172.7c-.6,1.2,1.2,81.1,2.2,100.8.4,7.7,1.1,13.5,1.7,12.9,1.2-1.3-1.2-112.3-2.4-113.7-.5-.6-1.1-.6-1.4,0M300.4,1172.5c-1.2,2.3,1.5,111.6,2.7,112.8.8.8.9-17.2.4-52.1-.8-49.3-1.5-63.8-3.1-60.7M318.3,1198c.4,14.3,1,40.3,1.4,57.8.4,17.4,1.2,31.2,1.7,30.7.5-.6.5-25,0-54.4-.6-29.3-1.1-54.9-1.1-56.7,0-1.9-.6-3.4-1.3-3.4s-1.1,8.3-.6,26.1M336.9,1228c.4,30.9,1.2,56.6,1.8,57.3,1.2,1.4,1.5-74.4.3-97.8-.4-8.6-1.2-15.6-1.8-15.6s-.7,25.3-.3,56.1M373.8,1228.6c.4,31.2,1.1,57.3,1.7,57.9,1.3,1.4,1.5-66.7.3-95.3-.4-10.6-1.2-19.3-1.7-19.3s-.6,25.5-.3,56.7M392.3,1172.5c-1.2,1.8.4,114.7,1.6,114.7s1.1-64.1,0-95.7c-.4-11.1-1.1-19.7-1.5-19M410.5,1172.9c-1.3,2.1.4,114.5,1.8,113.6,1.2-.7,1.2-44.9,0-87.6-.4-15.6-1.2-26.9-1.8-26M429,1172.7c-1.3,1.9.4,114.5,1.7,114.5s1.1-64.3,0-95.7c-.4-11.1-1.2-19.6-1.7-18.8M446.9,1210.8c.4,21.4.8,47.4.8,57.7,0,13.3.4,18.7,1.4,18.7s1.2-12.4.6-49.4c-.4-27.2-.8-53.1-.8-57.7,0-5.4-.5-8.3-1.4-8.3s-1.2,10-.6,38.9M464.9,1228.8c0,36.7.4,57.3,1.2,57.8.8.5,1.2-18.6,1.2-56.3s-.4-57.3-1.2-57.8c-.8-.5-1.2,18.6-1.2,56.3M483.3,1229.5c0,37.7.4,57.7,1.2,57.7s1.2-19.8,1.2-57-.4-57.2-1.2-57.7c-.8-.5-1.2,18.8-1.2,57M501.7,1229.5c0,37.6.4,57.7,1.2,57.7s1.2-20,1.2-57.7-.4-57.7-1.2-57.7-1.2,20-1.2,57.7M520.9,1172.7c-1.3,1.3-1,114.5.3,114.5s2.4-112.7,1.2-114.4c-.4-.5-1.1-.6-1.5-.1M539.3,1174.7c-1.3,4.9-.9,111.3.5,111.3s1.2-18.6,1.2-53.2.3-54.9.8-57c.9-4.4-1.3-5.4-2.4-1.1M557.7,1172.7c-1.3,1.3-1,114.5.3,114.5s2.4-112.7,1.2-114.4c-.4-.5-1.1-.6-1.5-.1M574.9,1196c-1.3,37.4-1,91.2.4,91.2s1.2-9.9,1.2-27.3c0-15,.4-41,.8-57.7.5-20,.4-30.4-.4-30.4s-1.5,9.4-2,24.1M593.3,1191.2c-1.2,28.5-1,96,.3,96s1.3-25.2,1.6-56.7c.6-56.6-.4-76-1.9-39.3M648.6,1172.7c-.3.6-.6,16.2-.8,34.8-.1,18.6-.6,44.1-1,56.7-.6,16.8-.4,23,.6,23s1.4-3.1,1.5-8.9c0-4.9.5-30.4,1.1-56.7.9-42.2.6-52.7-1.4-48.9M756.4,1179.5c-.4,4.2-1,20.7-1.3,36.5-.4,15.9-1,38.5-1.4,50.3-.5,14.7-.3,21.1.5,20.2.8-.8,1.8-18.9,2.6-46.6.7-25,1.7-50.2,2.1-56,.9-12.5-1.4-16.6-2.4-4.5M228.6,1200.4c1.3,42.8,3.2,86,3.9,86.6,1.7,1.7,1.8-3.5.7-31.9-.7-17.1-1.6-42.6-2.1-56.6-.5-15.8-1.3-25.5-2.1-25.5s-1,9.2-.4,27.3M355.9,1173.7c-.9,4.1.2,111.8,1.2,112.8,1.3,1.4,1.3-79.4,0-100.5-.5-7.4-1-12.9-1.1-12.3M611.6,1194.3c-1.1,31.6-1.5,91.7-.5,91.7,1.4,0,2.1-16.5,2.9-65.3.4-28.5.2-47.5-.4-47.5s-1.5,9.5-1.9,21.2M630,1184.5c-1.2,19.8-1.9,102.7-.8,102.7s1.3-9.5,1.7-21.2c1.2-36.4,1.7-92.9.7-92.9s-1.2,5.1-1.6,11.3M666,1199.8c0,14.7-.5,39.9-1.2,56.1-.6,16.2-.7,29.9-.1,30.4,1.6,1.6,2.4-15.3,3.3-65.7.6-35.6.5-47.5-.6-47.5s-1.4,7.4-1.5,26.7M684,1180.8c-1.3,14.6-2.1,106.6-.9,105.9.6-.4,1.5-17.7,1.9-38.4.4-20.8,1.1-46.2,1.5-56.4.5-12.2.3-18.7-.5-18.7s-1.5,3.5-1.9,7.7M702.5,1174c-.3.5-.9,25-1.4,54.3-.5,29.3-1.1,54.3-1.4,55.4-.3,1.1,0,2.4.7,2.8,1.6,1,1.2,7.4,2.9-57.4,1.3-49.2,1.1-58.4-.8-55.1M719.6,1205.3c-.4,17.7-1.1,43.5-1.6,57.3-.5,16.9-.3,24.7.5,23.9.7-.7,1.8-20.7,2.6-49.7,1.6-57.8,1.7-63.8.3-63.8s-1.4,14.5-1.8,32.2M738,1195.5c-1.8,52.8-2.5,90.7-1.7,91.2,1.6,1,2.2-9.7,3.4-59,1.5-58.8,1.5-54.6.1-54.6s-1.4,10.1-1.9,22.4M773.5,1198c-.4,13.7-1.2,38.9-1.8,56.1-.5,17.2-.6,31.8,0,32.3,1.3,1.6,2.2-12.7,3.6-58.7,1.5-50.9,1.5-54.6.1-54.6s-1.4,11.2-1.9,24.8M791.1,1190c0,9.3-.8,34.7-1.5,56.4-.9,26.2-1,39.4-.2,39.2.7-.2,1.6-11.3,2.1-27.3,2.8-83.9,2.8-85.2,1.2-85.2-1.1,0-1.6,4.3-1.6,16.9M807.9,1188.1c-1.5,30.9-3.3,96.9-2.6,97.6.4.4.9.4,1.2.1.3-.3,1.1-17.9,1.8-39.2.7-21.2,1.6-46.5,2-56.1.4-10.5.2-17.5-.5-17.5s-1.5,6.8-1.9,15M63.3,1237.8c-.4,1.9-1,19.1-1.3,38.3-.4,19.2-1,42.3-1.4,51.2-.5,10.5-.3,16.3.5,16.3,1.4,0,2.3-17.8,3.3-61.9.4-16.2,1-33.4,1.4-38.3.5-5.8.3-8.9-.5-8.9s-1.6,1.5-1.9,3.4M79.7,1234.8c-.8,3.7-3.1,111-2.4,111.7,1.6,1.6,2.4-12.6,3.1-53.2.4-20.6,1-42.2,1.4-48.1.5-7.5.3-10.7-.6-10.7s-1.4.1-1.4.3M95.6,1239.1c0,2.5-.8,27.5-1.6,55.5-.8,28-1.1,51.4-.6,52,1.4,1.7,2.2-11.9,2.9-47.7.4-18.2,1-40.2,1.4-48.8.5-11.2.4-15.6-.6-15.6s-1.4,2.1-1.5,4.6M111.2,1256.8c-1.9,54.7-2.4,90.5-1.2,90.5s1.5-12.7,2.1-34c.5-18.7,1.2-44.1,1.6-56.4.5-14.6.4-22.4-.4-22.4s-1.5,8.8-2,22.4M127.1,1270.9c-.5,20.1-1.2,45.5-1.6,56.4-.5,13.1-.4,19.9.4,19.9,1.3,0,2.3-20.4,3.6-77.6.5-23.1.4-35.3-.4-35.3s-1.5,13.7-2,36.5M144.6,1241.5c0,3.9-.3,8.4-.5,10.1-1.1,10-2,94.5-1,94.5s1.5-17.6,2-45.7c.5-25.1,1.2-50.2,1.6-55.8.5-7.2.3-10.1-.6-10.1s-1.4,2.7-1.5,7.1M160.3,1260.5c-2.2,72-2.4,85.6-1.2,85.6s1.5-11.6,2-30.4c.4-16.7,1.2-41.8,1.6-55.8.5-16.8.4-25.5-.4-25.5s-1.5,9.9-2,26.1M861.5,1255.6c.4,11.6,1.2,36.8,1.6,55.8.5,21.5,1.3,34.7,2,34.7s.9-11.4.4-32.8c-1.5-60.4-2.3-78.8-3.6-78.8s-1,7.2-.4,21.2M877.4,1238.3c.4,2.3,1.1,27.5,1.6,56,.5,32.4,1.3,52.1,2.1,52.6.8.5.9-16.9.3-52.5-1.1-63.6-.9-59-3-59.7-1.3-.4-1.5.4-1,3.6M894.9,1278.3c.8,49.6,1.7,69.7,3,68.2.5-.6.5-20.9,0-45.2s-1-49.3-1-55.5c0-6.9-.6-11.3-1.4-11.3s-1,14.2-.6,43.9M910.6,1253.2c.4,10.3,1.1,35.4,1.6,55.8.5,22.8,1.3,37.4,2,37.9.8.5,1-11.7.4-37.1-1.2-54.3-2.2-75.3-3.6-75.3s-.9,6.7-.5,18.7M926.6,1244c.4,5.2,1.1,30.4,1.6,55.8.7,40.7,1.4,50.3,3.2,46.6.4-.7-2.1-102.3-2.6-110.4,0-.8-.7-1.5-1.5-1.5s-1.2,2.8-.6,9.5M942.5,1245.2c.4,5.9,1.1,30.5,1.6,54.6.5,28,1.3,43.9,2.1,43.9,1.3,0,.3-85.3-1.2-100.9-1.2-12.6-3.4-10.4-2.5,2.5M959.2,1234.9c-.3.3-.1,16.2.4,35.3,1.5,58.8,2.3,74.7,3.7,73.8.8-.5,1-8.3.5-22.4-.4-11.9-1.1-36-1.5-53.5-.7-28.6-1.3-35-3-33.2" class="st0"></path>
</svg>