<svg xmlns="http://www.w3.org/2000/svg" height="1536" width="1024" version="1.1" id="svg"><path fill-rule="evenodd" fill="black" stroke="none" d="M468.000 134.125 C 416.505 136.885,360.354 146.840,340.660 156.702 C 334.826 159.622,327.886 165.852,323.722 171.904 C 322.038 174.351,315.875 186.512,310.026 198.927 C 304.178 211.342,294.627 230.500,288.803 241.500 C 268.924 279.046,266.558 286.158,271.274 294.204 C 272.659 296.568,274.739 299.359,275.896 300.406 C 278.668 302.914,278.551 303.645,275.250 304.471 C 273.738 304.850,266.650 307.558,259.500 310.488 C 203.147 333.586,173.593 352.830,157.299 377.038 C 146.417 393.204,137.331 411.559,131.618 428.916 C 122.555 456.447,110.788 501.241,101.124 545.000 C 83.140 626.431,61.328 764.322,44.574 902.500 C 33.283 995.631,29.589 1032.393,25.987 1087.500 C 25.412 1096.300,24.511 1109.800,23.985 1117.500 C 20.675 1165.975,19.766 1213.088,21.883 1226.500 C 22.577 1230.900,23.993 1237.295,25.028 1240.710 C 26.063 1244.126,28.250 1255.151,29.887 1265.210 C 32.725 1282.650,32.885 1285.284,33.340 1321.880 C 33.781 1357.471,33.950 1360.393,35.658 1362.088 C 37.283 1363.700,41.618 1364.156,72.500 1365.960 C 91.750 1367.085,114.700 1368.453,123.500 1369.000 C 132.300 1369.547,147.690 1370.291,157.700 1370.653 L 175.901 1371.312 176.866 1368.906 C 177.397 1367.583,179.035 1356.375,180.505 1344.000 C 184.758 1308.211,194.418 1262.582,198.636 1258.364 C 199.943 1257.057,201.400 1253.271,202.478 1248.379 C 205.042 1236.740,212.845 1205.364,212.928 1206.357 C 212.968 1206.828,213.878 1214.253,214.950 1222.857 C 216.023 1231.461,217.604 1245.025,218.464 1253.000 C 220.374 1270.707,220.630 1271.712,223.341 1272.151 C 224.528 1272.343,356.031 1272.375,515.569 1272.222 L 805.637 1271.945 806.845 1257.222 C 809.113 1229.571,812.270 1205.358,813.264 1208.000 C 813.574 1208.825,816.381 1220.300,819.501 1233.500 C 823.134 1248.871,825.827 1258.219,826.989 1259.500 C 829.683 1262.468,837.482 1287.803,840.904 1304.702 C 843.845 1319.227,846.764 1338.191,849.261 1358.991 C 850.469 1369.049,850.640 1369.540,853.402 1370.864 C 856.368 1372.286,860.930 1372.130,909.000 1368.974 C 916.975 1368.450,934.075 1367.344,947.000 1366.515 C 959.925 1365.687,974.648 1364.729,979.718 1364.388 C 984.788 1364.046,989.610 1363.257,990.433 1362.633 C 991.682 1361.688,992.027 1356.369,992.519 1330.500 C 993.434 1282.360,994.866 1267.067,1000.525 1245.000 C 1001.442 1241.425,1002.862 1235.800,1003.680 1232.500 C 1005.788 1224.000,1006.502 1189.331,1005.088 1164.182 C 1001.051 1092.396,998.442 1057.702,992.927 1002.500 C 988.448 957.667,982.123 901.645,978.985 879.000 C 978.413 874.875,976.152 857.550,973.961 840.500 C 949.208 647.894,924.258 518.206,894.342 426.628 C 885.869 400.694,869.814 372.727,855.704 359.324 C 839.510 343.941,806.722 325.609,768.500 310.568 C 759.700 307.104,751.675 303.985,750.666 303.635 C 749.049 303.074,749.319 302.444,752.939 298.332 C 755.197 295.766,757.316 292.590,757.646 291.274 C 759.331 284.562,755.004 272.042,744.074 252.000 C 740.325 245.125,735.341 235.900,732.999 231.500 C 730.657 227.100,727.903 222.103,726.879 220.395 C 725.854 218.687,721.644 209.741,717.522 200.515 C 707.706 178.545,704.086 172.234,696.884 164.536 C 692.030 159.346,689.489 157.557,683.326 154.992 C 668.601 148.862,635.869 141.795,602.500 137.542 C 570.743 133.495,509.016 131.926,468.000 134.125 M573.402 139.523 C 617.400 142.857,664.615 151.635,681.464 159.613 C 693.757 165.433,703.807 178.246,710.006 196.000 C 712.647 203.563,726.237 230.773,738.475 253.000 C 751.853 277.298,754.849 286.720,751.098 292.700 C 743.836 304.275,698.619 328.955,642.165 352.155 C 626.626 358.541,565.642 375.975,564.130 374.463 C 563.920 374.254,564.143 369.680,564.625 364.299 C 565.458 354.980,565.631 354.454,568.253 353.202 C 575.094 349.937,575.282 339.194,568.600 333.406 C 565.304 330.552,564.661 330.370,560.264 331.048 C 554.904 331.876,553.535 331.496,557.111 330.172 C 558.425 329.685,560.175 329.033,561.000 328.723 C 561.920 328.376,561.533 328.133,560.000 328.094 C 555.953 327.990,552.809 330.204,550.326 334.907 C 547.380 340.488,547.377 344.802,550.314 349.131 L 552.628 352.540 550.868 359.520 C 549.901 363.359,549.084 368.842,549.054 371.705 C 549.000 376.908,548.999 376.910,545.250 377.644 C 540.152 378.643,505.683 378.639,499.603 377.639 L 494.706 376.833 504.103 367.307 C 516.306 354.936,551.795 322.517,573.963 303.489 C 583.568 295.245,594.593 285.775,598.463 282.444 C 602.333 279.113,613.825 269.669,624.000 261.458 C 656.052 235.593,673.930 215.145,682.880 194.114 C 685.697 187.496,686.695 179.168,685.042 176.079 C 684.381 174.843,682.315 173.194,680.452 172.415 C 676.572 170.795,665.424 170.504,664.500 172.000 C 664.119 172.617,665.834 173.000,668.973 173.000 C 675.253 173.000,680.765 175.190,681.847 178.115 C 682.665 180.328,682.241 185.000,681.221 185.000 C 680.921 185.000,678.611 183.693,676.088 182.096 C 667.274 176.517,640.740 169.709,610.000 165.141 C 543.360 155.237,450.183 157.500,387.928 170.533 C 367.082 174.898,357.163 178.350,350.193 183.666 C 346.290 186.643,345.042 185.825,345.015 180.273 C 344.995 176.025,347.858 174.193,355.819 173.361 C 360.210 172.902,362.000 172.301,362.000 171.286 C 362.000 170.130,360.898 169.991,356.250 170.562 C 341.286 172.399,338.722 176.675,343.996 191.005 C 348.087 202.122,352.428 209.705,360.323 219.521 C 368.849 230.121,388.606 249.087,404.055 261.500 C 435.502 286.769,461.953 310.057,478.019 326.623 C 491.664 340.691,505.294 357.342,504.830 359.374 C 504.649 360.169,501.003 364.460,496.728 368.910 C 489.326 376.616,488.749 377.000,484.577 377.000 L 480.196 377.000 479.513 370.750 C 479.137 367.313,478.003 361.195,476.993 357.155 C 475.352 350.596,475.308 349.379,476.578 345.779 C 479.299 338.068,477.739 331.482,472.059 326.703 C 464.043 319.958,453.010 327.048,451.264 340.067 C 450.751 343.893,451.004 344.344,457.364 350.932 C 463.463 357.249,464.001 358.158,464.014 362.153 C 464.021 364.544,464.299 367.512,464.630 368.750 C 465.189 370.833,464.910 370.999,460.867 370.984 C 453.197 370.957,420.857 363.431,400.651 356.970 C 371.930 347.788,329.732 328.155,300.764 310.496 C 280.633 298.224,278.337 296.583,275.930 292.748 C 272.017 286.515,274.897 278.439,292.776 245.507 C 297.552 236.711,303.625 224.336,306.272 218.007 C 308.920 211.678,311.768 205.375,312.602 204.000 C 313.437 202.625,315.027 199.475,316.137 197.000 C 326.262 174.421,331.721 167.092,342.824 161.175 C 358.140 153.011,407.813 143.425,454.500 139.624 C 478.767 137.648,547.886 137.589,573.402 139.523 M515.000 170.500 L 515.000 177.000 498.250 177.017 C 475.662 177.040,438.739 178.692,420.939 180.475 C 385.251 184.051,366.782 188.710,354.802 197.159 C 352.143 199.035,352.088 199.034,351.052 197.097 C 348.990 193.245,349.871 191.161,355.250 187.159 C 364.638 180.173,375.222 176.841,403.000 172.127 C 433.427 166.963,463.358 164.415,496.750 164.147 L 515.000 164.000 515.000 170.500 M584.500 166.436 C 628.894 170.807,665.697 179.522,675.134 187.897 L 679.486 191.759 677.731 195.439 L 675.976 199.119 673.032 197.023 C 665.607 191.736,653.706 188.402,630.341 185.063 C 598.303 180.486,572.235 178.232,541.250 177.362 L 517.000 176.681 517.000 170.199 L 517.000 163.717 542.750 164.288 C 556.913 164.603,575.700 165.569,584.500 166.436 M515.000 195.338 C 515.000 204.323,514.703 223.898,514.339 238.838 L 513.679 266.000 498.089 266.012 C 482.203 266.025,434.593 264.346,423.225 263.373 L 416.950 262.835 412.132 255.668 C 406.312 247.008,395.803 228.868,393.733 223.907 C 392.908 221.931,391.022 216.081,389.541 210.907 C 386.855 201.523,385.636 199.031,384.358 200.309 C 383.508 201.159,387.354 215.435,390.707 223.879 C 393.608 231.182,402.254 246.579,408.605 255.750 C 410.985 259.188,412.692 262.000,412.397 262.000 C 412.102 262.000,406.623 257.613,400.221 252.250 C 381.173 236.295,361.208 215.322,355.404 205.171 L 353.500 201.841 355.997 199.810 C 359.819 196.702,368.736 192.465,376.496 190.071 C 396.690 183.842,443.233 179.507,493.750 179.150 L 515.000 179.000 515.000 195.338 M555.000 179.999 C 596.488 182.066,642.970 187.927,658.609 193.063 C 664.914 195.133,674.000 200.300,674.000 201.815 C 674.000 205.155,654.367 228.692,642.525 239.550 C 632.634 248.618,617.679 261.012,617.202 260.536 C 617.037 260.370,618.051 258.540,619.456 256.469 C 624.726 248.704,636.021 224.958,638.478 216.479 C 641.918 204.607,642.690 199.603,640.992 200.169 C 640.274 200.409,638.500 205.306,637.050 211.052 C 635.601 216.799,633.188 224.160,631.688 227.412 C 627.841 235.755,616.149 256.895,613.310 260.640 L 610.930 263.781 598.215 264.379 C 591.222 264.708,569.793 265.264,550.595 265.614 C 517.940 266.211,515.732 266.142,516.345 264.544 C 516.705 263.605,517.000 243.973,517.000 220.918 L 517.000 179.000 526.750 179.039 C 532.112 179.060,544.825 179.492,555.000 179.999 M496.000 267.491 C 524.325 267.857,561.000 267.743,577.500 267.238 C 594.000 266.732,607.725 266.515,608.000 266.755 C 608.275 266.996,606.229 269.287,603.452 271.846 C 598.821 276.116,597.955 276.513,592.952 276.661 C 563.512 277.533,466.355 277.959,455.215 277.265 C 432.826 275.870,424.015 278.191,444.785 280.013 C 485.908 283.620,558.976 283.574,586.355 279.923 C 590.675 279.347,594.341 279.016,594.503 279.188 C 594.664 279.360,588.659 284.675,581.159 291.000 C 573.658 297.325,556.298 312.625,542.580 325.000 C 528.863 337.375,515.751 349.177,513.443 351.227 L 509.246 354.953 500.405 344.227 C 488.317 329.562,465.899 307.499,445.500 290.192 C 430.605 277.555,420.089 267.571,420.019 266.000 C 420.007 265.725,425.510 265.798,432.248 266.162 C 438.987 266.526,467.675 267.124,496.000 267.491 M299.514 315.564 C 310.517 322.626,346.427 341.042,358.000 345.558 C 363.225 347.597,371.742 351.237,376.927 353.647 C 387.917 358.755,397.848 362.000,402.493 362.000 C 404.299 362.000,409.764 363.161,414.638 364.581 C 425.379 367.709,451.506 373.625,458.772 374.575 C 461.672 374.954,464.250 375.596,464.502 376.002 C 465.068 376.919,462.193 498.552,461.523 502.000 C 460.293 508.331,455.914 623.785,455.815 652.500 C 455.771 665.082,457.114 681.903,458.309 683.750 C 459.255 685.212,465.822 685.397,468.000 684.023 C 469.064 683.353,469.702 680.376,470.195 673.789 C 470.577 668.680,471.383 660.083,471.985 654.685 C 472.920 646.317,472.854 644.414,471.541 641.781 C 470.404 639.503,470.000 635.467,470.000 626.393 C 470.000 612.757,472.230 559.116,474.527 517.500 C 477.727 459.517,478.385 444.794,479.658 402.737 L 480.317 380.973 485.408 381.700 C 488.209 382.099,503.354 382.443,519.065 382.463 L 547.630 382.500 548.849 418.500 C 549.520 438.300,550.510 467.550,551.049 483.500 C 551.589 499.450,552.462 523.300,552.989 536.500 C 555.511 599.634,556.298 637.706,555.150 640.999 C 553.661 645.272,553.671 657.528,555.167 662.007 C 555.809 663.928,556.597 669.535,556.917 674.467 L 557.500 683.433 560.719 684.352 C 563.174 685.054,564.520 684.889,566.397 683.659 C 568.628 682.198,568.914 681.183,569.472 672.774 C 570.370 659.238,570.299 645.456,569.196 619.000 C 568.657 606.075,567.911 583.125,567.540 568.000 C 564.545 446.109,563.544 398.019,563.810 388.958 L 564.120 378.417 579.136 374.696 C 587.395 372.650,594.568 371.233,595.076 371.547 C 595.584 371.861,596.000 371.738,596.000 371.273 C 596.000 370.809,596.788 370.372,597.750 370.302 C 598.712 370.233,602.140 369.242,605.366 368.101 C 608.593 366.960,611.579 366.240,612.001 366.501 C 612.424 366.762,614.059 366.574,615.635 366.082 C 617.211 365.590,622.550 363.962,627.500 362.464 C 634.508 360.344,636.057 359.564,634.500 358.941 C 632.968 358.328,633.417 358.124,636.417 358.070 C 638.571 358.032,640.021 357.688,639.640 357.307 C 639.259 356.926,641.249 356.025,644.063 355.305 C 646.877 354.584,652.626 352.580,656.839 350.850 C 661.053 349.120,667.200 346.737,670.500 345.556 C 673.800 344.374,678.075 342.418,680.000 341.208 C 681.925 339.998,683.866 339.006,684.314 339.004 C 686.218 338.995,719.550 321.656,731.385 314.517 L 744.270 306.745 753.839 310.012 C 787.291 321.434,833.583 345.834,849.937 360.663 C 856.535 366.646,866.661 379.455,870.060 386.118 L 871.968 389.857 868.665 391.898 C 863.604 395.026,854.747 404.795,849.005 413.582 C 834.710 435.457,823.732 466.551,816.457 505.770 C 812.882 525.042,812.100 535.040,813.424 544.535 C 814.134 549.628,814.231 555.385,813.692 560.500 C 811.791 578.554,814.497 672.257,819.973 778.000 C 820.500 788.175,821.406 806.850,821.987 819.500 C 822.568 832.150,823.481 851.050,824.018 861.500 C 828.179 942.575,828.396 950.633,828.448 1026.000 C 828.494 1093.168,828.278 1104.635,826.679 1120.000 C 824.944 1136.670,822.592 1151.742,821.563 1152.770 C 821.301 1153.032,806.758 1152.669,789.246 1151.963 L 757.406 1150.680 763.260 1133.590 C 777.122 1093.117,792.440 1040.976,791.423 1037.727 C 791.040 1036.502,789.471 1033.668,787.938 1031.428 C 784.711 1026.717,763.414 984.459,756.476 969.000 C 745.873 945.379,732.045 907.898,724.031 881.056 C 719.107 864.567,706.848 820.288,705.579 814.413 L 704.913 811.326 652.706 810.721 C 623.993 810.388,537.738 810.303,461.030 810.533 L 321.560 810.950 313.357 843.438 C 304.449 878.723,293.713 912.349,281.529 943.134 C 273.465 963.508,249.936 1012.063,240.536 1027.726 C 237.088 1033.471,235.000 1038.088,235.000 1039.964 C 235.000 1044.499,246.834 1084.744,257.947 1118.000 C 263.368 1134.225,268.098 1148.226,268.456 1149.112 C 269.039 1150.554,266.637 1150.818,245.804 1151.603 C 232.987 1152.086,218.481 1152.485,213.568 1152.490 L 204.636 1152.500 203.446 1147.846 C 201.589 1140.584,199.068 1114.560,197.987 1091.500 C 196.208 1053.532,197.037 978.409,199.968 912.000 C 200.515 899.625,201.446 878.475,202.037 865.000 C 202.628 851.525,203.995 822.500,205.074 800.500 C 211.863 662.059,211.999 658.226,212.118 601.500 C 212.177 574.000,212.665 548.575,213.205 545.000 C 215.185 531.881,212.929 510.652,206.980 486.406 C 196.750 444.716,182.506 416.032,162.852 397.543 L 155.087 390.238 158.583 384.431 C 163.650 376.018,172.600 365.413,179.500 359.647 C 198.921 343.418,241.322 321.196,276.070 309.034 L 284.436 306.106 287.968 308.263 C 289.911 309.450,295.106 312.735,299.514 315.564 M472.229 331.071 C 475.500 334.563,476.446 337.808,475.565 342.507 C 474.667 347.292,473.000 346.913,473.000 341.923 C 473.000 336.705,468.378 331.447,464.757 332.545 C 461.219 333.618,458.200 336.913,456.653 341.390 C 455.537 344.621,455.078 345.124,454.507 343.742 C 452.559 339.031,456.773 330.871,462.415 328.430 C 466.324 326.738,468.794 327.403,472.229 331.071 M566.139 334.084 C 568.155 335.863,568.208 336.052,566.500 335.376 C 562.855 333.934,557.203 334.507,554.946 336.547 C 553.057 338.255,552.865 339.178,553.418 343.894 C 553.977 348.655,553.872 349.139,552.526 348.021 C 550.746 346.544,550.542 341.613,552.078 337.207 C 553.846 332.136,561.904 330.346,566.139 334.084 M469.031 337.250 L 471.139 339.500 468.319 339.838 C 464.124 340.342,463.000 341.775,463.000 346.622 C 463.000 351.379,462.438 351.945,460.392 349.250 C 458.539 346.808,458.682 341.910,460.692 338.973 C 463.878 334.317,465.892 333.901,469.031 337.250 M567.099 339.106 C 570.149 342.371,570.907 346.693,568.800 348.800 C 566.831 350.769,566.000 350.185,566.000 346.829 C 566.000 341.387,560.519 337.881,557.200 341.200 C 556.267 342.133,556.000 341.956,556.000 340.400 C 556.000 335.141,562.669 334.363,567.099 339.106 M469.800 343.200 C 470.460 343.860,471.000 345.613,471.000 347.095 C 471.000 348.577,472.012 352.874,473.250 356.645 C 475.402 363.200,475.497 364.901,475.422 395.500 C 475.344 427.944,474.427 451.993,470.998 511.500 C 469.952 529.650,468.615 555.525,468.027 569.000 C 467.439 582.475,466.773 597.325,466.548 602.000 C 466.323 606.675,466.107 616.913,466.069 624.750 L 466.000 639.000 463.500 639.000 L 461.000 639.000 461.000 621.791 C 461.000 600.765,462.542 556.084,464.564 518.500 C 465.393 503.100,466.286 481.950,466.550 471.500 C 466.813 461.050,467.502 434.950,468.081 413.500 C 468.868 384.341,468.841 372.229,467.973 365.500 C 467.334 360.550,466.576 353.926,466.288 350.779 C 465.564 342.871,466.801 340.201,469.800 343.200 M562.998 344.750 C 562.997 345.712,562.277 353.250,561.398 361.500 C 560.520 369.750,559.786 383.475,559.768 392.000 C 559.720 414.548,561.855 508.758,563.009 535.000 C 563.553 547.375,564.210 575.837,564.468 598.250 L 564.937 639.000 562.620 639.000 L 560.302 639.000 559.676 617.250 C 558.951 592.073,556.255 518.182,555.525 503.500 C 554.067 474.153,552.500 417.180,552.500 393.500 C 552.500 367.138,552.566 366.252,555.287 356.000 C 556.819 350.225,558.268 344.938,558.505 344.250 C 559.181 342.294,563.000 342.719,562.998 344.750 M406.733 364.124 C 407.412 364.808,408.219 365.115,408.526 364.807 C 408.834 364.499,408.279 363.940,407.293 363.564 C 405.868 363.022,405.753 363.136,406.733 364.124 M874.472 393.946 C 875.995 396.890,875.993 396.893,870.341 402.196 C 852.906 418.553,836.086 452.532,826.630 490.500 C 824.204 500.242,818.395 530.249,817.294 538.730 C 816.992 541.057,816.352 542.717,815.872 542.421 C 812.890 540.578,818.608 502.131,825.986 474.421 C 830.390 457.879,834.476 447.000,841.970 431.865 C 850.392 414.855,857.446 404.573,865.919 396.955 C 869.539 393.701,872.601 391.030,872.724 391.019 C 872.848 391.009,873.634 392.326,874.472 393.946 M176.599 417.694 C 189.877 437.857,200.573 465.985,207.515 499.000 C 209.590 508.865,210.236 515.189,210.582 529.000 C 211.076 548.689,210.154 549.135,207.482 530.500 C 199.181 472.606,182.299 429.274,158.842 405.653 L 151.049 397.806 152.638 394.734 L 154.227 391.661 162.587 400.387 C 167.185 405.186,173.491 412.974,176.599 417.694 M168.293 421.468 C 186.760 448.834,199.729 493.983,205.932 552.500 C 207.726 569.418,208.227 611.332,207.069 647.500 C 206.029 679.970,205.264 697.476,201.996 763.500 C 201.452 774.500,200.545 793.625,199.981 806.000 C 199.417 818.375,198.504 837.950,197.953 849.500 C 193.509 942.627,191.654 1011.261,192.331 1057.500 C 193.134 1112.371,196.324 1146.741,201.425 1155.478 C 203.682 1159.344,210.000 1186.653,210.000 1192.542 C 210.000 1194.764,198.173 1245.942,197.458 1246.818 C 197.156 1247.187,133.009 1243.827,86.500 1241.007 C 68.900 1239.939,48.875 1238.867,42.000 1238.624 L 29.500 1238.183 27.530 1231.341 C 22.656 1214.417,27.339 1109.057,37.545 1006.000 C 42.855 952.382,56.304 843.403,64.510 787.500 C 87.219 632.788,105.957 535.679,128.087 458.000 C 137.198 426.021,140.809 416.138,147.739 404.217 L 150.228 399.935 156.235 406.217 C 159.539 409.673,164.965 416.536,168.293 421.468 M881.170 406.750 C 887.582 418.800,900.418 461.197,911.956 508.426 C 931.056 586.611,952.223 708.729,967.955 831.500 C 969.647 844.700,971.699 860.450,972.515 866.500 C 979.007 914.616,989.281 1008.395,992.946 1053.000 C 1000.752 1147.979,1003.222 1211.996,999.717 1228.438 C 998.786 1232.803,997.610 1236.790,997.103 1237.297 C 996.596 1237.804,976.228 1239.281,951.841 1240.579 C 927.453 1241.877,896.700 1243.610,883.500 1244.430 C 870.300 1245.251,852.300 1246.225,843.500 1246.595 L 827.500 1247.269 825.073 1236.385 C 823.739 1230.398,820.976 1217.850,818.935 1208.500 L 815.223 1191.500 818.649 1176.000 C 820.766 1166.424,822.863 1159.413,824.137 1157.657 C 826.803 1153.979,829.480 1140.579,831.562 1120.500 C 832.819 1108.372,833.341 1090.471,833.717 1046.534 C 834.207 989.252,833.532 957.808,830.496 896.500 C 829.706 880.550,828.602 857.150,828.042 844.500 C 827.483 831.850,826.566 812.950,826.005 802.500 C 824.676 777.745,821.348 706.792,819.908 672.500 C 818.030 627.773,818.242 568.237,820.342 551.000 C 827.914 488.832,840.073 448.236,860.027 418.500 C 864.545 411.767,875.220 400.000,876.811 400.000 C 877.233 400.000,879.195 403.038,881.170 406.750 M468.019 643.523 C 469.465 645.265,468.651 659.915,466.931 663.130 C 465.616 665.586,461.363 665.547,460.035 663.066 C 459.466 662.002,459.000 657.080,459.000 652.129 L 459.000 643.127 462.250 642.723 C 464.038 642.502,465.782 642.248,466.128 642.160 C 466.473 642.072,467.324 642.686,468.019 643.523 M566.791 651.364 C 567.091 660.512,565.711 665.000,562.599 665.000 C 560.082 665.000,558.961 662.276,557.897 653.573 C 556.641 643.311,557.338 641.732,562.914 642.199 L 566.500 642.500 566.791 651.364 M466.000 675.000 C 466.000 681.800,465.929 682.000,463.500 682.000 C 461.071 682.000,461.000 681.800,461.000 675.000 C 461.000 668.200,461.071 668.000,463.500 668.000 C 465.929 668.000,466.000 668.200,466.000 675.000 M565.000 675.000 C 565.000 681.201,564.784 682.000,563.107 682.000 C 560.679 682.000,560.000 680.123,560.000 673.418 C 560.000 668.305,560.141 668.000,562.500 668.000 C 564.929 668.000,565.000 668.200,565.000 675.000 M668.030 815.519 C 668.564 815.848,669.000 816.991,669.000 818.059 C 669.000 819.972,666.749 820.000,512.639 820.000 L 356.277 820.000 356.754 817.508 L 357.230 815.015 418.865 814.758 C 512.098 814.368,666.934 814.841,668.030 815.519 M676.455 817.750 C 677.053 819.730,676.779 820.000,674.174 820.000 C 671.483 820.000,670.000 818.575,670.000 815.988 C 670.000 814.993,674.205 814.143,675.138 814.949 C 675.488 815.252,676.081 816.513,676.455 817.750 M347.607 816.582 C 347.273 817.452,347.000 818.577,347.000 819.082 C 347.000 819.587,342.050 820.000,336.000 820.000 C 326.000 820.000,325.000 819.833,325.000 818.167 C 325.000 817.158,325.300 816.033,325.667 815.667 C 326.033 815.300,331.256 815.000,337.274 815.000 C 346.839 815.000,348.138 815.199,347.607 816.582 M355.245 817.500 C 354.867 819.478,354.165 820.000,351.883 820.000 C 349.474 820.000,349.000 819.589,349.000 817.500 C 349.000 815.329,349.443 815.000,352.361 815.000 C 355.408 815.000,355.678 815.234,355.245 817.500 M701.393 816.582 C 702.649 819.854,701.932 820.062,690.363 819.782 C 679.331 819.515,678.682 819.383,677.895 817.250 L 677.064 815.000 688.925 815.000 C 698.818 815.000,700.887 815.262,701.393 816.582 M345.820 824.211 C 345.512 826.339,345.080 826.423,334.250 826.461 C 324.637 826.494,323.000 826.270,323.000 824.917 C 323.000 824.046,323.300 823.033,323.667 822.667 C 324.033 822.300,329.240 822.000,335.236 822.000 C 345.915 822.000,346.133 822.045,345.820 824.211 M354.000 822.918 C 354.000 825.368,352.558 827.000,350.393 827.000 C 348.739 827.000,348.000 826.434,348.000 825.167 C 348.000 824.158,348.300 823.033,348.667 822.667 C 349.671 821.662,354.000 821.866,354.000 822.918 M669.815 824.716 L 670.130 826.932 512.478 826.913 C 371.429 826.896,354.888 826.733,355.413 825.365 C 355.736 824.524,356.000 823.422,356.000 822.915 C 356.000 822.356,417.657 822.093,512.750 822.247 L 669.500 822.500 669.815 824.716 M677.820 824.750 C 678.079 826.576,677.661 827.000,675.605 827.000 C 674.123 827.000,672.641 826.197,672.035 825.066 C 670.477 822.154,670.714 821.846,674.250 822.187 C 676.741 822.427,677.575 823.025,677.820 824.750 M703.393 823.582 C 704.649 826.854,703.932 827.062,692.363 826.782 C 681.331 826.515,680.682 826.383,679.895 824.250 L 679.064 822.000 690.925 822.000 C 700.818 822.000,702.887 822.262,703.393 823.582 M344.684 829.406 C 345.050 829.661,339.071 855.897,334.611 873.606 C 319.513 933.566,297.434 988.054,269.225 1034.971 C 264.464 1042.890,255.903 1056.000,255.493 1056.000 C 255.361 1056.000,252.905 1049.744,250.036 1042.097 L 244.821 1028.194 250.308 1018.847 C 256.676 1008.000,270.954 979.755,277.022 966.000 C 293.476 928.702,312.883 870.658,319.491 838.981 C 322.019 826.862,320.538 827.967,333.309 828.666 C 339.464 829.003,344.583 829.336,344.684 829.406 M593.139 828.971 L 670.777 829.000 671.439 832.750 C 671.803 834.813,675.215 849.156,679.021 864.624 C 690.031 909.369,705.408 953.710,720.939 985.500 C 727.905 999.757,752.199 1045.512,761.078 1061.098 L 765.976 1069.696 757.339 1094.098 C 752.589 1107.519,747.409 1122.775,745.830 1128.000 C 744.250 1133.225,742.180 1138.081,741.231 1138.791 C 739.839 1139.833,728.484 1139.930,682.502 1139.291 C 614.982 1138.354,384.977 1138.454,326.320 1139.446 L 285.140 1140.143 283.577 1137.758 C 282.718 1136.447,280.451 1130.002,278.540 1123.437 C 276.629 1116.872,271.645 1102.039,267.463 1090.476 L 259.861 1069.452 268.309 1055.476 C 282.256 1032.406,305.902 987.646,313.729 969.500 C 320.464 953.887,330.122 926.763,335.984 907.000 C 337.207 902.875,338.607 898.375,339.095 897.000 C 340.590 892.784,348.806 858.247,351.829 843.467 L 354.687 829.500 420.093 828.937 C 456.067 828.628,492.250 828.502,500.500 828.658 C 508.750 828.814,550.437 828.955,593.139 828.971 M706.973 838.500 C 717.475 879.743,733.260 926.989,747.658 960.274 C 756.106 979.803,768.500 1005.565,774.965 1017.033 C 779.335 1024.785,780.071 1026.806,779.546 1029.605 C 778.977 1032.642,771.562 1053.281,770.318 1055.295 C 769.276 1056.981,738.443 998.405,727.000 973.000 C 712.661 941.162,700.533 905.587,689.673 863.500 C 685.557 847.550,681.917 833.277,681.584 831.783 L 680.978 829.066 692.239 828.783 C 698.433 828.627,703.766 828.725,704.091 829.000 C 704.416 829.275,705.713 833.550,706.973 838.500 M349.360 845.233 C 337.645 900.845,321.861 948.804,302.430 987.828 C 288.009 1016.789,260.628 1065.948,258.895 1065.986 C 258.562 1065.994,257.853 1064.537,257.320 1062.750 C 256.480 1059.935,256.730 1058.938,259.192 1055.296 C 275.032 1031.859,299.001 985.686,309.959 957.500 C 313.380 948.700,317.039 939.302,318.090 936.617 C 319.140 933.931,320.000 931.112,320.000 930.353 C 320.000 929.594,320.451 928.191,321.002 927.236 C 325.302 919.787,337.244 874.935,346.558 831.250 C 346.921 829.551,347.741 829.000,349.909 829.000 L 352.780 829.000 349.360 845.233 M685.962 857.750 C 696.509 899.059,709.566 939.737,718.881 960.312 C 720.422 963.715,724.098 971.900,727.050 978.500 C 733.951 993.932,748.247 1022.024,759.864 1042.980 C 764.889 1052.044,769.000 1059.777,769.000 1060.165 C 769.000 1060.552,768.529 1062.109,767.953 1063.623 L 766.907 1066.376 765.131 1063.438 C 761.535 1057.490,732.579 1003.318,724.619 987.646 C 717.630 973.888,710.282 956.681,701.922 934.500 C 698.979 926.691,689.479 896.666,686.101 884.500 C 682.648 872.062,673.016 832.158,673.006 830.250 C 673.003 829.545,674.225 829.000,675.811 829.000 L 678.621 829.000 685.962 857.750 M780.554 1047.912 C 777.921 1055.936,775.434 1062.863,775.028 1063.306 C 774.621 1063.749,773.737 1062.780,773.063 1061.152 C 771.969 1058.511,772.263 1057.026,775.793 1047.346 C 777.969 1041.381,780.302 1034.778,780.977 1032.674 C 782.204 1028.851,782.206 1028.850,783.773 1031.086 C 785.240 1033.180,785.032 1034.266,780.554 1047.912 M248.888 1045.201 C 253.393 1057.094,253.909 1059.172,252.799 1060.951 C 252.095 1062.078,251.290 1062.987,251.009 1062.970 C 250.729 1062.954,248.368 1056.356,245.763 1048.307 C 242.141 1037.119,241.292 1033.353,242.155 1032.313 C 242.777 1031.564,243.378 1031.075,243.492 1031.226 C 243.605 1031.377,246.034 1037.665,248.888 1045.201 M244.548 1050.750 C 247.115 1058.862,250.107 1067.975,251.197 1071.000 C 252.287 1074.025,257.457 1088.846,262.686 1103.935 C 274.346 1137.589,277.464 1145.750,279.532 1148.036 C 281.065 1149.729,291.911 1149.794,513.696 1149.425 C 731.381 1149.062,746.332 1148.929,747.498 1147.333 C 749.474 1144.631,757.681 1121.753,772.637 1077.254 C 780.262 1054.569,786.837 1036.006,787.250 1036.004 C 788.482 1035.997,788.105 1040.821,786.403 1046.846 C 780.759 1066.831,758.965 1132.639,753.400 1146.500 L 750.188 1154.500 513.167 1154.752 L 276.147 1155.004 272.923 1146.752 C 268.574 1135.623,243.500 1059.768,240.445 1048.500 C 237.809 1038.775,237.475 1036.000,238.941 1036.000 C 239.458 1036.000,241.981 1042.638,244.548 1050.750 M772.957 1070.630 L 771.762 1074.252 769.899 1071.309 C 768.325 1068.823,768.216 1067.887,769.200 1065.280 L 770.365 1062.194 772.259 1064.602 C 773.911 1066.702,774.000 1067.470,772.957 1070.630 M256.968 1067.941 C 256.951 1068.799,256.344 1070.280,255.621 1071.233 C 254.404 1072.834,254.218 1072.774,253.153 1070.435 C 251.678 1067.199,251.698 1065.702,253.237 1064.163 C 254.219 1063.181,254.733 1063.282,255.737 1064.654 C 256.431 1065.605,256.986 1067.084,256.968 1067.941 M265.750 1092.250 C 272.547 1111.243,275.608 1120.631,279.400 1134.119 C 280.269 1137.210,281.547 1140.195,282.240 1140.752 C 283.085 1141.432,310.529 1141.534,365.500 1141.062 C 458.554 1140.262,655.263 1140.542,707.000 1141.548 C 739.850 1142.187,741.577 1142.130,743.101 1140.359 C 743.981 1139.337,746.537 1132.875,748.780 1126.000 C 751.023 1119.125,756.104 1104.126,760.071 1092.670 C 767.121 1072.311,767.327 1071.882,769.157 1073.713 C 770.987 1075.543,770.862 1076.082,763.599 1097.543 C 750.180 1137.191,746.230 1147.022,743.730 1146.979 C 743.053 1146.968,638.914 1147.217,512.309 1147.534 L 282.118 1148.110 280.471 1145.596 C 278.468 1142.539,274.974 1133.183,263.536 1100.244 C 256.355 1079.565,254.990 1074.717,256.005 1073.494 C 256.687 1072.672,257.528 1072.000,257.874 1072.000 C 258.220 1072.000,261.764 1081.112,265.750 1092.250 M270.066 1153.035 C 271.130 1153.605,272.000 1154.640,272.000 1155.336 C 272.000 1156.303,264.553 1156.891,240.329 1157.833 C 208.488 1159.073,207.091 1158.991,207.015 1155.871 C 207.000 1155.249,219.828 1154.399,250.000 1153.025 C 258.525 1152.636,266.092 1152.247,266.816 1152.159 C 267.539 1152.072,269.002 1152.466,270.066 1153.035 M806.631 1154.564 C 819.216 1155.166,819.740 1155.277,819.229 1157.234 C 818.717 1159.192,818.201 1159.250,806.597 1158.651 C 799.944 1158.308,785.388 1157.728,774.250 1157.362 C 763.112 1156.997,754.000 1156.464,754.000 1156.178 C 754.000 1155.892,754.643 1154.947,755.428 1154.079 C 756.909 1152.441,763.589 1152.505,806.631 1154.564 M263.939 1196.000 C 264.521 1215.525,265.292 1239.713,265.653 1249.750 L 266.309 1268.000 263.358 1268.000 L 260.407 1268.000 259.143 1219.750 C 258.448 1193.213,257.548 1168.934,257.142 1165.797 C 256.420 1160.211,256.457 1160.087,258.952 1159.764 C 260.354 1159.582,261.811 1159.674,262.190 1159.967 C 262.570 1160.260,263.357 1176.475,263.939 1196.000 M278.000 1192.339 C 278.000 1210.675,278.297 1235.200,278.659 1246.839 L 279.318 1268.000 276.659 1268.000 L 274.000 1268.000 273.964 1250.250 C 273.926 1231.569,272.190 1173.272,271.544 1169.000 C 271.337 1167.625,271.129 1165.263,271.083 1163.750 C 271.038 1162.237,270.663 1161.000,270.250 1160.999 C 269.837 1160.999,269.822 1164.711,270.216 1169.249 C 270.610 1173.787,271.233 1197.862,271.600 1222.750 L 272.267 1268.000 269.634 1268.000 L 267.000 1268.000 266.993 1249.250 C 266.985 1228.107,265.368 1174.757,264.446 1165.250 L 263.841 1159.000 270.920 1159.000 L 278.000 1159.000 278.000 1192.339 M283.077 1166.750 C 283.119 1171.013,283.322 1175.400,283.529 1176.500 C 283.735 1177.600,284.168 1196.950,284.491 1219.500 C 284.813 1242.050,285.290 1262.188,285.550 1264.250 C 286.001 1267.817,285.884 1268.000,283.174 1268.000 L 280.325 1268.000 279.662 1230.336 C 279.298 1209.621,279.000 1185.096,279.000 1175.836 C 279.000 1159.667,279.079 1159.000,281.000 1159.000 C 282.821 1159.000,283.007 1159.692,283.077 1166.750 M291.352 1206.731 C 291.724 1232.983,292.312 1257.508,292.658 1261.231 L 293.287 1268.000 290.329 1268.000 L 287.371 1268.000 286.164 1217.250 C 284.612 1151.959,284.409 1159.000,287.837 1159.000 L 290.674 1159.000 291.352 1206.731 M298.000 1193.839 C 298.000 1213.001,298.296 1237.526,298.658 1248.339 L 299.317 1268.000 296.816 1268.000 L 294.315 1268.000 293.650 1243.250 C 293.284 1229.638,292.692 1205.112,292.336 1188.750 L 291.688 1159.000 294.844 1159.000 L 298.000 1159.000 298.000 1193.839 M304.862 1166.750 C 304.733 1171.013,305.002 1195.537,305.459 1221.250 L 306.291 1268.000 303.751 1268.000 L 301.211 1268.000 300.611 1252.750 C 300.282 1244.362,299.884 1219.838,299.728 1198.250 L 299.445 1159.000 302.270 1159.000 L 305.096 1159.000 304.862 1166.750 M311.456 1160.250 C 311.672 1160.938,312.145 1185.463,312.507 1214.750 L 313.165 1268.000 310.741 1268.000 L 308.317 1268.000 307.667 1245.750 C 307.310 1233.513,306.717 1208.987,306.349 1191.250 L 305.679 1159.000 308.371 1159.000 C 309.852 1159.000,311.240 1159.563,311.456 1160.250 M319.328 1211.370 C 319.784 1239.898,319.888 1264.310,319.559 1265.620 C 319.153 1267.240,318.249 1267.998,316.731 1267.994 L 314.500 1267.989 314.252 1238.744 C 314.116 1222.660,313.731 1198.103,313.398 1184.174 L 312.791 1158.847 315.646 1159.174 L 318.500 1159.500 319.328 1211.370 M326.108 1193.250 C 326.168 1212.088,326.230 1229.525,326.246 1232.000 C 326.263 1234.475,326.214 1243.588,326.138 1252.250 L 326.000 1268.000 323.539 1268.000 L 321.078 1268.000 321.036 1229.250 C 321.013 1207.938,320.704 1183.412,320.349 1174.750 L 319.704 1159.000 322.852 1159.000 L 326.000 1159.000 326.108 1193.250 M341.439 1167.000 C 341.405 1171.125,340.995 1195.537,340.528 1221.250 L 339.679 1268.000 337.089 1268.000 L 334.500 1268.000 334.768 1217.315 C 334.916 1189.438,334.859 1166.826,334.643 1167.065 C 333.613 1168.203,333.046 1189.120,333.024 1226.750 L 333.000 1268.000 330.500 1268.000 L 328.000 1268.000 327.996 1227.750 C 327.994 1205.612,327.699 1181.089,327.341 1173.254 L 326.689 1159.007 334.095 1159.254 L 341.500 1159.500 341.439 1167.000 M347.759 1213.750 L 348.017 1268.000 344.759 1268.000 L 341.500 1268.001 341.703 1250.750 C 341.814 1241.263,342.205 1216.713,342.570 1196.196 L 343.236 1158.892 345.368 1159.196 L 347.500 1159.500 347.759 1213.750 M355.438 1162.250 C 355.403 1163.763,355.291 1188.175,355.188 1216.500 L 355.000 1268.000 351.839 1268.000 L 348.679 1268.000 349.339 1240.838 C 349.703 1225.898,350.000 1201.343,350.000 1186.271 L 350.000 1158.867 352.750 1159.184 C 355.025 1159.445,355.489 1159.975,355.438 1162.250 M362.000 1213.500 L 362.000 1268.000 359.250 1268.000 L 356.500 1268.000 356.767 1213.500 L 357.034 1159.000 359.517 1159.000 L 362.000 1159.000 362.000 1213.500 M369.187 1171.000 C 369.195 1177.325,369.156 1201.737,369.101 1225.250 L 369.000 1268.000 365.966 1268.000 C 363.213 1268.000,362.973 1267.745,363.384 1265.250 C 363.632 1263.737,363.873 1239.183,363.918 1210.684 L 364.000 1158.867 366.586 1159.184 L 369.171 1159.500 369.187 1171.000 M376.474 1196.250 C 376.182 1216.737,375.683 1241.263,375.365 1250.750 L 374.785 1268.000 372.234 1268.000 L 369.683 1268.000 370.342 1248.339 C 370.704 1237.526,371.000 1213.001,371.000 1193.839 L 371.000 1159.000 374.001 1159.000 L 377.003 1159.000 376.474 1196.250 M383.491 1190.250 C 383.193 1207.438,382.685 1231.963,382.362 1244.750 L 381.776 1268.000 379.388 1268.000 L 377.000 1268.000 377.000 1242.163 C 377.000 1227.952,377.297 1203.427,377.661 1187.663 L 378.322 1159.000 381.178 1159.000 L 384.034 1159.000 383.491 1190.250 M390.527 1186.750 C 390.171 1202.013,389.795 1226.536,389.690 1241.246 L 389.500 1267.992 386.597 1267.996 L 383.694 1268.000 384.337 1223.750 C 384.691 1199.412,385.275 1174.888,385.635 1169.250 C 386.276 1159.228,386.345 1159.000,388.732 1159.000 L 391.173 1159.000 390.527 1186.750 M397.657 1175.660 C 397.296 1184.823,397.000 1209.348,397.000 1230.160 L 397.000 1268.000 393.858 1268.000 L 390.716 1268.000 391.379 1222.250 C 391.743 1197.088,392.315 1172.563,392.650 1167.750 C 393.243 1159.218,393.321 1159.000,395.786 1159.000 L 398.314 1159.000 397.657 1175.660 M404.619 1189.250 C 404.282 1205.888,403.728 1230.412,403.389 1243.750 L 402.771 1268.000 400.223 1268.000 L 397.676 1268.000 398.336 1231.250 C 398.700 1211.037,398.998 1186.513,398.999 1176.750 L 399.000 1159.000 402.115 1159.000 L 405.231 1159.000 404.619 1189.250 M411.540 1194.750 C 410.934 1233.340,410.288 1253.178,409.342 1262.250 C 408.792 1267.518,408.537 1268.000,406.297 1268.000 L 403.853 1268.000 404.260 1247.750 C 404.485 1236.612,405.283 1212.088,406.035 1193.250 L 407.401 1159.000 409.751 1159.000 L 412.101 1159.000 411.540 1194.750 M418.161 1165.250 C 418.348 1168.688,418.339 1193.213,418.142 1219.750 L 417.784 1268.000 414.283 1268.000 L 410.781 1268.000 411.375 1260.250 C 411.702 1255.987,412.260 1231.463,412.616 1205.750 L 413.262 1159.000 415.542 1159.000 C 417.636 1159.000,417.850 1159.510,418.161 1165.250 M424.631 1198.250 C 424.334 1219.838,424.070 1244.362,424.045 1252.750 L 424.000 1268.000 421.392 1268.000 L 418.785 1268.000 419.419 1214.250 C 419.767 1184.688,420.041 1160.162,420.026 1159.750 C 420.012 1159.338,421.163 1159.000,422.585 1159.000 L 425.171 1159.000 424.631 1198.250 M432.000 1213.500 L 432.000 1268.000 429.000 1268.000 L 426.000 1268.000 426.000 1213.500 L 426.000 1159.000 429.000 1159.000 L 432.000 1159.000 432.000 1213.500 M439.000 1213.500 L 439.000 1268.000 436.250 1268.000 L 433.500 1268.000 433.733 1214.250 C 433.861 1184.687,433.974 1160.162,433.983 1159.750 C 433.992 1159.338,435.125 1159.000,436.500 1159.000 L 439.000 1159.000 439.000 1213.500 M447.000 1213.500 L 447.000 1268.000 444.115 1268.000 C 441.373 1268.000,441.203 1267.740,440.668 1262.750 C 440.359 1259.862,440.237 1256.150,440.397 1254.500 C 440.556 1252.850,440.757 1230.688,440.843 1205.250 L 441.000 1159.000 444.000 1159.000 L 447.000 1159.000 447.000 1213.500 M454.000 1213.500 L 454.000 1268.000 451.053 1268.000 L 448.105 1268.000 448.219 1213.500 L 448.333 1159.000 451.166 1159.000 L 454.000 1159.000 454.000 1213.500 M460.608 1178.250 C 460.343 1188.838,460.097 1213.362,460.063 1232.750 L 460.000 1268.000 457.750 1267.999 L 455.500 1267.997 455.397 1213.499 L 455.294 1159.000 458.193 1159.000 L 461.092 1159.000 460.608 1178.250 M467.539 1200.250 C 467.231 1222.938,466.983 1247.463,466.989 1254.750 L 467.000 1268.000 463.872 1268.000 L 460.745 1268.000 461.367 1250.250 C 461.709 1240.487,462.104 1215.963,462.244 1195.750 L 462.500 1159.001 465.300 1159.000 L 468.099 1159.000 467.539 1200.250 M473.659 1173.250 C 473.301 1181.088,473.006 1205.612,473.004 1227.750 L 473.000 1268.000 470.345 1268.000 L 467.690 1268.000 468.345 1254.342 C 468.705 1246.830,469.000 1222.305,469.000 1199.842 L 469.000 1159.000 471.656 1159.000 L 474.311 1159.000 473.659 1173.250 M497.389 1168.804 C 498.156 1179.940,499.943 1240.999,499.977 1257.250 C 500.000 1267.816,499.961 1268.000,497.693 1268.000 L 495.387 1268.000 494.241 1216.750 C 493.571 1186.797,492.660 1164.253,492.048 1162.500 C 491.219 1160.125,491.100 1161.271,491.478 1168.000 C 491.741 1172.675,492.195 1189.100,492.487 1204.500 C 492.780 1219.900,493.248 1240.487,493.529 1250.250 L 494.039 1268.000 491.520 1268.000 C 489.573 1268.000,489.000 1267.488,489.001 1265.750 C 489.005 1258.093,485.889 1163.224,485.594 1162.000 C 484.478 1157.375,485.904 1239.826,487.336 1262.750 C 487.657 1267.880,487.602 1268.000,484.938 1268.000 L 482.211 1268.000 481.581 1252.750 C 481.235 1244.362,480.546 1223.325,480.051 1206.000 C 479.172 1175.225,479.161 1175.577,479.552 1221.250 L 479.952 1268.000 477.476 1268.000 L 475.000 1268.000 475.000 1213.500 L 475.000 1159.000 485.857 1159.000 L 496.714 1159.000 497.389 1168.804 M518.357 1185.245 C 518.705 1199.685,519.281 1224.213,519.636 1239.750 L 520.282 1268.000 517.641 1268.000 C 515.154 1268.000,515.000 1267.721,515.000 1263.207 C 515.000 1249.048,512.928 1170.727,512.434 1166.250 C 512.116 1163.362,511.519 1161.000,511.107 1161.000 C 510.695 1161.000,510.675 1163.813,511.063 1167.250 C 511.452 1170.688,512.058 1192.625,512.412 1216.000 C 512.765 1239.375,513.325 1260.638,513.656 1263.250 C 514.233 1267.808,514.157 1268.000,511.763 1268.000 L 509.269 1268.000 508.649 1253.750 C 508.307 1245.912,507.734 1222.050,507.374 1200.722 C 507.014 1179.395,506.324 1161.700,505.840 1161.401 C 505.340 1161.092,505.181 1169.818,505.472 1181.679 C 505.754 1193.131,506.221 1214.871,506.511 1229.990 C 506.801 1245.110,507.317 1259.847,507.657 1262.740 L 508.275 1268.000 505.138 1268.000 C 502.182 1268.000,501.999 1267.783,501.983 1264.250 C 501.974 1262.188,501.308 1238.900,500.503 1212.500 C 499.698 1186.100,499.030 1163.305,499.020 1161.843 L 499.000 1159.187 508.362 1159.089 L 517.723 1158.990 518.357 1185.245 M525.429 1188.750 C 525.791 1205.112,526.405 1229.638,526.794 1243.251 L 527.500 1268.002 524.887 1268.001 C 522.303 1268.000,522.267 1267.898,521.655 1258.750 C 521.314 1253.662,520.735 1229.138,520.367 1204.250 L 519.699 1159.000 522.235 1159.000 L 524.771 1159.000 525.429 1188.750 M532.348 1180.250 C 532.702 1191.938,533.287 1216.463,533.648 1234.750 L 534.305 1268.000 531.799 1268.000 L 529.294 1268.000 528.658 1251.250 C 528.308 1242.037,527.723 1217.513,527.358 1196.750 L 526.696 1159.000 529.200 1159.000 L 531.705 1159.000 532.348 1180.250 M540.380 1210.578 C 540.766 1238.945,541.344 1263.470,541.666 1265.078 C 542.208 1267.790,542.033 1268.000,539.239 1268.000 L 536.228 1268.000 535.517 1239.750 C 535.126 1224.213,534.512 1199.874,534.153 1185.665 C 533.794 1171.455,533.688 1159.643,533.917 1159.415 C 534.146 1159.187,535.536 1159.000,537.007 1159.000 L 539.680 1159.000 540.380 1210.578 M546.395 1164.250 C 546.692 1167.138,547.178 1184.350,547.475 1202.500 C 547.773 1220.650,548.298 1242.813,548.642 1251.750 L 549.267 1268.000 546.292 1268.000 L 543.316 1268.000 542.669 1241.250 C 542.314 1226.537,541.722 1202.013,541.355 1186.750 L 540.687 1159.000 543.271 1159.000 C 545.654 1159.000,545.898 1159.410,546.395 1164.250 M554.645 1203.500 C 555.275 1227.700,555.838 1252.112,555.895 1257.750 C 556.000 1267.956,555.990 1268.000,553.580 1268.000 C 551.335 1268.000,551.119 1267.545,550.614 1261.750 C 550.314 1258.313,549.828 1240.650,549.535 1222.500 C 549.241 1204.350,548.704 1182.601,548.342 1174.168 L 547.682 1158.837 550.591 1159.168 L 553.500 1159.500 554.645 1203.500 M561.373 1195.750 C 561.727 1215.963,562.295 1240.487,562.636 1250.250 L 563.255 1268.000 560.628 1268.000 C 558.212 1268.000,557.995 1267.657,557.943 1263.750 C 557.911 1261.412,557.724 1256.125,557.527 1252.000 C 557.329 1247.875,556.900 1230.325,556.572 1213.000 C 556.244 1195.675,555.702 1176.438,555.368 1170.250 L 554.760 1159.000 557.745 1159.000 L 560.729 1159.000 561.373 1195.750 M569.000 1213.500 L 569.000 1268.000 566.662 1268.000 L 564.324 1268.000 563.664 1232.750 C 563.300 1213.362,563.002 1188.838,563.002 1178.250 L 563.000 1159.000 566.000 1159.000 L 569.000 1159.000 569.000 1213.500 M576.661 1179.250 C 576.300 1190.388,576.004 1214.912,576.003 1233.750 L 576.000 1268.000 573.250 1268.000 L 570.500 1268.000 570.767 1213.500 L 571.034 1159.000 574.176 1159.000 L 577.317 1159.000 576.661 1179.250 M583.000 1213.500 L 583.000 1268.000 580.500 1268.000 L 578.000 1268.000 578.004 1227.750 C 578.006 1205.612,578.301 1181.088,578.659 1173.250 C 579.252 1160.303,579.480 1159.000,581.156 1159.000 C 582.926 1159.000,583.000 1161.199,583.000 1213.500 M590.500 1199.500 C 590.500 1221.500,590.364 1245.912,590.197 1253.750 L 589.895 1268.000 587.005 1268.000 L 584.115 1268.000 584.610 1214.250 C 584.883 1184.688,585.082 1160.133,585.053 1159.684 C 585.024 1159.235,586.237 1159.010,587.750 1159.184 L 590.500 1159.500 590.500 1199.500 M598.000 1187.838 C 598.000 1203.699,597.703 1228.224,597.340 1242.338 L 596.679 1268.000 594.340 1268.000 L 592.000 1268.000 592.000 1214.167 C 592.000 1184.558,592.300 1160.033,592.667 1159.667 C 593.033 1159.300,594.383 1159.000,595.667 1159.000 L 598.000 1159.000 598.000 1187.838 M606.015 1199.000 C 605.967 1220.725,605.753 1239.400,605.540 1240.500 C 605.327 1241.600,605.119 1248.237,605.077 1255.250 L 605.000 1268.000 602.000 1268.000 L 599.000 1268.000 599.000 1240.662 C 599.000 1225.627,599.298 1201.079,599.662 1186.111 L 600.324 1158.897 603.213 1159.199 L 606.102 1159.500 606.015 1199.000 M613.450 1163.250 C 613.423 1165.313,613.310 1189.725,613.200 1217.500 L 613.000 1268.000 610.000 1268.000 L 607.000 1268.000 607.000 1254.164 C 607.000 1246.554,607.299 1222.006,607.663 1199.613 L 608.327 1158.899 610.913 1159.199 C 613.193 1159.464,613.494 1159.945,613.450 1163.250 M620.997 1194.750 C 620.996 1214.412,620.699 1238.938,620.339 1249.250 L 619.684 1268.000 617.092 1267.999 L 614.500 1267.999 614.601 1251.749 C 614.657 1242.812,614.769 1218.287,614.851 1197.250 L 615.000 1159.000 618.000 1159.000 L 621.000 1159.000 620.997 1194.750 M628.680 1161.250 C 628.385 1162.487,627.822 1187.013,627.430 1215.750 L 626.716 1268.000 624.108 1268.000 L 621.500 1268.000 621.754 1214.750 C 621.894 1185.463,622.217 1160.938,622.473 1160.250 C 622.728 1159.563,624.350 1159.000,626.077 1159.000 C 628.826 1159.000,629.150 1159.280,628.680 1161.250 M635.593 1167.750 C 635.104 1174.188,633.507 1235.596,633.020 1266.750 C 633.009 1267.438,631.872 1268.000,630.493 1268.000 L 627.986 1268.000 628.451 1248.250 C 628.706 1237.388,629.209 1213.200,629.568 1194.500 C 629.927 1175.800,630.423 1160.162,630.669 1159.750 C 630.916 1159.338,632.275 1159.000,633.688 1159.000 L 636.258 1159.000 635.593 1167.750 M648.547 1169.254 C 648.263 1174.889,647.788 1195.925,647.491 1216.000 C 647.194 1236.075,646.672 1255.987,646.332 1260.250 C 645.771 1267.268,645.513 1268.000,643.606 1268.000 L 641.500 1268.000 641.846 1218.250 C 642.036 1190.888,641.830 1168.857,641.387 1169.292 C 640.944 1169.728,640.541 1178.503,640.490 1188.792 C 640.440 1199.082,640.309 1221.112,640.199 1237.750 L 640.000 1268.000 637.500 1268.000 L 635.000 1268.000 635.000 1249.984 C 635.000 1230.160,636.868 1162.161,637.462 1160.383 C 637.670 1159.760,640.316 1159.210,643.449 1159.137 L 649.063 1159.008 648.547 1169.254 M656.611 1162.750 C 655.997 1166.293,654.987 1192.031,653.395 1244.750 L 652.692 1268.000 650.214 1268.000 L 647.735 1268.000 648.475 1247.250 C 649.135 1228.749,649.687 1198.959,649.920 1169.250 L 650.000 1159.000 653.631 1159.000 L 657.262 1159.000 656.611 1162.750 M662.602 1165.250 C 662.296 1168.688,661.800 1189.500,661.499 1211.500 C 661.199 1233.500,660.686 1255.213,660.358 1259.750 C 659.774 1267.849,659.715 1268.000,657.125 1268.000 L 654.486 1268.000 654.786 1256.250 C 655.527 1227.284,658.095 1164.239,658.636 1161.750 C 659.041 1159.887,659.866 1159.000,661.196 1159.000 C 662.997 1159.000,663.113 1159.517,662.602 1165.250 M669.665 1168.750 C 669.324 1174.112,668.741 1198.638,668.370 1223.250 L 667.695 1268.000 664.690 1268.000 L 661.685 1268.000 662.344 1245.250 C 662.706 1232.737,663.299 1208.213,663.661 1190.750 L 664.320 1159.000 667.303 1159.000 L 670.286 1159.000 669.665 1168.750 M676.539 1186.250 C 676.219 1201.237,675.691 1225.763,675.365 1240.750 L 674.772 1268.000 671.786 1268.000 L 668.799 1268.000 669.394 1250.250 C 669.721 1240.487,670.269 1215.963,670.611 1195.750 L 671.233 1159.000 674.177 1159.000 L 677.120 1159.000 676.539 1186.250 M683.973 1166.250 C 683.959 1170.237,683.296 1187.225,682.500 1204.000 C 681.704 1220.775,681.041 1242.037,681.027 1251.250 C 681.000 1267.746,680.967 1268.000,678.837 1268.000 L 676.674 1268.000 677.335 1221.750 C 677.698 1196.313,678.288 1171.787,678.646 1167.250 C 679.262 1159.440,679.422 1159.000,681.648 1159.000 C 683.903 1159.000,683.999 1159.298,683.973 1166.250 M690.634 1173.250 C 690.300 1181.088,689.792 1197.850,689.504 1210.500 C 689.217 1223.150,688.713 1241.263,688.384 1250.750 L 687.785 1268.000 684.750 1268.000 L 681.715 1268.000 682.353 1247.750 C 683.322 1217.003,685.040 1174.381,685.638 1166.250 C 686.149 1159.296,686.274 1159.000,688.706 1159.000 L 691.242 1159.000 690.634 1173.250 M697.387 1172.750 C 695.719 1226.738,695.000 1253.025,695.000 1259.968 L 695.000 1268.000 691.941 1268.000 C 690.259 1268.000,689.128 1267.602,689.428 1267.116 C 689.728 1266.631,690.431 1243.568,690.989 1215.866 C 691.547 1188.165,692.248 1164.037,692.547 1162.250 C 692.981 1159.655,693.566 1159.000,695.451 1159.000 L 697.812 1159.000 697.387 1172.750 M704.591 1172.250 C 704.278 1179.537,703.787 1197.425,703.500 1212.000 C 703.213 1226.575,702.696 1245.138,702.350 1253.250 L 701.721 1268.000 699.216 1268.000 L 696.712 1268.000 697.371 1228.250 C 697.733 1206.388,698.311 1181.862,698.655 1173.750 L 699.279 1159.000 702.220 1159.000 L 705.161 1159.000 704.591 1172.250 M711.647 1173.250 C 711.305 1181.088,710.731 1205.612,710.371 1227.750 L 709.717 1268.000 706.291 1268.000 C 703.509 1268.000,702.957 1267.671,703.354 1266.250 C 703.623 1265.287,704.410 1240.763,705.102 1211.750 L 706.360 1159.000 709.314 1159.000 L 712.269 1159.000 711.647 1173.250 M718.558 1173.250 C 718.057 1185.951,716.440 1260.059,716.539 1265.750 C 716.572 1267.582,716.033 1268.000,713.641 1268.000 L 710.703 1268.000 711.344 1253.250 C 711.696 1245.138,712.283 1220.612,712.649 1198.750 L 713.314 1159.000 716.217 1159.000 L 719.120 1159.000 718.558 1173.250 M725.628 1168.750 C 725.304 1174.112,724.802 1191.550,724.511 1207.500 C 724.220 1223.450,723.710 1243.588,723.377 1252.250 L 722.772 1268.000 720.241 1268.000 L 717.709 1268.000 718.338 1254.750 C 718.684 1247.463,719.235 1223.500,719.562 1201.500 C 719.889 1179.500,720.332 1160.938,720.547 1160.250 C 720.762 1159.563,722.125 1159.000,723.576 1159.000 L 726.216 1159.000 725.628 1168.750 M732.656 1175.250 C 732.301 1184.188,731.729 1204.100,731.384 1219.500 C 731.039 1234.900,730.638 1248.625,730.493 1250.000 C 730.347 1251.375,730.177 1255.987,730.114 1260.250 C 730.003 1267.820,729.942 1268.000,727.500 1268.000 C 725.025 1268.000,725.000 1267.913,724.985 1259.250 C 724.960 1245.084,727.120 1161.614,727.546 1160.250 C 727.761 1159.563,729.144 1159.000,730.619 1159.000 L 733.301 1159.000 732.656 1175.250 M739.512 1181.250 C 739.166 1193.487,738.495 1217.392,738.020 1234.372 C 737.545 1251.351,737.394 1265.864,737.685 1266.622 C 738.068 1267.619,737.312 1268.000,734.950 1268.000 L 731.686 1268.000 732.353 1242.750 C 732.720 1228.862,733.311 1204.338,733.667 1188.250 L 734.313 1159.000 737.226 1159.000 L 740.140 1159.000 739.512 1181.250 M747.053 1177.413 C 746.978 1187.265,746.760 1195.590,746.568 1195.913 C 746.376 1196.236,745.913 1211.800,745.538 1230.500 C 745.163 1249.200,744.634 1265.287,744.361 1266.250 C 744.054 1267.332,742.888 1268.000,741.305 1268.000 L 738.745 1268.000 739.369 1247.750 C 739.712 1236.612,740.280 1212.064,740.631 1193.197 L 741.269 1158.893 744.229 1159.197 L 747.189 1159.500 747.053 1177.413 M757.531 1159.622 L 762.563 1160.227 761.832 1168.863 C 760.632 1183.053,758.000 1242.813,758.000 1255.867 L 758.000 1268.000 755.355 1268.000 L 752.710 1268.000 753.373 1247.750 C 755.215 1191.464,756.059 1169.113,756.489 1165.250 C 756.760 1162.817,756.542 1161.000,755.981 1161.000 C 755.441 1161.000,754.988 1162.013,754.973 1163.250 C 754.959 1164.487,754.296 1179.225,753.500 1196.000 C 752.704 1212.775,752.038 1232.800,752.019 1240.500 C 752.001 1248.200,751.699 1257.537,751.348 1261.250 C 750.749 1267.600,750.564 1268.000,748.228 1268.000 L 745.745 1268.000 746.414 1249.250 C 746.978 1233.437,748.928 1166.265,748.983 1160.750 C 749.002 1158.833,749.940 1158.710,757.531 1159.622 M248.693 1164.005 C 249.371 1172.231,252.000 1245.694,252.000 1256.406 C 252.000 1268.002,251.974 1268.135,249.750 1267.820 C 247.684 1267.526,247.484 1266.927,247.301 1260.500 C 246.246 1223.482,243.404 1167.669,242.353 1163.340 C 241.981 1161.810,242.364 1161.038,243.664 1160.695 C 247.304 1159.735,248.401 1160.457,248.693 1164.005 M255.350 1162.258 C 255.868 1164.324,256.796 1188.485,258.575 1246.250 L 259.244 1268.000 256.168 1268.000 L 253.092 1268.000 253.123 1252.250 C 253.155 1236.051,251.493 1184.302,250.442 1168.750 L 249.850 1160.000 252.317 1160.000 C 254.043 1160.000,254.953 1160.677,255.350 1162.258 M768.604 1168.250 C 768.287 1172.787,767.557 1190.675,766.982 1208.000 C 766.406 1225.325,765.678 1245.912,765.364 1253.750 L 764.792 1268.000 761.976 1268.000 L 759.160 1268.000 759.565 1258.750 C 759.787 1253.662,760.190 1242.075,760.460 1233.000 C 761.207 1207.882,762.882 1171.135,763.549 1165.250 C 764.091 1160.464,764.367 1160.000,766.662 1160.000 L 769.180 1160.000 768.604 1168.250 M776.385 1162.105 C 776.322 1162.988,775.286 1183.913,774.084 1208.605 C 771.086 1270.143,771.277 1268.000,768.790 1268.000 C 766.781 1268.000,766.759 1267.656,767.273 1244.250 C 767.884 1216.448,770.015 1163.087,770.591 1161.183 C 771.179 1159.238,776.529 1160.089,776.385 1162.105 M215.538 1166.353 C 215.911 1168.634,217.515 1175.975,219.101 1182.667 C 223.350 1200.584,224.857 1212.761,227.004 1246.500 C 228.311 1267.030,228.276 1269.000,226.608 1269.000 C 224.725 1269.000,224.315 1266.951,222.497 1248.455 C 219.412 1217.054,217.790 1205.214,213.872 1185.500 C 211.686 1174.500,209.665 1164.561,209.381 1163.413 C 208.929 1161.584,209.235 1161.381,211.862 1161.766 C 214.497 1162.153,214.941 1162.707,215.538 1166.353 M226.376 1178.775 C 227.811 1187.727,229.911 1206.402,231.043 1220.275 C 233.932 1255.688,234.969 1263.417,234.494 1246.000 C 233.991 1227.587,231.493 1200.844,228.422 1181.000 C 227.017 1171.925,225.785 1163.825,225.684 1163.000 C 225.557 1161.962,226.415 1161.500,228.469 1161.500 C 231.386 1161.500,231.461 1161.634,232.703 1169.000 C 235.592 1186.139,238.367 1223.681,239.209 1257.000 L 239.500 1268.500 234.880 1268.799 C 229.295 1269.162,229.034 1268.590,229.014 1255.958 C 228.998 1245.894,225.522 1205.005,223.985 1196.801 C 223.398 1193.667,221.416 1184.667,219.582 1176.801 L 216.246 1162.500 219.373 1161.943 C 221.093 1161.637,222.785 1161.637,223.133 1161.943 C 223.481 1162.249,224.940 1169.824,226.376 1178.775 M241.000 1162.446 C 241.000 1163.241,241.437 1169.428,241.971 1176.196 C 242.505 1182.963,243.665 1206.226,244.550 1227.892 C 245.887 1260.614,245.934 1267.426,244.830 1268.126 C 241.507 1270.233,241.000 1269.129,240.984 1259.750 C 240.963 1248.157,238.421 1202.994,237.001 1189.000 C 236.027 1179.404,234.813 1170.922,233.388 1163.750 C 232.863 1161.110,233.004 1161.000,236.921 1161.000 C 239.812 1161.000,241.000 1161.421,241.000 1162.446 M782.977 1165.750 C 782.965 1168.362,782.548 1175.900,782.050 1182.500 C 781.552 1189.100,780.853 1201.025,780.495 1209.000 C 780.137 1216.975,779.433 1228.450,778.931 1234.500 C 778.428 1240.550,778.013 1250.563,778.009 1256.750 L 778.000 1268.000 775.353 1268.000 L 772.706 1268.000 773.404 1250.750 C 774.151 1232.283,776.556 1186.782,777.632 1170.750 C 778.262 1161.359,778.373 1161.000,780.643 1161.000 C 782.791 1161.000,782.998 1161.420,782.977 1165.750 M792.989 1162.250 C 792.983 1162.938,792.361 1165.533,791.607 1168.018 C 789.686 1174.346,787.364 1201.336,784.877 1246.250 C 783.769 1266.249,783.524 1268.000,781.836 1268.000 C 780.151 1268.000,780.000 1266.955,780.000 1255.277 C 780.000 1248.279,780.433 1235.341,780.962 1226.527 C 781.491 1217.712,782.398 1202.175,782.976 1192.000 C 783.555 1181.825,784.300 1170.688,784.631 1167.250 L 785.233 1161.000 789.116 1161.000 C 791.562 1161.000,792.996 1161.463,792.989 1162.250 M801.627 1163.750 C 795.831 1183.723,790.678 1228.088,791.144 1254.000 C 791.271 1261.052,791.328 1260.842,792.086 1250.500 C 795.509 1203.769,796.629 1193.962,800.736 1174.750 C 803.430 1162.142,803.491 1162.000,806.230 1162.000 C 809.334 1162.000,809.325 1161.971,807.978 1167.500 C 804.000 1183.823,799.489 1219.591,796.405 1259.250 C 795.757 1267.589,795.614 1268.000,793.362 1268.000 C 791.397 1268.000,790.973 1267.454,790.840 1264.750 L 790.680 1261.500 790.277 1264.750 C 789.966 1267.252,789.392 1268.000,787.782 1268.000 C 785.716 1268.000,785.698 1267.793,786.363 1251.250 C 787.478 1223.505,790.656 1180.957,792.134 1174.000 C 794.624 1162.273,794.771 1162.000,798.606 1162.000 C 801.494 1162.000,802.042 1162.318,801.627 1163.750 M815.516 1164.250 C 812.965 1175.244,808.945 1198.832,807.038 1214.000 C 805.975 1222.453,803.022 1259.999,803.008 1265.250 C 803.001 1267.515,802.559 1268.000,800.500 1268.000 C 797.394 1268.000,797.411 1268.975,799.969 1237.299 C 801.887 1213.545,804.001 1197.391,808.057 1175.500 C 810.638 1161.573,810.466 1162.000,813.488 1162.000 C 815.621 1162.000,815.953 1162.368,815.516 1164.250 M480.232 1168.000 C 480.232 1169.925,480.438 1170.713,480.689 1169.750 C 480.941 1168.787,480.941 1167.213,480.689 1166.250 C 480.438 1165.287,480.232 1166.075,480.232 1168.000 M98.000 1243.541 C 140.080 1245.896,163.722 1247.258,186.303 1248.626 L 197.106 1249.280 196.803 1252.390 C 196.514 1255.352,196.309 1255.488,192.500 1255.241 C 190.300 1255.099,172.750 1254.082,153.500 1252.980 C 134.250 1251.879,108.825 1250.331,97.000 1249.539 C 85.175 1248.747,65.600 1247.553,53.500 1246.886 C 40.128 1246.148,31.212 1245.246,30.765 1244.586 C 30.361 1243.989,30.024 1242.685,30.015 1241.690 C 29.998 1239.603,25.436 1239.478,98.000 1243.541 M996.378 1242.750 C 996.016 1244.263,995.582 1245.662,995.415 1245.861 C 995.041 1246.306,989.958 1246.629,954.000 1248.497 C 938.325 1249.311,919.200 1250.434,911.500 1250.992 C 903.800 1251.551,885.125 1252.683,870.000 1253.508 C 854.875 1254.332,839.462 1255.258,835.750 1255.564 C 830.571 1255.992,828.997 1255.816,828.986 1254.811 C 828.979 1254.090,828.719 1252.556,828.409 1251.402 C 827.861 1249.358,828.245 1249.286,843.173 1248.625 C 851.603 1248.252,873.125 1247.037,891.000 1245.925 C 916.339 1244.350,969.894 1241.348,994.269 1240.138 C 996.803 1240.012,996.982 1240.234,996.378 1242.750 M39.662 1252.500 C 40.556 1257.739,41.947 1304.552,41.972 1330.250 C 41.999 1357.870,41.925 1359.000,40.094 1359.000 C 38.258 1359.000,38.171 1357.500,37.723 1318.250 C 37.277 1279.166,36.822 1272.211,33.469 1253.182 C 32.898 1249.946,32.963 1249.872,36.103 1250.182 C 38.401 1250.409,39.419 1251.072,39.662 1252.500 M47.914 1305.564 C 47.796 1353.136,47.590 1360.056,46.307 1359.564 C 45.498 1359.254,44.536 1359.000,44.168 1359.000 C 43.801 1359.001,43.520 1353.263,43.544 1346.250 C 43.628 1322.028,42.252 1261.483,41.498 1256.250 L 40.742 1251.000 44.397 1251.000 L 48.051 1251.000 47.914 1305.564 M54.845 1305.576 L 55.191 1360.151 52.345 1359.826 L 49.500 1359.500 49.241 1305.250 L 48.983 1251.000 51.741 1251.001 L 54.500 1251.001 54.845 1305.576 M60.148 1252.000 C 60.786 1252.000,61.021 1271.018,60.816 1305.999 C 60.529 1354.967,60.349 1359.998,58.881 1359.999 C 57.786 1360.000,57.061 1358.785,56.642 1356.250 C 56.301 1354.188,56.017 1329.614,56.011 1301.643 C 56.001 1255.676,56.152 1250.844,57.582 1251.393 C 58.452 1251.727,59.607 1252.000,60.148 1252.000 M977.069 1262.938 C 976.968 1269.229,976.676 1274.715,976.420 1275.130 C 976.163 1275.545,975.954 1294.746,975.955 1317.799 L 975.957 1359.714 968.771 1360.316 C 964.819 1360.647,961.481 1360.815,961.354 1360.688 C 960.830 1360.163,959.016 1314.375,958.387 1285.777 C 957.680 1253.627,957.850 1252.000,961.925 1252.000 C 963.475 1252.000,963.578 1254.922,963.251 1289.750 C 963.057 1310.513,963.304 1334.700,963.800 1343.500 C 964.555 1356.886,964.729 1351.088,964.865 1308.000 C 964.954 1279.675,965.299 1255.487,965.630 1254.250 C 966.054 1252.667,966.985 1252.000,968.768 1252.000 L 971.302 1252.000 970.627 1265.250 C 969.258 1292.127,968.737 1359.000,969.897 1359.000 C 970.677 1359.000,971.009 1349.714,971.030 1327.250 C 971.061 1294.461,972.421 1253.745,973.546 1251.925 C 973.898 1251.355,974.877 1251.027,975.720 1251.195 C 977.004 1251.450,977.223 1253.361,977.069 1262.938 M984.579 1259.750 C 984.206 1264.563,983.270 1288.975,982.500 1314.000 C 981.729 1339.025,981.077 1359.612,981.049 1359.750 C 981.022 1359.888,980.161 1360.000,979.136 1360.000 C 977.344 1360.000,977.279 1358.384,977.459 1318.250 C 977.562 1295.287,978.019 1270.763,978.475 1263.750 L 979.304 1251.000 982.281 1251.000 L 985.258 1251.000 984.579 1259.750 M991.884 1257.250 C 989.412 1277.463,988.761 1289.174,988.274 1322.250 L 987.731 1359.000 985.366 1359.000 C 983.446 1359.000,983.004 1358.481,983.022 1356.250 C 983.127 1343.261,986.114 1260.332,986.623 1256.250 C 987.231 1251.383,987.474 1251.000,989.964 1251.000 L 992.649 1251.000 991.884 1257.250 M68.000 1267.336 C 68.000 1275.771,67.702 1300.296,67.338 1321.836 L 66.675 1361.000 64.238 1361.000 L 61.801 1361.000 61.988 1324.750 C 62.091 1304.813,62.425 1280.287,62.730 1270.250 L 63.284 1252.000 65.642 1252.000 L 68.000 1252.000 68.000 1267.336 M75.201 1271.000 C 75.037 1281.175,74.493 1298.275,73.993 1309.000 C 73.493 1319.725,72.788 1335.813,72.428 1344.750 C 71.909 1357.619,71.484 1361.000,70.386 1361.000 C 68.752 1361.000,68.614 1347.140,69.665 1288.699 L 70.326 1251.899 72.913 1252.199 L 75.500 1252.500 75.201 1271.000 M82.514 1257.250 C 81.966 1262.445,79.125 1345.617,79.017 1359.644 C 79.004 1361.321,78.432 1361.757,76.393 1361.644 L 73.787 1361.500 74.456 1340.500 C 74.825 1328.950,75.541 1311.850,76.048 1302.500 C 76.556 1293.150,76.977 1278.188,76.985 1269.250 L 77.000 1253.000 79.981 1253.000 C 82.891 1253.000,82.951 1253.100,82.514 1257.250 M90.352 1254.500 C 89.315 1261.517,86.042 1334.242,86.017 1350.816 L 86.000 1362.133 83.389 1361.816 L 80.778 1361.500 80.923 1347.000 C 81.059 1333.426,82.073 1303.688,83.610 1268.197 L 84.273 1252.894 87.387 1253.197 C 89.099 1253.364,90.434 1253.950,90.352 1254.500 M942.356 1260.750 C 942.970 1268.498,944.705 1319.428,945.303 1347.250 L 945.621 1362.000 942.941 1362.000 L 940.261 1362.000 939.599 1332.250 C 939.235 1315.888,938.462 1291.751,937.881 1278.613 C 937.008 1258.888,937.057 1254.579,938.162 1253.879 C 941.089 1252.024,941.750 1253.107,942.356 1260.750 M949.352 1259.250 C 949.697 1262.688,950.422 1282.600,950.962 1303.500 C 951.503 1324.400,952.196 1346.112,952.504 1351.750 L 953.063 1362.000 950.218 1362.000 L 947.374 1362.000 946.151 1320.250 C 945.479 1297.287,944.650 1272.763,944.310 1265.750 L 943.692 1253.000 946.208 1253.000 C 948.560 1253.000,948.765 1253.406,949.352 1259.250 M957.359 1292.250 C 957.718 1313.838,958.297 1338.138,958.644 1346.250 L 959.276 1361.000 956.638 1361.000 C 954.050 1361.000,954.000 1360.873,953.983 1354.250 C 953.955 1343.377,952.145 1281.732,951.414 1266.750 L 950.744 1253.000 953.724 1253.000 L 956.705 1253.000 957.359 1292.250 M97.596 1262.250 C 97.275 1266.787,96.567 1280.175,96.024 1292.000 C 95.480 1303.825,94.546 1324.075,93.949 1337.000 C 93.352 1349.925,92.704 1361.007,92.510 1361.626 C 92.312 1362.259,91.026 1362.537,89.579 1362.260 C 87.582 1361.878,87.002 1361.172,87.007 1359.133 C 87.034 1348.336,90.600 1271.974,91.601 1260.750 C 92.198 1254.057,92.228 1254.000,95.191 1254.000 L 98.180 1254.000 97.596 1262.250 M105.181 1255.957 C 104.486 1259.132,103.009 1280.965,101.559 1309.500 C 98.559 1368.537,99.079 1363.000,96.536 1363.000 C 94.479 1363.000,94.322 1362.607,94.638 1358.250 C 94.827 1355.638,95.433 1342.700,95.983 1329.500 C 96.534 1316.300,97.529 1293.891,98.194 1279.702 L 99.404 1253.903 102.452 1254.202 C 104.507 1254.403,105.396 1254.975,105.181 1255.957 M113.547 1257.866 C 112.561 1262.494,109.079 1309.703,107.968 1333.500 C 106.581 1363.210,106.615 1363.000,103.201 1363.000 L 100.493 1363.000 101.193 1348.750 C 103.826 1295.135,105.737 1262.452,106.531 1257.452 C 106.981 1254.617,107.264 1254.432,110.562 1254.817 C 113.800 1255.196,114.059 1255.460,113.547 1257.866 M928.650 1274.093 C 929.283 1284.767,930.293 1305.650,930.895 1320.500 C 931.496 1335.350,932.174 1350.987,932.400 1355.250 L 932.811 1363.000 930.058 1363.000 L 927.305 1363.000 926.635 1344.750 C 926.267 1334.713,925.525 1319.750,924.987 1311.500 C 923.252 1284.885,921.974 1266.635,921.440 1260.831 C 920.991 1255.950,921.168 1255.107,922.710 1254.761 C 927.457 1253.699,927.438 1253.638,928.650 1274.093 M935.420 1259.250 C 936.015 1264.795,937.819 1320.778,938.247 1347.000 C 938.495 1362.170,938.454 1362.506,936.359 1362.805 C 934.264 1363.104,934.204 1362.747,933.601 1346.305 C 932.660 1320.645,930.967 1283.918,930.545 1280.000 C 930.337 1278.075,929.867 1271.438,929.499 1265.250 L 928.831 1254.000 931.844 1254.000 C 934.739 1254.000,934.878 1254.203,935.420 1259.250 M120.647 1256.477 C 119.708 1258.925,116.072 1307.100,113.417 1352.274 C 112.748 1363.654,112.655 1364.026,110.613 1363.400 C 109.451 1363.043,108.392 1362.662,108.259 1362.552 C 107.433 1361.866,111.434 1297.323,114.135 1267.754 L 115.300 1255.000 118.257 1255.000 C 120.454 1255.000,121.068 1255.380,120.647 1256.477 M913.365 1266.250 C 913.734 1272.438,914.483 1283.125,915.029 1290.000 C 916.691 1310.910,917.857 1329.659,918.589 1347.250 C 919.284 1363.924,919.277 1364.000,917.143 1364.000 C 915.591 1364.000,914.996 1363.379,914.986 1361.750 C 914.949 1355.870,910.871 1296.775,909.587 1283.500 C 908.349 1270.716,907.616 1258.517,907.918 1255.750 C 907.963 1255.338,909.056 1255.000,910.348 1255.000 C 912.632 1255.000,912.713 1255.302,913.365 1266.250 M920.000 1260.421 C 920.000 1263.403,920.655 1274.091,921.456 1284.171 C 922.256 1294.252,923.376 1311.725,923.943 1323.000 C 924.510 1334.275,925.225 1347.888,925.533 1353.250 L 926.092 1363.000 923.546 1363.000 C 921.465 1363.000,921.000 1362.521,921.000 1360.378 C 921.000 1353.917,915.390 1269.213,914.368 1260.250 L 913.770 1255.000 916.885 1255.000 C 919.989 1255.000,920.000 1255.020,920.000 1260.421 M125.647 1266.750 C 125.287 1272.662,124.333 1286.950,123.527 1298.500 C 122.720 1310.050,121.600 1326.700,121.037 1335.500 C 119.297 1362.715,119.111 1364.000,116.920 1364.000 C 115.227 1364.000,115.000 1363.245,115.000 1357.622 C 115.000 1350.094,119.569 1280.878,121.005 1266.644 C 121.552 1261.223,122.000 1256.611,122.000 1256.394 C 122.000 1256.177,122.968 1256.000,124.150 1256.000 C 126.258 1256.000,126.288 1256.213,125.647 1266.750 M134.123 1256.456 C 134.373 1256.707,134.021 1261.856,133.340 1267.899 C 131.252 1286.426,126.312 1355.446,126.588 1362.250 C 126.640 1363.538,125.878 1364.000,123.701 1364.000 L 120.743 1364.000 121.432 1352.750 C 121.810 1346.563,123.443 1322.927,125.060 1300.226 C 126.677 1277.525,128.000 1258.287,128.000 1257.476 C 128.000 1256.103,132.946 1255.279,134.123 1256.456 M142.307 1257.684 C 139.452 1272.094,135.121 1315.258,132.368 1356.750 C 131.873 1364.207,131.625 1365.000,129.781 1365.000 C 127.836 1365.000,127.771 1364.598,128.381 1356.250 C 128.732 1351.438,129.478 1339.175,130.039 1329.000 C 130.600 1318.825,132.170 1298.423,133.529 1283.661 C 134.888 1268.900,136.000 1256.613,136.000 1256.356 C 136.000 1256.099,137.463 1256.074,139.250 1256.300 C 141.037 1256.526,142.413 1257.149,142.307 1257.684 M890.457 1256.930 C 892.033 1259.481,897.989 1311.861,899.504 1336.500 C 901.432 1367.863,901.583 1365.000,898.000 1365.000 L 895.000 1365.000 894.997 1358.750 C 894.994 1352.358,892.894 1319.189,890.960 1295.000 C 890.366 1287.575,889.007 1277.154,887.940 1271.843 C 885.895 1261.665,885.568 1257.765,886.667 1256.667 C 887.634 1255.700,889.789 1255.849,890.457 1256.930 M899.423 1260.750 C 900.526 1269.338,903.903 1312.135,904.967 1331.000 C 905.540 1341.175,906.222 1352.713,906.482 1356.639 C 906.917 1363.189,906.787 1363.822,904.917 1364.312 C 903.792 1364.606,902.727 1364.319,902.543 1363.672 C 902.359 1363.028,901.701 1352.150,901.081 1339.500 C 899.811 1313.562,898.213 1297.923,893.141 1261.750 L 892.335 1256.000 895.574 1256.000 C 898.685 1256.000,898.836 1256.187,899.423 1260.750 M906.376 1265.750 C 906.745 1271.112,907.704 1282.025,908.506 1290.000 C 909.308 1297.975,910.666 1317.100,911.523 1332.500 C 912.381 1347.900,913.319 1361.287,913.609 1362.250 C 914.024 1363.632,913.532 1364.000,911.269 1364.000 L 908.403 1364.000 907.124 1339.250 C 906.421 1325.638,905.419 1309.550,904.898 1303.500 C 901.840 1268.029,900.962 1259.064,900.405 1257.614 C 899.921 1256.353,900.433 1256.000,902.745 1256.000 L 905.705 1256.000 906.376 1265.750 M148.617 1260.250 C 145.821 1275.268,142.759 1307.467,140.700 1343.500 L 139.500 1364.500 136.625 1364.828 L 133.750 1365.157 134.423 1352.328 C 135.991 1322.456,139.937 1282.151,143.145 1263.250 C 144.116 1257.526,144.417 1257.000,146.714 1257.000 C 149.002 1257.000,149.169 1257.286,148.617 1260.250 M157.000 1257.922 C 157.000 1258.429,156.117 1264.166,155.038 1270.672 C 152.218 1287.676,149.029 1318.552,146.173 1356.500 C 145.550 1364.767,145.333 1365.472,143.498 1365.155 C 142.399 1364.965,141.355 1364.671,141.179 1364.500 C 140.131 1363.491,145.369 1296.427,148.228 1274.250 L 150.451 1257.000 153.726 1257.000 C 155.526 1257.000,157.000 1257.415,157.000 1257.922 M877.767 1260.500 C 877.914 1262.150,878.684 1267.325,879.479 1272.000 C 881.340 1282.954,883.681 1308.547,884.967 1332.000 C 885.525 1342.175,886.257 1353.987,886.595 1358.250 C 887.173 1365.560,887.094 1366.000,885.189 1366.000 C 882.875 1366.000,883.003 1367.007,880.454 1328.500 C 878.875 1304.660,876.055 1280.148,873.485 1267.929 C 871.337 1257.716,871.444 1256.803,874.750 1257.184 C 876.995 1257.442,877.549 1258.051,877.767 1260.500 M885.000 1261.250 C 885.000 1263.588,885.670 1268.651,886.489 1272.500 C 888.116 1280.151,890.312 1303.648,891.957 1331.000 C 892.535 1340.625,893.251 1352.156,893.546 1356.625 L 894.084 1364.751 891.463 1365.252 C 889.976 1365.536,888.695 1365.266,888.501 1364.626 C 888.314 1364.007,887.874 1356.525,887.523 1348.000 C 886.330 1318.975,882.873 1280.281,880.441 1268.718 C 878.247 1258.289,878.418 1257.000,882.000 1257.000 C 884.863 1257.000,885.000 1257.194,885.000 1261.250 M165.000 1258.435 C 165.000 1258.674,164.359 1261.936,163.576 1265.685 C 159.819 1283.672,155.981 1314.669,154.003 1343.000 C 152.404 1365.920,152.352 1366.191,149.693 1365.812 C 147.656 1365.522,147.521 1365.037,147.797 1359.000 C 148.702 1339.202,152.104 1304.136,155.680 1277.750 L 158.357 1258.000 161.678 1258.000 C 163.505 1258.000,165.000 1258.196,165.000 1258.435 M173.000 1258.506 C 173.000 1258.785,171.664 1264.297,170.031 1270.756 C 165.612 1288.233,163.315 1304.084,160.972 1333.261 C 158.292 1366.650,158.393 1366.000,155.903 1366.000 C 153.638 1366.000,153.625 1366.644,156.581 1331.000 C 158.524 1307.569,164.380 1265.169,166.491 1259.250 C 166.907 1258.086,173.000 1257.390,173.000 1258.506 M179.710 1259.417 C 180.109 1259.739,176.907 1272.535,174.558 1280.000 C 172.279 1287.246,169.255 1308.157,167.039 1332.000 C 166.451 1338.325,165.527 1348.156,164.986 1353.847 C 164.445 1359.538,164.253 1364.600,164.560 1365.097 C 164.867 1365.594,163.920 1366.000,162.455 1366.000 L 159.792 1366.000 160.454 1357.750 C 164.450 1307.933,166.153 1294.361,170.966 1273.975 C 175.083 1256.534,174.592 1257.740,177.245 1258.555 C 178.485 1258.937,179.594 1259.324,179.710 1259.417 M857.866 1264.726 C 860.551 1278.381,864.179 1310.559,866.015 1337.000 C 867.104 1352.675,867.995 1365.838,867.997 1366.250 C 867.999 1366.662,867.377 1367.000,866.615 1367.000 C 865.673 1367.000,865.019 1365.163,864.568 1361.250 C 858.529 1308.861,854.150 1276.396,851.961 1267.776 C 850.883 1263.529,850.000 1259.846,850.000 1259.593 C 850.000 1259.064,855.191 1258.297,856.115 1258.690 C 856.453 1258.834,857.241 1261.550,857.866 1264.726 M863.391 1259.750 C 864.594 1263.757,868.128 1287.835,870.008 1304.824 C 872.048 1323.273,875.266 1365.067,874.690 1365.644 C 874.517 1365.816,873.294 1366.079,871.970 1366.228 C 869.719 1366.482,869.543 1366.144,869.245 1361.000 C 866.900 1320.549,862.026 1273.950,858.998 1263.053 C 857.638 1258.156,857.682 1258.000,860.433 1258.000 C 861.883 1258.000,863.077 1258.707,863.391 1259.750 M870.000 1258.593 C 870.000 1258.919,870.878 1263.532,871.951 1268.843 C 874.961 1283.742,876.818 1299.979,878.999 1330.471 C 881.540 1365.992,881.540 1366.000,879.019 1366.000 C 876.475 1366.000,876.495 1366.126,874.542 1338.205 C 872.745 1312.517,870.097 1288.770,867.014 1270.684 C 865.906 1264.185,865.000 1258.672,865.000 1258.434 C 865.000 1258.195,866.125 1258.000,867.500 1258.000 C 868.875 1258.000,870.000 1258.267,870.000 1258.593 M185.000 1260.579 C 185.000 1261.448,183.469 1268.535,181.599 1276.329 C 179.376 1285.591,177.124 1299.681,175.101 1317.000 C 172.496 1339.288,170.004 1363.357,170.001 1366.250 C 170.000 1366.662,169.100 1367.000,168.000 1367.000 C 165.487 1367.000,165.487 1367.266,168.017 1339.500 C 170.895 1307.911,173.627 1288.461,176.309 1280.469 C 177.596 1276.636,179.218 1270.237,179.915 1266.250 C 180.968 1260.224,181.504 1259.000,183.091 1259.000 C 184.164 1259.000,185.000 1259.692,185.000 1260.579 M191.639 1260.750 C 184.382 1286.382,179.033 1315.325,175.932 1345.741 C 174.768 1357.158,173.632 1366.687,173.408 1366.917 C 171.297 1369.073,172.051 1356.405,176.110 1321.500 C 179.285 1294.198,179.753 1291.309,183.684 1274.750 C 187.201 1259.931,187.562 1259.000,189.779 1259.000 C 191.545 1259.000,192.011 1259.438,191.639 1260.750 M844.719 1278.500 C 849.028 1297.905,852.547 1320.388,855.597 1348.000 C 856.539 1356.525,857.577 1363.816,857.905 1364.202 C 860.324 1367.053,852.125 1302.864,847.506 1282.780 C 844.457 1269.529,842.961 1263.166,842.326 1260.750 C 841.963 1259.370,842.499 1259.000,844.862 1259.000 C 847.617 1259.000,847.981 1259.424,849.388 1264.264 C 850.230 1267.159,851.608 1273.572,852.450 1278.514 C 854.219 1288.890,861.723 1348.425,862.661 1359.519 L 863.293 1367.000 859.147 1367.000 C 856.866 1367.000,855.000 1366.843,855.000 1366.651 C 855.000 1364.228,849.388 1325.010,847.480 1314.097 C 844.423 1296.614,842.308 1288.206,837.033 1272.557 C 832.751 1259.855,832.834 1258.706,838.000 1259.241 C 840.400 1259.490,840.668 1260.257,844.719 1278.500 M235.079 1263.583 C 235.127 1264.748,235.364 1264.985,235.683 1264.188 C 235.972 1263.466,235.936 1262.603,235.604 1262.271 C 235.272 1261.939,235.036 1262.529,235.079 1263.583"></path></svg>