<svg viewBox="0 0 1024 1536" version="1.1" xmlns="http://www.w3.org/2000/svg" id="svg">
  
  <defs>
    <style>
      .st0 {
        fill-rule: evenodd;
      }
    </style>
  </defs>
  <path d="M369.6,315.4c-12.7,5.6-19.5,9.2-20.2,10.8-.6,1.3-4.4,3.8-8.9,5.6-4.3,1.8-35.7,14.9-69.8,29-34.1,14.2-66.7,28.2-72.5,31.1-14.2,7.3-23.7,17-38.2,38.8-19.9,30.2-42.2,64.1-64.3,98.2-11.9,18.3-34.2,52.5-49.5,76-34.8,53.3-35.6,54.7-35.6,58.7s-3,2.5,113.4,83.6c20.3,14.1,40.3,28.1,44.6,31.1,11.8,8.3,11.6,8.3,30.7-11l16.3-16.5-.7,6.3c-.4,3.5-1.3,59.9-1.9,125.5-.7,65.6-1.7,169.4-2.4,230.8-1.1,103.3-1,111.7.8,113.7,1.9,2.1,12.4,2.1,300.9,2.1s299.1-.1,301-2c1.9-1.9,2-7.5,1.2-84.5-.4-45.3-1.3-137.4-1.9-204.6-.6-67.2-1.4-136.8-1.8-154.7l-.7-32.6,7.3,8c4,4.4,11.3,11.9,16.2,16.6,7.6,7.3,9.3,8.5,12.4,8.1,2.3-.3,22.9-13.9,60-39.9,66.8-46.6,95.9-67.3,102.9-72.9,7.9-6.4,7.5-7.5-15.4-42.4-10.8-16.4-42.5-65.1-70.5-108.1-68.4-105.3-70-107.8-77.6-115.1-3.6-3.5-10.5-8.6-15.2-11.3-7.4-4.2-44.4-20-135.5-58-10.5-4.4-18.1-8.3-19.9-10.2-3.5-3.7-36.9-18.7-41.8-18.7s-3.8.5-4.4,1c-2.2,2.1-17.7,6.9-29.8,9.3-67,13.4-153.9,10.2-197.7-7.3-4.2-1.7-8.7-3-9.9-3-1.2,0-10.9,3.8-21.4,8.5M419.1,326.2c48.8,11.7,118,12.9,171.9,2.8,12-2.2,31.3-6.9,35.9-8.7,1.9-.7,2,.3,2,12.6v13.4l-8.5,2.5c-49.9,14.8-114.2,18.3-174.5,9.4-15.8-2.3-41-7.8-47.6-10.3l-3.2-1.2v-27.9l6,2.3c3.3,1.3,11.3,3.6,17.8,5.1M385.3,335.2c0,14.3.4,16.3,3.8,26.5,11.9,34.6,34.5,61.2,65.2,76.5,19,9.5,35.8,13.1,60.7,12.9,16.1-.1,20.3-.5,29.9-3.1,21.6-5.7,39.1-15.8,56.2-32.2,11.9-11.4,20.2-23,27.3-38,7.8-16.4,10.2-26.8,10.4-43.8,0-7.9.4-14.3.7-14.3s6.5,2.7,13.7,6l13.2,6v9.2c0,11-2.4,23.2-7.2,37-16.6,47.3-56.3,85.1-103.9,98.8-14.8,4.3-30.3,5.9-50.1,5.1-25.7-.9-42.3-5.2-64.5-16.8-15.9-8.3-26.1-15.8-39.8-29.7-26.7-26.9-43.2-62.7-43.1-93.8v-9.7s13.2-6.1,13.2-6.1c7.2-3.3,13.4-6.1,13.7-6.1.3,0,.6,6.9.7,15.4M716.1,355.3c17.4,7.3,47.1,19.6,66,27.5,35.8,14.9,51,22,54.3,25.7,1.8,2,1.8,2.5-1.1,7-15.4,24.3-27.2,69.3-33.6,128-2,18.1-2,119.6,0,204.6.8,34.1,1.9,124.6,2.6,201.1.6,76.5,1.4,160.3,1.8,186.2l.6,47.1H218.3l.8-91.5c1.9-214.6,3.2-320.9,4.8-380.2,3.4-124.8,2-160.4-8.3-213.9-6.6-33.9-13.1-55.3-22.9-75.1l-5.9-11.9,2.8-2.3c4.8-4,14.9-8.9,35-17.1,10.6-4.3,41.9-17.3,69.6-28.9,27.6-11.6,51.1-21.3,52.1-21.6,1.6-.4,2,1.1,2.7,10.1,3.5,45.7,36.1,93.5,82.3,120.3,36.9,21.4,84.7,26.9,127.5,14.6,13.7-3.9,36-14.9,48.6-24,21.2-15.2,41.3-38.6,52.7-61.4,9.7-19.4,15.8-40.7,15.8-54.9v-6.3l4.4,1.9c2.4,1,18.6,7.8,35.9,15.1M625.5,359.1c-10.6,34.9-37.7,64.3-70.2,76.1-15.8,5.8-20.7,6.5-42.7,6.5-18,0-22.4-.4-30.4-2.6-10.3-2.8-28.1-11-36.2-16.6-13.3-9.1-28.7-25.6-36-38.3-4.1-7.2-12.6-26.2-12-26.8.2-.2,5.6.9,11.9,2.5,14.7,3.7,35.6,7.3,52.6,9.1l13.3,1.4v19.9c0,16.8.3,20.2,1.9,22,1.8,2,4.4,2.1,34.3,2.1s32.7-.4,33.7-1.4c1-1,1.4-7.5,1.4-22v-20.6l9.1-.8c19.1-1.7,56.9-8.7,65.8-12.3,4.3-1.7,4.6-1.6,3.5,1.9M539,388.8v17.3h-27.2s-27.2,0-27.2,0v-34.7h27.2s27.2,0,27.2,0v17.3M187,429.9c6.8,14.2,10.7,25.5,15.3,44.7,6.9,29.2,11.9,61.5,14.2,92.4,1.4,18.7.8,109.2-.9,150.6l-.8,18.5-4.9,6.3-4.9,6.3-80.5-56.2c-44.3-30.9-81.5-57.1-82.6-58.2-2-1.9-1.6-2.7,7-16.6,22.4-36.2,129.9-199.7,131.3-199.7s3.6,5.4,6.8,12M874.3,461.8c24.1,36.7,82.6,126.5,104.7,160.8l6.5,10.1-32.4,22.7c-17.8,12.5-54.6,38.3-81.8,57.4-27.2,19.1-50.1,34.9-50.9,35.2-.8.3-3.4-2.1-5.7-5.3-4.2-5.7-4.3-6.2-5.1-19.6-1.6-25.2-1.3-161.9.4-178,3.8-37,9.3-65.4,17.2-90,5.2-16.1,15.3-37.8,17.3-37.1.8.3,14.2,19.9,29.8,43.6M64.2,660.3c15.8,11.2,43.8,30.7,62.1,43.4,31.9,22.1,71.3,49.6,72.4,50.5.7.6-18.9,20.2-20.2,20.2s-136.3-94.1-151.9-106c-3.7-2.8-6.7-5.5-6.7-5.9,0-.9,14.4-22.4,15-22.4.2,0,13.4,9.1,29.2,20.2M997.1,651.1c4,6.1,7,11.7,6.5,12.4-1.4,2.3-20.4,15.9-89.3,64.1-61,42.7-67.4,46.9-69.7,45.6-1.4-.8-6.3-5.2-10.9-9.8l-8.4-8.4,26.1-18.2c39.9-27.8,112.3-78.7,125.4-88.2,6.4-4.7,12-8.5,12.3-8.6.4,0,3.9,4.9,8,11M806.7,1205.2v14.6H217.5v-3.9c0-2.2.3-8.7.8-14.6l.8-10.7h587.7v14.6" class="st0"></path>
</svg>